<svg id="svg" version="1.1" xmlns="http://www.w3.org/2000/svg" xmlns:xlink="http://www.w3.org/1999/xlink" width="400" height="400" viewBox="0, 0, 400,400"><g id="svgg"><path id="path0" d="M375.600 130.400 C 375.600 130.620,374.981 130.800,374.224 130.800 C 373.467 130.800,372.736 130.980,372.600 131.200 C 372.464 131.420,372.003 131.600,371.576 131.600 C 371.149 131.600,370.800 131.780,370.800 132.000 C 370.800 132.220,370.512 132.400,370.160 132.400 C 369.809 132.400,369.017 132.940,368.400 133.600 C 367.783 134.260,367.125 134.800,366.937 134.800 C 366.749 134.800,364.750 136.690,362.494 139.000 L 358.393 143.200 355.534 143.200 C 353.057 143.200,352.484 143.343,351.238 144.273 C 349.260 145.750,288.000 207.160,288.000 207.667 C 288.000 208.465,286.041 210.498,261.669 235.002 L 237.000 259.804 231.000 278.202 L 225.000 296.600 222.281 299.321 C 217.819 303.788,217.050 306.000,218.847 309.198 C 221.411 313.760,225.793 313.466,231.000 308.384 L 233.800 305.652 252.600 299.403 L 271.400 293.155 279.204 285.378 C 284.690 279.910,287.274 277.600,287.904 277.600 C 288.397 277.600,288.800 277.457,288.800 277.283 C 288.800 277.108,289.880 275.855,291.200 274.497 C 292.520 273.140,293.600 272.078,293.600 272.137 C 293.600 272.196,296.351 269.534,299.713 266.222 C 303.075 262.910,305.817 260.110,305.806 260.000 C 305.784 259.781,309.923 255.695,310.094 255.766 C 310.152 255.790,312.910 253.062,316.222 249.705 C 319.534 246.347,322.196 243.600,322.137 243.600 C 322.078 243.600,323.148 242.521,324.515 241.202 C 328.044 237.798,338.572 227.271,341.300 224.420 C 342.565 223.097,343.600 222.067,343.600 222.130 C 343.600 222.193,346.351 219.534,349.713 216.222 C 353.075 212.910,355.817 210.110,355.806 210.000 C 355.795 209.890,356.734 208.880,357.893 207.755 C 359.052 206.631,360.000 205.804,360.000 205.917 C 360.000 206.030,360.336 205.735,360.747 205.261 C 361.746 204.110,361.584 204.036,364.750 207.100 C 366.284 208.585,368.171 210.378,368.943 211.085 L 370.348 212.371 350.674 232.127 C 339.853 242.993,330.775 252.172,330.500 252.525 C 329.941 253.242,329.747 278.398,330.300 278.403 C 330.465 278.404,330.907 278.944,331.281 279.603 C 331.656 280.261,332.241 280.800,332.581 280.800 C 332.922 280.800,333.200 280.980,333.200 281.200 C 333.200 281.434,334.554 281.600,336.462 281.600 C 339.873 281.600,342.400 280.485,342.400 278.980 C 342.400 278.661,342.580 278.400,342.800 278.400 C 343.020 278.400,343.200 277.781,343.200 277.024 C 343.200 276.267,343.380 275.536,343.600 275.400 C 343.845 275.249,344.000 272.077,344.000 267.221 L 344.000 259.289 365.200 238.105 C 376.860 226.454,386.400 216.729,386.400 216.494 C 386.400 216.259,386.598 216.001,386.840 215.920 C 387.422 215.726,387.410 209.470,386.827 209.276 C 386.592 209.197,386.400 208.882,386.400 208.575 C 386.400 208.268,383.250 204.867,379.400 201.017 C 371.873 193.489,372.162 193.848,372.900 192.975 C 374.360 191.248,375.600 189.940,375.600 190.129 C 375.600 190.246,378.030 187.922,381.000 184.964 C 383.970 182.006,386.400 179.334,386.400 179.026 C 386.400 178.718,386.597 178.401,386.838 178.321 C 387.099 178.234,387.283 177.003,387.294 175.273 L 387.312 172.371 391.456 168.172 C 393.735 165.862,395.600 163.825,395.600 163.645 C 395.600 163.466,396.140 162.754,396.800 162.063 C 397.460 161.372,398.000 160.536,398.000 160.204 C 398.000 159.872,398.180 159.600,398.400 159.600 C 398.620 159.600,398.800 159.255,398.800 158.833 C 398.800 158.412,399.025 157.992,399.300 157.900 C 399.677 157.774,399.800 155.831,399.800 150.000 C 399.800 144.169,399.677 142.226,399.300 142.100 C 399.025 142.008,398.800 141.588,398.800 141.167 C 398.800 140.745,398.620 140.400,398.400 140.400 C 398.180 140.400,398.000 140.080,398.000 139.688 C 398.000 139.297,397.640 138.717,397.200 138.400 C 396.760 138.083,396.400 137.585,396.400 137.294 C 396.400 136.698,394.632 134.800,394.078 134.800 C 393.880 134.800,393.184 134.305,392.530 133.700 C 391.075 132.354,389.809 131.600,389.005 131.600 C 388.672 131.600,388.400 131.420,388.400 131.200 C 388.400 130.980,387.770 130.800,387.000 130.800 C 386.230 130.800,385.600 130.620,385.600 130.400 C 385.600 130.155,383.667 130.000,380.600 130.000 C 377.533 130.000,375.600 130.155,375.600 130.400 " stroke="none" fill="#fad283" fill-rule="evenodd"></path><path id="path1" d="M136.374 0.159 C 136.262 0.271,135.513 0.408,134.711 0.462 C 133.908 0.516,133.326 0.681,133.417 0.828 C 133.508 0.975,132.591 1.408,131.379 1.789 C 130.167 2.170,128.932 2.725,128.635 3.022 C 128.338 3.319,128.009 3.476,127.905 3.371 C 127.800 3.266,127.486 3.455,127.208 3.790 C 126.930 4.126,126.536 4.400,126.333 4.400 C 126.130 4.400,125.510 4.853,124.956 5.408 C 124.402 5.962,123.752 6.294,123.512 6.146 C 123.251 5.985,123.191 6.062,123.362 6.338 C 123.519 6.592,123.501 6.800,123.322 6.800 C 122.580 6.800,117.600 12.040,117.600 12.821 C 117.600 13.048,117.240 13.620,116.800 14.092 C 116.360 14.564,116.000 15.187,116.000 15.475 C 116.000 15.764,115.864 16.000,115.698 16.000 C 115.531 16.000,115.160 16.585,114.871 17.300 C 114.583 18.015,114.173 18.922,113.960 19.316 C 113.747 19.710,113.680 20.206,113.812 20.419 C 113.943 20.632,113.769 20.914,113.425 21.046 C 113.031 21.197,112.800 21.779,112.800 22.619 C 112.800 23.353,112.630 24.058,112.422 24.186 C 112.214 24.315,112.052 25.270,112.061 26.310 C 112.070 27.349,112.060 30.225,112.039 32.700 L 112.000 37.200 97.024 37.200 C 87.471 37.200,81.958 37.345,81.800 37.600 C 81.664 37.820,81.231 38.000,80.838 38.000 C 79.829 38.000,77.582 39.180,77.328 39.844 C 77.210 40.150,76.899 40.400,76.635 40.400 C 76.372 40.400,75.469 41.030,74.628 41.800 L 73.099 43.200 57.350 43.227 C 36.572 43.262,37.460 43.245,36.987 43.623 C 36.759 43.805,35.724 43.998,34.687 44.052 C 33.649 44.106,32.800 44.296,32.800 44.475 C 32.800 44.654,32.168 44.800,31.395 44.800 C 30.045 44.800,29.700 44.906,27.705 45.938 C 27.213 46.192,26.538 46.400,26.205 46.400 C 25.872 46.400,25.600 46.580,25.600 46.800 C 25.600 47.020,25.240 47.200,24.800 47.200 C 24.360 47.200,24.000 47.380,24.000 47.600 C 24.000 47.820,23.640 48.000,23.200 48.000 C 22.760 48.000,22.400 48.146,22.400 48.325 C 22.400 48.504,21.770 48.898,21.000 49.200 C 20.230 49.502,19.600 49.896,19.600 50.075 C 19.600 50.254,19.330 50.400,19.000 50.400 C 18.670 50.400,18.400 50.580,18.400 50.800 C 18.400 51.020,18.190 51.200,17.934 51.200 C 17.677 51.200,17.182 51.468,16.834 51.795 C 16.485 52.123,15.243 53.293,14.073 54.395 C 12.904 55.498,11.779 56.400,11.573 56.400 C 11.368 56.400,11.200 56.655,11.200 56.967 C 11.200 57.278,11.065 57.593,10.900 57.667 C 10.735 57.740,10.032 58.462,9.338 59.271 C 8.643 60.080,7.968 60.635,7.838 60.504 C 7.707 60.374,7.600 60.629,7.600 61.071 C 7.600 61.514,7.240 62.202,6.800 62.600 C 6.360 62.998,6.000 63.566,6.000 63.862 C 6.000 64.158,5.820 64.400,5.600 64.400 C 5.380 64.400,5.200 64.790,5.200 65.267 C 5.200 65.743,5.084 66.017,4.941 65.875 C 4.647 65.580,2.800 69.045,2.800 69.891 C 2.800 70.197,2.658 70.360,2.485 70.252 C 2.312 70.145,2.130 70.532,2.083 71.111 C 2.035 71.691,1.816 72.344,1.598 72.562 C 1.379 72.781,1.200 73.449,1.200 74.047 C 1.200 74.644,0.975 75.208,0.700 75.300 C 0.055 75.515,-0.045 368.654,0.600 369.115 C 0.820 369.272,1.061 369.850,1.135 370.400 C 1.209 370.950,1.434 371.571,1.635 371.780 C 1.836 371.989,2.000 372.585,2.000 373.104 C 2.000 373.631,2.177 373.938,2.400 373.800 C 2.624 373.662,2.800 373.971,2.800 374.501 C 2.800 375.022,3.160 375.836,3.600 376.308 C 4.040 376.780,4.400 377.444,4.400 377.783 C 4.400 378.122,4.580 378.400,4.800 378.400 C 5.020 378.400,5.200 378.760,5.200 379.200 C 5.200 379.640,5.380 380.000,5.600 380.000 C 5.820 380.000,6.000 380.270,6.000 380.600 C 6.000 380.930,6.180 381.200,6.400 381.200 C 6.620 381.200,6.800 381.430,6.800 381.712 C 6.800 381.993,7.160 382.483,7.600 382.800 C 8.040 383.117,8.400 383.613,8.400 383.902 C 8.400 384.191,8.946 384.961,9.614 385.613 C 10.281 386.266,10.747 386.800,10.648 386.800 C 10.549 386.800,11.038 387.388,11.734 388.107 C 12.430 388.826,13.063 389.378,13.140 389.334 C 13.217 389.290,13.796 389.782,14.426 390.427 C 15.057 391.072,15.767 391.600,16.005 391.600 C 16.242 391.600,16.890 392.053,17.444 392.608 C 17.998 393.162,18.587 393.531,18.753 393.429 C 18.919 393.327,19.307 393.593,19.615 394.021 C 19.924 394.450,20.497 394.800,20.888 394.800 C 21.280 394.800,21.600 394.947,21.600 395.126 C 21.600 395.592,24.731 397.200,25.638 397.200 C 26.057 397.200,26.400 397.380,26.400 397.600 C 26.400 397.820,26.861 398.000,27.424 398.000 C 28.021 398.000,28.342 398.171,28.194 398.410 C 28.055 398.635,28.089 398.794,28.270 398.763 C 29.214 398.599,30.821 398.842,30.647 399.123 C 30.094 400.019,254.643 400.194,256.539 399.300 C 258.536 398.359,259.401 398.032,260.200 397.916 C 260.640 397.852,261.090 397.710,261.200 397.600 C 261.678 397.122,263.239 396.400,263.795 396.400 C 264.128 396.400,264.400 396.242,264.400 396.049 C 264.400 395.855,264.940 395.473,265.600 395.200 C 266.260 394.927,266.800 394.545,266.800 394.351 C 266.800 394.158,267.120 394.000,267.512 394.000 C 267.903 394.000,268.483 393.640,268.800 393.200 C 269.117 392.760,269.530 392.400,269.717 392.400 C 269.904 392.400,270.285 392.175,270.563 391.900 C 270.841 391.625,271.570 391.040,272.183 390.600 C 272.796 390.160,273.501 389.570,273.749 389.290 C 273.997 389.009,275.410 387.499,276.890 385.935 C 278.369 384.371,279.504 382.968,279.411 382.818 C 279.319 382.668,279.593 382.293,280.021 381.985 C 280.450 381.676,280.800 381.103,280.800 380.712 C 280.800 380.320,280.958 380.000,281.151 380.000 C 281.345 380.000,281.727 379.460,282.000 378.800 C 282.273 378.140,282.655 377.600,282.849 377.600 C 283.042 377.600,283.200 377.240,283.200 376.800 C 283.200 376.360,283.380 376.000,283.600 376.000 C 283.820 376.000,284.000 375.640,284.000 375.200 C 284.000 374.760,284.180 374.400,284.400 374.400 C 284.620 374.400,284.800 373.860,284.800 373.200 C 284.800 372.540,284.952 372.000,285.137 372.000 C 285.536 372.000,286.400 369.283,286.400 368.030 C 286.400 367.533,286.578 367.263,286.810 367.406 C 287.035 367.545,287.194 367.511,287.163 367.330 C 286.938 366.036,287.265 362.793,287.600 363.000 C 287.866 363.164,288.000 348.871,288.000 320.424 C 288.000 286.257,287.898 277.600,287.496 277.600 C 287.219 277.600,283.500 281.096,279.232 285.368 L 271.472 293.136 263.936 295.621 L 256.400 298.106 256.400 325.927 C 256.400 353.351,256.388 353.781,255.542 356.173 C 253.502 361.944,249.189 366.237,243.366 368.292 C 241.087 369.097,52.690 369.614,47.037 368.831 C 39.214 367.747,32.306 360.904,31.181 353.122 C 30.696 349.770,30.683 93.736,31.168 90.800 C 32.179 84.671,36.141 79.116,41.160 76.789 C 41.732 76.524,42.513 76.148,42.895 75.953 C 43.277 75.759,43.941 75.600,44.371 75.600 C 44.801 75.600,45.264 75.420,45.400 75.200 C 45.556 74.948,50.004 74.800,57.424 74.800 L 69.200 74.800 69.200 84.574 C 69.200 99.268,71.203 105.344,77.165 108.738 C 83.030 112.076,77.044 111.800,143.600 111.800 C 206.828 111.800,204.832 111.857,208.266 109.953 C 212.765 107.460,215.074 104.739,217.223 99.400 C 217.947 97.603,218.116 95.327,218.273 85.300 L 218.437 74.800 230.195 74.800 C 237.602 74.800,242.044 74.948,242.200 75.200 C 242.336 75.420,242.771 75.600,243.167 75.600 C 247.038 75.600,255.600 84.147,255.600 88.011 C 255.600 88.419,255.780 88.864,256.000 89.000 C 256.264 89.163,256.400 114.737,256.400 164.424 C 256.400 205.771,256.496 239.600,256.614 239.600 C 257.192 239.600,287.614 208.680,287.802 207.901 C 288.623 204.509,287.611 77.200,286.763 77.200 C 286.563 77.200,286.400 76.606,286.400 75.880 C 286.400 75.154,286.221 74.381,286.002 74.162 C 285.784 73.944,285.565 73.291,285.517 72.711 C 285.470 72.132,285.288 71.745,285.115 71.852 C 284.942 71.960,284.800 71.587,284.800 71.024 C 284.800 70.461,284.620 70.000,284.400 70.000 C 284.180 70.000,284.000 69.640,284.000 69.200 C 284.000 68.760,283.820 68.400,283.600 68.400 C 283.380 68.400,283.200 67.984,283.200 67.475 C 283.200 66.967,282.840 66.164,282.400 65.692 C 281.960 65.220,281.600 64.646,281.600 64.417 C 281.600 64.188,281.420 64.000,281.200 64.000 C 280.980 64.000,280.800 63.629,280.800 63.176 C 280.800 62.723,280.620 62.464,280.400 62.600 C 280.180 62.736,280.000 62.555,280.000 62.198 C 280.000 61.841,279.460 61.094,278.800 60.539 C 278.140 59.983,277.600 59.373,277.600 59.183 C 277.600 58.735,272.903 54.040,271.413 53.000 C 270.783 52.560,270.041 51.975,269.763 51.700 C 269.485 51.425,269.092 51.200,268.891 51.200 C 268.689 51.200,268.198 50.840,267.800 50.400 C 267.402 49.960,266.916 49.600,266.721 49.600 C 266.526 49.600,265.980 49.240,265.508 48.800 C 265.036 48.360,264.233 48.000,263.725 48.000 C 263.216 48.000,262.800 47.820,262.800 47.600 C 262.800 47.380,262.440 47.200,262.000 47.200 C 261.560 47.200,261.200 47.020,261.200 46.800 C 261.200 46.580,260.840 46.400,260.400 46.400 C 259.960 46.400,259.600 46.190,259.600 45.933 C 259.600 45.677,259.496 45.570,259.370 45.697 C 259.243 45.823,258.568 45.752,257.870 45.539 C 254.579 44.533,252.260 44.000,251.180 44.000 C 250.531 44.000,250.000 43.851,250.000 43.668 C 250.000 43.486,249.685 43.338,249.300 43.340 C 248.915 43.341,240.943 43.311,231.583 43.271 L 214.567 43.200 213.174 41.900 C 212.408 41.185,211.291 40.345,210.691 40.032 C 210.091 39.720,209.600 39.315,209.600 39.132 C 209.600 38.950,209.240 38.800,208.800 38.800 C 208.360 38.800,208.000 38.620,208.000 38.400 C 208.000 38.180,207.449 38.000,206.776 38.000 C 206.063 38.000,205.656 37.833,205.800 37.600 C 205.963 37.336,200.804 37.200,190.624 37.200 L 175.200 37.200 175.200 30.624 C 175.200 26.319,175.050 23.954,174.765 23.778 C 174.526 23.631,174.416 23.182,174.521 22.781 C 174.626 22.380,174.445 21.672,174.120 21.207 C 173.795 20.743,173.629 20.101,173.752 19.781 C 173.874 19.462,173.809 19.200,173.606 19.200 C 173.403 19.200,173.065 18.575,172.854 17.811 C 172.643 17.048,172.095 15.895,171.635 15.250 C 171.176 14.604,170.799 13.834,170.799 13.538 C 170.798 13.242,170.268 12.645,169.620 12.211 C 168.972 11.777,168.337 11.004,168.209 10.494 C 168.081 9.985,167.802 9.675,167.588 9.807 C 167.375 9.939,167.200 9.884,167.200 9.685 C 167.200 9.244,165.790 7.576,165.330 7.474 C 165.149 7.433,165.045 7.265,165.100 7.100 C 165.155 6.935,164.919 6.800,164.576 6.800 C 164.233 6.800,164.063 6.622,164.197 6.405 C 164.332 6.187,164.193 6.105,163.889 6.221 C 163.585 6.338,162.995 5.977,162.574 5.417 C 162.154 4.857,161.508 4.400,161.138 4.400 C 160.769 4.400,160.407 4.259,160.333 4.086 C 160.147 3.649,154.459 0.905,153.000 0.549 C 151.598 0.207,136.677 -0.143,136.374 0.159 M116.400 132.458 C 115.630 132.899,108.879 139.366,101.398 146.830 C 93.917 154.293,87.617 160.398,87.398 160.396 C 87.179 160.394,83.490 156.884,79.200 152.597 C 74.910 148.309,71.085 144.801,70.700 144.801 C 70.315 144.800,70.000 144.620,70.000 144.400 C 70.000 144.180,69.471 144.000,68.824 144.000 C 68.177 144.000,67.536 144.180,67.400 144.400 C 67.264 144.620,66.892 144.800,66.573 144.800 C 65.715 144.800,63.600 146.822,63.600 147.643 C 63.600 148.033,63.420 148.464,63.200 148.600 C 62.603 148.969,62.716 150.509,63.447 151.975 C 64.350 153.785,84.599 174.000,85.509 174.000 C 85.911 174.000,86.460 174.220,86.730 174.490 C 87.117 174.877,87.385 174.877,88.005 174.490 C 88.436 174.220,89.107 174.000,89.495 173.999 C 90.397 173.998,124.000 140.418,124.000 139.517 C 124.000 139.149,124.180 138.736,124.400 138.600 C 124.620 138.464,124.800 137.924,124.800 137.400 C 124.800 136.876,124.620 136.336,124.400 136.200 C 124.180 136.064,124.000 135.695,124.000 135.381 C 124.000 132.818,119.078 130.925,116.400 132.458 M160.923 138.279 C 155.810 139.272,155.675 146.916,160.733 149.030 C 162.764 149.878,218.436 149.878,220.467 149.030 C 222.128 148.336,224.000 146.532,224.000 145.625 C 224.000 145.259,224.220 144.740,224.490 144.470 C 224.877 144.083,224.877 143.815,224.490 143.195 C 224.220 142.764,224.000 142.106,224.000 141.734 C 224.000 140.759,221.430 138.546,219.956 138.251 C 218.582 137.976,162.345 138.003,160.923 138.279 M136.600 163.200 C 136.464 163.420,136.017 163.600,135.607 163.600 C 133.785 163.600,130.796 168.556,131.932 169.692 C 132.189 169.949,132.400 170.450,132.400 170.804 C 132.400 171.690,134.730 174.000,135.624 174.000 C 136.025 174.000,136.464 174.180,136.600 174.400 C 136.762 174.662,150.996 174.800,178.000 174.800 C 205.004 174.800,219.238 174.662,219.400 174.400 C 219.536 174.180,220.015 174.000,220.464 174.000 C 221.493 174.000,224.000 171.533,224.000 170.520 C 224.000 170.102,224.173 169.587,224.385 169.375 C 225.375 168.385,222.362 163.600,220.749 163.600 C 220.363 163.600,219.936 163.420,219.800 163.200 C 219.638 162.938,205.337 162.800,178.200 162.800 C 151.063 162.800,136.762 162.938,136.600 163.200 M116.400 213.664 C 115.630 214.109,108.909 220.576,101.466 228.036 C 94.022 235.496,87.722 241.599,87.466 241.598 C 87.209 241.597,83.490 238.090,79.200 233.803 C 74.910 229.517,71.096 226.008,70.724 226.005 C 70.352 226.002,69.936 225.820,69.800 225.600 C 69.664 225.380,69.124 225.200,68.600 225.200 C 68.076 225.200,67.536 225.380,67.400 225.600 C 67.264 225.820,66.886 226.000,66.560 226.000 C 65.344 226.000,62.800 229.519,62.800 231.200 C 62.800 233.319,83.464 255.200,85.465 255.200 C 85.891 255.200,86.438 255.398,86.680 255.640 C 88.004 256.964,89.886 255.359,107.099 238.223 C 116.393 228.970,123.998 221.096,123.999 220.724 C 124.000 220.352,124.180 219.936,124.400 219.800 C 124.620 219.664,124.800 219.124,124.800 218.600 C 124.800 218.076,124.620 217.536,124.400 217.400 C 124.180 217.264,124.000 216.886,124.000 216.560 C 124.000 214.062,119.007 212.160,116.400 213.664 M160.502 219.796 C 155.590 221.931,155.643 228.155,160.591 230.222 C 162.743 231.121,218.483 231.080,220.739 230.178 C 222.493 229.476,224.000 227.950,224.000 226.877 C 224.000 226.483,224.220 225.940,224.490 225.670 C 224.877 225.283,224.877 225.015,224.490 224.395 C 224.220 223.964,224.000 223.340,224.000 223.008 C 224.000 222.039,222.419 220.494,220.739 219.822 C 218.515 218.932,162.545 218.907,160.502 219.796 M136.600 244.400 C 136.464 244.620,136.017 244.800,135.607 244.800 C 133.032 244.800,131.063 249.405,132.454 252.174 C 133.313 253.885,133.903 254.394,136.495 255.661 C 136.877 255.847,155.507 255.997,177.895 255.994 C 221.776 255.987,220.536 256.046,222.691 253.891 C 225.798 250.784,224.506 246.068,220.129 244.545 C 218.203 243.874,137.012 243.733,136.600 244.400 M116.471 294.836 C 115.741 295.265,109.026 301.744,101.550 309.233 C 94.003 316.793,87.702 322.795,87.385 322.725 C 87.071 322.656,83.346 319.172,79.107 314.982 C 70.218 306.197,69.552 305.787,66.569 307.277 C 63.933 308.593,61.717 312.884,63.200 313.800 C 63.420 313.936,63.600 314.353,63.600 314.726 C 63.600 315.708,84.455 336.400,85.445 336.400 C 85.882 336.400,86.434 336.594,86.671 336.831 C 88.075 338.235,90.004 336.596,107.239 319.365 C 116.458 310.149,124.000 302.303,124.000 301.928 C 124.000 301.554,124.180 301.136,124.400 301.000 C 125.689 300.203,123.655 296.290,121.250 294.939 C 119.254 293.818,118.244 293.796,116.471 294.836 M160.665 300.967 C 156.627 302.752,155.616 307.413,158.652 310.249 C 160.533 312.006,160.455 312.000,181.200 312.000 C 191.485 312.000,200.465 311.887,201.156 311.749 C 203.631 311.254,206.877 306.717,205.640 305.480 C 205.398 305.238,205.200 304.718,205.200 304.325 C 205.200 303.227,203.980 301.994,202.067 301.158 C 199.883 300.203,162.779 300.032,160.665 300.967 M136.600 325.600 C 136.464 325.820,136.025 326.000,135.624 326.000 C 134.730 326.000,132.400 328.310,132.400 329.196 C 132.400 329.550,132.189 330.051,131.932 330.308 C 130.796 331.444,133.785 336.400,135.607 336.400 C 136.017 336.400,136.464 336.580,136.600 336.800 C 137.012 337.467,218.203 337.326,220.129 336.655 C 222.753 335.742,225.545 331.785,224.385 330.625 C 224.173 330.413,224.000 329.898,224.000 329.480 C 224.000 328.446,221.718 326.303,219.972 325.696 C 218.135 325.058,136.993 324.965,136.600 325.600 " stroke="none" fill="#c18735" fill-rule="evenodd"></path><path id="path2" d="M46.200 75.696 C 44.480 76.121,43.076 76.639,41.800 77.320 C 41.360 77.555,40.531 77.984,39.957 78.274 C 37.084 79.727,33.249 85.036,32.221 88.984 C 31.280 92.595,31.273 350.976,32.213 354.586 C 33.881 360.990,39.007 366.118,45.406 367.785 C 48.998 368.720,238.602 368.720,242.194 367.785 C 248.673 366.097,253.831 360.755,255.427 354.079 C 255.974 351.789,256.314 298.400,255.781 298.400 C 255.660 298.400,250.665 300.033,244.681 302.029 L 233.800 305.657 230.800 308.584 C 225.696 313.564,221.442 313.815,218.897 309.287 C 217.052 306.004,217.744 303.945,222.261 299.281 L 225.000 296.452 231.000 278.139 L 237.000 259.826 246.500 250.253 L 256.000 240.680 256.000 166.345 C 256.000 86.636,256.097 90.311,253.869 85.600 C 250.025 77.474,244.586 75.200,228.994 75.200 L 218.800 75.200 218.796 86.300 C 218.790 100.375,218.370 102.010,213.468 107.012 C 210.708 109.828,209.162 110.799,205.546 111.987 C 201.651 113.265,85.949 113.265,82.054 111.987 C 75.180 109.730,70.801 105.125,68.945 98.200 C 68.563 96.771,68.408 93.201,68.405 85.700 L 68.400 75.200 58.100 75.251 C 52.435 75.278,47.080 75.479,46.200 75.696 M120.643 131.200 C 124.053 131.200,126.594 137.719,124.390 140.815 C 122.941 142.849,91.900 173.670,90.518 174.446 C 88.977 175.312,86.020 175.441,84.695 174.700 C 83.340 173.943,63.625 154.358,62.971 153.120 C 60.722 148.864,63.721 143.600,68.395 143.600 C 71.597 143.600,71.468 143.507,79.925 151.900 C 83.971 155.915,87.392 159.200,87.528 159.200 C 87.664 159.200,94.081 152.913,101.787 145.230 C 116.316 130.745,116.677 130.450,119.133 131.066 C 119.426 131.140,120.105 131.200,120.643 131.200 M221.305 137.700 C 226.759 140.748,226.538 147.819,220.926 149.820 C 218.963 150.521,163.150 150.659,160.667 149.970 C 154.939 148.379,154.335 140.744,159.703 137.775 C 161.015 137.049,220.012 136.977,221.305 137.700 M221.683 162.900 C 226.256 165.521,226.431 171.862,221.998 174.353 L 220.491 175.200 178.040 175.200 C 133.905 175.200,135.188 175.246,133.099 173.600 C 130.085 171.226,130.654 165.297,134.096 163.198 C 135.727 162.203,219.968 161.917,221.683 162.900 M313.986 181.100 L 311.800 183.400 314.100 181.214 C 315.365 180.011,316.400 178.976,316.400 178.914 C 316.400 178.617,316.018 178.963,313.986 181.100 M297.387 197.700 L 295.000 200.200 297.500 197.813 C 298.875 196.499,300.000 195.374,300.000 195.313 C 300.000 195.017,299.605 195.378,297.387 197.700 M122.663 213.421 C 125.327 215.453,126.107 219.599,124.304 222.138 C 123.133 223.788,92.581 254.341,90.938 255.505 C 89.499 256.526,86.199 256.737,84.695 255.905 C 83.356 255.165,63.637 235.569,62.973 234.320 C 60.644 229.933,63.796 224.800,68.818 224.800 C 71.515 224.800,71.913 225.101,80.296 233.495 C 84.089 237.293,87.330 240.400,87.499 240.400 C 87.667 240.400,93.744 234.442,101.002 227.159 C 108.261 219.877,114.740 213.578,115.400 213.161 C 117.271 211.979,120.945 212.110,122.663 213.421 M221.251 218.965 C 226.508 221.167,226.508 228.833,221.251 231.035 C 218.861 232.036,161.673 231.858,159.684 230.843 C 154.602 228.249,154.665 221.779,159.800 219.066 C 161.512 218.161,219.107 218.067,221.251 218.965 M222.137 244.469 C 226.281 247.185,226.281 252.815,222.137 255.531 L 220.811 256.400 178.106 256.371 C 130.510 256.338,134.092 256.553,132.100 253.611 C 130.157 250.741,131.209 246.106,134.200 244.359 C 135.322 243.704,138.171 243.657,178.106 243.629 L 220.811 243.600 222.137 244.469 M121.696 294.051 C 125.069 295.857,126.358 300.435,124.310 303.338 C 123.132 305.009,92.560 335.590,90.938 336.721 C 87.005 339.462,85.458 338.534,72.900 325.900 L 62.400 315.337 62.400 312.849 C 62.400 308.474,64.676 305.998,68.695 306.001 C 71.405 306.004,72.290 306.669,80.174 314.636 C 84.010 318.512,87.337 321.620,87.568 321.542 C 87.799 321.464,94.065 315.348,101.494 307.951 C 108.922 300.554,115.360 294.305,115.800 294.063 C 116.852 293.486,120.625 293.478,121.696 294.051 M202.298 300.215 C 207.805 302.516,207.921 309.273,202.505 312.300 C 201.077 313.098,161.354 313.015,159.741 312.210 C 154.517 309.604,154.824 302.121,160.234 300.193 C 162.672 299.324,200.213 299.344,202.298 300.215 M222.187 325.700 C 226.445 328.485,226.178 334.524,221.683 337.100 C 219.968 338.083,135.727 337.797,134.096 336.802 C 129.843 334.209,130.127 328.117,134.632 325.324 C 135.213 324.963,145.797 324.841,178.106 324.824 L 220.811 324.800 222.187 325.700 " stroke="none" fill="#dcecfb" fill-rule="evenodd"></path><path id="path3" d="M68.884 85.200 C 68.803 96.649,68.986 98.119,70.994 102.224 C 72.004 104.289,75.517 108.617,75.884 108.250 C 75.984 108.150,75.361 107.342,74.499 106.454 C 70.283 102.110,69.544 99.192,69.221 85.600 L 68.959 74.600 68.884 85.200 M218.354 85.200 C 218.065 97.676,218.046 97.814,216.018 102.042 C 214.340 105.538,210.956 108.886,207.864 110.109 C 207.435 110.278,207.192 110.525,207.324 110.657 C 207.773 111.107,211.394 108.661,213.468 106.507 C 218.014 101.785,218.908 97.993,218.727 84.200 L 218.600 74.600 218.354 85.200 M36.181 80.500 L 34.600 82.200 36.300 80.619 C 37.881 79.148,38.184 78.800,37.881 78.800 C 37.816 78.800,37.051 79.565,36.181 80.500 M30.998 221.800 C 30.998 293.300,31.044 322.610,31.100 286.932 C 31.156 251.255,31.156 192.755,31.100 156.932 C 31.044 121.110,30.998 150.300,30.998 221.800 M76.400 108.583 C 76.400 108.943,80.041 110.892,80.275 110.658 C 80.407 110.526,80.174 110.295,79.757 110.144 C 79.341 109.993,78.522 109.539,77.938 109.135 C 76.884 108.405,76.400 108.232,76.400 108.583 M81.000 111.200 C 81.136 111.420,81.642 111.597,82.124 111.594 C 82.836 111.589,82.888 111.515,82.400 111.200 C 81.612 110.691,80.685 110.691,81.000 111.200 M204.800 111.325 C 204.042 111.685,189.197 111.800,143.515 111.800 C 110.358 111.800,83.538 111.922,83.915 112.072 C 84.292 112.221,111.060 112.354,143.400 112.367 C 202.954 112.391,205.394 112.339,206.708 111.025 C 207.100 110.633,205.841 110.831,204.800 111.325 M116.170 132.008 C 115.139 132.518,109.643 137.739,101.223 146.207 C 93.898 153.573,87.700 159.600,87.449 159.600 C 87.197 159.600,83.754 156.348,79.796 152.373 C 72.502 145.047,70.000 143.011,70.000 144.400 C 70.000 144.620,70.315 144.800,70.700 144.801 C 71.085 144.801,74.910 148.309,79.200 152.597 C 83.490 156.884,87.179 160.394,87.398 160.396 C 87.617 160.398,93.917 154.294,101.398 146.831 C 114.182 134.077,117.002 131.600,118.737 131.600 C 120.587 131.600,124.000 134.052,124.000 135.381 C 124.000 135.695,124.180 136.064,124.400 136.200 C 125.063 136.610,124.852 135.578,123.985 134.176 C 122.370 131.563,118.973 130.620,116.170 132.008 M159.607 138.452 C 158.312 139.241,157.118 140.452,157.378 140.711 C 157.440 140.773,158.048 140.302,158.731 139.665 C 160.540 137.975,160.062 138.000,190.600 138.000 C 221.138 138.000,220.660 137.975,222.469 139.665 C 223.785 140.894,224.248 141.027,223.460 139.950 C 221.668 137.500,223.117 137.603,190.600 137.603 C 161.133 137.603,160.994 137.607,159.607 138.452 M124.292 138.642 C 124.131 138.802,124.000 139.218,123.999 139.567 C 123.997 140.592,90.348 174.000,89.317 174.000 C 88.839 174.000,88.336 174.180,88.200 174.400 C 87.881 174.915,88.460 174.908,89.874 174.378 C 91.175 173.890,123.357 141.964,124.252 140.273 C 124.838 139.166,124.864 138.069,124.292 138.642 M156.643 141.833 C 155.918 143.720,156.515 146.137,158.150 147.935 C 160.060 150.036,159.493 150.000,190.653 150.000 C 223.490 150.000,222.078 150.134,223.934 146.833 C 224.853 145.197,225.063 144.190,224.400 144.600 C 224.180 144.736,224.000 145.172,224.000 145.569 C 224.000 146.525,222.169 148.319,220.467 149.030 C 218.436 149.878,162.764 149.878,160.733 149.030 C 157.846 147.823,156.466 145.370,157.045 142.473 C 157.312 141.142,157.061 140.743,156.643 141.833 M224.006 141.876 C 224.003 142.358,224.180 142.864,224.400 143.000 C 224.909 143.315,224.909 142.388,224.400 141.600 C 224.085 141.112,224.011 141.164,224.006 141.876 M65.324 144.831 C 63.851 145.774,62.260 148.752,62.516 150.087 C 62.672 150.902,62.697 150.885,62.746 149.924 C 62.775 149.332,62.980 148.736,63.200 148.600 C 63.420 148.464,63.600 148.033,63.600 147.643 C 63.600 146.822,65.715 144.800,66.573 144.800 C 66.892 144.800,67.264 144.620,67.400 144.400 C 67.815 143.729,66.674 143.966,65.324 144.831 M62.999 152.050 C 63.155 152.572,64.389 154.158,65.742 155.573 C 70.747 160.811,84.077 173.814,84.924 174.285 C 85.994 174.880,86.937 174.945,86.600 174.400 C 86.464 174.180,85.997 174.000,85.562 174.000 C 84.654 174.000,63.600 153.106,63.600 152.206 C 63.600 151.898,63.401 151.524,63.157 151.374 C 62.854 151.186,62.804 151.400,62.999 152.050 M157.731 162.700 C 169.132 162.759,187.672 162.759,198.931 162.700 C 210.189 162.641,200.860 162.593,178.200 162.593 C 155.540 162.593,146.329 162.641,157.731 162.700 M135.000 163.177 C 131.402 164.645,130.294 169.811,132.949 172.738 C 134.247 174.168,137.322 175.569,136.600 174.400 C 136.464 174.180,136.025 174.000,135.624 174.000 C 134.730 174.000,132.400 171.690,132.400 170.804 C 132.400 170.450,132.189 169.949,131.932 169.692 C 130.796 168.556,133.785 163.600,135.607 163.600 C 136.017 163.600,136.464 163.420,136.600 163.200 C 136.892 162.728,136.127 162.717,135.000 163.177 M219.800 163.200 C 219.936 163.420,220.361 163.600,220.745 163.600 C 221.699 163.600,223.828 165.933,224.213 167.400 C 224.440 168.266,224.575 168.403,224.695 167.890 C 224.935 166.874,223.580 164.753,222.019 163.701 C 220.648 162.777,219.359 162.486,219.800 163.200 M224.292 169.442 C 224.131 169.602,224.000 170.081,224.000 170.507 C 224.000 171.530,221.499 174.000,220.464 174.000 C 220.015 174.000,219.520 174.206,219.364 174.458 C 218.954 175.122,221.148 174.542,222.400 173.656 C 223.467 172.901,224.960 170.280,224.725 169.575 C 224.647 169.341,224.452 169.281,224.292 169.442 M118.600 212.668 C 119.948 212.963,122.880 214.543,123.089 215.086 C 123.197 215.369,123.448 215.600,123.646 215.600 C 123.845 215.600,123.780 215.235,123.503 214.789 C 122.873 213.774,120.068 212.385,118.774 212.446 C 117.970 212.485,117.939 212.523,118.600 212.668 M116.139 213.198 C 115.666 213.389,109.138 219.677,101.633 227.173 C 94.128 234.668,87.764 240.800,87.490 240.800 C 87.216 240.800,83.754 237.548,79.796 233.573 C 75.838 229.598,72.114 226.088,71.520 225.773 C 70.265 225.108,69.445 225.025,69.800 225.600 C 69.936 225.820,70.352 226.002,70.724 226.005 C 71.096 226.008,74.910 229.517,79.200 233.803 C 83.490 238.090,87.205 241.597,87.456 241.598 C 87.706 241.599,94.203 235.300,101.892 227.600 C 109.582 219.900,116.161 213.600,116.513 213.600 C 116.865 213.600,117.264 213.420,117.400 213.200 C 117.694 212.725,117.313 212.724,116.139 213.198 M159.853 219.604 C 158.381 220.339,157.076 221.610,157.430 221.964 C 157.521 222.054,157.931 221.741,158.342 221.267 C 160.157 219.174,159.755 219.199,190.687 219.209 C 221.689 219.218,222.232 219.255,223.049 221.383 C 223.179 221.722,223.448 222.000,223.646 222.000 C 224.374 222.000,223.003 220.436,221.568 219.630 C 219.337 218.376,162.361 218.352,159.853 219.604 M124.292 219.842 C 124.131 220.002,124.000 220.418,123.999 220.767 C 123.997 221.795,90.407 255.058,89.053 255.373 C 88.422 255.519,88.008 255.742,88.134 255.868 C 89.066 256.799,91.548 254.604,107.128 239.075 C 116.218 230.014,123.924 222.093,124.252 221.473 C 124.838 220.366,124.864 219.269,124.292 219.842 M156.643 223.033 C 156.297 223.933,156.353 226.507,156.731 227.102 C 156.908 227.382,157.050 226.449,157.050 225.002 C 157.050 222.214,157.017 222.056,156.643 223.033 M224.006 223.076 C 224.003 223.558,224.180 224.064,224.400 224.200 C 224.909 224.515,224.909 223.588,224.400 222.800 C 224.085 222.312,224.011 222.364,224.006 223.076 M224.292 225.842 C 224.131 226.002,224.005 226.508,224.012 226.967 C 224.023 227.736,224.056 227.745,224.440 227.085 C 224.888 226.316,224.773 225.360,224.292 225.842 M64.280 227.029 C 63.120 228.189,62.243 230.421,62.524 231.497 C 62.665 232.037,62.718 231.994,62.754 231.312 C 62.810 230.236,64.221 227.588,65.102 226.904 C 65.454 226.631,65.647 226.314,65.531 226.198 C 65.416 226.082,64.853 226.456,64.280 227.029 M157.694 228.802 C 159.210 231.230,158.803 231.200,190.600 231.200 C 218.755 231.200,219.659 231.176,221.307 230.402 C 222.867 229.669,224.492 228.000,223.646 228.000 C 223.448 228.000,223.179 228.278,223.049 228.617 C 222.232 230.745,221.689 230.782,190.687 230.791 C 159.887 230.801,160.149 230.817,158.398 228.797 C 157.502 227.765,157.048 227.768,157.694 228.802 M63.001 233.250 C 63.361 234.442,63.882 235.003,74.527 245.687 C 79.327 250.504,83.827 254.794,84.527 255.221 C 85.890 256.052,87.005 256.256,86.600 255.600 C 86.464 255.380,85.974 255.200,85.511 255.200 C 84.522 255.200,63.600 234.441,63.600 233.459 C 63.600 233.123,63.401 232.724,63.157 232.574 C 62.854 232.386,62.805 232.599,63.001 233.250 M134.600 244.744 C 131.074 246.922,130.332 251.053,132.949 253.938 C 133.991 255.087,135.887 256.111,136.527 255.871 C 136.797 255.770,136.656 255.574,136.200 255.417 C 133.005 254.314,131.162 251.340,132.034 248.696 C 132.643 246.851,134.524 244.800,135.607 244.800 C 136.017 244.800,136.464 244.620,136.600 244.400 C 137.000 243.754,135.897 243.943,134.600 244.744 M219.600 244.400 C 219.930 244.613,220.480 244.791,220.822 244.794 C 221.715 244.803,223.844 247.191,224.213 248.600 C 224.440 249.466,224.575 249.603,224.695 249.090 C 225.086 247.430,221.804 243.992,219.841 244.006 C 219.151 244.011,219.108 244.082,219.600 244.400 M224.160 251.499 C 223.862 252.992,221.832 254.990,220.200 255.399 C 219.540 255.564,219.234 255.784,219.520 255.889 C 221.394 256.576,225.945 251.811,224.651 250.517 C 224.516 250.383,224.295 250.824,224.160 251.499 M115.800 294.745 C 115.140 295.153,108.632 301.452,101.339 308.743 C 94.045 316.034,87.837 322.000,87.542 322.000 C 87.248 322.000,83.638 318.633,79.519 314.519 C 75.400 310.404,71.935 307.132,71.819 307.247 C 71.539 307.528,86.659 322.565,87.381 322.724 C 87.691 322.792,94.254 316.537,101.965 308.824 C 109.675 301.111,116.247 294.800,116.568 294.800 C 116.890 294.800,117.264 294.620,117.400 294.400 C 117.780 293.785,117.125 293.926,115.800 294.745 M120.065 294.182 C 120.210 294.336,120.921 294.780,121.644 295.168 C 122.368 295.556,123.306 296.540,123.728 297.355 C 124.151 298.170,124.579 298.755,124.678 298.655 C 124.975 298.359,123.747 296.264,122.738 295.346 C 121.894 294.578,119.425 293.502,120.065 294.182 M159.766 300.833 C 157.096 302.130,155.436 306.417,156.836 308.400 C 157.154 308.850,157.201 308.642,157.025 307.573 C 156.522 304.510,157.828 302.184,160.733 300.970 C 163.110 299.977,199.746 300.143,202.067 301.158 C 204.013 302.008,205.200 303.230,205.200 304.381 C 205.200 304.805,205.406 305.280,205.658 305.436 C 206.310 305.839,205.745 303.752,204.879 302.560 C 203.039 300.026,202.775 299.998,181.104 300.020 C 162.294 300.039,161.326 300.076,159.766 300.833 M124.267 301.067 C 124.120 301.213,124.000 301.620,124.000 301.971 C 124.000 303.074,90.720 336.033,89.014 336.620 C 88.204 336.898,87.419 337.247,87.271 337.396 C 86.873 337.793,89.240 337.170,90.400 336.572 C 91.913 335.791,124.275 303.139,124.595 302.070 C 124.885 301.100,124.725 300.609,124.267 301.067 M65.510 307.282 C 63.865 308.236,62.240 311.098,62.523 312.543 C 62.689 313.389,62.692 313.388,62.746 312.511 C 62.853 310.758,64.655 308.236,66.460 307.313 C 67.417 306.823,67.930 306.422,67.600 306.420 C 67.270 306.419,66.329 306.807,65.510 307.282 M69.600 306.800 C 70.388 307.309,71.315 307.309,71.000 306.800 C 70.864 306.580,70.358 306.403,69.876 306.406 C 69.164 306.411,69.112 306.485,69.600 306.800 M205.393 307.800 C 204.355 311.878,203.654 312.000,181.200 312.000 C 160.607 312.000,160.505 311.992,158.731 310.335 C 157.415 309.106,156.952 308.973,157.740 310.050 C 159.477 312.426,159.183 312.397,181.165 312.399 L 201.330 312.400 203.013 311.414 C 204.680 310.437,206.243 308.073,205.877 307.082 C 205.779 306.817,205.561 307.140,205.393 307.800 M62.800 314.087 C 62.800 315.442,82.220 335.443,84.660 336.601 C 86.114 337.292,86.957 337.378,86.600 336.800 C 86.464 336.580,85.970 336.400,85.501 336.400 C 84.459 336.400,63.600 315.758,63.600 314.726 C 63.600 314.353,63.420 313.936,63.200 313.800 C 62.980 313.664,62.800 313.793,62.800 314.087 M134.600 325.944 C 130.981 328.180,130.315 332.603,133.167 335.460 C 134.516 336.810,137.271 337.886,136.600 336.800 C 136.464 336.580,136.017 336.400,135.607 336.400 C 133.785 336.400,130.796 331.444,131.932 330.308 C 132.189 330.051,132.400 329.550,132.400 329.196 C 132.400 328.310,134.730 326.000,135.624 326.000 C 136.025 326.000,136.464 325.820,136.600 325.600 C 137.000 324.954,135.897 325.143,134.600 325.944 M219.600 325.600 C 219.930 325.813,220.443 325.991,220.740 325.994 C 221.585 326.003,224.000 328.628,224.000 329.536 C 224.000 329.985,224.206 330.480,224.458 330.636 C 225.063 331.010,224.569 328.946,223.751 327.681 C 223.015 326.543,220.871 325.201,219.800 325.208 C 219.137 325.211,219.103 325.279,219.600 325.600 M224.195 332.663 C 223.884 334.067,221.937 336.107,220.400 336.640 C 219.850 336.830,200.860 337.081,178.200 337.197 L 137.000 337.407 177.800 337.501 C 204.925 337.564,219.099 337.457,220.088 337.182 C 222.690 336.460,225.286 333.483,224.678 331.920 C 224.566 331.634,224.349 331.968,224.195 332.663 M250.581 363.700 L 249.000 365.400 250.700 363.819 C 252.281 362.348,252.584 362.000,252.281 362.000 C 252.216 362.000,251.451 362.765,250.581 363.700 M95.900 369.100 C 122.135 369.157,165.065 369.157,191.300 369.100 C 217.535 369.043,196.070 368.997,143.600 368.997 C 91.130 368.997,69.665 369.043,95.900 369.100 " stroke="none" fill="#b49c4c" fill-rule="evenodd"></path><path id="path4" d="M45.800 75.175 C 45.360 75.352,44.280 75.726,43.400 76.006 C 38.605 77.535,34.143 82.084,32.209 87.414 L 31.200 90.197 31.200 221.836 C 31.200 347.929,31.231 353.569,31.926 355.677 C 33.927 361.742,38.258 366.073,44.323 368.074 C 46.425 368.767,50.902 368.800,143.764 368.800 L 241.003 368.800 243.802 367.785 C 249.687 365.650,253.605 361.581,255.587 355.546 C 256.376 353.140,256.397 352.271,256.308 325.634 L 256.216 298.200 255.989 325.800 C 255.842 343.597,255.609 353.918,255.332 354.858 C 253.505 361.069,248.294 366.196,242.194 367.785 C 238.602 368.720,48.998 368.720,45.406 367.785 C 39.007 366.118,33.881 360.990,32.213 354.586 C 31.273 350.976,31.280 92.595,32.221 88.984 C 33.249 85.036,37.084 79.727,39.957 78.274 C 40.531 77.984,41.360 77.555,41.800 77.320 C 45.194 75.509,47.616 75.200,58.406 75.200 L 68.400 75.200 68.405 85.700 C 68.408 93.201,68.563 96.771,68.945 98.200 C 70.801 105.125,75.180 109.730,82.054 111.987 C 85.949 113.265,201.651 113.265,205.546 111.987 C 211.177 110.138,218.088 103.431,217.985 99.913 C 217.977 99.631,217.414 100.533,216.733 101.918 C 214.393 106.681,209.773 110.375,204.348 111.819 C 201.557 112.562,86.192 112.695,83.446 111.959 C 72.240 108.953,68.813 102.713,68.805 85.300 L 68.800 74.800 57.700 74.827 C 51.595 74.842,46.240 74.999,45.800 75.175 M229.600 75.223 C 241.741 75.502,241.892 75.522,245.600 77.308 C 250.387 79.615,254.240 84.570,255.549 90.106 C 255.875 91.484,256.000 112.579,256.000 166.272 C 256.000 207.116,256.092 240.441,256.204 240.329 C 256.316 240.217,256.406 206.492,256.402 165.385 C 256.396 91.292,256.367 89.514,255.151 87.105 C 254.958 86.723,254.800 86.219,254.800 85.983 C 254.800 83.960,249.575 78.635,245.834 76.846 C 241.764 74.901,240.867 74.794,229.354 74.885 L 218.600 74.970 229.600 75.223 M218.254 97.154 C 218.100 98.118,218.058 98.991,218.161 99.094 C 218.430 99.363,218.915 96.545,218.707 95.922 C 218.612 95.636,218.408 96.190,218.254 97.154 M101.811 145.200 C 94.091 152.900,87.664 159.200,87.528 159.200 C 87.392 159.200,83.971 155.915,79.925 151.900 C 71.468 143.507,71.597 143.600,68.395 143.600 C 65.686 143.600,62.400 146.062,62.400 148.089 C 62.401 148.789,62.595 148.608,63.237 147.310 C 64.315 145.132,66.138 144.000,68.567 144.000 C 71.305 144.000,71.903 144.446,79.796 152.373 C 83.754 156.348,87.197 159.600,87.449 159.600 C 87.700 159.600,93.898 153.573,101.223 146.207 C 109.643 137.739,115.139 132.518,116.170 132.008 C 117.537 131.331,117.643 131.201,116.824 131.200 C 116.075 131.200,112.583 134.456,101.811 145.200 M121.490 132.037 C 124.468 133.511,125.761 137.420,124.230 140.320 C 123.916 140.914,116.212 148.825,107.109 157.900 C 98.007 166.975,90.689 174.400,90.849 174.400 C 91.253 174.400,123.376 142.238,124.381 140.827 C 126.564 137.760,124.063 131.199,120.711 131.200 C 120.011 131.201,120.192 131.395,121.490 132.037 M159.703 137.775 C 155.691 139.994,154.771 144.511,157.600 148.101 C 158.289 148.976,160.115 150.015,160.880 149.968 C 161.166 149.950,160.921 149.722,160.336 149.462 C 155.499 147.313,155.077 140.990,159.602 138.447 C 161.974 137.114,219.226 137.114,221.598 138.447 C 225.844 140.833,225.748 147.072,221.434 149.167 C 220.535 149.603,220.088 149.969,220.441 149.980 C 220.793 149.991,221.680 149.595,222.411 149.100 C 226.619 146.250,226.047 140.350,221.305 137.700 C 220.012 136.977,161.015 137.049,159.703 137.775 M176.129 150.300 C 184.231 150.360,197.371 150.360,205.329 150.300 C 213.288 150.239,206.660 150.190,190.600 150.190 C 174.540 150.190,168.028 150.239,176.129 150.300 M62.441 151.320 C 62.418 151.716,62.657 152.526,62.971 153.120 C 63.625 154.358,83.340 173.943,84.695 174.700 C 85.703 175.264,89.441 175.382,89.763 174.860 C 89.878 174.673,89.109 174.603,88.053 174.705 C 86.792 174.826,85.732 174.680,84.966 174.281 C 82.932 173.221,63.380 153.404,62.905 151.923 C 62.672 151.195,62.463 150.924,62.441 151.320 M134.096 163.198 C 132.624 164.096,131.189 166.201,131.232 167.400 C 131.251 167.936,131.422 167.753,131.750 166.847 C 132.416 165.007,134.168 163.343,135.935 162.873 C 137.109 162.560,137.201 162.475,136.400 162.443 C 135.850 162.421,134.813 162.761,134.096 163.198 M220.526 162.980 C 225.729 164.835,226.370 171.653,221.572 174.099 C 219.683 175.062,136.720 175.195,134.880 174.238 C 133.444 173.491,132.197 172.072,131.682 170.600 C 131.430 169.877,131.251 169.686,131.232 170.120 C 131.190 171.069,132.145 172.849,133.099 173.600 C 135.188 175.246,133.905 175.200,178.040 175.200 L 220.491 175.200 221.998 174.353 C 225.635 172.309,226.334 167.178,223.378 164.222 C 222.204 163.048,220.951 162.397,219.905 162.418 C 219.248 162.430,219.418 162.584,220.526 162.980 M115.400 213.161 C 114.740 213.578,108.261 219.877,101.002 227.159 C 93.744 234.442,87.667 240.400,87.499 240.400 C 87.330 240.400,84.089 237.293,80.296 233.495 C 71.913 225.101,71.515 224.800,68.818 224.800 C 65.674 224.800,62.399 227.166,62.400 229.438 C 62.401 229.901,62.717 229.560,63.208 228.569 C 64.638 225.680,68.742 224.299,71.520 225.773 C 72.114 226.088,75.838 229.598,79.796 233.573 C 83.754 237.548,87.215 240.800,87.487 240.800 C 87.760 240.800,94.171 234.623,101.734 227.074 C 111.598 217.229,115.869 213.226,116.843 212.915 C 117.721 212.635,117.918 212.468,117.400 212.442 C 116.960 212.421,116.060 212.744,115.400 213.161 M121.431 213.208 C 124.207 214.582,125.690 218.694,124.358 221.326 C 123.730 222.569,91.623 254.734,90.320 255.426 C 88.763 256.253,86.040 256.143,84.477 255.190 C 81.990 253.674,63.285 234.496,62.992 233.162 C 62.844 232.492,62.629 232.037,62.514 232.153 C 61.522 233.144,80.961 254.008,84.561 255.817 C 86.357 256.718,89.440 256.568,90.938 255.505 C 92.581 254.341,123.133 223.788,124.304 222.138 C 126.593 218.915,124.090 212.399,120.562 212.400 C 120.099 212.401,120.440 212.717,121.431 213.208 M159.800 219.066 C 154.665 221.779,154.602 228.249,159.684 230.843 C 161.673 231.858,218.861 232.036,221.251 231.035 C 226.508 228.833,226.508 221.167,221.251 218.965 C 219.107 218.067,161.512 218.161,159.800 219.066 M221.598 219.647 C 225.899 222.064,225.748 228.314,221.338 230.387 C 218.633 231.659,162.567 231.659,159.862 230.387 C 155.365 228.273,155.308 221.798,159.766 219.633 C 162.413 218.348,219.310 218.361,221.598 219.647 M134.200 244.359 C 132.744 245.210,131.188 247.410,131.232 248.559 C 131.256 249.215,131.355 249.136,131.682 248.200 C 131.913 247.540,132.484 246.578,132.951 246.062 C 134.910 243.897,132.654 244.000,178.280 244.001 C 225.784 244.003,222.096 243.770,224.002 246.896 C 225.666 249.626,224.686 253.506,221.904 255.202 C 220.184 256.251,136.876 256.477,134.880 255.438 C 133.444 254.691,132.197 253.272,131.682 251.800 C 131.355 250.864,131.256 250.785,131.232 251.441 C 131.188 252.590,132.744 254.790,134.200 255.641 C 135.322 256.296,138.171 256.343,178.106 256.371 L 220.811 256.400 222.137 255.531 C 226.281 252.815,226.281 247.185,222.137 244.469 L 220.811 243.600 178.106 243.629 C 138.171 243.657,135.322 243.704,134.200 244.359 M115.800 294.063 C 115.360 294.305,108.922 300.554,101.494 307.951 C 94.065 315.348,87.799 321.464,87.568 321.542 C 87.337 321.620,84.010 318.512,80.174 314.636 C 72.290 306.669,71.405 306.004,68.695 306.001 C 65.606 305.999,62.330 308.546,62.420 310.880 C 62.431 311.166,62.797 310.665,63.233 309.766 C 64.639 306.871,68.570 305.539,71.439 306.986 C 72.077 307.308,75.838 310.818,79.796 314.786 C 83.754 318.754,87.235 322.000,87.533 322.000 C 87.831 322.000,94.133 315.952,101.537 308.559 C 116.232 293.889,116.308 293.827,119.469 294.089 C 123.645 294.435,126.182 299.038,124.226 302.720 C 123.048 304.937,91.064 336.402,89.378 337.003 C 88.198 337.423,88.037 337.569,88.738 337.582 C 90.310 337.612,91.648 336.394,107.810 320.221 C 125.517 302.502,125.200 302.871,125.200 300.012 C 125.200 295.188,119.883 291.823,115.800 294.063 M181.400 299.993 C 202.721 300.214,202.646 300.206,204.561 302.271 C 205.132 302.888,205.600 303.200,205.600 302.966 C 205.600 302.292,203.926 300.895,202.307 300.219 C 201.027 299.684,198.145 299.613,181.113 299.693 L 161.400 299.785 181.400 299.993 M159.400 300.464 C 154.726 303.032,154.923 309.807,159.741 312.210 C 161.354 313.015,201.077 313.098,202.505 312.300 C 205.627 310.555,207.956 305.009,206.060 303.837 C 205.873 303.722,205.803 304.496,205.905 305.557 C 206.157 308.176,205.187 310.139,203.013 311.414 L 201.330 312.400 181.219 312.400 C 161.477 312.400,161.081 312.384,159.602 311.553 C 155.356 309.167,155.452 302.928,159.766 300.833 C 160.665 300.397,161.130 300.036,160.800 300.032 C 160.470 300.028,159.840 300.222,159.400 300.464 M62.436 314.168 C 62.405 315.180,63.813 316.758,72.900 325.900 C 83.411 336.475,84.763 337.636,86.480 337.559 C 87.078 337.532,86.840 337.375,85.800 337.111 C 83.625 336.558,63.504 316.629,62.870 314.400 C 62.477 313.015,62.472 313.013,62.436 314.168 M134.632 325.324 C 132.458 326.672,131.167 328.402,131.232 329.880 C 131.251 330.314,131.430 330.123,131.682 329.400 C 131.913 328.740,132.484 327.778,132.951 327.262 C 134.910 325.097,132.651 325.200,178.321 325.200 L 220.682 325.200 222.041 326.108 C 226.365 328.997,225.497 335.248,220.526 337.020 C 219.418 337.416,219.248 337.570,219.905 337.582 C 220.951 337.603,222.204 336.952,223.378 335.778 C 226.268 332.887,225.690 327.991,222.187 325.700 L 220.811 324.800 178.106 324.824 C 145.797 324.841,135.213 324.963,134.632 325.324 M131.232 332.600 C 131.158 334.640,134.287 337.641,136.400 337.557 C 137.201 337.525,137.109 337.440,135.935 337.127 C 134.168 336.657,132.416 334.993,131.750 333.153 C 131.422 332.247,131.251 332.064,131.232 332.600 " stroke="none" fill="#d4bcac" fill-rule="evenodd"></path></g></svg>