<svg id="svg" version="1.1" xmlns="http://www.w3.org/2000/svg" xmlns:xlink="http://www.w3.org/1999/xlink" width="400" height="400" viewBox="0, 0, 400,400"><g id="svgg"><path id="path0" d="M213.800 33.600 C 211.167 36.240,209.103 38.400,209.213 38.400 C 209.323 38.400,211.567 36.240,214.200 33.600 C 216.833 30.960,218.897 28.800,218.787 28.800 C 218.677 28.800,216.433 30.960,213.800 33.600 M192.200 31.398 C 193.218 31.743,196.462 31.885,195.954 31.563 C 195.649 31.370,194.590 31.224,193.600 31.238 C 192.610 31.252,191.980 31.324,192.200 31.398 M198.600 51.200 C 200.128 52.740,201.469 54.000,201.579 54.000 C 201.689 54.000,200.528 52.740,199.000 51.200 C 197.472 49.660,196.131 48.400,196.021 48.400 C 195.911 48.400,197.072 49.660,198.600 51.200 M205.700 56.276 C 206.085 56.376,206.715 56.376,207.100 56.276 C 207.485 56.175,207.170 56.093,206.400 56.093 C 205.630 56.093,205.315 56.175,205.700 56.276 M202.539 131.327 C 202.065 131.563,201.210 132.477,200.639 133.358 L 199.600 134.960 199.600 143.834 C 199.600 150.928,199.720 152.938,200.198 153.854 C 200.526 154.484,200.799 154.820,200.804 154.600 C 200.809 154.380,201.306 154.759,201.908 155.442 C 203.297 157.016,208.811 157.371,210.030 155.965 C 210.388 155.552,210.798 155.331,210.941 155.474 C 211.083 155.617,211.200 155.423,211.200 155.043 C 211.200 154.663,211.380 154.464,211.600 154.600 C 211.820 154.736,212.000 154.466,212.000 154.000 C 212.000 153.519,212.179 153.263,212.413 153.408 C 213.035 153.792,212.896 134.448,212.273 133.789 C 212.013 133.514,211.498 132.954,211.128 132.545 C 210.759 132.135,210.181 131.575,209.845 131.300 C 209.098 130.689,203.780 130.709,202.539 131.327 M170.960 144.214 C 170.542 144.704,170.065 145.027,169.900 144.929 C 169.735 144.832,169.600 144.931,169.600 145.148 C 169.600 145.365,169.321 145.822,168.979 146.164 C 168.155 146.987,168.063 152.825,168.858 153.828 C 172.314 158.191,177.830 162.800,179.595 162.800 C 180.258 162.800,180.800 162.980,180.800 163.200 C 180.800 163.420,181.081 163.600,181.424 163.600 C 181.767 163.600,181.936 163.420,181.800 163.200 C 181.651 162.958,182.196 162.800,183.176 162.800 C 184.069 162.800,184.800 162.620,184.800 162.400 C 184.800 162.180,185.081 162.000,185.424 162.000 C 185.767 162.000,185.936 161.820,185.800 161.600 C 185.664 161.380,185.792 161.200,186.085 161.200 C 187.032 161.200,188.109 158.593,188.018 156.522 C 187.972 155.465,187.947 154.195,187.962 153.700 C 187.978 153.205,187.813 152.800,187.596 152.800 C 187.378 152.800,187.200 152.530,187.200 152.200 C 187.200 151.870,187.020 151.600,186.800 151.600 C 186.580 151.600,186.400 151.330,186.400 151.000 C 186.400 150.670,186.265 150.445,186.100 150.500 C 185.935 150.555,185.766 150.442,185.725 150.249 C 185.684 150.057,185.254 149.697,184.770 149.449 C 184.286 149.202,183.960 148.897,184.045 148.771 C 184.262 148.452,182.955 147.200,182.405 147.200 C 182.156 147.200,182.064 147.020,182.200 146.800 C 182.336 146.580,182.284 146.400,182.085 146.400 C 181.885 146.400,181.290 146.029,180.761 145.576 C 180.233 145.122,179.435 144.438,178.988 144.055 C 177.656 142.912,171.971 143.025,170.960 144.214 M233.560 143.935 C 233.208 144.301,232.578 144.880,232.160 145.222 C 231.742 145.565,231.042 146.330,230.605 146.922 C 230.168 147.515,229.660 148.000,229.476 148.000 C 228.910 148.000,228.022 149.087,228.319 149.417 C 228.474 149.588,228.391 149.609,228.135 149.462 C 227.619 149.167,225.063 152.130,225.477 152.544 C 225.618 152.685,225.523 152.800,225.267 152.800 C 225.010 152.800,224.800 153.329,224.800 153.976 C 224.800 154.623,224.620 155.264,224.400 155.400 C 224.180 155.536,224.000 156.007,224.000 156.447 C 224.000 156.887,224.180 157.136,224.400 157.000 C 224.638 156.853,224.800 157.329,224.800 158.176 C 224.800 158.959,224.980 159.600,225.200 159.600 C 225.420 159.600,225.579 159.735,225.553 159.900 C 225.436 160.641,225.628 161.230,225.927 161.045 C 226.107 160.934,226.729 161.283,227.310 161.821 C 228.423 162.853,235.213 163.392,234.600 162.400 C 234.464 162.180,234.678 162.000,235.076 162.000 C 235.926 161.999,238.105 160.239,237.726 159.860 C 237.583 159.717,237.797 159.600,238.200 159.600 C 238.603 159.600,238.820 159.486,238.681 159.348 C 238.542 159.209,239.502 158.070,240.814 156.818 C 242.126 155.565,243.200 154.329,243.200 154.070 C 243.200 153.812,243.380 153.600,243.600 153.600 C 243.820 153.600,244.000 152.981,244.000 152.224 C 244.000 151.467,244.180 150.736,244.400 150.600 C 244.620 150.464,244.800 150.083,244.800 149.753 C 244.800 149.423,244.620 149.264,244.400 149.400 C 244.159 149.549,244.000 149.018,244.000 148.066 C 244.000 147.030,243.793 146.406,243.400 146.255 C 243.070 146.129,242.800 145.827,242.800 145.584 C 242.800 143.611,235.180 142.252,233.560 143.935 M177.436 237.724 C 175.832 238.724,169.200 245.526,169.200 246.171 C 169.200 246.543,169.020 246.736,168.800 246.600 C 168.559 246.451,168.400 246.985,168.400 247.943 C 168.400 248.824,168.177 249.637,167.900 249.767 C 167.500 249.953,167.500 250.047,167.900 250.233 C 168.175 250.362,168.400 251.171,168.400 252.033 C 168.400 252.895,168.568 253.600,168.773 253.600 C 168.978 253.600,169.265 253.974,169.410 254.430 C 169.554 254.887,169.766 255.168,169.879 255.055 C 169.992 254.942,170.483 255.280,170.970 255.805 C 171.457 256.331,172.203 256.768,172.628 256.775 C 173.708 256.795,176.458 256.793,177.324 256.772 C 177.721 256.762,178.441 256.415,178.924 256.001 C 179.406 255.587,180.233 254.878,180.761 254.424 C 181.290 253.971,181.885 253.600,182.085 253.600 C 182.284 253.600,182.336 253.420,182.200 253.200 C 182.064 252.980,182.156 252.800,182.405 252.800 C 182.955 252.800,184.262 251.548,184.045 251.229 C 183.960 251.103,184.286 250.798,184.770 250.551 C 185.254 250.303,185.684 249.943,185.725 249.751 C 185.766 249.558,185.935 249.445,186.100 249.500 C 186.265 249.555,186.400 249.330,186.400 249.000 C 186.400 248.670,186.580 248.400,186.800 248.400 C 187.020 248.400,187.200 248.145,187.200 247.833 C 187.200 247.522,187.395 247.202,187.633 247.122 C 188.385 246.872,188.249 241.338,187.470 240.477 C 187.101 240.070,186.800 239.526,186.800 239.269 C 186.800 239.011,186.519 238.800,186.176 238.800 C 185.833 238.800,185.664 238.620,185.800 238.400 C 185.936 238.180,185.767 238.000,185.424 238.000 C 185.081 238.000,184.800 237.820,184.800 237.600 C 184.800 237.032,178.373 237.139,177.436 237.724 M227.300 237.744 C 226.805 237.989,226.400 238.428,226.400 238.718 C 226.400 239.009,226.220 239.136,226.000 239.000 C 225.640 238.778,225.427 239.303,225.553 240.100 C 225.579 240.265,225.420 240.400,225.200 240.400 C 224.980 240.400,224.800 241.041,224.800 241.824 C 224.800 242.671,224.638 243.147,224.400 243.000 C 224.180 242.864,224.000 243.113,224.000 243.553 C 224.000 243.993,224.180 244.464,224.400 244.600 C 224.620 244.736,224.800 245.251,224.800 245.744 C 224.800 246.237,225.016 246.856,225.280 247.120 C 225.544 247.384,225.619 247.600,225.446 247.600 C 225.274 247.600,225.704 248.321,226.402 249.202 C 227.134 250.126,227.867 250.691,228.135 250.538 C 228.391 250.391,228.474 250.412,228.319 250.583 C 227.996 250.942,228.932 252.000,229.571 252.000 C 229.807 252.000,230.001 252.135,230.002 252.300 C 230.004 252.651,231.817 254.597,233.392 255.938 C 234.161 256.593,234.843 256.826,235.647 256.708 C 236.281 256.615,236.800 256.663,236.800 256.814 C 236.800 257.665,241.547 256.185,242.493 255.039 C 242.874 254.578,243.369 253.983,243.593 253.717 C 244.184 253.016,244.109 246.902,243.500 246.147 C 243.225 245.806,241.977 244.482,240.726 243.204 C 239.475 241.927,238.560 240.773,238.693 240.641 C 238.825 240.508,238.603 240.400,238.200 240.400 C 237.797 240.400,237.578 240.289,237.714 240.152 C 238.075 239.792,236.968 238.800,236.205 238.800 C 235.846 238.800,235.664 238.620,235.800 238.400 C 235.936 238.180,235.767 238.000,235.424 238.000 C 235.081 238.000,234.800 237.820,234.800 237.600 C 234.800 237.054,228.446 237.176,227.300 237.744 M320.563 238.200 C 320.203 238.750,319.751 239.200,319.559 239.200 C 318.617 239.200,315.481 242.313,314.522 244.200 C 313.006 247.184,312.800 248.538,312.800 255.528 L 312.800 262.400 318.762 262.400 L 324.724 262.400 325.013 256.400 L 325.302 250.400 326.651 250.400 C 328.247 250.400,328.219 250.520,327.143 248.338 C 326.672 247.382,326.117 246.223,325.909 245.763 C 325.498 244.851,325.689 239.547,326.185 238.100 C 326.685 236.639,321.526 236.731,320.563 238.200 M355.929 239.330 C 354.472 240.792,348.647 250.149,349.100 250.300 C 349.450 250.417,349.600 251.531,349.600 254.010 C 349.600 255.958,349.780 257.664,350.000 257.800 C 350.220 257.936,350.400 259.031,350.400 260.234 L 350.400 262.421 356.300 262.311 L 362.200 262.200 362.325 256.400 C 362.453 250.499,362.073 247.462,360.873 244.800 C 360.526 244.030,360.290 242.999,360.349 242.509 C 360.469 241.502,358.799 239.600,357.795 239.600 C 357.442 239.600,357.264 239.420,357.400 239.200 C 357.767 238.606,356.542 238.715,355.929 239.330 M203.042 243.668 C 203.155 243.851,203.012 244.006,202.724 244.013 C 202.057 244.030,200.747 245.179,200.100 246.313 C 199.740 246.944,199.600 249.752,199.600 256.335 L 199.600 265.481 200.803 266.741 C 201.465 267.433,201.870 268.007,201.703 268.016 C 200.215 268.092,204.655 269.200,206.451 269.200 C 209.416 269.200,210.086 268.852,212.393 266.117 C 212.644 265.819,212.800 262.023,212.800 256.206 L 212.800 246.779 211.001 244.980 L 209.201 243.180 206.019 243.259 C 204.269 243.302,202.930 243.486,203.042 243.668 M393.200 289.438 C 393.200 290.701,389.160 295.600,388.119 295.600 C 387.833 295.600,387.600 295.780,387.600 296.000 C 387.600 296.220,387.328 296.400,386.995 296.400 C 386.662 296.400,386.077 296.559,385.695 296.753 C 384.147 297.541,382.701 298.058,376.000 300.223 C 362.158 304.694,354.588 307.225,353.905 307.609 C 353.523 307.824,352.859 308.000,352.429 308.000 C 351.999 308.000,351.536 308.180,351.400 308.400 C 351.264 308.620,350.724 308.800,350.200 308.800 C 349.676 308.800,349.136 308.980,349.000 309.200 C 348.864 309.420,348.324 309.600,347.800 309.600 C 347.276 309.600,346.749 309.759,346.629 309.954 C 346.295 310.494,344.044 310.716,343.841 310.229 C 343.743 309.993,343.649 312.248,343.632 315.241 C 343.590 322.433,341.983 324.933,337.400 324.933 C 332.962 324.933,331.216 322.218,331.207 315.300 L 331.200 310.400 330.024 310.400 C 329.377 310.400,328.736 310.220,328.600 310.000 C 328.464 309.780,327.924 309.600,327.400 309.600 C 326.876 309.600,326.336 309.420,326.200 309.200 C 326.064 308.980,325.524 308.800,325.000 308.800 C 324.476 308.800,323.936 308.620,323.800 308.400 C 323.664 308.180,323.124 308.000,322.600 308.000 C 322.076 308.000,321.536 307.820,321.400 307.600 C 321.264 307.380,320.724 307.200,320.200 307.200 C 319.676 307.200,319.136 307.020,319.000 306.800 C 318.864 306.580,318.401 306.400,317.971 306.400 C 317.541 306.400,316.877 306.225,316.495 306.011 C 315.777 305.610,311.268 304.104,299.200 300.235 C 295.350 299.000,291.887 297.812,291.505 297.595 C 291.123 297.378,290.543 297.200,290.216 297.200 C 288.412 297.200,284.208 293.934,282.757 291.405 L 281.608 289.400 281.608 317.200 C 281.609 346.923,281.612 346.984,283.609 350.215 C 284.651 351.901,286.787 353.784,288.484 354.512 C 291.586 355.844,292.830 356.000,300.328 356.000 C 305.176 356.000,308.000 356.147,308.000 356.400 C 308.000 356.951,328.896 356.944,329.447 356.393 C 329.831 356.009,356.879 356.107,377.400 356.567 C 384.978 356.737,389.348 356.011,388.548 354.715 C 388.441 354.542,388.696 354.400,389.114 354.400 C 389.931 354.400,391.334 353.111,391.001 352.668 C 390.890 352.520,390.911 352.481,391.048 352.581 C 391.398 352.837,392.400 351.762,392.401 351.129 C 392.402 350.838,392.762 350.011,393.201 349.290 C 394.108 347.803,394.497 288.800,393.600 288.800 C 393.380 288.800,393.200 289.087,393.200 289.438 M340.433 300.900 C 340.525 300.955,341.140 301.450,341.800 302.000 L 343.000 303.000 342.030 301.900 C 341.497 301.295,340.882 300.800,340.664 300.800 C 340.445 300.800,340.342 300.845,340.433 300.900 M331.354 304.577 C 331.232 304.894,331.203 305.479,331.289 305.877 C 331.387 306.328,331.524 306.112,331.654 305.300 C 331.871 303.938,331.730 303.596,331.354 304.577 M369.709 371.200 C 369.709 372.190,369.787 372.595,369.882 372.100 C 369.978 371.605,369.978 370.795,369.882 370.300 C 369.787 369.805,369.709 370.210,369.709 371.200 " stroke="none" fill="#fbcc6c" fill-rule="evenodd"></path><path id="path1" d="M83.900 0.276 C 82.855 0.368,82.000 0.614,82.000 0.822 C 82.000 1.030,81.370 1.200,80.600 1.200 C 79.830 1.200,79.200 1.380,79.200 1.600 C 79.200 1.820,78.840 2.000,78.400 2.000 C 77.960 2.000,77.600 2.180,77.600 2.400 C 77.600 2.620,77.150 2.800,76.600 2.800 C 76.050 2.800,75.600 2.980,75.600 3.200 C 75.600 3.420,75.240 3.600,74.800 3.600 C 74.360 3.600,74.000 3.780,74.000 4.000 C 74.000 4.220,73.640 4.400,73.200 4.400 C 72.760 4.400,72.400 4.580,72.400 4.800 C 72.400 5.020,72.040 5.200,71.600 5.200 C 71.160 5.200,70.800 5.380,70.800 5.600 C 70.800 5.820,70.530 6.000,70.200 6.000 C 69.870 6.000,69.600 6.180,69.600 6.400 C 69.600 6.620,69.407 6.800,69.171 6.800 C 68.936 6.800,68.471 7.072,68.139 7.404 C 67.807 7.736,67.342 7.888,67.106 7.742 C 66.851 7.585,66.793 7.664,66.962 7.938 C 67.119 8.192,67.048 8.400,66.805 8.400 C 65.980 8.400,58.400 15.963,58.400 16.786 C 58.400 17.014,58.220 17.200,58.000 17.200 C 57.780 17.200,57.600 17.393,57.600 17.629 C 57.600 18.393,56.483 19.200,55.423 19.200 C 54.854 19.200,54.032 19.380,53.595 19.600 C 53.158 19.820,52.442 20.180,52.005 20.400 C 51.568 20.620,50.931 20.800,50.589 20.800 C 50.247 20.800,49.580 21.160,49.108 21.600 C 48.636 22.040,48.013 22.400,47.725 22.400 C 47.436 22.400,47.200 22.580,47.200 22.800 C 47.200 23.020,46.924 23.200,46.587 23.200 C 46.249 23.200,45.363 23.811,44.616 24.557 C 43.870 25.303,42.616 26.405,41.830 27.005 C 41.043 27.604,40.400 28.261,40.400 28.465 C 40.400 28.668,39.967 29.302,39.437 29.873 C 38.908 30.444,38.143 31.604,37.737 32.451 C 37.332 33.298,36.865 33.993,36.700 33.995 C 36.535 33.998,36.400 34.360,36.400 34.800 C 36.400 35.240,36.220 35.600,36.000 35.600 C 35.780 35.600,35.600 36.140,35.600 36.800 C 35.600 37.460,35.420 38.000,35.200 38.000 C 34.980 38.000,34.800 38.540,34.800 39.200 C 34.800 39.860,34.620 40.400,34.400 40.400 C 34.163 40.400,34.000 41.867,34.000 44.000 C 34.000 45.980,33.850 47.600,33.666 47.600 C 33.482 47.600,33.292 48.725,33.243 50.100 C 33.195 51.475,32.985 52.660,32.778 52.733 C 32.570 52.807,32.400 53.291,32.400 53.810 C 32.400 54.328,32.220 54.864,32.000 55.000 C 31.780 55.136,31.600 55.557,31.600 55.935 C 31.600 56.314,31.250 56.876,30.821 57.185 C 30.393 57.493,30.121 57.872,30.216 58.025 C 30.311 58.179,29.854 58.911,29.201 59.652 C 28.547 60.394,28.010 61.114,28.006 61.253 C 28.003 61.393,27.622 61.606,27.160 61.726 C 26.684 61.851,26.437 62.136,26.589 62.383 C 26.738 62.623,26.708 62.770,26.522 62.710 C 26.336 62.649,25.749 63.005,25.217 63.500 C 24.685 63.995,24.013 64.400,23.725 64.400 C 23.436 64.400,23.200 64.559,23.200 64.753 C 23.200 64.948,22.885 65.211,22.500 65.339 C 22.115 65.467,21.080 65.845,20.200 66.180 C 19.320 66.514,18.015 66.791,17.300 66.794 C 16.585 66.797,16.000 66.980,16.000 67.200 C 16.000 67.426,14.867 67.600,13.400 67.600 C 11.933 67.600,10.800 67.774,10.800 68.000 C 10.800 68.220,10.260 68.400,9.600 68.400 C 8.747 68.400,8.400 68.593,8.400 69.067 C 8.400 69.433,8.289 69.622,8.152 69.486 C 7.797 69.131,6.800 70.226,6.800 70.971 C 6.800 71.317,6.620 71.600,6.400 71.600 C 6.169 71.600,6.000 72.863,6.000 74.588 C 6.000 78.669,7.576 81.600,9.771 81.600 C 10.337 81.600,10.800 81.780,10.800 82.000 C 10.800 82.524,31.579 82.540,32.954 82.017 C 33.508 81.807,34.690 81.592,35.580 81.539 C 36.471 81.487,37.200 81.299,37.200 81.122 C 37.200 80.945,37.650 80.800,38.200 80.800 C 38.750 80.800,39.200 80.620,39.200 80.400 C 39.200 80.180,39.661 80.000,40.224 80.000 C 40.804 80.000,41.140 79.827,41.000 79.600 C 40.864 79.380,41.123 79.200,41.576 79.200 C 42.029 79.200,42.400 79.020,42.400 78.800 C 42.400 78.580,42.625 78.400,42.900 78.399 C 43.175 78.399,44.030 77.859,44.800 77.200 C 45.570 76.541,46.341 76.001,46.513 76.001 C 46.860 76.000,49.600 73.351,49.600 73.016 C 49.600 72.901,49.951 72.400,50.380 71.903 C 51.419 70.701,53.600 66.572,53.600 65.808 C 53.600 65.467,53.951 65.200,54.400 65.200 C 54.933 65.200,55.200 65.467,55.200 66.000 C 55.200 66.440,55.380 66.800,55.600 66.800 C 55.820 66.800,56.000 67.070,56.000 67.400 C 56.000 67.730,56.180 68.000,56.400 68.000 C 56.620 68.000,56.800 68.270,56.800 68.600 C 56.800 68.930,56.968 69.200,57.173 69.200 C 57.378 69.200,57.668 69.583,57.816 70.052 C 58.093 70.924,66.167 79.300,66.454 79.013 C 66.542 78.925,67.328 79.471,68.202 80.227 C 69.076 80.982,70.018 81.600,70.296 81.600 C 70.573 81.600,70.800 81.791,70.800 82.024 C 70.800 82.257,70.965 82.345,71.168 82.220 C 71.370 82.095,71.807 82.264,72.139 82.596 C 72.471 82.928,73.026 83.200,73.371 83.200 C 73.717 83.200,74.001 83.335,74.003 83.500 C 74.007 83.859,75.944 84.800,76.680 84.800 C 76.966 84.800,77.200 84.980,77.200 85.200 C 77.200 85.420,77.620 85.600,78.133 85.600 C 78.647 85.600,79.202 85.735,79.367 85.900 C 79.532 86.065,79.787 86.201,79.933 86.201 C 80.190 86.203,82.589 86.874,84.906 87.592 C 86.420 88.061,101.169 88.121,101.740 87.661 C 101.993 87.457,102.920 87.190,103.800 87.068 C 106.666 86.669,108.000 86.316,108.000 85.955 C 108.000 85.760,108.439 85.600,108.976 85.600 C 109.513 85.600,110.064 85.420,110.200 85.200 C 110.336 84.980,110.797 84.800,111.224 84.800 C 111.651 84.800,112.000 84.620,112.000 84.400 C 112.000 84.180,112.360 84.000,112.800 84.000 C 113.240 84.000,113.600 83.820,113.600 83.600 C 113.600 83.380,113.883 83.200,114.229 83.200 C 114.574 83.200,115.129 82.928,115.461 82.596 C 115.793 82.264,116.230 82.095,116.432 82.220 C 116.635 82.345,116.800 82.257,116.800 82.024 C 116.800 81.791,117.070 81.600,117.400 81.600 C 117.730 81.600,118.000 81.420,118.000 81.200 C 118.000 80.980,118.193 80.800,118.429 80.800 C 118.664 80.800,119.109 80.575,119.416 80.300 C 119.723 80.025,120.538 79.350,121.227 78.800 C 121.915 78.250,123.166 77.140,124.006 76.333 C 124.846 75.526,125.667 74.986,125.831 75.133 C 125.994 75.280,126.012 75.196,125.869 74.947 C 125.727 74.697,126.205 73.977,126.932 73.347 C 127.660 72.716,128.692 71.575,129.227 70.811 C 129.762 70.047,130.427 69.177,130.704 68.879 C 130.981 68.580,131.105 68.170,130.980 67.968 C 130.855 67.765,130.943 67.600,131.176 67.600 C 131.409 67.600,131.600 67.319,131.600 66.976 C 131.600 66.633,131.780 66.464,132.000 66.600 C 132.220 66.736,132.400 66.477,132.400 66.024 C 132.400 65.571,132.580 65.200,132.800 65.200 C 133.020 65.200,133.200 64.840,133.200 64.400 C 133.200 63.960,133.380 63.600,133.600 63.600 C 133.820 63.600,134.000 63.240,134.000 62.800 C 134.000 62.360,134.180 62.000,134.400 62.000 C 134.620 62.000,134.800 61.651,134.800 61.224 C 134.800 60.797,134.980 60.336,135.200 60.200 C 135.420 60.064,135.600 59.513,135.600 58.976 C 135.600 58.439,135.760 58.000,135.955 58.000 C 136.317 58.000,136.676 56.642,137.064 53.800 C 137.184 52.920,137.444 52.029,137.641 51.820 C 138.242 51.183,138.069 37.293,137.429 34.891 C 137.120 33.731,136.856 32.695,136.841 32.589 C 136.734 31.818,136.284 30.064,136.022 29.400 C 135.249 27.439,134.666 26.128,134.155 25.200 C 133.852 24.650,133.132 23.255,132.555 22.100 C 131.978 20.945,131.347 20.000,131.153 20.000 C 130.959 20.000,130.800 19.640,130.800 19.200 C 130.800 18.760,130.620 18.400,130.400 18.400 C 130.180 18.400,130.000 18.029,130.000 17.576 C 130.000 17.123,129.820 16.864,129.600 17.000 C 129.380 17.136,129.200 17.052,129.200 16.813 C 129.200 16.574,128.435 15.602,127.500 14.652 C 126.565 13.703,125.424 12.493,124.964 11.963 C 123.905 10.744,121.207 8.400,120.861 8.399 C 120.718 8.399,119.970 7.859,119.200 7.200 C 118.430 6.541,117.575 6.001,117.300 6.001 C 117.025 6.000,116.800 5.820,116.800 5.600 C 116.800 5.380,116.440 5.200,116.000 5.200 C 115.560 5.200,115.200 5.020,115.200 4.800 C 115.200 4.580,114.840 4.400,114.400 4.400 C 113.960 4.400,113.600 4.220,113.600 4.000 C 113.600 3.780,113.240 3.600,112.800 3.600 C 112.360 3.600,112.000 3.420,112.000 3.200 C 112.000 2.980,111.651 2.800,111.224 2.800 C 110.797 2.800,110.336 2.620,110.200 2.400 C 110.064 2.180,109.513 2.000,108.976 2.000 C 108.439 2.000,108.000 1.820,108.000 1.600 C 108.000 1.380,107.496 1.200,106.880 1.200 C 106.264 1.200,105.535 0.975,105.260 0.700 C 104.762 0.201,88.422 -0.123,83.900 0.276 M302.600 0.274 C 301.720 0.373,300.829 0.621,300.620 0.827 C 300.411 1.032,299.736 1.200,299.120 1.200 C 298.504 1.200,298.000 1.380,298.000 1.600 C 298.000 1.820,297.561 2.000,297.024 2.000 C 296.487 2.000,295.936 2.180,295.800 2.400 C 295.664 2.620,295.203 2.800,294.776 2.800 C 294.349 2.800,294.000 2.946,294.000 3.125 C 294.000 3.304,293.370 3.698,292.600 4.000 C 291.830 4.302,291.200 4.696,291.200 4.875 C 291.200 5.054,290.840 5.200,290.400 5.200 C 289.960 5.200,289.600 5.380,289.600 5.600 C 289.600 5.820,289.280 6.000,288.888 6.000 C 288.497 6.000,287.917 6.360,287.600 6.800 C 287.283 7.240,286.693 7.600,286.288 7.600 C 285.884 7.600,285.664 7.780,285.800 8.000 C 285.936 8.220,285.858 8.400,285.627 8.400 C 284.592 8.400,278.363 14.601,276.400 17.586 C 276.070 18.088,275.575 18.733,275.300 19.020 C 275.025 19.308,274.800 19.826,274.800 20.171 C 274.800 20.517,274.620 20.800,274.400 20.800 C 274.180 20.800,274.000 21.160,274.000 21.600 C 274.000 22.040,273.820 22.400,273.600 22.400 C 273.380 22.400,273.200 22.760,273.200 23.200 C 273.200 23.640,273.020 24.000,272.800 24.000 C 272.580 24.000,272.400 24.360,272.400 24.800 C 272.400 25.240,272.220 25.600,272.000 25.600 C 271.780 25.600,271.600 25.971,271.600 26.424 C 271.600 26.877,271.420 27.136,271.200 27.000 C 270.967 26.856,270.800 27.255,270.800 27.953 C 270.800 28.613,270.620 29.264,270.400 29.400 C 270.180 29.536,270.000 30.076,270.000 30.600 C 270.000 31.124,269.820 31.664,269.600 31.800 C 269.380 31.936,269.200 32.656,269.200 33.400 C 269.200 34.144,269.033 34.856,268.828 34.983 C 268.298 35.310,268.259 52.400,268.788 52.400 C 269.015 52.400,269.200 53.120,269.200 54.000 C 269.200 54.880,269.380 55.600,269.600 55.600 C 269.820 55.600,270.000 56.125,270.000 56.767 C 270.000 57.408,270.178 57.993,270.397 58.067 C 270.615 58.140,270.834 58.695,270.884 59.300 C 270.934 59.905,271.115 60.400,271.287 60.400 C 271.459 60.400,271.600 60.760,271.600 61.200 C 271.600 61.640,271.780 62.000,272.000 62.000 C 272.220 62.000,272.400 62.360,272.400 62.800 C 272.400 63.240,272.580 63.600,272.800 63.600 C 273.020 63.600,273.200 63.960,273.200 64.400 C 273.200 64.840,273.380 65.200,273.600 65.200 C 273.820 65.200,274.000 65.560,274.000 66.000 C 274.000 66.440,274.180 66.800,274.400 66.800 C 274.620 66.800,274.800 67.070,274.800 67.400 C 274.800 67.730,274.991 68.000,275.224 68.000 C 275.457 68.000,275.535 68.181,275.398 68.403 C 275.261 68.624,275.408 68.905,275.725 69.026 C 276.041 69.148,276.610 69.936,276.990 70.777 C 277.369 71.619,278.112 72.539,278.639 72.821 C 279.167 73.103,279.523 73.410,279.431 73.503 C 279.338 73.595,279.799 74.150,280.456 74.735 C 281.112 75.321,282.369 76.471,283.248 77.291 C 284.128 78.112,285.377 79.095,286.024 79.478 C 286.671 79.860,287.200 80.314,287.200 80.486 C 287.200 80.659,287.470 80.800,287.800 80.800 C 288.130 80.800,288.400 80.980,288.400 81.200 C 288.400 81.420,288.670 81.600,289.000 81.600 C 289.330 81.600,289.600 81.780,289.600 82.000 C 289.600 82.220,289.960 82.400,290.400 82.400 C 290.840 82.400,291.200 82.580,291.200 82.800 C 291.200 83.020,291.560 83.200,292.000 83.200 C 292.440 83.200,292.800 83.380,292.800 83.600 C 292.800 83.820,293.160 84.000,293.600 84.000 C 294.040 84.000,294.400 84.151,294.400 84.336 C 294.400 84.521,295.165 84.912,296.100 85.206 C 297.035 85.499,297.971 85.888,298.180 86.070 C 298.389 86.251,299.053 86.400,299.656 86.400 C 300.259 86.400,300.852 86.560,300.973 86.756 C 301.549 87.688,319.667 88.493,320.535 87.625 C 320.769 87.391,321.554 87.200,322.280 87.200 C 323.006 87.200,323.600 87.058,323.600 86.885 C 323.600 86.712,324.182 86.526,324.893 86.472 C 325.605 86.417,326.361 86.199,326.573 85.987 C 326.786 85.774,327.464 85.600,328.080 85.600 C 328.696 85.600,329.200 85.420,329.200 85.200 C 329.200 84.980,329.560 84.800,330.000 84.800 C 330.440 84.800,330.800 84.620,330.800 84.400 C 330.800 84.180,331.160 84.000,331.600 84.000 C 332.040 84.000,332.400 83.820,332.400 83.600 C 332.400 83.380,332.760 83.200,333.200 83.200 C 333.640 83.200,334.000 83.064,334.000 82.898 C 334.000 82.535,336.460 81.379,336.930 81.521 C 337.111 81.575,337.145 81.435,337.006 81.210 C 336.867 80.984,336.951 80.800,337.193 80.800 C 337.435 80.800,338.020 80.440,338.492 80.000 C 338.964 79.560,339.598 79.200,339.899 79.200 C 340.201 79.200,340.336 79.020,340.200 78.800 C 340.064 78.580,340.263 78.400,340.643 78.400 C 341.023 78.400,341.224 78.291,341.091 78.158 C 340.791 77.857,342.352 76.257,343.301 75.893 C 343.685 75.746,344.000 75.429,344.000 75.189 C 344.000 74.949,344.180 74.864,344.400 75.000 C 344.620 75.136,344.800 75.046,344.800 74.800 C 344.800 74.554,345.548 73.555,346.463 72.579 C 347.378 71.603,348.455 70.263,348.857 69.602 C 349.259 68.941,349.765 68.400,349.982 68.400 C 350.198 68.400,350.282 68.159,350.169 67.864 C 350.056 67.569,350.242 67.097,350.582 66.815 C 350.922 66.533,351.200 66.054,351.200 65.751 C 351.200 65.448,351.380 65.200,351.600 65.200 C 351.820 65.200,352.000 64.966,352.000 64.680 C 352.000 63.944,352.941 62.007,353.300 62.003 C 353.465 62.001,353.600 61.651,353.600 61.224 C 353.600 60.797,353.780 60.336,354.000 60.200 C 354.220 60.064,354.400 59.601,354.400 59.171 C 354.400 58.741,354.567 58.077,354.771 57.695 C 355.386 56.543,355.725 55.456,355.804 54.386 C 355.845 53.829,356.084 52.479,356.336 51.386 C 357.134 47.914,356.644 35.473,355.581 32.240 C 355.372 31.602,355.200 30.735,355.200 30.312 C 355.200 29.889,354.938 29.281,354.617 28.960 C 354.296 28.639,354.147 28.083,354.285 27.723 C 354.453 27.285,354.381 27.165,354.068 27.358 C 353.775 27.539,353.600 27.369,353.600 26.903 C 353.600 25.991,352.711 24.007,352.300 24.003 C 352.135 24.001,352.000 23.640,352.000 23.200 C 352.000 22.760,351.841 22.400,351.647 22.400 C 351.452 22.400,351.193 22.085,351.071 21.700 C 350.842 20.977,349.568 18.753,349.181 18.400 C 349.060 18.290,348.526 17.570,347.993 16.800 C 346.781 15.049,339.961 8.400,339.376 8.400 C 339.139 8.400,338.553 7.950,338.075 7.400 C 337.596 6.850,336.484 6.087,335.603 5.706 C 334.721 5.324,334.000 4.874,334.000 4.706 C 334.000 4.538,333.640 4.400,333.200 4.400 C 332.760 4.400,332.400 4.220,332.400 4.000 C 332.400 3.780,332.040 3.600,331.600 3.600 C 331.160 3.600,330.800 3.420,330.800 3.200 C 330.800 2.980,330.440 2.800,330.000 2.800 C 329.560 2.800,329.200 2.620,329.200 2.400 C 329.200 2.180,328.660 2.000,328.000 2.000 C 327.340 2.000,326.800 1.820,326.800 1.600 C 326.800 1.380,326.296 1.200,325.680 1.200 C 325.064 1.200,324.335 0.975,324.060 0.700 C 323.559 0.198,306.327 -0.144,302.600 0.274 M315.756 99.272 C 315.644 99.452,314.123 99.600,312.376 99.600 C 310.525 99.600,309.200 99.767,309.200 100.000 C 309.200 100.220,308.480 100.400,307.600 100.400 C 306.720 100.400,306.000 100.580,306.000 100.800 C 306.000 101.020,305.460 101.200,304.800 101.200 C 304.140 101.200,303.600 101.380,303.600 101.600 C 303.600 101.820,303.161 102.000,302.624 102.000 C 302.087 102.000,301.536 102.180,301.400 102.400 C 301.264 102.620,300.803 102.800,300.376 102.800 C 299.949 102.800,299.600 102.980,299.600 103.200 C 299.600 103.420,299.240 103.600,298.800 103.600 C 298.360 103.600,298.000 103.780,298.000 104.000 C 298.000 104.220,297.640 104.400,297.200 104.400 C 296.760 104.400,296.400 104.580,296.400 104.800 C 296.400 105.020,296.130 105.200,295.800 105.200 C 295.470 105.200,294.853 105.515,294.429 105.900 C 292.979 107.216,292.434 107.600,292.017 107.600 C 291.788 107.600,291.600 107.780,291.600 108.000 C 291.600 108.220,291.340 108.400,291.023 108.400 C 290.705 108.400,290.210 108.731,289.923 109.137 C 289.635 109.542,288.950 110.110,288.400 110.399 C 287.391 110.930,285.601 112.768,285.600 113.273 C 285.600 113.423,285.240 113.660,284.800 113.800 C 284.360 113.940,284.000 114.240,284.000 114.466 C 284.000 114.693,283.460 115.383,282.800 116.000 C 282.140 116.617,281.600 117.244,281.600 117.395 C 281.600 117.766,279.077 121.366,278.700 121.533 C 278.535 121.607,278.400 121.886,278.400 122.154 C 278.400 122.863,277.451 124.793,277.100 124.797 C 276.935 124.799,276.800 125.126,276.800 125.524 C 276.800 125.921,276.536 126.596,276.213 127.024 C 275.890 127.451,275.620 128.396,275.613 129.124 C 275.605 129.902,275.435 130.345,275.200 130.200 C 274.967 130.056,274.800 130.455,274.800 131.153 C 274.800 131.813,274.620 132.464,274.400 132.600 C 274.180 132.736,274.000 133.647,274.000 134.624 C 274.000 135.601,273.820 136.400,273.600 136.400 C 273.367 136.400,273.200 137.725,273.200 139.576 C 273.200 141.323,273.020 142.864,272.800 143.000 C 272.550 143.155,272.400 147.130,272.400 153.600 C 272.400 160.070,272.250 164.045,272.000 164.200 C 271.757 164.350,271.600 167.325,271.600 171.787 L 271.600 179.126 269.300 179.375 C 268.035 179.512,265.785 179.723,264.300 179.845 C 262.815 179.966,261.600 180.204,261.600 180.372 C 261.600 180.541,260.326 180.716,258.768 180.761 C 257.210 180.807,255.489 181.014,254.942 181.222 C 254.395 181.430,252.916 181.600,251.654 181.600 C 250.392 181.600,249.189 181.770,248.980 181.978 C 248.771 182.186,247.120 182.391,245.311 182.434 C 243.502 182.477,242.118 182.667,242.235 182.856 C 242.352 183.045,241.177 183.200,239.624 183.200 C 238.008 183.200,236.800 183.371,236.800 183.600 C 236.800 183.831,235.541 184.000,233.824 184.000 C 232.187 184.000,230.736 184.180,230.600 184.400 C 230.464 184.620,229.049 184.800,227.456 184.800 C 225.863 184.800,224.389 184.970,224.180 185.178 C 223.971 185.385,222.405 185.592,220.700 185.636 C 218.995 185.680,217.600 185.871,217.600 186.058 C 217.600 186.246,216.149 186.400,214.376 186.400 C 212.329 186.400,211.243 186.546,211.400 186.800 C 211.605 187.132,209.152 187.445,207.900 187.247 C 207.735 187.221,207.600 187.380,207.600 187.600 C 207.600 188.121,205.322 188.121,205.000 187.600 C 204.864 187.380,204.324 187.200,203.800 187.200 C 203.276 187.200,202.736 187.020,202.600 186.800 C 202.464 186.580,201.564 186.400,200.600 186.400 C 199.636 186.400,198.736 186.220,198.600 186.000 C 198.464 185.780,197.553 185.600,196.576 185.600 C 195.599 185.600,194.800 185.420,194.800 185.200 C 194.800 184.980,193.889 184.800,192.776 184.800 C 191.529 184.800,190.848 184.647,191.000 184.400 C 191.152 184.154,190.479 184.000,189.247 184.000 C 188.147 184.000,187.136 183.820,187.000 183.600 C 186.864 183.380,186.054 183.200,185.200 183.200 C 184.346 183.200,183.536 183.020,183.400 182.800 C 183.264 182.580,182.353 182.400,181.376 182.400 C 180.399 182.400,179.600 182.220,179.600 182.000 C 179.600 181.780,178.801 181.600,177.824 181.600 C 176.847 181.600,175.957 181.454,175.847 181.276 C 175.737 181.098,174.781 180.908,173.723 180.854 C 172.666 180.801,171.740 180.587,171.667 180.379 C 171.593 180.170,170.749 180.000,169.790 180.000 C 168.832 180.000,167.936 179.820,167.800 179.600 C 167.664 179.380,166.843 179.200,165.976 179.200 C 165.109 179.200,164.400 179.043,164.400 178.851 C 164.400 178.659,163.547 178.484,162.504 178.463 C 161.462 178.442,160.547 178.240,160.471 178.013 C 160.395 177.786,159.538 177.600,158.567 177.600 C 157.595 177.600,156.800 177.447,156.800 177.260 C 156.800 177.072,156.305 176.942,155.700 176.970 C 155.095 176.999,154.150 176.866,153.600 176.675 C 153.050 176.485,152.086 176.261,151.458 176.178 C 150.830 176.095,149.999 175.927,149.611 175.804 C 149.223 175.680,148.244 175.555,147.436 175.524 C 146.628 175.494,145.873 175.319,145.760 175.135 C 145.646 174.951,144.663 174.800,143.576 174.800 C 142.489 174.800,141.600 174.620,141.600 174.400 C 141.600 174.180,140.801 174.000,139.824 174.000 C 138.847 174.000,137.936 173.820,137.800 173.600 C 137.664 173.380,137.104 173.200,136.556 173.200 C 135.807 173.200,135.454 172.901,135.140 172.000 C 134.910 171.340,134.559 170.800,134.361 170.800 C 134.162 170.800,134.000 170.440,134.000 170.000 C 134.000 169.560,133.820 169.200,133.600 169.200 C 133.380 169.200,133.200 168.840,133.200 168.400 C 133.200 167.960,133.020 167.600,132.800 167.600 C 132.580 167.600,132.400 167.330,132.400 167.000 C 132.400 166.670,132.220 166.400,132.000 166.400 C 131.780 166.400,131.600 166.040,131.600 165.600 C 131.600 165.160,131.420 164.800,131.200 164.800 C 130.980 164.800,130.800 164.530,130.800 164.200 C 130.800 163.870,130.654 163.600,130.475 163.600 C 130.296 163.600,129.902 162.970,129.600 162.200 C 129.298 161.430,128.904 160.800,128.725 160.800 C 128.546 160.800,128.400 160.522,128.400 160.183 C 128.400 159.844,128.040 159.180,127.600 158.708 C 127.160 158.236,126.800 157.613,126.800 157.325 C 126.800 157.036,126.620 156.800,126.400 156.800 C 126.180 156.800,126.000 156.440,126.000 156.000 C 126.000 155.560,125.820 155.200,125.600 155.200 C 125.380 155.200,125.200 154.855,125.200 154.433 C 125.200 154.012,125.064 153.607,124.899 153.533 C 124.733 153.460,123.680 151.558,122.558 149.308 C 121.436 147.057,120.402 145.332,120.259 145.474 C 120.117 145.617,120.000 145.343,120.000 144.867 C 120.000 144.390,119.820 144.000,119.600 144.000 C 119.380 144.000,119.200 143.730,119.200 143.400 C 119.200 143.070,119.020 142.800,118.800 142.800 C 118.580 142.800,118.400 142.440,118.400 142.000 C 118.400 141.560,118.263 141.200,118.095 141.200 C 117.927 141.200,117.177 139.940,116.428 138.400 C 115.680 136.860,114.917 135.600,114.734 135.600 C 114.550 135.600,114.400 135.240,114.400 134.800 C 114.400 134.360,114.265 133.999,114.100 133.997 C 113.741 133.993,112.800 132.056,112.800 131.320 C 112.800 131.034,112.620 130.800,112.400 130.800 C 112.180 130.800,111.997 130.395,111.994 129.900 C 111.989 129.172,111.914 129.115,111.600 129.600 C 111.269 130.112,111.211 130.096,111.206 129.495 C 111.197 128.444,109.986 126.500,108.109 124.521 C 107.619 124.004,107.214 123.496,107.209 123.391 C 107.204 123.286,107.200 123.020,107.200 122.800 C 107.200 122.580,107.002 122.400,106.760 122.400 C 106.519 122.400,105.817 121.860,105.200 121.200 C 104.583 120.540,103.791 120.000,103.440 120.000 C 103.088 120.000,102.800 119.820,102.800 119.600 C 102.800 119.380,102.440 119.200,102.000 119.200 C 101.560 119.200,101.200 119.020,101.200 118.800 C 101.200 118.580,100.761 118.400,100.224 118.400 C 99.687 118.400,99.136 118.220,99.000 118.000 C 98.864 117.780,97.953 117.600,96.976 117.600 C 95.999 117.600,95.200 117.454,95.200 117.275 C 95.200 116.786,91.708 116.702,91.410 117.183 C 91.269 117.412,90.263 117.600,89.176 117.600 C 88.089 117.600,87.200 117.780,87.200 118.000 C 87.200 118.220,86.857 118.400,86.438 118.400 C 85.531 118.400,82.400 120.008,82.400 120.474 C 82.400 120.653,82.142 120.800,81.826 120.800 C 81.079 120.800,76.800 125.079,76.800 125.826 C 76.800 126.142,76.634 126.400,76.432 126.400 C 76.229 126.400,75.945 126.938,75.801 127.595 C 75.657 128.253,75.372 128.894,75.169 129.019 C 74.966 129.145,74.800 129.676,74.800 130.200 C 74.800 130.724,74.620 131.264,74.400 131.400 C 73.864 131.731,73.864 141.600,74.400 141.600 C 74.620 141.600,74.800 142.125,74.800 142.767 C 74.800 143.408,74.969 143.993,75.175 144.067 C 75.382 144.140,75.612 144.650,75.687 145.200 C 75.833 146.268,78.381 150.400,78.894 150.400 C 79.062 150.400,79.200 150.636,79.200 150.925 C 79.200 151.213,79.605 151.885,80.100 152.417 C 80.595 152.949,80.955 153.523,80.900 153.692 C 80.845 153.862,80.980 154.000,81.200 154.000 C 81.420 154.000,81.600 154.270,81.600 154.600 C 81.600 154.930,81.780 155.200,82.000 155.200 C 82.220 155.200,82.400 155.404,82.400 155.653 C 82.400 155.902,82.749 156.409,83.175 156.778 C 83.601 157.148,84.006 157.699,84.075 158.003 C 84.144 158.307,84.789 159.161,85.509 159.901 C 86.230 160.640,86.734 161.383,86.631 161.550 C 86.527 161.717,86.793 162.107,87.221 162.415 C 87.650 162.724,88.000 163.207,88.000 163.488 C 88.000 163.770,88.180 164.000,88.400 164.000 C 88.620 164.000,88.800 164.270,88.800 164.600 C 88.800 164.930,88.950 165.200,89.132 165.200 C 89.315 165.200,89.720 165.695,90.032 166.300 C 90.345 166.905,90.915 167.749,91.300 168.175 C 91.685 168.602,92.000 169.187,92.000 169.475 C 92.000 169.764,92.150 170.000,92.332 170.000 C 92.515 170.000,92.920 170.495,93.232 171.100 C 93.545 171.705,94.129 172.560,94.531 173.000 C 94.933 173.440,95.557 174.295,95.917 174.900 C 96.278 175.505,96.692 176.000,96.838 176.000 C 96.984 176.000,97.327 176.540,97.600 177.200 C 97.873 177.860,98.243 178.400,98.422 178.400 C 98.600 178.400,98.862 178.766,99.004 179.213 C 99.146 179.660,99.698 180.462,100.231 180.995 C 100.764 181.528,101.200 182.176,101.200 182.435 C 101.200 182.694,101.516 183.197,101.903 183.553 C 102.289 183.909,102.860 184.695,103.170 185.300 C 103.481 185.905,103.885 186.400,104.068 186.400 C 104.250 186.400,104.400 186.670,104.400 187.000 C 104.400 187.330,104.550 187.600,104.732 187.600 C 104.915 187.600,105.317 188.095,105.625 188.700 C 105.933 189.305,106.683 190.297,107.292 190.903 C 107.902 191.510,108.400 192.275,108.400 192.603 C 108.400 192.932,108.610 193.200,108.867 193.200 C 109.123 193.200,109.224 193.309,109.091 193.443 C 108.957 193.576,109.030 193.891,109.253 194.143 C 109.475 194.394,110.454 195.757,111.429 197.171 C 112.403 198.585,113.200 199.596,113.200 199.417 C 113.200 199.238,113.573 199.566,114.029 200.146 C 114.485 200.726,115.115 201.200,115.429 201.200 C 115.743 201.200,116.000 201.347,116.000 201.526 C 116.000 202.038,118.640 203.166,120.506 203.451 C 121.437 203.593,122.380 203.849,122.600 204.020 C 122.820 204.191,124.350 204.426,126.000 204.543 C 127.650 204.660,130.530 204.953,132.400 205.194 C 134.270 205.434,136.790 205.714,138.000 205.815 C 139.210 205.916,140.650 206.117,141.200 206.263 C 141.750 206.408,142.920 206.579,143.800 206.644 C 144.680 206.709,146.210 206.887,147.200 207.040 C 148.190 207.193,149.450 207.353,150.000 207.396 C 150.550 207.439,152.170 207.619,153.600 207.795 C 155.030 207.972,157.051 208.101,158.091 208.081 C 159.130 208.062,160.086 208.215,160.214 208.423 C 160.342 208.630,161.661 208.800,163.144 208.800 C 164.627 208.800,166.011 208.970,166.220 209.178 C 166.429 209.386,168.085 209.591,169.900 209.634 C 171.715 209.677,173.200 209.867,173.200 210.056 C 173.200 210.245,174.449 210.400,175.976 210.400 C 177.503 210.400,178.864 210.580,179.000 210.800 C 179.136 211.020,180.587 211.200,182.224 211.200 C 183.941 211.200,185.200 211.369,185.200 211.600 C 185.200 211.836,186.608 212.000,188.624 212.000 C 190.804 212.000,191.957 212.145,191.800 212.400 C 191.644 212.653,192.663 212.800,194.576 212.800 C 196.239 212.800,197.600 212.943,197.600 213.118 C 197.600 213.599,200.302 213.682,200.594 213.211 C 200.733 212.985,201.546 212.800,202.400 212.800 C 203.254 212.800,204.064 212.620,204.200 212.400 C 204.494 211.924,207.600 211.856,207.600 212.325 C 207.600 212.504,208.451 212.695,209.491 212.748 C 210.531 212.802,211.476 212.982,211.591 213.148 C 211.870 213.550,213.596 213.517,213.347 213.114 C 213.240 212.941,217.203 212.800,222.153 212.800 C 227.721 212.800,231.247 212.647,231.400 212.400 C 231.553 212.153,235.063 212.000,240.600 212.000 C 246.137 212.000,249.647 211.847,249.800 211.600 C 249.953 211.352,253.530 211.200,259.200 211.200 C 264.870 211.200,268.447 211.048,268.600 210.800 C 269.727 208.976,270.000 210.497,270.000 218.600 C 270.000 223.130,269.841 226.800,269.644 226.800 C 269.446 226.800,269.259 231.381,269.224 237.083 C 269.189 242.809,268.994 247.566,268.785 247.818 C 268.252 248.461,268.264 387.069,268.798 387.399 C 269.019 387.535,269.200 388.187,269.200 388.847 C 269.200 389.507,269.350 389.955,269.532 389.842 C 269.715 389.729,270.109 390.258,270.407 391.018 C 270.705 391.778,271.096 392.400,271.275 392.400 C 271.454 392.400,271.600 392.670,271.600 393.000 C 271.600 393.330,271.780 393.600,272.000 393.600 C 272.220 393.600,272.400 393.773,272.400 393.985 C 272.400 394.457,275.532 397.600,276.003 397.600 C 276.190 397.600,276.581 397.832,276.871 398.115 C 278.620 399.820,280.165 400.065,288.291 399.930 C 294.115 399.834,296.177 399.671,296.300 399.300 C 296.392 399.025,296.812 398.800,297.233 398.800 C 297.655 398.800,298.000 398.664,298.000 398.498 C 298.000 398.331,298.531 397.960,299.181 397.673 C 299.831 397.385,300.464 396.846,300.589 396.475 C 300.714 396.104,301.425 395.350,302.169 394.800 C 302.913 394.250,303.448 393.680,303.357 393.532 C 303.267 393.385,303.477 392.980,303.825 392.632 C 304.173 392.285,304.341 392.000,304.200 392.000 C 304.059 392.000,304.226 391.717,304.571 391.371 C 304.917 391.026,305.200 390.486,305.200 390.171 C 305.200 389.857,305.410 389.600,305.667 389.600 C 305.923 389.600,306.020 389.486,305.881 389.347 C 305.742 389.208,305.814 388.748,306.041 388.323 C 306.583 387.311,307.166 381.879,307.428 375.400 C 307.544 372.540,307.779 367.860,307.950 365.000 C 308.121 362.140,308.183 359.035,308.088 358.100 L 307.916 356.400 299.773 356.400 C 288.011 356.400,284.147 354.518,281.706 347.600 C 280.990 345.571,280.990 273.229,281.706 271.200 C 284.279 263.908,287.760 262.400,302.015 262.400 L 312.400 262.400 312.400 255.019 C 312.400 250.412,312.571 247.217,312.856 246.519 C 314.093 243.486,314.474 242.852,315.991 241.305 C 316.890 240.387,318.312 239.251,319.151 238.779 C 320.572 237.981,323.600 233.179,323.600 231.725 C 323.600 231.483,323.872 231.181,324.204 231.054 C 324.536 230.927,324.786 230.682,324.760 230.511 C 324.669 229.902,325.299 228.400,325.647 228.400 C 325.841 228.400,326.000 228.040,326.000 227.600 C 326.000 227.160,326.180 226.800,326.400 226.800 C 326.620 226.800,326.800 226.440,326.800 226.000 C 326.800 225.560,326.980 225.200,327.200 225.200 C 327.420 225.200,327.600 224.964,327.600 224.675 C 327.600 224.387,327.960 223.764,328.400 223.292 C 328.840 222.820,329.200 222.145,329.200 221.793 C 329.200 221.441,329.380 221.264,329.600 221.400 C 329.827 221.540,330.000 221.204,330.000 220.624 C 330.000 220.061,330.146 219.600,330.325 219.600 C 330.504 219.600,330.898 218.970,331.200 218.200 C 331.502 217.430,331.896 216.800,332.075 216.800 C 332.254 216.800,332.400 216.440,332.400 216.000 C 332.400 215.560,332.580 215.200,332.800 215.200 C 333.020 215.200,333.200 214.840,333.200 214.400 C 333.200 213.960,333.380 213.600,333.600 213.600 C 333.820 213.600,334.000 213.240,334.000 212.800 C 334.000 212.360,334.158 212.000,334.351 212.000 C 334.545 212.000,334.927 211.460,335.200 210.800 C 335.473 210.140,335.855 209.600,336.049 209.600 C 336.242 209.600,336.400 209.255,336.400 208.833 C 336.400 208.412,336.535 208.007,336.700 207.933 C 337.114 207.749,340.802 200.324,340.801 199.676 C 340.800 199.388,340.980 199.264,341.200 199.400 C 341.420 199.536,341.600 199.277,341.600 198.824 C 341.600 198.371,341.780 198.000,342.000 198.000 C 342.220 198.000,342.400 197.766,342.400 197.480 C 342.400 196.744,343.341 194.807,343.700 194.803 C 343.865 194.801,344.000 194.440,344.000 194.000 C 344.000 193.560,344.152 193.200,344.337 193.200 C 344.523 193.200,345.108 192.345,345.637 191.300 C 346.167 190.255,346.735 189.340,346.900 189.267 C 347.961 188.795,345.644 185.235,344.052 184.891 C 343.775 184.832,343.166 184.427,342.699 183.991 C 342.231 183.556,341.695 183.200,341.508 183.200 C 341.320 183.200,340.949 183.021,340.683 182.803 C 340.417 182.584,339.390 181.763,338.400 180.978 C 337.410 180.193,336.283 179.292,335.895 178.975 C 335.508 178.659,335.047 178.400,334.871 178.400 C 334.695 178.400,334.202 178.084,333.775 177.697 C 332.921 176.922,330.715 175.452,330.400 175.448 C 330.290 175.446,329.851 175.120,329.425 174.722 C 328.998 174.325,328.453 174.000,328.213 174.000 C 327.973 174.000,327.517 173.640,327.200 173.200 C 326.883 172.760,326.485 172.400,326.315 172.400 C 326.040 172.400,323.382 170.510,321.495 168.974 C 321.108 168.658,320.693 168.400,320.574 168.400 C 320.454 168.400,319.781 167.861,319.078 167.202 C 318.375 166.543,317.657 166.003,317.483 166.002 C 317.309 166.001,316.780 165.640,316.308 165.200 C 315.836 164.760,315.213 164.400,314.925 164.400 C 314.636 164.400,314.400 164.220,314.400 164.000 C 314.400 163.780,314.132 163.600,313.803 163.600 C 313.475 163.600,312.982 163.240,312.707 162.800 C 312.432 162.360,312.069 162.000,311.900 162.000 C 311.730 162.000,310.695 161.370,309.600 160.600 C 308.505 159.830,307.428 159.200,307.207 159.200 C 306.987 159.200,306.582 158.840,306.307 158.400 C 306.032 157.960,305.581 157.600,305.304 157.600 C 305.027 157.600,304.800 157.420,304.800 157.200 C 304.800 156.980,304.607 156.800,304.371 156.800 C 303.867 156.800,298.800 151.790,298.800 151.291 C 298.800 151.104,298.485 150.593,298.100 150.155 C 297.411 149.372,296.789 148.378,296.000 146.800 C 295.780 146.360,295.420 145.642,295.200 145.205 C 294.980 144.768,294.800 144.048,294.800 143.605 C 294.800 143.162,294.620 142.800,294.400 142.800 C 294.152 142.800,294.000 140.592,294.000 136.976 C 294.000 133.773,294.142 131.240,294.315 131.348 C 294.488 131.455,294.670 131.068,294.717 130.489 C 294.765 129.909,294.984 129.256,295.202 129.038 C 295.421 128.819,295.600 128.226,295.600 127.720 C 295.600 127.214,295.780 126.800,296.000 126.800 C 296.220 126.800,296.400 126.440,296.400 126.000 C 296.400 125.560,296.550 125.200,296.732 125.200 C 296.915 125.200,297.320 124.705,297.632 124.100 C 297.945 123.495,298.943 122.243,299.851 121.318 C 300.759 120.392,301.404 119.537,301.284 119.418 C 301.165 119.298,301.356 119.200,301.711 119.200 C 302.065 119.200,302.590 118.878,302.877 118.484 C 303.536 117.581,305.772 116.000,306.390 116.000 C 306.647 116.000,307.136 115.721,307.477 115.380 C 307.818 115.040,308.615 114.657,309.248 114.530 C 309.882 114.404,310.400 114.142,310.400 113.950 C 310.400 113.758,311.019 113.600,311.776 113.600 C 312.533 113.600,313.264 113.420,313.400 113.200 C 313.542 112.970,315.663 112.800,318.400 112.800 C 321.137 112.800,323.258 112.970,323.400 113.200 C 323.536 113.420,324.187 113.600,324.847 113.600 C 325.545 113.600,325.944 113.767,325.800 114.000 C 325.660 114.227,325.996 114.400,326.576 114.400 C 327.139 114.400,327.600 114.580,327.600 114.800 C 327.600 115.020,327.926 115.200,328.325 115.200 C 328.723 115.200,329.436 115.560,329.908 116.000 C 330.380 116.440,330.954 116.800,331.183 116.800 C 331.412 116.800,331.600 116.980,331.600 117.200 C 331.600 117.420,331.835 117.600,332.122 117.600 C 332.409 117.600,333.284 118.185,334.067 118.900 C 335.473 120.185,338.024 122.347,339.724 123.694 C 342.874 126.192,342.703 126.044,347.129 130.100 C 348.029 130.925,348.881 131.600,349.022 131.600 C 349.163 131.600,349.783 132.140,350.400 132.800 C 351.017 133.460,351.621 134.000,351.742 134.000 C 351.864 134.000,352.399 134.405,352.932 134.900 C 354.811 136.647,356.400 137.985,356.400 137.822 C 356.400 137.648,359.571 140.493,361.838 142.700 C 364.011 144.815,364.288 144.541,364.369 140.200 C 364.410 138.019,364.278 136.400,364.060 136.400 C 363.851 136.400,363.584 135.635,363.466 134.700 C 363.110 131.875,362.728 130.400,362.355 130.400 C 362.160 130.400,362.000 129.961,362.000 129.424 C 362.000 128.887,361.820 128.336,361.600 128.200 C 361.380 128.064,361.200 127.603,361.200 127.176 C 361.200 126.749,361.020 126.400,360.800 126.400 C 360.580 126.400,360.400 126.040,360.400 125.600 C 360.400 125.160,360.220 124.800,360.000 124.800 C 359.780 124.800,359.600 124.440,359.600 124.000 C 359.600 123.560,359.420 123.200,359.200 123.200 C 358.980 123.200,358.800 122.917,358.800 122.571 C 358.800 122.226,358.528 121.671,358.196 121.339 C 357.864 121.007,357.695 120.570,357.820 120.368 C 357.945 120.165,357.887 120.000,357.691 120.000 C 357.495 120.000,357.080 119.508,356.768 118.906 C 355.466 116.397,348.468 109.321,345.959 107.978 C 345.459 107.711,344.690 107.156,344.250 106.746 C 343.809 106.336,343.213 106.000,342.925 106.000 C 342.636 106.000,342.400 105.820,342.400 105.600 C 342.400 105.380,342.029 105.200,341.576 105.200 C 341.123 105.200,340.864 105.020,341.000 104.800 C 341.136 104.580,340.985 104.400,340.664 104.400 C 340.344 104.400,339.055 103.860,337.800 103.200 C 336.545 102.540,335.188 102.000,334.783 102.000 C 334.378 102.000,333.936 101.820,333.800 101.600 C 333.664 101.380,333.124 101.200,332.600 101.200 C 332.076 101.200,331.536 101.020,331.400 100.800 C 331.264 100.580,330.533 100.400,329.776 100.400 C 329.019 100.400,328.400 100.220,328.400 100.000 C 328.400 99.767,327.075 99.600,325.224 99.600 C 323.477 99.600,321.935 99.418,321.798 99.196 C 321.505 98.722,316.053 98.790,315.756 99.272 M86.180 99.977 C 85.971 100.185,84.855 100.397,83.700 100.449 C 82.545 100.501,81.600 100.691,81.600 100.871 C 81.600 101.052,81.071 101.200,80.424 101.200 C 79.777 101.200,79.136 101.380,79.000 101.600 C 78.864 101.820,78.303 102.000,77.753 102.000 C 77.188 102.000,76.860 102.174,77.000 102.400 C 77.144 102.633,76.737 102.800,76.024 102.800 C 75.351 102.800,74.800 102.980,74.800 103.200 C 74.800 103.420,74.440 103.600,74.000 103.600 C 73.560 103.600,73.200 103.780,73.200 104.000 C 73.200 104.220,72.840 104.400,72.400 104.400 C 71.960 104.400,71.600 104.580,71.600 104.800 C 71.600 105.020,71.240 105.200,70.800 105.200 C 70.360 105.200,70.000 105.380,70.000 105.600 C 70.000 105.820,69.640 106.000,69.200 106.000 C 68.760 106.000,68.400 106.180,68.400 106.400 C 68.400 106.620,68.080 106.800,67.688 106.800 C 67.297 106.800,66.717 107.160,66.400 107.600 C 66.083 108.040,65.593 108.400,65.312 108.400 C 65.030 108.400,64.800 108.580,64.800 108.800 C 64.800 109.020,64.530 109.200,64.200 109.200 C 63.870 109.200,63.600 109.410,63.600 109.667 C 63.600 109.923,63.499 110.032,63.376 109.909 C 63.064 109.597,60.132 112.249,57.667 115.073 C 54.101 119.160,53.600 119.783,53.600 120.131 C 53.600 120.337,53.212 120.842,52.739 121.253 C 52.265 121.664,52.005 122.000,52.161 122.000 C 52.318 122.000,52.132 122.530,51.749 123.178 C 51.366 123.826,50.861 124.247,50.627 124.114 C 50.392 123.981,50.328 124.014,50.484 124.187 C 50.641 124.360,50.326 125.295,49.784 126.265 C 49.243 127.235,48.800 128.292,48.800 128.614 C 48.800 128.936,48.620 129.200,48.400 129.200 C 48.180 129.200,48.000 129.650,48.000 130.200 C 48.000 130.750,47.820 131.200,47.600 131.200 C 47.380 131.200,47.200 131.639,47.200 132.176 C 47.200 132.713,47.020 133.264,46.800 133.400 C 46.580 133.536,46.400 134.267,46.400 135.024 C 46.400 135.781,46.238 136.400,46.040 136.400 C 45.688 136.400,45.469 137.595,45.016 142.000 C 44.891 143.210,44.618 144.830,44.409 145.600 C 44.200 146.370,43.926 148.620,43.801 150.600 C 43.675 152.580,43.494 155.460,43.398 157.000 C 43.302 158.540,43.095 160.430,42.938 161.200 C 42.781 161.970,42.626 163.230,42.594 164.000 C 42.562 164.770,42.391 166.570,42.214 168.000 C 42.038 169.430,41.908 171.673,41.926 172.985 C 41.943 174.296,41.802 175.557,41.612 175.785 C 41.282 176.184,41.046 178.638,40.566 186.700 C 40.444 188.735,40.177 190.400,39.973 190.400 C 39.767 190.400,39.600 192.196,39.600 194.400 C 39.600 196.800,39.440 198.400,39.200 198.400 C 38.963 198.400,38.800 199.859,38.800 201.976 C 38.800 203.943,38.620 205.664,38.400 205.800 C 38.180 205.936,38.000 207.667,38.000 209.647 C 38.000 211.627,37.843 213.150,37.651 213.031 C 37.459 212.913,37.269 214.562,37.229 216.698 C 37.189 218.833,37.000 220.676,36.809 220.794 C 36.618 220.912,36.360 222.627,36.235 224.605 C 36.110 226.582,35.904 229.820,35.776 231.800 C 35.648 233.780,35.376 235.571,35.172 235.780 C 34.967 235.989,34.800 237.666,34.800 239.506 C 34.800 241.347,34.630 243.171,34.422 243.560 C 34.213 243.948,34.010 245.917,33.969 247.933 C 33.928 249.950,33.739 251.600,33.547 251.600 C 33.356 251.600,33.200 253.321,33.200 255.424 C 33.200 257.871,33.056 259.158,32.800 259.000 C 32.544 258.842,32.400 260.103,32.400 262.496 C 32.400 264.555,32.233 266.411,32.028 266.620 C 31.680 266.976,31.523 268.639,30.967 277.900 L 30.745 281.600 36.973 281.600 L 43.200 281.600 43.244 333.300 C 43.269 361.735,43.258 385.388,43.221 385.862 C 43.183 386.336,43.343 386.841,43.576 386.985 C 43.809 387.129,44.000 387.777,44.000 388.424 C 44.000 389.071,44.141 389.600,44.312 389.600 C 44.484 389.600,44.838 390.095,45.098 390.700 C 45.738 392.189,46.444 393.242,47.400 394.138 C 47.840 394.550,48.155 395.047,48.100 395.244 C 48.045 395.440,48.172 395.600,48.382 395.600 C 48.973 395.600,50.748 397.515,50.458 397.840 C 50.316 397.998,50.410 398.008,50.668 397.860 C 50.925 397.713,51.407 397.864,51.739 398.196 C 52.071 398.528,52.611 398.800,52.938 398.800 C 53.265 398.800,53.608 399.025,53.700 399.300 C 53.827 399.680,55.969 399.800,62.600 399.800 C 69.231 399.800,71.373 399.680,71.500 399.300 C 71.592 399.025,71.922 398.800,72.233 398.800 C 72.545 398.800,72.800 398.650,72.800 398.468 C 72.800 398.285,73.293 397.880,73.895 397.568 C 75.210 396.886,78.147 393.981,78.332 393.179 C 78.405 392.865,78.599 392.516,78.764 392.404 C 78.929 392.292,79.313 391.628,79.617 390.929 C 79.921 390.230,80.312 389.745,80.485 389.852 C 80.658 389.960,80.800 389.497,80.800 388.824 C 80.800 388.151,80.980 387.600,81.200 387.600 C 81.431 387.600,81.600 386.325,81.600 384.576 C 81.600 382.663,81.747 381.644,82.000 381.800 C 82.261 381.961,82.400 379.604,82.400 375.024 C 82.400 370.608,82.549 368.000,82.800 368.000 C 83.052 368.000,83.200 365.341,83.200 360.824 C 83.200 356.471,83.357 353.550,83.600 353.400 C 83.841 353.251,84.000 350.455,84.000 346.353 C 84.000 342.338,84.150 339.646,84.366 339.779 C 84.582 339.913,84.752 337.088,84.781 332.903 C 84.807 328.996,84.988 325.745,85.183 325.677 C 85.378 325.609,85.557 322.388,85.581 318.519 C 85.605 314.649,85.754 311.284,85.913 311.041 C 86.177 310.636,86.448 305.316,87.017 289.400 C 87.135 286.100,87.343 283.130,87.479 282.800 C 87.616 282.470,87.697 282.060,87.660 281.890 C 87.623 281.719,90.340 281.629,93.697 281.690 C 98.320 281.773,99.776 281.921,99.700 282.300 C 99.645 282.575,99.780 282.800,100.000 282.800 C 100.251 282.800,100.400 285.373,100.400 289.720 C 100.400 293.624,100.568 296.808,100.785 297.025 C 100.998 297.238,101.192 300.416,101.219 304.103 C 101.246 307.783,101.433 310.897,101.634 311.021 C 101.835 311.145,102.000 314.286,102.000 318.000 C 102.000 322.070,102.159 324.851,102.400 325.000 C 102.642 325.149,102.800 327.996,102.800 332.200 C 102.800 336.404,102.958 339.251,103.200 339.400 C 103.443 339.550,103.600 342.471,103.600 346.824 C 103.600 351.341,103.748 354.000,104.000 354.000 C 104.251 354.000,104.400 356.592,104.400 360.976 C 104.400 365.196,104.558 368.050,104.800 368.200 C 105.042 368.350,105.200 371.204,105.200 375.424 C 105.200 379.808,105.349 382.400,105.600 382.400 C 105.822 382.400,106.000 383.459,106.000 384.776 C 106.000 386.083,106.180 387.264,106.400 387.400 C 106.620 387.536,106.800 388.087,106.800 388.624 C 106.800 389.161,106.980 389.600,107.200 389.600 C 107.420 389.600,107.600 389.971,107.600 390.424 C 107.600 390.877,107.780 391.136,108.000 391.000 C 108.220 390.864,108.400 391.099,108.400 391.522 C 108.400 391.946,108.773 392.766,109.229 393.346 C 109.685 393.926,109.941 394.400,109.798 394.400 C 109.655 394.400,110.137 394.895,110.869 395.500 C 111.601 396.105,112.260 396.735,112.333 396.900 C 112.407 397.065,112.722 397.200,113.033 397.200 C 113.345 397.200,113.600 397.350,113.600 397.532 C 113.600 397.715,114.095 398.120,114.700 398.432 C 115.305 398.744,115.928 399.179,116.085 399.399 C 116.471 399.940,133.529 399.941,133.915 399.400 C 134.072 399.180,134.830 398.652,135.600 398.227 C 136.370 397.802,137.603 396.857,138.340 396.127 C 139.077 395.397,139.872 394.800,140.107 394.800 C 140.341 394.800,140.419 394.685,140.278 394.545 C 140.138 394.405,140.378 393.792,140.812 393.183 C 141.245 392.575,141.600 391.879,141.600 391.638 C 141.600 391.397,141.735 391.199,141.900 391.197 C 142.311 391.193,143.200 389.209,143.200 388.297 C 143.200 387.888,143.380 387.664,143.600 387.800 C 143.866 387.964,144.000 370.204,144.000 334.824 L 144.000 281.600 150.393 281.600 L 156.786 281.600 156.733 277.987 C 156.704 275.999,156.553 274.294,156.397 274.198 C 156.241 274.102,156.078 272.547,156.034 270.743 C 155.991 268.939,155.790 267.156,155.589 266.780 C 155.388 266.404,155.187 264.374,155.142 262.268 C 155.097 260.162,154.912 258.531,154.730 258.643 C 154.549 258.755,154.385 257.712,154.366 256.324 C 154.347 254.936,154.245 253.170,154.139 252.400 C 153.785 249.833,153.177 243.440,152.959 240.000 C 152.841 238.130,152.576 236.429,152.372 236.220 C 152.167 236.011,152.000 234.292,152.000 232.400 C 152.000 230.508,151.828 228.788,151.618 228.578 C 151.408 228.368,151.204 226.618,151.166 224.690 C 151.129 222.761,150.941 221.087,150.749 220.968 C 150.557 220.850,150.400 219.143,150.400 217.176 C 150.400 215.059,150.237 213.600,150.000 213.600 C 149.780 213.600,149.600 213.259,149.600 212.843 C 149.600 211.846,148.836 211.566,145.000 211.157 C 143.240 210.969,140.360 210.627,138.600 210.395 C 136.840 210.164,134.256 209.902,132.858 209.814 C 131.460 209.726,130.020 209.530,129.658 209.379 C 129.296 209.229,128.100 209.056,127.000 208.996 C 123.003 208.778,119.170 208.275,118.964 207.941 C 118.848 207.754,118.313 207.600,117.776 207.600 C 117.239 207.600,116.800 207.420,116.800 207.200 C 116.800 206.980,116.440 206.800,116.000 206.800 C 115.560 206.800,115.200 206.620,115.200 206.400 C 115.200 206.180,114.936 206.000,114.613 206.000 C 114.291 206.000,113.371 205.415,112.569 204.700 C 109.635 202.083,108.683 201.014,106.908 198.341 C 106.299 197.423,105.530 196.278,105.200 195.796 C 104.870 195.314,104.253 194.397,103.828 193.760 C 103.403 193.122,102.829 192.408,102.553 192.174 C 102.276 191.940,101.993 191.498,101.925 191.192 C 101.856 190.886,101.409 190.229,100.931 189.731 C 100.453 189.233,99.946 188.460,99.804 188.013 C 99.662 187.566,99.378 187.200,99.173 187.200 C 98.968 187.200,98.800 186.930,98.800 186.600 C 98.800 186.270,98.620 186.000,98.400 186.000 C 98.180 186.000,98.000 185.773,98.000 185.496 C 98.000 185.219,97.640 184.768,97.200 184.493 C 96.760 184.218,96.400 183.770,96.400 183.497 C 96.399 183.223,95.953 182.482,95.408 181.848 C 94.863 181.214,94.531 180.511,94.670 180.286 C 94.816 180.051,94.727 179.998,94.462 180.162 C 94.208 180.319,94.000 180.250,94.000 180.009 C 94.000 179.768,93.630 179.173,93.177 178.686 C 92.334 177.779,90.244 174.674,89.236 172.831 C 88.925 172.264,88.340 171.509,87.936 171.153 C 87.531 170.797,87.200 170.329,87.200 170.112 C 87.200 169.896,86.705 169.194,86.100 168.552 C 85.495 167.911,84.745 166.894,84.432 166.293 C 84.120 165.692,83.715 165.200,83.532 165.200 C 83.350 165.200,83.200 164.964,83.200 164.675 C 83.200 164.387,82.840 163.764,82.400 163.292 C 81.960 162.820,81.600 162.246,81.600 162.017 C 81.600 161.788,81.450 161.600,81.268 161.600 C 81.085 161.600,80.681 161.105,80.370 160.500 C 80.060 159.895,79.532 159.130,79.197 158.800 C 78.863 158.470,78.142 157.526,77.595 156.703 C 77.048 155.879,76.465 155.204,76.300 155.203 C 76.135 155.201,76.000 154.840,76.000 154.400 C 76.000 153.960,75.848 153.600,75.663 153.600 C 75.478 153.600,74.983 152.930,74.563 152.111 C 74.143 151.292,73.485 150.268,73.100 149.835 C 72.715 149.403,72.400 148.813,72.400 148.525 C 72.400 148.236,72.220 148.000,72.000 148.000 C 71.780 148.000,71.600 147.640,71.600 147.200 C 71.600 146.760,71.420 146.400,71.200 146.400 C 70.980 146.400,70.800 146.076,70.800 145.680 C 70.800 145.284,70.629 144.789,70.419 144.579 C 70.210 144.370,69.994 143.535,69.939 142.725 C 69.885 141.915,69.696 141.341,69.520 141.449 C 69.066 141.730,69.122 133.307,69.584 131.828 C 69.795 131.153,70.195 129.745,70.471 128.700 C 70.748 127.655,71.115 126.800,71.287 126.800 C 71.459 126.800,71.600 126.468,71.600 126.062 C 71.600 125.656,71.955 125.002,72.390 124.609 C 72.824 124.216,73.292 123.539,73.430 123.104 C 73.864 121.739,77.758 117.600,78.610 117.600 C 78.837 117.600,79.283 117.240,79.600 116.800 C 79.917 116.360,80.497 116.000,80.888 116.000 C 81.280 116.000,81.601 115.865,81.603 115.700 C 81.607 115.341,83.544 114.400,84.280 114.400 C 84.566 114.400,84.800 114.220,84.800 114.000 C 84.800 113.780,85.239 113.600,85.776 113.600 C 86.313 113.600,86.864 113.420,87.000 113.200 C 87.136 112.980,88.227 112.800,89.424 112.800 C 90.621 112.800,91.600 112.620,91.600 112.400 C 91.600 111.914,93.468 111.862,93.763 112.340 C 93.878 112.527,95.102 112.713,96.481 112.755 C 97.861 112.796,99.163 113.003,99.375 113.215 C 99.587 113.427,100.185 113.600,100.704 113.600 C 101.231 113.600,101.538 113.777,101.400 114.000 C 101.256 114.233,101.663 114.400,102.376 114.400 C 103.049 114.400,103.600 114.580,103.600 114.800 C 103.600 115.020,103.960 115.200,104.400 115.200 C 104.840 115.200,105.200 115.350,105.200 115.532 C 105.200 115.715,105.695 116.120,106.300 116.432 C 107.843 117.228,113.600 123.020,113.600 123.776 C 113.600 124.119,113.780 124.400,114.000 124.400 C 114.220 124.400,114.400 124.745,114.400 125.167 C 114.400 125.588,114.567 125.993,114.770 126.067 C 114.974 126.140,115.199 126.470,115.270 126.800 C 115.342 127.130,115.499 127.490,115.619 127.600 C 116.312 128.232,117.600 130.418,117.600 130.962 C 117.600 131.313,117.780 131.600,118.000 131.600 C 118.220 131.600,118.400 131.870,118.400 132.200 C 118.400 132.530,118.580 132.800,118.800 132.800 C 119.020 132.800,119.206 133.115,119.213 133.500 C 119.220 133.885,119.484 134.542,119.800 134.959 C 120.116 135.376,120.262 135.899,120.125 136.121 C 119.984 136.349,120.076 136.400,120.338 136.238 C 120.612 136.069,120.800 136.207,120.800 136.576 C 120.800 136.919,120.946 137.200,121.125 137.200 C 121.304 137.200,121.698 137.830,122.000 138.600 C 122.302 139.370,122.696 140.000,122.875 140.000 C 123.054 140.000,123.200 140.360,123.200 140.800 C 123.200 141.240,123.380 141.600,123.600 141.600 C 123.820 141.600,124.000 141.960,124.000 142.400 C 124.000 142.840,124.136 143.200,124.302 143.200 C 124.469 143.200,125.014 144.093,125.515 145.184 C 126.016 146.275,126.592 147.271,126.795 147.397 C 126.999 147.523,127.064 147.890,126.940 148.213 C 126.797 148.584,126.959 148.800,127.381 148.800 C 127.747 148.800,127.945 148.965,127.820 149.168 C 127.695 149.370,127.876 149.819,128.222 150.165 C 128.568 150.511,128.722 151.003,128.564 151.259 C 128.400 151.523,128.450 151.616,128.678 151.475 C 128.899 151.339,129.308 151.716,129.586 152.314 C 129.865 152.911,130.252 153.713,130.447 154.095 C 130.641 154.477,130.800 155.072,130.800 155.418 C 130.800 155.764,130.980 155.936,131.200 155.800 C 131.420 155.664,131.600 155.833,131.600 156.176 C 131.600 156.519,131.735 156.801,131.900 156.803 C 132.259 156.807,133.200 158.744,133.200 159.480 C 133.200 159.766,133.380 160.000,133.600 160.000 C 133.820 160.000,134.000 160.270,134.000 160.600 C 134.000 160.930,134.180 161.200,134.400 161.200 C 134.620 161.200,134.800 161.560,134.800 162.000 C 134.800 162.440,134.980 162.800,135.200 162.800 C 135.420 162.800,135.600 163.160,135.600 163.600 C 135.600 164.040,135.780 164.400,136.000 164.400 C 136.220 164.400,136.400 164.636,136.400 164.925 C 136.400 165.213,136.760 165.836,137.200 166.308 C 137.640 166.780,138.000 167.367,138.000 167.612 C 138.000 168.359,139.090 169.200,140.174 169.290 C 140.738 169.336,141.200 169.525,141.200 169.708 C 141.200 170.591,145.399 169.807,145.528 168.900 C 145.598 168.405,145.463 168.000,145.228 168.000 C 144.956 168.000,144.800 166.696,144.800 164.424 C 144.800 162.457,144.620 160.736,144.400 160.600 C 144.180 160.464,144.000 158.754,144.000 156.800 C 144.000 154.846,143.820 153.136,143.600 153.000 C 143.380 152.864,143.200 151.154,143.200 149.200 C 143.200 147.246,143.020 145.536,142.800 145.400 C 142.580 145.264,142.400 143.903,142.400 142.376 C 142.400 140.792,142.228 139.600,142.000 139.600 C 141.780 139.600,141.600 138.820,141.600 137.867 C 141.600 136.913,141.465 135.998,141.300 135.833 C 141.135 135.668,140.981 135.143,140.959 134.667 C 140.919 133.829,140.736 133.212,139.964 131.300 C 139.764 130.805,139.441 129.995,139.247 129.500 C 138.490 127.568,136.985 124.593,136.700 124.467 C 136.535 124.393,136.400 124.078,136.400 123.767 C 136.400 123.455,136.220 123.200,136.000 123.200 C 135.780 123.200,135.600 122.930,135.600 122.600 C 135.600 122.270,135.420 122.000,135.200 122.000 C 134.980 122.000,134.800 121.730,134.800 121.400 C 134.800 121.070,134.632 120.800,134.427 120.800 C 134.222 120.800,133.943 120.449,133.806 120.020 C 133.670 119.591,132.758 118.393,131.779 117.357 C 130.801 116.320,130.000 115.231,130.000 114.936 C 130.000 114.641,129.847 114.400,129.659 114.400 C 129.149 114.400,126.583 111.852,126.710 111.471 C 126.770 111.289,126.614 111.268,126.362 111.424 C 126.098 111.586,125.356 111.109,124.615 110.300 C 123.907 109.527,122.962 108.778,122.516 108.637 C 122.070 108.495,121.384 108.024,120.991 107.590 C 120.598 107.155,120.034 106.800,119.738 106.800 C 119.442 106.800,119.200 106.620,119.200 106.400 C 119.200 106.180,118.917 106.000,118.571 106.000 C 118.226 106.000,117.664 105.721,117.323 105.380 C 116.982 105.040,116.185 104.657,115.552 104.530 C 114.918 104.404,114.400 104.142,114.400 103.950 C 114.400 103.758,114.040 103.600,113.600 103.600 C 113.160 103.600,112.800 103.420,112.800 103.200 C 112.800 102.980,112.339 102.800,111.776 102.800 C 111.213 102.800,110.840 102.658,110.948 102.485 C 111.055 102.312,110.660 102.133,110.071 102.089 C 109.482 102.044,108.640 101.851,108.200 101.659 C 106.506 100.921,104.533 100.429,102.900 100.338 C 101.965 100.286,101.200 100.099,101.200 99.922 C 101.200 99.466,86.641 99.519,86.180 99.977 M314.600 118.000 C 314.464 118.220,313.744 118.400,313.000 118.400 C 312.256 118.400,311.536 118.580,311.400 118.800 C 311.264 119.020,310.837 119.200,310.452 119.200 C 310.066 119.200,309.364 119.560,308.892 120.000 C 308.420 120.440,307.796 120.800,307.505 120.800 C 307.214 120.800,306.717 121.160,306.400 121.600 C 306.083 122.040,305.458 122.403,305.012 122.406 C 304.341 122.411,304.304 122.480,304.800 122.800 C 305.278 123.109,305.197 123.195,304.400 123.225 C 303.850 123.246,303.614 123.350,303.875 123.457 C 304.165 123.575,303.737 124.282,302.775 125.273 C 301.909 126.166,301.200 127.145,301.200 127.448 C 301.200 127.752,301.020 128.000,300.800 128.000 C 300.580 128.000,300.400 128.371,300.400 128.824 C 300.400 129.351,300.231 129.543,299.932 129.358 C 299.625 129.168,299.545 129.281,299.700 129.685 C 299.830 130.023,299.681 130.793,299.368 131.396 C 298.695 132.694,298.546 142.248,299.197 142.467 C 299.415 142.540,299.634 143.095,299.684 143.700 C 299.734 144.305,299.915 144.800,300.087 144.800 C 300.259 144.800,300.400 145.160,300.400 145.600 C 300.400 146.040,300.568 146.400,300.773 146.400 C 300.978 146.400,301.254 146.739,301.385 147.152 C 301.516 147.566,301.975 148.310,302.404 148.804 C 302.832 149.299,303.087 149.860,302.968 150.052 C 302.850 150.243,302.930 150.400,303.146 150.400 C 303.362 150.400,304.078 150.940,304.738 151.600 C 305.398 152.260,306.093 152.800,306.281 152.800 C 306.469 152.800,306.883 153.160,307.200 153.600 C 307.517 154.040,307.938 154.400,308.135 154.400 C 308.560 154.400,312.541 157.251,312.733 157.693 C 312.807 157.862,313.123 158.000,313.437 158.000 C 313.751 158.000,314.572 158.540,315.263 159.200 C 315.954 159.860,316.760 160.400,317.056 160.400 C 317.351 160.400,317.818 160.760,318.093 161.200 C 318.368 161.640,318.869 162.000,319.208 162.000 C 319.546 162.000,320.083 162.360,320.400 162.800 C 320.717 163.240,321.217 163.600,321.512 163.600 C 321.815 163.600,321.923 163.801,321.762 164.062 C 321.598 164.327,321.651 164.416,321.886 164.270 C 322.111 164.131,322.814 164.463,323.448 165.008 C 324.082 165.553,324.785 165.999,325.012 166.000 C 325.238 166.000,325.683 166.360,326.000 166.800 C 326.317 167.240,326.807 167.600,327.088 167.600 C 327.370 167.600,327.601 167.735,327.602 167.900 C 327.603 168.065,328.580 168.824,329.772 169.587 C 330.965 170.349,331.836 171.142,331.708 171.348 C 331.581 171.555,331.670 171.604,331.906 171.458 C 332.142 171.312,332.583 171.419,332.885 171.696 C 333.538 172.295,334.766 173.100,335.600 173.475 C 335.930 173.623,336.470 174.027,336.800 174.372 C 337.130 174.718,337.668 175.059,337.996 175.132 C 338.324 175.205,338.684 175.393,338.796 175.551 C 338.908 175.709,339.630 176.271,340.400 176.800 C 341.170 177.329,342.091 178.086,342.447 178.481 C 342.803 178.876,343.298 179.200,343.547 179.200 C 343.796 179.200,344.000 179.350,344.000 179.532 C 344.000 179.715,344.495 180.119,345.100 180.430 C 345.705 180.740,346.491 181.311,346.847 181.697 C 347.203 182.084,347.671 182.400,347.888 182.400 C 348.104 182.400,348.846 182.940,349.537 183.600 C 350.228 184.260,350.983 184.800,351.215 184.800 C 351.925 184.800,353.835 186.922,353.289 187.104 C 353.020 187.193,352.800 187.612,352.800 188.033 C 352.800 188.455,352.620 188.800,352.400 188.800 C 352.180 188.800,352.000 189.160,352.000 189.600 C 352.000 190.040,351.820 190.400,351.600 190.400 C 351.380 190.400,351.200 190.670,351.200 191.000 C 351.200 191.330,351.020 191.600,350.800 191.600 C 350.580 191.600,350.400 191.971,350.400 192.424 C 350.400 192.877,350.220 193.136,350.000 193.000 C 349.780 192.864,349.600 193.033,349.600 193.376 C 349.600 193.719,349.420 194.000,349.200 194.000 C 348.980 194.000,348.800 194.349,348.800 194.776 C 348.800 195.203,348.620 195.664,348.400 195.800 C 348.180 195.936,348.000 196.319,348.000 196.652 C 348.000 196.984,347.472 198.023,346.828 198.960 C 346.183 199.897,344.820 202.360,343.798 204.432 C 342.777 206.504,341.772 208.470,341.565 208.800 C 341.358 209.130,340.993 209.895,340.755 210.500 C 340.517 211.105,340.196 211.600,340.041 211.600 C 339.887 211.600,339.533 212.230,339.254 213.000 C 338.976 213.770,338.580 214.400,338.374 214.400 C 338.168 214.400,338.000 214.760,338.000 215.200 C 338.000 215.640,337.852 216.000,337.671 216.000 C 337.491 216.000,336.936 216.900,336.439 218.000 C 335.942 219.100,335.359 220.000,335.144 220.000 C 334.929 220.000,334.855 220.165,334.980 220.368 C 335.105 220.570,334.981 220.979,334.704 221.277 C 334.427 221.575,334.141 222.085,334.070 222.410 C 333.998 222.734,333.773 223.060,333.570 223.133 C 333.366 223.207,333.200 223.612,333.200 224.033 C 333.200 224.455,333.020 224.800,332.800 224.800 C 332.580 224.800,332.400 225.160,332.400 225.600 C 332.400 226.040,332.220 226.400,332.000 226.400 C 331.780 226.400,331.600 226.670,331.600 227.000 C 331.600 227.330,331.420 227.600,331.200 227.600 C 330.980 227.600,330.800 227.836,330.800 228.125 C 330.800 228.413,330.433 229.043,329.984 229.525 C 329.536 230.006,329.272 230.400,329.397 230.400 C 329.523 230.400,329.173 231.210,328.621 232.200 C 328.068 233.190,327.730 234.000,327.870 234.000 C 328.010 234.000,327.785 234.374,327.372 234.831 C 326.931 235.318,326.586 236.355,326.538 237.331 C 326.494 238.249,326.332 239.946,326.178 241.103 C 325.867 243.438,326.422 246.093,327.721 248.482 C 328.387 249.707,328.438 250.072,328.015 250.582 C 327.733 250.922,327.680 251.200,327.896 251.200 C 328.113 251.200,328.765 251.675,329.345 252.255 C 329.925 252.835,330.400 253.188,330.400 253.039 C 330.400 252.890,330.794 253.136,331.275 253.584 C 331.757 254.033,332.488 254.400,332.899 254.400 C 333.311 254.400,333.536 254.580,333.400 254.800 C 333.247 255.048,333.996 255.200,335.376 255.200 C 336.599 255.200,337.600 255.367,337.600 255.572 C 337.600 255.799,338.089 255.804,338.851 255.585 C 339.540 255.388,340.789 255.186,341.628 255.136 C 342.466 255.087,343.062 254.901,342.953 254.723 C 342.843 254.545,343.213 254.400,343.776 254.400 C 344.339 254.400,344.800 254.220,344.800 254.000 C 344.800 253.780,345.035 253.600,345.322 253.600 C 346.260 253.600,348.828 250.939,348.561 250.243 C 348.218 249.348,354.903 239.293,356.159 238.816 C 356.681 238.617,357.353 237.902,357.652 237.227 C 357.951 236.552,358.331 236.000,358.498 236.000 C 358.664 236.000,358.800 235.812,358.800 235.583 C 358.800 235.354,359.160 234.780,359.600 234.308 C 360.040 233.836,360.400 233.213,360.400 232.925 C 360.400 232.636,360.580 232.400,360.800 232.400 C 361.020 232.400,361.200 232.130,361.200 231.800 C 361.200 231.470,361.380 231.200,361.600 231.200 C 361.820 231.200,362.000 230.930,362.000 230.600 C 362.000 230.270,362.152 230.000,362.337 230.000 C 362.523 230.000,363.091 229.190,363.600 228.200 C 364.109 227.210,364.677 226.400,364.863 226.400 C 365.048 226.400,365.200 226.158,365.200 225.862 C 365.200 225.566,365.560 224.998,366.000 224.600 C 366.440 224.202,366.800 223.634,366.800 223.338 C 366.800 223.042,366.980 222.800,367.200 222.800 C 367.420 222.800,367.600 222.545,367.600 222.233 C 367.600 221.922,367.742 221.607,367.916 221.533 C 368.248 221.393,370.800 217.703,370.800 217.363 C 370.800 217.255,371.154 216.787,371.586 216.323 C 372.019 215.859,372.297 215.357,372.205 215.208 C 372.113 215.059,372.549 214.377,373.175 213.692 C 373.801 213.007,374.212 212.346,374.090 212.223 C 373.967 212.100,374.087 212.000,374.357 212.000 C 374.627 212.000,374.736 211.820,374.600 211.600 C 374.464 211.380,374.543 211.200,374.776 211.200 C 375.009 211.200,375.200 210.919,375.200 210.576 C 375.200 210.233,375.350 210.045,375.533 210.159 C 375.717 210.272,375.867 210.145,375.867 209.876 C 375.867 209.211,379.178 204.400,379.635 204.400 C 379.836 204.400,380.000 204.040,380.000 203.600 C 380.000 203.160,380.150 202.800,380.332 202.800 C 380.515 202.800,380.920 202.305,381.232 201.700 C 381.545 201.095,382.115 200.251,382.500 199.825 C 382.885 199.398,383.200 198.813,383.200 198.525 C 383.200 198.236,383.350 198.000,383.532 198.000 C 383.715 198.000,384.119 197.505,384.430 196.900 C 384.740 196.295,385.311 195.509,385.697 195.153 C 386.084 194.797,386.400 194.295,386.400 194.036 C 386.400 193.778,386.760 193.180,387.200 192.708 C 387.640 192.236,388.000 191.613,388.000 191.325 C 388.000 191.036,388.176 190.800,388.392 190.800 C 388.902 190.800,391.298 185.682,391.008 185.213 C 390.886 185.016,390.970 184.742,391.193 184.604 C 392.740 183.648,390.705 173.519,388.515 171.271 C 388.232 170.981,388.000 170.576,388.000 170.371 C 388.000 170.167,387.719 170.000,387.376 170.000 C 387.033 170.000,386.847 169.847,386.963 169.660 C 387.078 169.473,386.729 169.083,386.186 168.793 C 385.644 168.502,385.200 168.115,385.200 167.932 C 385.200 167.750,385.015 167.600,384.788 167.600 C 384.561 167.600,383.452 166.700,382.323 165.600 C 381.193 164.500,380.101 163.600,379.895 163.600 C 379.689 163.600,379.044 163.101,378.460 162.492 C 377.877 161.883,376.590 160.767,375.600 160.013 C 372.814 157.890,370.454 155.679,370.706 155.428 C 370.831 155.302,370.619 155.200,370.235 155.200 C 369.851 155.200,368.831 154.465,367.969 153.567 C 367.106 152.669,366.400 152.026,366.400 152.137 C 366.400 152.389,364.883 151.121,362.529 148.900 C 361.538 147.965,360.552 147.200,360.340 147.200 C 360.127 147.200,360.081 146.992,360.238 146.738 C 360.411 146.458,360.348 146.385,360.077 146.552 C 359.831 146.704,358.862 146.104,357.918 145.214 C 356.975 144.326,356.058 143.600,355.879 143.600 C 355.699 143.600,355.664 143.420,355.800 143.200 C 355.936 142.980,355.788 142.800,355.472 142.800 C 355.155 142.800,354.155 142.080,353.248 141.200 C 352.341 140.320,351.479 139.600,351.333 139.600 C 351.187 139.600,350.782 139.328,350.434 138.995 C 347.754 136.437,344.947 134.000,344.681 134.000 C 344.506 134.000,343.462 133.100,342.362 132.000 C 341.262 130.900,340.260 130.000,340.134 130.000 C 340.009 130.000,338.838 129.010,337.531 127.800 C 336.224 126.590,334.973 125.600,334.751 125.600 C 334.529 125.600,333.471 124.700,332.400 123.600 C 331.329 122.500,330.253 121.600,330.009 121.600 C 329.766 121.600,329.180 121.240,328.708 120.800 C 328.236 120.360,327.613 120.000,327.325 120.000 C 327.036 120.000,326.800 119.820,326.800 119.600 C 326.800 119.380,326.361 119.200,325.824 119.200 C 325.287 119.200,324.736 119.020,324.600 118.800 C 324.464 118.580,323.834 118.400,323.200 118.400 C 322.566 118.400,321.936 118.220,321.800 118.000 C 321.664 117.780,320.044 117.600,318.200 117.600 C 316.356 117.600,314.736 117.780,314.600 118.000 M366.900 232.111 C 366.405 232.337,366.000 232.841,366.000 233.230 C 366.000 233.620,365.406 234.718,364.680 235.669 C 363.954 236.621,363.240 237.715,363.093 238.100 C 362.946 238.485,362.639 238.800,362.413 238.800 C 362.186 238.800,362.000 239.036,362.000 239.325 C 362.000 239.613,361.685 240.205,361.300 240.640 C 360.273 241.801,360.288 242.165,361.476 244.907 C 362.519 247.315,362.556 247.657,362.578 254.912 L 362.600 262.424 366.200 262.312 L 369.800 262.200 369.841 260.600 C 369.863 259.720,369.739 258.815,369.565 258.588 C 369.391 258.362,369.210 253.451,369.163 247.674 C 369.116 241.898,368.925 237.077,368.739 236.962 C 368.552 236.847,368.400 235.694,368.400 234.400 C 368.400 231.793,368.214 231.510,366.900 232.111 M325.200 259.200 L 325.200 262.400 337.620 262.400 L 350.040 262.400 349.920 260.100 C 349.812 258.028,349.706 257.787,348.856 257.666 C 348.318 257.590,348.015 257.700,348.151 257.921 C 348.359 258.258,348.060 258.427,346.703 258.742 C 346.540 258.779,345.769 259.168,344.991 259.605 C 344.212 260.042,343.142 260.400,342.611 260.400 C 342.081 260.400,341.536 260.580,341.400 260.800 C 341.097 261.290,335.457 261.334,334.495 260.854 C 333.628 260.421,331.262 259.609,330.201 259.380 C 329.762 259.286,329.342 259.026,329.268 258.804 C 329.194 258.582,328.861 258.400,328.527 258.400 C 328.194 258.400,327.417 257.860,326.800 257.200 C 325.247 255.537,325.200 255.596,325.200 259.200 M329.226 361.894 C 329.244 364.916,329.421 367.584,329.619 367.822 C 329.816 368.061,330.002 371.349,330.030 375.130 C 330.059 378.910,330.244 382.103,330.441 382.225 C 330.638 382.347,330.800 383.279,330.800 384.295 C 330.800 386.578,332.204 391.200,332.898 391.200 C 333.064 391.200,333.200 391.470,333.200 391.800 C 333.200 392.130,333.380 392.400,333.600 392.400 C 333.820 392.400,334.000 392.651,334.000 392.957 C 334.000 393.264,334.296 393.628,334.657 393.767 C 335.019 393.905,335.205 394.128,335.071 394.262 C 334.775 394.558,336.866 396.558,338.449 397.493 C 339.082 397.867,339.600 398.314,339.600 398.486 C 339.600 398.659,339.849 398.800,340.154 398.800 C 340.459 398.800,341.224 399.069,341.854 399.398 C 343.509 400.260,356.491 400.260,358.146 399.398 C 358.776 399.069,359.526 398.800,359.812 398.800 C 360.099 398.800,360.393 398.633,360.467 398.430 C 360.540 398.226,360.859 398.001,361.175 397.930 C 361.907 397.765,365.200 394.557,365.200 394.011 C 365.200 393.785,365.359 393.600,365.553 393.600 C 365.748 393.600,366.007 393.285,366.129 392.900 C 366.354 392.189,367.624 389.965,368.013 389.600 C 368.598 389.052,369.190 384.921,369.258 380.918 C 369.301 378.453,369.485 376.529,369.668 376.642 C 369.850 376.755,370.000 376.487,370.000 376.047 C 370.000 375.607,369.861 375.161,369.692 375.057 C 369.348 374.844,369.385 372.983,369.798 369.681 C 369.948 368.477,369.909 367.381,369.711 367.246 C 369.497 367.100,369.504 365.238,369.728 362.675 C 369.996 359.612,369.976 358.066,369.661 357.375 L 369.217 356.400 349.205 356.400 L 329.194 356.400 329.226 361.894 " stroke="none" fill="#cc843c" fill-rule="evenodd"></path><path id="path2" d="M222.200 25.946 C 221.540 26.354,217.850 29.859,214.000 33.735 C 210.150 37.610,206.676 40.785,206.280 40.790 C 205.883 40.796,203.852 39.021,201.753 36.833 C 195.630 30.451,191.439 29.719,188.616 34.537 C 186.467 38.203,187.220 39.657,195.517 47.871 C 206.888 59.129,205.874 59.271,220.663 44.347 C 231.638 33.273,232.159 32.432,230.387 28.662 C 228.942 25.588,224.929 24.257,222.200 25.946 M335.647 300.550 C 331.973 301.879,331.197 304.181,331.207 313.720 C 331.217 323.504,334.740 327.478,340.448 324.145 C 344.388 321.844,345.340 305.185,341.718 301.907 C 339.894 300.256,337.771 299.782,335.647 300.550 " stroke="none" fill="#fcf9f8" fill-rule="evenodd"></path><path id="path3" d="M197.000 0.256 C 195.869 0.418,194.698 0.836,193.105 1.647 C 192.723 1.841,192.155 2.000,191.843 2.000 C 191.082 2.000,188.000 3.663,188.000 4.074 C 188.000 4.253,187.640 4.400,187.200 4.400 C 186.760 4.400,186.400 4.580,186.400 4.800 C 186.400 5.020,186.122 5.200,185.782 5.200 C 185.442 5.200,184.714 5.650,184.164 6.200 C 183.614 6.750,182.994 7.200,182.787 7.200 C 182.580 7.200,181.506 8.100,180.400 9.200 C 179.294 10.300,178.212 11.200,177.995 11.200 C 177.778 11.200,177.645 11.342,177.700 11.515 C 177.755 11.688,177.305 12.327,176.700 12.933 C 176.095 13.540,175.600 14.258,175.600 14.530 C 175.600 14.801,175.240 15.283,174.800 15.600 C 174.360 15.917,174.000 16.497,174.000 16.888 C 174.000 17.280,173.820 17.600,173.600 17.600 C 173.380 17.600,173.200 17.960,173.200 18.400 C 173.200 18.840,173.050 19.200,172.868 19.200 C 172.543 19.200,172.052 20.088,171.153 22.300 C 170.908 22.905,170.548 23.713,170.353 24.095 C 170.159 24.477,170.000 25.152,170.000 25.595 C 170.000 26.038,169.820 26.400,169.600 26.400 C 169.380 26.400,169.200 27.030,169.200 27.800 C 169.200 28.570,169.020 29.200,168.800 29.200 C 168.546 29.200,168.400 32.200,168.400 37.400 C 168.400 42.600,168.546 45.600,168.800 45.600 C 169.020 45.600,169.200 46.230,169.200 47.000 C 169.200 47.770,169.380 48.400,169.600 48.400 C 169.820 48.400,170.000 48.852,170.000 49.405 C 170.000 49.958,170.180 50.768,170.400 51.205 C 170.620 51.642,170.980 52.358,171.200 52.795 C 171.420 53.232,171.600 53.862,171.600 54.195 C 171.600 54.528,171.780 54.800,172.000 54.800 C 172.220 54.800,172.400 55.160,172.400 55.600 C 172.400 56.040,172.580 56.400,172.800 56.400 C 173.020 56.400,173.200 56.681,173.200 57.024 C 173.200 57.367,173.380 57.536,173.600 57.400 C 173.820 57.264,174.000 57.399,174.000 57.701 C 174.000 58.002,174.405 58.684,174.900 59.215 C 175.395 59.747,175.755 60.230,175.700 60.291 C 175.350 60.674,175.942 61.441,178.700 64.175 C 182.778 68.217,182.987 68.400,183.534 68.400 C 183.790 68.400,184.000 68.580,184.000 68.800 C 184.000 69.020,184.281 69.200,184.624 69.200 C 184.967 69.200,185.136 69.380,185.000 69.600 C 184.864 69.820,185.123 70.000,185.576 70.000 C 186.029 70.000,186.400 70.191,186.400 70.424 C 186.400 70.657,186.580 70.736,186.800 70.600 C 187.020 70.464,187.200 70.531,187.200 70.749 C 187.200 71.147,188.737 71.828,189.300 71.679 C 189.465 71.636,189.600 71.736,189.600 71.902 C 189.600 72.069,190.095 72.408,190.700 72.656 C 193.121 73.648,193.415 73.756,193.800 73.788 C 194.020 73.806,194.425 73.962,194.700 74.134 C 194.975 74.306,195.200 74.325,195.200 74.175 C 195.200 74.025,195.425 74.071,195.700 74.278 C 197.262 75.454,216.726 75.264,217.590 74.065 C 217.705 73.905,218.070 73.785,218.400 73.800 C 218.730 73.815,219.090 73.731,219.200 73.613 C 219.474 73.321,222.087 72.333,222.682 72.296 C 222.948 72.280,223.085 72.137,222.987 71.979 C 222.838 71.737,223.819 71.258,224.880 71.054 C 225.034 71.024,225.385 70.775,225.660 70.500 C 225.935 70.225,226.349 70.000,226.580 70.000 C 226.811 69.999,227.523 69.549,228.162 69.000 C 228.801 68.450,229.470 68.000,229.647 68.000 C 230.116 68.000,237.200 60.775,237.200 60.297 C 237.200 60.075,237.520 59.603,237.910 59.247 C 238.987 58.267,241.286 53.663,240.962 53.138 C 240.785 52.852,240.852 52.785,241.138 52.962 C 241.450 53.154,241.600 52.841,241.600 52.000 C 241.600 51.270,241.766 50.855,242.000 51.000 C 242.233 51.144,242.400 50.737,242.400 50.024 C 242.400 49.351,242.580 48.800,242.800 48.800 C 243.020 48.800,243.200 47.979,243.200 46.976 C 243.200 45.822,243.352 45.247,243.614 45.408 C 243.894 45.582,244.013 43.010,243.984 37.432 C 243.959 32.685,243.784 29.200,243.570 29.200 C 243.367 29.200,243.200 28.671,243.200 28.024 C 243.200 27.377,243.020 26.736,242.800 26.600 C 242.580 26.464,242.400 25.924,242.400 25.400 C 242.400 24.876,242.220 24.336,242.000 24.200 C 241.780 24.064,241.600 23.503,241.600 22.953 C 241.600 22.297,241.441 22.051,241.137 22.239 C 240.819 22.435,240.745 22.252,240.901 21.656 C 241.026 21.177,240.905 20.562,240.632 20.289 C 240.359 20.016,240.011 19.299,239.860 18.696 C 239.709 18.093,239.430 17.600,239.241 17.600 C 239.052 17.600,238.673 17.060,238.400 16.400 C 238.127 15.740,237.745 15.200,237.551 15.200 C 237.358 15.200,237.200 14.961,237.200 14.670 C 237.200 14.378,236.885 13.843,236.500 13.479 C 234.582 11.669,233.744 10.835,233.151 10.150 C 231.928 8.735,229.573 6.800,229.075 6.800 C 228.801 6.800,228.317 6.440,228.000 6.000 C 227.683 5.560,227.143 5.200,226.800 5.200 C 226.457 5.200,225.917 4.840,225.600 4.400 C 225.283 3.960,224.703 3.600,224.312 3.600 C 223.920 3.600,223.600 3.420,223.600 3.200 C 223.600 2.980,223.251 2.800,222.824 2.800 C 222.397 2.800,221.936 2.620,221.800 2.400 C 221.664 2.180,221.203 2.000,220.776 2.000 C 220.349 2.000,220.000 1.820,220.000 1.600 C 220.000 1.380,219.460 1.200,218.800 1.200 C 218.140 1.200,217.600 1.050,217.600 0.867 C 217.600 0.336,200.059 -0.184,197.000 0.256 M227.705 25.300 C 231.107 27.202,232.406 30.497,231.040 33.766 C 230.714 34.546,226.410 39.182,220.740 44.859 C 205.622 59.995,206.722 59.855,195.195 48.127 C 186.462 39.241,185.835 38.044,188.031 34.442 C 191.514 28.728,195.218 29.594,203.670 38.100 C 206.556 41.004,205.450 41.540,213.830 33.170 C 222.522 24.488,224.373 23.438,227.705 25.300 M28.000 60.600 C 27.483 61.150,27.227 61.594,27.430 61.587 C 27.772 61.576,29.421 59.600,29.088 59.600 C 29.006 59.600,28.517 60.050,28.000 60.600 M41.693 174.000 C 41.693 174.770,41.775 175.085,41.876 174.700 C 41.976 174.315,41.976 173.685,41.876 173.300 C 41.775 172.915,41.693 173.230,41.693 174.000 M330.200 262.395 C 290.997 262.598,290.582 262.608,288.780 263.442 C 285.494 264.963,282.905 267.802,281.706 271.200 C 281.089 272.949,280.994 287.600,281.600 287.600 C 281.820 287.600,282.000 287.923,282.000 288.319 C 282.000 289.535,284.503 293.076,286.400 294.543 C 287.970 295.758,328.886 310.000,330.805 310.000 C 331.032 310.000,331.200 308.643,331.200 306.807 L 331.200 303.614 332.900 301.860 C 337.439 297.177,344.000 300.330,344.000 307.195 C 344.000 308.738,344.159 310.000,344.354 310.000 C 345.281 310.000,384.869 296.631,386.747 295.683 C 389.384 294.353,391.785 291.713,392.700 289.137 C 393.078 288.072,393.526 287.200,393.694 287.200 C 393.862 287.200,394.000 283.690,394.000 279.400 C 394.000 274.467,393.853 271.600,393.600 271.600 C 393.380 271.600,393.200 271.060,393.200 270.400 C 393.200 269.740,393.020 269.200,392.800 269.200 C 392.580 269.200,392.400 268.916,392.400 268.569 C 392.400 268.221,391.668 267.234,390.773 266.374 C 389.878 265.514,389.251 264.641,389.380 264.433 C 389.508 264.225,389.402 263.925,389.145 263.766 C 388.852 263.585,388.784 263.650,388.962 263.938 C 389.119 264.192,389.057 264.400,388.824 264.400 C 388.591 264.400,388.400 264.220,388.400 264.000 C 388.400 263.780,388.040 263.600,387.600 263.600 C 387.160 263.600,386.800 263.420,386.800 263.200 C 386.800 262.980,386.249 262.800,385.576 262.800 C 384.863 262.800,384.456 262.633,384.600 262.400 C 384.762 262.137,382.261 262.033,377.324 262.095 C 373.186 262.148,351.980 262.283,330.200 262.395 M308.093 358.000 C 308.093 358.770,308.175 359.085,308.276 358.700 C 308.376 358.315,308.376 357.685,308.276 357.300 C 308.175 356.915,308.093 357.230,308.093 358.000 M369.581 364.400 C 369.367 367.011,369.412 367.521,369.820 367.113 C 369.941 366.992,369.985 365.747,369.918 364.346 L 369.795 361.800 369.581 364.400 M369.568 373.900 C 369.759 375.281,369.787 375.309,369.919 374.251 C 369.998 373.619,369.905 372.945,369.712 372.752 C 369.510 372.550,369.449 373.040,369.568 373.900 " stroke="none" fill="#ec7434" fill-rule="evenodd"></path><path id="path4" d="M214.000 33.000 C 205.788 41.221,206.340 40.849,204.800 39.200 C 204.183 38.540,203.536 38.000,203.361 38.000 C 203.186 38.000,203.654 38.630,204.400 39.400 C 206.258 41.317,205.702 41.668,214.210 33.200 C 218.410 29.020,221.744 25.600,221.619 25.600 C 221.494 25.600,218.066 28.930,214.000 33.000 M229.334 26.907 C 230.030 27.626,230.677 28.164,230.771 28.103 C 230.999 27.954,228.731 25.600,228.359 25.600 C 228.199 25.600,228.638 26.188,229.334 26.907 M231.309 31.200 C 231.309 32.190,231.387 32.595,231.482 32.100 C 231.578 31.605,231.578 30.795,231.482 30.300 C 231.387 29.805,231.309 30.210,231.309 31.200 M190.500 31.688 C 190.005 31.927,189.600 32.279,189.600 32.470 C 189.600 32.746,190.822 32.152,191.967 31.321 C 192.366 31.031,191.320 31.293,190.500 31.688 M188.253 34.100 L 187.533 35.400 188.358 34.400 C 189.089 33.513,189.414 32.800,189.086 32.800 C 189.024 32.800,188.649 33.385,188.253 34.100 M230.378 34.298 C 229.474 36.101,229.487 36.279,230.420 34.883 C 230.904 34.159,231.217 33.483,231.115 33.382 C 231.013 33.280,230.681 33.692,230.378 34.298 M187.246 37.476 C 187.221 38.618,187.338 39.638,187.507 39.743 C 187.676 39.847,187.757 39.183,187.686 38.266 C 187.479 35.575,187.296 35.247,187.246 37.476 M188.000 40.779 C 188.000 41.200,202.587 55.508,203.474 55.957 C 203.954 56.201,204.584 56.396,204.874 56.391 C 205.163 56.386,204.680 56.047,203.800 55.637 C 202.814 55.177,199.477 52.141,195.100 47.721 C 191.195 43.776,188.000 40.653,188.000 40.779 M326.088 237.720 C 325.680 240.939,325.592 245.056,325.916 245.763 C 327.409 249.026,328.190 250.429,328.311 250.068 C 328.387 249.838,328.171 249.222,327.829 248.700 C 326.209 246.227,325.607 242.004,326.467 239.134 C 326.751 238.187,326.790 237.430,326.567 237.207 C 326.344 236.984,326.156 237.186,326.088 237.720 M318.404 239.269 C 315.460 241.306,314.436 242.644,312.856 246.519 C 312.559 247.247,312.429 250.251,312.483 255.119 L 312.565 262.600 312.807 255.200 C 313.061 247.415,313.161 246.764,314.500 244.200 C 315.527 242.232,318.106 239.705,319.718 239.087 C 320.093 238.943,320.400 238.639,320.400 238.413 C 320.400 237.869,320.467 237.841,318.404 239.269 M354.668 240.100 C 352.685 242.751,348.400 249.500,348.400 249.972 C 348.400 250.241,350.044 247.972,352.054 244.930 C 354.064 241.889,355.909 239.268,356.154 239.106 C 356.472 238.896,356.463 238.810,356.120 238.806 C 355.857 238.803,355.203 239.385,354.668 240.100 M360.311 243.022 C 360.180 243.153,360.405 243.922,360.811 244.730 C 361.216 245.539,361.686 246.920,361.853 247.800 C 362.115 249.170,362.179 249.248,362.302 248.340 C 362.452 247.229,360.723 242.610,360.311 243.022 M362.399 255.881 C 362.289 259.446,362.340 262.222,362.511 262.050 C 362.682 261.879,362.771 258.962,362.710 255.569 L 362.598 249.400 362.399 255.881 M324.934 259.600 C 324.934 261.250,325.005 261.925,325.091 261.100 C 325.178 260.275,325.178 258.925,325.091 258.100 C 325.005 257.275,324.934 257.950,324.934 259.600 M349.994 260.118 L 350.189 262.600 350.317 260.443 C 350.388 259.256,350.300 258.140,350.123 257.961 C 349.945 257.783,349.887 258.754,349.994 260.118 M384.577 262.438 C 384.454 262.637,384.813 262.800,385.376 262.800 C 386.602 262.800,386.701 262.572,385.600 262.284 C 385.161 262.169,384.700 262.238,384.577 262.438 M389.200 264.613 C 389.200 264.968,392.040 267.693,392.221 267.512 C 392.313 267.420,391.782 266.682,391.041 265.872 C 389.784 264.501,389.200 264.101,389.200 264.613 M393.200 270.776 C 393.200 271.229,393.380 271.600,393.600 271.600 C 393.820 271.600,394.000 271.341,394.000 271.024 C 394.000 270.707,393.820 270.336,393.600 270.200 C 393.380 270.064,393.200 270.323,393.200 270.776 M392.700 289.137 C 391.785 291.713,389.384 294.353,386.747 295.683 C 384.869 296.631,345.281 310.000,344.354 310.000 C 344.159 310.000,344.000 308.661,344.000 307.024 C 344.000 305.387,343.865 303.963,343.700 303.861 C 343.395 303.671,343.474 308.314,343.802 309.832 C 343.987 310.691,346.116 310.783,346.629 309.954 C 346.749 309.759,347.276 309.600,347.800 309.600 C 348.324 309.600,348.864 309.420,349.000 309.200 C 349.136 308.980,349.676 308.800,350.200 308.800 C 350.724 308.800,351.264 308.620,351.400 308.400 C 351.536 308.180,351.999 308.000,352.429 308.000 C 352.859 308.000,353.523 307.824,353.905 307.609 C 354.588 307.225,362.158 304.694,376.000 300.223 C 382.701 298.058,384.147 297.541,385.695 296.753 C 386.077 296.559,386.662 296.400,386.995 296.400 C 387.328 296.400,387.600 296.220,387.600 296.000 C 387.600 295.780,387.833 295.600,388.119 295.600 C 389.160 295.600,393.200 290.701,393.200 289.438 C 393.200 289.087,393.380 288.800,393.600 288.800 C 393.820 288.800,394.000 288.440,394.000 288.000 C 394.000 286.614,393.414 287.127,392.700 289.137 M281.206 316.900 C 281.212 347.944,281.179 347.358,283.128 350.493 C 286.162 355.373,289.195 356.425,299.915 356.316 L 308.200 356.232 300.000 355.993 C 295.490 355.862,291.350 355.612,290.800 355.438 C 287.589 354.419,285.082 352.598,283.609 350.215 C 281.612 346.984,281.609 346.923,281.608 317.200 L 281.608 289.400 282.757 291.405 C 284.208 293.934,288.412 297.200,290.216 297.200 C 290.543 297.200,291.123 297.378,291.505 297.595 C 291.887 297.812,295.350 299.000,299.200 300.235 C 311.268 304.104,315.777 305.610,316.495 306.011 C 316.877 306.225,317.541 306.400,317.971 306.400 C 318.401 306.400,318.864 306.580,319.000 306.800 C 319.136 307.020,319.676 307.200,320.200 307.200 C 320.724 307.200,321.264 307.380,321.400 307.600 C 321.536 307.820,322.076 308.000,322.600 308.000 C 323.124 308.000,323.664 308.180,323.800 308.400 C 323.936 308.620,324.476 308.800,325.000 308.800 C 325.524 308.800,326.064 308.980,326.200 309.200 C 326.336 309.420,326.876 309.600,327.400 309.600 C 327.924 309.600,328.464 309.780,328.600 310.000 C 328.736 310.220,329.422 310.392,330.124 310.382 C 330.848 310.371,322.066 307.247,309.800 303.151 C 286.067 295.226,285.848 295.126,283.300 291.094 C 282.585 289.963,282.000 288.714,282.000 288.319 C 282.000 287.923,281.820 287.600,281.600 287.600 C 281.337 287.600,281.202 297.629,281.206 316.900 M333.476 301.300 C 332.754 302.015,332.621 302.219,333.181 301.754 C 333.742 301.288,334.560 300.708,335.000 300.466 C 335.440 300.223,335.572 300.019,335.294 300.012 C 335.016 300.005,334.198 300.585,333.476 301.300 M349.200 356.297 C 367.246 356.393,369.044 356.462,369.500 357.077 C 369.939 357.670,370.000 357.675,370.000 357.119 C 370.000 356.035,369.240 355.998,349.067 356.096 L 329.400 356.192 349.200 356.297 " stroke="none" fill="#f4b65c" fill-rule="evenodd"></path></g></svg>