<svg id="svg" version="1.1" xmlns="http://www.w3.org/2000/svg" xmlns:xlink="http://www.w3.org/1999/xlink" width="400" height="400" viewBox="0, 0, 400,400"><g id="svgg"><path id="path0" d="M283.715 3.144 C 283.762 3.285,283.684 3.400,283.542 3.400 C 283.400 3.400,282.916 3.733,282.467 4.139 C 281.997 4.564,281.441 4.749,281.157 4.574 C 280.817 4.363,280.741 4.469,280.912 4.914 C 281.094 5.389,280.989 5.494,280.514 5.312 C 280.084 5.147,279.965 5.220,280.158 5.532 C 280.317 5.789,280.257 6.000,280.024 6.000 C 279.791 6.000,279.600 6.251,279.600 6.557 C 279.600 6.864,279.319 7.222,278.975 7.354 C 278.600 7.498,278.471 7.796,278.651 8.097 C 278.860 8.444,278.744 8.430,278.277 8.051 C 277.677 7.565,277.599 7.610,277.594 8.451 C 277.590 9.005,277.465 9.210,277.294 8.943 C 277.098 8.639,276.744 8.827,276.232 9.509 C 275.769 10.125,275.689 10.399,276.032 10.197 C 276.344 10.013,276.251 10.260,275.825 10.745 C 275.399 11.231,274.789 11.528,274.469 11.405 C 273.968 11.213,273.965 11.278,274.443 11.868 C 274.750 12.245,274.793 12.430,274.541 12.278 C 274.033 11.974,271.600 14.048,271.600 14.784 C 271.600 15.039,271.419 15.135,271.197 14.998 C 270.976 14.861,270.686 15.031,270.554 15.375 C 270.422 15.719,270.064 16.000,269.757 16.000 C 269.451 16.000,269.245 16.147,269.300 16.326 C 269.430 16.750,266.750 19.430,266.326 19.300 C 266.147 19.245,266.000 19.481,266.000 19.824 C 266.000 20.167,265.865 20.365,265.700 20.266 C 265.535 20.166,265.168 20.335,264.884 20.642 C 264.463 21.097,264.463 21.201,264.884 21.206 C 265.259 21.211,265.242 21.312,264.819 21.580 C 264.500 21.782,264.095 21.858,263.919 21.750 C 263.744 21.642,263.600 21.716,263.600 21.915 C 263.600 22.115,263.244 22.688,262.808 23.190 C 262.373 23.692,262.137 24.305,262.285 24.552 C 262.433 24.798,262.245 24.750,261.868 24.443 C 261.265 23.955,261.214 23.970,261.443 24.567 C 261.630 25.054,261.452 25.314,260.818 25.479 C 260.151 25.654,260.064 25.795,260.466 26.049 C 260.854 26.295,260.767 26.389,260.147 26.394 C 259.632 26.398,259.210 26.718,259.084 27.202 C 258.931 27.786,258.674 27.928,258.137 27.727 C 257.464 27.474,257.452 27.516,258.000 28.202 C 258.438 28.750,258.453 28.865,258.056 28.626 C 257.694 28.408,257.213 28.648,256.616 29.342 C 256.123 29.916,255.574 30.254,255.396 30.093 C 255.218 29.932,255.179 30.098,255.309 30.462 C 255.557 31.154,254.637 32.240,253.610 32.468 C 252.952 32.615,252.000 33.403,252.000 33.800 C 252.000 34.295,250.893 35.159,250.614 34.881 C 250.460 34.726,250.370 34.780,250.414 35.000 C 250.561 35.728,250.405 36.401,250.100 36.353 C 249.219 36.214,248.800 36.482,248.800 37.186 C 248.800 37.618,248.395 38.186,247.900 38.447 C 246.808 39.023,245.200 40.689,245.200 41.244 C 245.200 41.466,245.020 41.536,244.800 41.400 C 244.434 41.174,244.222 41.718,244.362 42.527 C 244.392 42.706,244.009 42.796,243.509 42.727 C 242.765 42.623,242.623 42.765,242.727 43.509 C 242.796 44.009,242.706 44.392,242.527 44.362 C 241.718 44.222,241.174 44.434,241.400 44.800 C 241.536 45.020,241.466 45.200,241.244 45.200 C 240.689 45.200,239.023 46.808,238.447 47.900 C 238.186 48.395,237.618 48.800,237.186 48.800 C 236.499 48.800,236.234 49.187,236.334 50.043 C 236.349 50.176,235.875 50.536,235.281 50.843 C 233.973 51.517,232.648 52.825,232.468 53.618 C 232.238 54.639,231.151 55.555,230.462 55.309 C 230.098 55.179,229.932 55.218,230.093 55.396 C 230.254 55.574,229.916 56.123,229.342 56.616 C 228.648 57.213,228.408 57.694,228.626 58.056 C 228.865 58.453,228.750 58.438,228.202 58.000 C 227.516 57.452,227.474 57.464,227.727 58.137 C 227.928 58.674,227.786 58.931,227.202 59.084 C 226.718 59.210,226.398 59.632,226.394 60.147 C 226.389 60.767,226.295 60.854,226.049 60.466 C 225.795 60.064,225.654 60.151,225.479 60.818 C 225.314 61.452,225.054 61.630,224.567 61.443 C 223.970 61.214,223.955 61.265,224.443 61.868 C 224.750 62.245,224.790 62.427,224.532 62.273 C 224.275 62.119,223.825 62.231,223.532 62.522 C 223.240 62.814,222.640 63.260,222.200 63.514 C 221.721 63.790,221.620 63.981,221.949 63.988 C 222.390 63.998,222.400 64.117,222.004 64.596 C 221.732 64.923,221.348 65.092,221.152 64.970 C 220.955 64.849,220.686 65.031,220.554 65.375 C 220.422 65.719,220.053 66.000,219.734 66.000 C 219.414 66.000,219.255 66.165,219.380 66.368 C 219.680 66.853,218.444 68.074,217.958 67.774 C 217.750 67.646,217.606 67.689,217.637 67.870 C 217.794 68.773,217.525 69.200,216.800 69.200 C 216.342 69.200,216.000 69.467,216.000 69.824 C 216.000 70.167,215.820 70.336,215.600 70.200 C 215.380 70.064,215.178 70.143,215.150 70.376 C 215.123 70.609,215.073 71.025,215.040 71.300 C 215.008 71.575,214.670 71.775,214.290 71.744 C 213.911 71.714,213.600 71.821,213.600 71.983 C 213.600 72.145,213.244 72.688,212.808 73.190 C 212.373 73.692,212.137 74.305,212.285 74.552 C 212.433 74.798,212.245 74.750,211.868 74.443 C 211.265 73.955,211.214 73.970,211.443 74.567 C 211.630 75.054,211.452 75.314,210.818 75.479 C 210.151 75.654,210.064 75.795,210.466 76.049 C 210.854 76.295,210.767 76.389,210.147 76.394 C 209.632 76.398,209.210 76.718,209.084 77.202 C 208.931 77.786,208.674 77.928,208.137 77.727 C 207.464 77.474,207.452 77.516,208.000 78.202 C 208.438 78.750,208.453 78.865,208.056 78.626 C 207.694 78.408,207.213 78.648,206.616 79.342 C 206.123 79.916,205.574 80.254,205.396 80.093 C 205.218 79.932,205.179 80.098,205.309 80.462 C 205.557 81.154,204.637 82.240,203.610 82.468 C 202.952 82.615,202.000 83.403,202.000 83.800 C 202.000 84.295,200.893 85.159,200.614 84.881 C 200.460 84.726,200.370 84.780,200.414 85.000 C 200.561 85.728,200.405 86.401,200.100 86.353 C 199.219 86.214,198.800 86.482,198.800 87.186 C 198.800 87.618,198.395 88.186,197.900 88.447 C 196.808 89.023,195.200 90.689,195.200 91.244 C 195.200 91.466,195.020 91.536,194.800 91.400 C 194.434 91.174,194.222 91.718,194.362 92.527 C 194.392 92.706,194.009 92.796,193.509 92.727 C 192.765 92.623,192.623 92.765,192.727 93.509 C 192.796 94.009,192.706 94.392,192.527 94.362 C 191.718 94.222,191.174 94.434,191.400 94.800 C 191.536 95.020,191.466 95.200,191.244 95.200 C 190.689 95.200,189.023 96.808,188.447 97.900 C 188.186 98.395,187.618 98.800,187.186 98.800 C 186.499 98.800,186.234 99.187,186.334 100.043 C 186.349 100.176,185.875 100.536,185.281 100.843 C 183.973 101.517,182.648 102.825,182.468 103.618 C 182.238 104.639,181.151 105.555,180.462 105.309 C 180.098 105.179,179.932 105.218,180.093 105.396 C 180.254 105.574,179.916 106.123,179.342 106.616 C 178.648 107.213,178.408 107.694,178.626 108.056 C 178.865 108.453,178.750 108.438,178.202 108.000 C 177.516 107.452,177.474 107.464,177.727 108.137 C 177.928 108.674,177.786 108.931,177.202 109.084 C 176.718 109.210,176.398 109.632,176.394 110.147 C 176.389 110.767,176.295 110.854,176.049 110.466 C 175.795 110.064,175.654 110.151,175.479 110.818 C 175.314 111.452,175.054 111.630,174.567 111.443 C 173.970 111.214,173.955 111.265,174.443 111.868 C 174.750 112.245,174.790 112.427,174.532 112.273 C 174.275 112.119,173.825 112.231,173.532 112.522 C 173.240 112.814,172.640 113.260,172.200 113.514 C 171.721 113.790,171.620 113.981,171.949 113.988 C 172.390 113.998,172.400 114.117,172.004 114.596 C 171.732 114.923,171.348 115.092,171.152 114.970 C 170.955 114.849,170.686 115.031,170.554 115.375 C 170.422 115.719,170.053 116.000,169.734 116.000 C 169.414 116.000,169.255 116.165,169.380 116.368 C 169.680 116.853,168.444 118.074,167.958 117.774 C 167.750 117.646,167.606 117.689,167.637 117.870 C 167.794 118.773,167.525 119.200,166.800 119.200 C 166.342 119.200,166.000 119.467,166.000 119.824 C 166.000 120.167,165.820 120.336,165.600 120.200 C 165.380 120.064,165.178 120.143,165.150 120.376 C 165.123 120.609,165.073 121.025,165.040 121.300 C 165.008 121.575,164.670 121.775,164.290 121.744 C 163.911 121.714,163.600 121.821,163.600 121.983 C 163.600 122.145,163.244 122.688,162.808 123.190 C 162.373 123.692,162.137 124.305,162.285 124.552 C 162.433 124.798,162.245 124.750,161.868 124.443 C 161.265 123.955,161.214 123.970,161.443 124.567 C 161.630 125.054,161.452 125.314,160.818 125.479 C 160.151 125.654,160.064 125.795,160.466 126.049 C 160.849 126.292,160.746 126.389,160.100 126.394 C 159.478 126.398,159.200 126.640,159.200 127.177 C 159.200 127.755,158.981 127.912,158.346 127.790 C 157.876 127.699,157.587 127.721,157.704 127.837 C 158.004 128.137,155.984 130.223,155.522 130.090 C 155.312 130.030,155.246 130.150,155.374 130.358 C 155.674 130.844,154.453 132.080,153.968 131.780 C 153.765 131.655,153.600 131.844,153.600 132.200 C 153.600 132.556,153.420 132.736,153.200 132.600 C 152.980 132.464,152.800 132.621,152.800 132.949 C 152.800 133.277,152.260 133.930,151.600 134.400 C 150.940 134.870,150.400 135.512,150.400 135.827 C 150.400 136.142,150.265 136.379,150.100 136.353 C 149.219 136.214,148.800 136.482,148.800 137.186 C 148.800 137.618,148.395 138.186,147.900 138.447 C 146.808 139.023,145.200 140.689,145.200 141.244 C 145.200 141.466,145.020 141.536,144.800 141.400 C 144.434 141.174,144.222 141.718,144.362 142.527 C 144.392 142.706,144.009 142.796,143.509 142.727 C 142.765 142.623,142.623 142.765,142.727 143.509 C 142.796 144.009,142.706 144.392,142.527 144.362 C 141.718 144.222,141.174 144.434,141.400 144.800 C 141.536 145.020,141.466 145.200,141.244 145.200 C 140.689 145.200,139.023 146.808,138.447 147.900 C 138.186 148.395,137.618 148.800,137.186 148.800 C 136.499 148.800,136.234 149.187,136.334 150.043 C 136.349 150.176,135.875 150.536,135.281 150.843 C 133.973 151.517,132.648 152.825,132.468 153.618 C 132.238 154.639,131.151 155.555,130.462 155.309 C 130.098 155.179,129.932 155.218,130.093 155.396 C 130.254 155.574,129.916 156.123,129.342 156.616 C 128.648 157.213,128.408 157.694,128.626 158.056 C 128.865 158.452,128.751 158.437,128.207 158.000 C 127.517 157.445,127.479 157.467,127.693 158.300 C 127.873 159.000,127.755 159.200,127.163 159.200 C 126.640 159.200,126.398 159.484,126.394 160.100 C 126.389 160.746,126.292 160.849,126.049 160.466 C 125.795 160.064,125.654 160.151,125.479 160.818 C 125.314 161.452,125.054 161.630,124.567 161.443 C 123.970 161.214,123.955 161.265,124.443 161.868 C 124.750 162.245,124.798 162.433,124.552 162.285 C 124.305 162.137,123.692 162.373,123.190 162.808 C 122.688 163.244,122.145 163.600,121.983 163.600 C 121.821 163.600,121.714 163.915,121.744 164.300 C 121.775 164.685,121.570 164.953,121.289 164.896 C 121.008 164.839,120.673 165.064,120.546 165.396 C 120.419 165.728,120.064 166.000,119.757 166.000 C 119.451 166.000,119.200 166.360,119.200 166.800 C 119.200 167.525,118.773 167.794,117.870 167.637 C 117.689 167.606,117.646 167.750,117.774 167.958 C 118.074 168.444,116.853 169.680,116.368 169.380 C 116.165 169.255,116.000 169.444,116.000 169.800 C 116.000 170.156,115.820 170.336,115.600 170.200 C 115.380 170.064,115.178 170.143,115.150 170.376 C 114.968 171.920,114.408 172.655,113.956 171.943 C 113.767 171.644,113.609 171.597,113.606 171.839 C 113.603 172.080,113.244 172.688,112.808 173.190 C 112.373 173.692,112.137 174.305,112.285 174.552 C 112.433 174.798,112.245 174.750,111.868 174.443 C 111.265 173.955,111.214 173.970,111.443 174.567 C 111.630 175.054,111.452 175.314,110.818 175.479 C 110.151 175.654,110.064 175.795,110.466 176.049 C 110.854 176.295,110.767 176.389,110.147 176.394 C 109.632 176.398,109.210 176.718,109.084 177.202 C 108.931 177.786,108.674 177.928,108.137 177.727 C 107.464 177.474,107.452 177.516,108.000 178.202 C 108.438 178.750,108.453 178.865,108.056 178.626 C 107.694 178.408,107.213 178.648,106.616 179.342 C 106.123 179.916,105.574 180.254,105.396 180.093 C 105.218 179.932,105.179 180.098,105.309 180.462 C 105.557 181.154,104.637 182.240,103.610 182.468 C 102.952 182.615,102.000 183.403,102.000 183.800 C 102.000 184.295,100.893 185.159,100.614 184.881 C 100.460 184.726,100.370 184.780,100.414 185.000 C 100.561 185.728,100.405 186.401,100.100 186.353 C 99.213 186.213,98.800 186.485,98.800 187.213 C 98.800 187.659,98.531 188.128,98.202 188.254 C 97.874 188.381,97.722 188.673,97.865 188.905 C 98.032 189.175,97.801 189.241,97.223 189.090 C 96.727 188.960,96.414 188.947,96.527 189.060 C 96.640 189.173,96.032 189.946,95.176 190.776 C 94.320 191.607,93.718 192.384,93.837 192.503 C 93.956 192.623,93.726 192.693,93.327 192.660 C 92.849 192.621,92.597 192.875,92.591 193.400 C 92.584 193.934,92.351 194.161,91.891 194.082 C 91.511 194.018,91.194 194.198,91.187 194.482 C 91.170 195.124,89.805 196.800,89.300 196.800 C 89.096 196.800,88.723 197.250,88.473 197.800 C 88.206 198.387,87.683 198.800,87.209 198.800 C 86.502 198.800,86.233 199.182,86.334 200.043 C 86.349 200.176,85.875 200.535,85.281 200.840 C 84.686 201.145,83.920 201.698,83.577 202.069 C 83.023 202.670,81.608 202.754,70.677 202.837 C 60.628 202.913,58.400 203.029,58.400 203.475 C 58.400 203.775,57.863 204.127,57.206 204.259 C 56.550 204.390,56.072 204.610,56.143 204.749 C 56.330 205.110,54.912 206.379,54.633 206.100 C 54.505 205.972,54.397 206.302,54.394 206.833 C 54.389 207.627,54.311 207.692,53.962 207.200 C 53.633 206.737,53.590 206.849,53.773 207.689 C 53.944 208.477,53.868 208.724,53.500 208.583 C 53.114 208.435,52.995 209.095,53.012 211.294 C 53.036 214.372,53.484 216.800,54.027 216.800 C 54.207 216.800,54.288 217.143,54.207 217.561 C 54.111 218.063,54.337 218.395,54.871 218.534 C 55.316 218.651,55.562 218.938,55.417 219.173 C 55.272 219.408,55.343 219.600,55.576 219.600 C 55.809 219.600,56.000 219.849,56.000 220.153 C 56.000 220.792,57.349 221.307,58.800 221.222 C 59.600 221.176,59.680 221.247,59.200 221.576 C 58.551 222.021,58.573 222.028,61.100 222.139 C 62.035 222.180,62.800 222.076,62.800 221.907 C 62.800 221.371,77.378 221.538,77.920 222.080 C 78.291 222.451,78.378 241.299,78.301 304.980 L 78.203 387.400 77.997 305.000 L 77.791 222.600 77.730 306.200 C 77.697 352.180,77.821 390.160,78.007 390.600 C 78.233 391.136,78.355 391.202,78.378 390.800 C 78.408 390.276,78.459 390.274,78.783 390.787 C 79.013 391.150,79.008 391.550,78.769 391.838 C 78.500 392.161,78.660 392.386,79.292 392.578 C 79.840 392.744,80.002 392.936,79.700 393.060 C 79.425 393.174,79.200 393.442,79.200 393.657 C 79.200 393.872,79.365 393.945,79.566 393.821 C 79.768 393.696,80.468 394.046,81.124 394.597 C 81.779 395.149,82.441 395.600,82.595 395.600 C 82.748 395.600,83.323 395.953,83.872 396.385 C 85.021 397.289,163.243 397.701,163.796 396.806 C 163.966 396.532,164.294 396.529,164.798 396.799 C 165.695 397.279,166.118 397.315,165.855 396.889 C 165.749 396.718,166.189 396.277,166.832 395.908 C 167.646 395.440,168.008 395.383,168.025 395.719 C 168.039 395.983,168.212 395.798,168.410 395.307 C 168.668 394.666,168.972 394.489,169.485 394.682 C 170.113 394.917,170.133 394.867,169.651 394.275 C 169.182 393.699,169.188 393.600,169.689 393.600 C 170.012 393.600,170.598 393.244,170.991 392.809 C 171.385 392.375,171.891 392.132,172.115 392.271 C 172.361 392.423,172.400 392.324,172.214 392.022 C 171.869 391.465,176.167 387.200,177.073 387.200 C 177.363 387.200,177.579 387.065,177.553 386.900 C 177.427 386.103,177.640 385.578,178.000 385.800 C 178.220 385.936,178.403 385.722,178.406 385.324 C 178.411 384.755,178.487 384.718,178.762 385.153 C 179.037 385.587,179.171 385.523,179.383 384.853 C 179.532 384.384,179.957 383.986,180.327 383.968 C 180.793 383.947,180.836 383.871,180.467 383.724 C 180.114 383.583,180.353 383.257,181.175 382.757 C 181.858 382.341,182.624 381.546,182.878 380.990 C 183.212 380.255,183.428 380.118,183.663 380.489 C 183.904 380.867,183.989 380.825,183.994 380.327 C 183.997 379.957,184.384 379.532,184.853 379.383 C 185.523 379.171,185.587 379.037,185.153 378.762 C 184.707 378.480,184.727 378.411,185.257 378.406 C 185.619 378.403,186.022 378.119,186.154 377.775 C 186.286 377.431,186.576 377.261,186.797 377.398 C 187.019 377.535,187.200 377.399,187.200 377.097 C 187.200 376.174,191.456 371.864,192.022 372.214 C 192.320 372.398,192.423 372.361,192.276 372.123 C 191.962 371.615,194.149 369.483,194.561 369.894 C 194.729 370.062,194.830 370.020,194.786 369.800 C 194.571 368.732,194.799 368.180,195.200 368.800 C 195.524 369.302,195.589 369.275,195.594 368.633 C 195.597 368.212,195.711 367.978,195.848 368.114 C 196.114 368.381,197.200 367.452,197.200 366.957 C 197.200 366.502,199.948 364.081,200.189 364.323 C 200.305 364.438,200.400 364.223,200.400 363.843 C 200.400 363.463,200.535 363.230,200.700 363.324 C 200.865 363.418,201.411 363.068,201.914 362.547 C 202.463 361.978,202.623 361.598,202.314 361.594 C 201.942 361.589,201.961 361.486,202.381 361.220 C 202.700 361.018,203.110 360.944,203.291 361.056 C 203.472 361.168,203.570 361.036,203.510 360.762 C 203.449 360.488,203.979 359.890,204.686 359.432 C 205.394 358.975,205.902 358.396,205.816 358.146 C 205.627 357.596,207.637 355.646,208.200 355.833 C 208.420 355.907,208.975 355.389,209.432 354.683 C 209.890 353.977,210.488 353.449,210.762 353.510 C 211.036 353.570,211.168 353.472,211.056 353.291 C 210.944 353.110,211.018 352.700,211.220 352.381 C 211.486 351.961,211.589 351.942,211.594 352.314 C 211.598 352.623,211.978 352.463,212.547 351.914 C 213.068 351.411,213.418 350.865,213.324 350.700 C 213.230 350.535,213.463 350.400,213.843 350.400 C 214.223 350.400,214.438 350.305,214.323 350.189 C 214.081 349.948,216.502 347.200,216.957 347.200 C 217.452 347.200,218.381 346.114,218.114 345.848 C 217.978 345.711,218.212 345.597,218.633 345.594 C 219.275 345.589,219.302 345.524,218.800 345.200 C 218.200 344.812,218.689 344.582,219.730 344.763 C 219.911 344.794,219.962 344.663,219.844 344.471 C 219.545 343.987,221.777 341.918,222.192 342.294 C 222.377 342.462,222.388 342.357,222.216 342.060 C 221.872 341.465,226.134 337.200,227.073 337.200 C 227.363 337.200,227.579 337.065,227.553 336.900 C 227.427 336.103,227.640 335.578,228.000 335.800 C 228.220 335.936,228.403 335.722,228.406 335.324 C 228.411 334.755,228.487 334.718,228.762 335.153 C 229.037 335.587,229.171 335.523,229.383 334.853 C 229.532 334.384,229.957 333.997,230.327 333.994 C 230.825 333.989,230.867 333.904,230.489 333.663 C 230.117 333.427,230.247 333.216,230.967 332.888 C 231.512 332.639,232.257 331.980,232.623 331.422 C 232.988 330.864,233.448 330.506,233.644 330.627 C 233.840 330.748,234.000 330.579,234.000 330.251 C 234.000 329.922,234.384 329.532,234.853 329.383 C 235.523 329.171,235.587 329.037,235.153 328.762 C 234.707 328.480,234.727 328.411,235.257 328.406 C 235.619 328.403,236.022 328.119,236.154 327.775 C 236.286 327.431,236.576 327.261,236.797 327.398 C 237.019 327.535,237.200 327.399,237.200 327.097 C 237.200 326.174,241.456 321.864,242.022 322.214 C 242.320 322.398,242.423 322.361,242.276 322.123 C 241.962 321.615,244.149 319.483,244.561 319.894 C 244.729 320.062,244.830 320.020,244.786 319.800 C 244.571 318.732,244.799 318.180,245.200 318.800 C 245.524 319.302,245.589 319.275,245.594 318.633 C 245.597 318.212,245.711 317.978,245.848 318.114 C 246.114 318.381,247.200 317.452,247.200 316.957 C 247.200 316.502,249.948 314.081,250.189 314.323 C 250.305 314.438,250.400 314.223,250.400 313.843 C 250.400 313.463,250.535 313.230,250.700 313.324 C 250.865 313.418,251.411 313.068,251.914 312.547 C 252.463 311.978,252.623 311.598,252.314 311.594 C 251.942 311.589,251.961 311.486,252.381 311.220 C 252.700 311.018,253.110 310.944,253.291 311.056 C 253.472 311.168,253.570 311.036,253.510 310.762 C 253.449 310.488,253.979 309.890,254.686 309.432 C 255.394 308.975,255.902 308.396,255.816 308.146 C 255.627 307.596,257.637 305.646,258.200 305.833 C 258.420 305.907,258.975 305.389,259.432 304.683 C 259.890 303.977,260.488 303.449,260.762 303.510 C 261.036 303.570,261.168 303.472,261.056 303.291 C 260.944 303.110,261.018 302.700,261.220 302.381 C 261.486 301.961,261.589 301.942,261.594 302.314 C 261.598 302.623,261.978 302.463,262.547 301.914 C 263.068 301.411,263.418 300.865,263.324 300.700 C 263.230 300.535,263.463 300.400,263.843 300.400 C 264.223 300.400,264.438 300.305,264.323 300.189 C 264.081 299.948,266.502 297.200,266.957 297.200 C 267.452 297.200,268.381 296.114,268.114 295.848 C 267.978 295.711,268.212 295.597,268.633 295.594 C 269.275 295.589,269.302 295.524,268.800 295.200 C 268.200 294.812,268.689 294.582,269.730 294.763 C 269.911 294.794,269.962 294.663,269.844 294.471 C 269.545 293.987,271.777 291.918,272.192 292.294 C 272.377 292.462,272.388 292.357,272.216 292.060 C 271.872 291.465,276.134 287.200,277.073 287.200 C 277.363 287.200,277.579 287.065,277.553 286.900 C 277.427 286.103,277.640 285.578,278.000 285.800 C 278.220 285.936,278.403 285.722,278.406 285.324 C 278.411 284.755,278.487 284.718,278.762 285.153 C 279.037 285.587,279.171 285.523,279.383 284.853 C 279.532 284.384,279.957 283.986,280.327 283.968 C 280.793 283.947,280.836 283.871,280.467 283.724 C 280.114 283.583,280.353 283.257,281.175 282.757 C 281.858 282.341,282.624 281.546,282.878 280.990 C 283.212 280.255,283.428 280.118,283.663 280.489 C 283.904 280.867,283.989 280.825,283.994 280.327 C 283.997 279.957,284.384 279.532,284.853 279.383 C 285.523 279.171,285.587 279.037,285.153 278.762 C 284.718 278.487,284.755 278.411,285.324 278.406 C 285.722 278.403,285.936 278.220,285.800 278.000 C 285.578 277.640,286.103 277.427,286.900 277.553 C 287.065 277.579,287.200 277.363,287.200 277.073 C 287.200 276.134,291.465 271.872,292.060 272.216 C 292.357 272.388,292.462 272.377,292.294 272.192 C 291.918 271.777,293.987 269.545,294.471 269.844 C 294.663 269.962,294.794 269.911,294.763 269.730 C 294.582 268.689,294.812 268.200,295.200 268.800 C 295.524 269.302,295.589 269.275,295.594 268.633 C 295.597 268.212,295.711 267.978,295.848 268.114 C 296.114 268.381,297.200 267.452,297.200 266.957 C 297.200 266.502,299.948 264.081,300.189 264.323 C 300.305 264.438,300.400 264.223,300.400 263.843 C 300.400 263.463,300.535 263.230,300.700 263.324 C 300.865 263.418,301.411 263.068,301.914 262.547 C 302.463 261.978,302.623 261.598,302.314 261.594 C 301.942 261.589,301.961 261.486,302.381 261.220 C 302.700 261.018,303.110 260.944,303.291 261.056 C 303.472 261.168,303.570 261.036,303.510 260.762 C 303.449 260.488,303.977 259.890,304.683 259.432 C 305.389 258.975,305.907 258.420,305.833 258.200 C 305.646 257.637,307.596 255.627,308.146 255.816 C 308.396 255.902,308.975 255.394,309.432 254.686 C 309.890 253.979,310.488 253.449,310.762 253.510 C 311.036 253.570,311.168 253.472,311.056 253.291 C 310.944 253.110,311.018 252.700,311.220 252.381 C 311.486 251.961,311.589 251.942,311.594 252.314 C 311.598 252.623,311.978 252.463,312.547 251.914 C 313.068 251.411,313.418 250.865,313.324 250.700 C 313.230 250.535,313.463 250.400,313.843 250.400 C 314.223 250.400,314.438 250.305,314.323 250.189 C 314.081 249.948,316.502 247.200,316.957 247.200 C 317.452 247.200,318.381 246.114,318.114 245.848 C 317.978 245.711,318.212 245.597,318.633 245.594 C 319.275 245.589,319.302 245.524,318.800 245.200 C 318.180 244.799,318.732 244.571,319.800 244.786 C 320.020 244.830,320.062 244.729,319.894 244.561 C 319.483 244.149,321.615 241.962,322.123 242.276 C 322.361 242.423,322.398 242.320,322.214 242.022 C 321.864 241.456,326.174 237.200,327.097 237.200 C 327.399 237.200,327.535 237.019,327.398 236.797 C 327.261 236.576,327.431 236.286,327.775 236.154 C 328.119 236.022,328.403 235.619,328.406 235.257 C 328.411 234.727,328.480 234.707,328.762 235.153 C 329.037 235.587,329.171 235.523,329.383 234.853 C 329.532 234.384,329.922 234.000,330.251 234.000 C 330.579 234.000,330.748 233.840,330.627 233.644 C 330.506 233.448,330.864 232.988,331.422 232.623 C 331.980 232.257,332.639 231.512,332.888 230.967 C 333.216 230.247,333.427 230.117,333.663 230.489 C 333.904 230.867,333.989 230.825,333.994 230.327 C 333.997 229.957,334.384 229.532,334.853 229.383 C 335.523 229.171,335.587 229.037,335.153 228.762 C 334.718 228.487,334.755 228.411,335.324 228.406 C 335.722 228.403,335.936 228.220,335.800 228.000 C 335.578 227.640,336.103 227.427,336.900 227.553 C 337.065 227.579,337.200 227.363,337.200 227.073 C 337.200 226.167,341.465 221.869,342.022 222.214 C 342.298 222.384,342.424 222.361,342.303 222.162 C 342.181 221.963,342.603 221.177,343.241 220.415 C 343.878 219.653,344.400 219.273,344.400 219.569 C 344.400 219.865,344.804 219.595,345.297 218.967 C 345.791 218.340,346.175 217.405,346.151 216.891 C 346.122 216.263,346.284 216.023,346.643 216.161 C 347.499 216.490,347.440 135.625,346.583 133.968 C 346.251 133.326,345.782 132.800,345.541 132.800 C 345.249 132.800,345.269 132.599,345.600 132.200 C 346.012 131.703,345.969 131.599,345.349 131.594 C 344.766 131.589,344.722 131.510,345.153 131.238 C 345.587 130.963,345.523 130.829,344.853 130.617 C 344.384 130.468,344.000 130.165,344.000 129.944 C 344.000 129.724,343.730 129.273,343.400 128.943 C 342.867 128.410,342.800 128.413,342.800 128.975 C 342.800 129.500,342.669 129.525,342.026 129.123 C 341.600 128.857,341.341 128.496,341.449 128.320 C 341.558 128.144,341.457 128.000,341.224 128.000 C 340.991 128.000,340.800 128.191,340.800 128.424 C 340.800 128.657,340.617 128.734,340.393 128.596 C 340.170 128.458,340.072 128.207,340.177 128.038 C 340.281 127.869,339.789 127.818,339.083 127.925 C 338.377 128.033,328.665 128.188,317.500 128.271 L 297.200 128.421 297.200 75.411 L 297.200 22.400 304.900 22.342 C 309.135 22.309,313.365 22.276,314.300 22.267 C 315.382 22.257,316.000 22.070,316.000 21.753 C 316.000 21.478,316.360 21.140,316.800 21.000 C 317.240 20.860,317.600 20.572,317.600 20.359 C 317.600 20.123,317.913 20.139,318.400 20.400 C 319.042 20.744,319.200 20.704,319.200 20.201 C 319.200 19.856,319.605 19.411,320.100 19.212 C 320.595 19.013,320.791 18.839,320.535 18.825 C 319.997 18.796,320.096 17.405,320.638 17.390 C 320.837 17.384,321.360 17.145,321.800 16.859 C 322.414 16.460,322.438 16.390,321.900 16.557 C 321.437 16.701,321.200 16.561,321.200 16.145 C 321.200 15.798,321.426 15.601,321.701 15.707 C 322.174 15.888,322.215 15.011,322.009 9.200 C 321.992 8.718,321.921 8.705,321.650 9.134 C 321.373 9.570,321.270 9.561,321.087 9.082 C 320.963 8.761,321.064 8.296,321.311 8.049 C 321.643 7.717,321.548 7.600,320.947 7.600 C 320.499 7.600,320.133 7.338,320.133 7.018 C 320.133 6.697,320.283 6.528,320.467 6.641 C 320.650 6.755,320.800 6.657,320.800 6.424 C 320.800 6.191,320.542 6.000,320.227 6.000 C 319.912 6.000,319.532 5.616,319.383 5.147 C 319.193 4.547,319.022 4.441,318.806 4.790 C 318.585 5.148,318.423 5.161,318.222 4.836 C 318.070 4.589,317.777 4.491,317.572 4.617 C 317.368 4.744,317.200 4.567,317.200 4.224 C 317.200 3.797,316.820 3.600,316.000 3.600 C 315.340 3.600,314.800 3.418,314.800 3.195 C 314.800 2.928,309.498 2.807,299.215 2.839 C 290.643 2.866,283.668 3.004,283.715 3.144 M308.521 21.898 C 306.497 21.970,303.077 21.971,300.921 21.898 C 298.764 21.826,300.420 21.767,304.600 21.767 C 308.780 21.766,310.544 21.825,308.521 21.898 M277.952 177.858 C 277.588 178.297,274.615 178.400,262.351 178.400 L 247.200 178.400 247.213 122.700 C 247.224 74.922,247.307 66.892,247.800 66.241 C 248.116 65.824,248.290 65.345,248.187 65.178 C 248.083 65.011,248.387 64.976,248.862 65.100 C 249.453 65.255,249.635 65.180,249.439 64.863 C 249.269 64.588,249.406 64.400,249.776 64.400 C 250.119 64.400,250.400 64.119,250.400 63.776 C 250.400 63.433,250.580 63.264,250.800 63.400 C 251.020 63.536,251.200 63.407,251.200 63.113 C 251.200 62.509,252.589 61.200,253.228 61.200 C 253.459 61.200,253.545 61.035,253.420 60.832 C 253.295 60.630,253.440 60.225,253.743 59.932 C 255.114 58.607,256.440 57.600,256.816 57.600 C 257.041 57.600,257.344 57.285,257.490 56.900 C 257.636 56.515,257.945 55.999,258.178 55.753 C 258.410 55.507,259.010 54.825,259.512 54.237 C 260.013 53.648,260.598 53.275,260.812 53.407 C 261.025 53.539,261.200 53.459,261.200 53.228 C 261.200 52.589,262.509 51.200,263.113 51.200 C 263.407 51.200,263.536 51.020,263.400 50.800 C 263.264 50.580,263.433 50.400,263.776 50.400 C 264.119 50.400,264.400 50.119,264.400 49.776 C 264.400 49.406,264.588 49.269,264.863 49.439 C 265.179 49.634,265.256 49.456,265.104 48.876 C 264.982 48.409,264.999 48.043,265.141 48.061 C 266.096 48.185,266.800 47.916,266.800 47.427 C 266.800 47.112,267.151 46.743,267.580 46.606 C 268.008 46.470,268.470 46.008,268.606 45.580 C 268.743 45.151,269.112 44.800,269.427 44.800 C 269.742 44.800,270.000 44.562,270.000 44.272 C 270.000 43.637,271.833 41.967,272.166 42.299 C 272.295 42.428,272.400 42.223,272.400 41.843 C 272.400 41.463,272.580 41.264,272.800 41.400 C 273.020 41.536,273.200 41.444,273.200 41.195 C 273.200 40.611,274.211 39.600,274.795 39.600 C 275.044 39.600,275.157 39.454,275.047 39.276 C 274.855 38.966,276.880 36.800,277.363 36.800 C 277.492 36.800,277.644 68.525,277.700 107.300 L 277.802 177.800 278.000 107.000 L 278.198 36.200 278.300 106.758 C 278.375 158.577,278.283 177.459,277.952 177.858 M227.952 227.858 C 227.585 228.300,224.684 228.383,212.251 228.307 L 197.000 228.214 212.400 228.007 L 227.800 227.800 227.999 157.000 L 228.199 86.200 228.301 156.758 C 228.375 208.577,228.283 227.459,227.952 227.858 M227.600 157.200 L 227.600 227.600 212.400 227.600 L 197.200 227.600 197.213 172.300 C 197.224 124.870,197.307 116.892,197.800 116.241 C 198.116 115.824,198.290 115.345,198.187 115.178 C 198.083 115.011,198.387 114.976,198.862 115.100 C 199.453 115.255,199.635 115.180,199.439 114.863 C 199.269 114.588,199.406 114.400,199.776 114.400 C 200.119 114.400,200.400 114.119,200.400 113.776 C 200.400 113.433,200.580 113.264,200.800 113.400 C 201.020 113.536,201.200 113.407,201.200 113.113 C 201.200 112.509,202.589 111.200,203.228 111.200 C 203.459 111.200,203.545 111.035,203.420 110.832 C 203.295 110.630,203.440 110.225,203.743 109.932 C 205.114 108.607,206.440 107.600,206.816 107.600 C 207.041 107.600,207.344 107.285,207.490 106.900 C 207.636 106.515,207.945 105.999,208.178 105.753 C 208.410 105.507,209.010 104.825,209.512 104.237 C 210.013 103.648,210.598 103.275,210.812 103.407 C 211.025 103.539,211.200 103.459,211.200 103.228 C 211.200 102.589,212.509 101.200,213.113 101.200 C 213.407 101.200,213.536 101.020,213.400 100.800 C 213.264 100.580,213.433 100.400,213.776 100.400 C 214.119 100.400,214.400 100.119,214.400 99.776 C 214.400 99.406,214.588 99.269,214.863 99.439 C 215.179 99.634,215.256 99.456,215.104 98.876 C 214.982 98.409,214.999 98.043,215.141 98.061 C 216.096 98.185,216.800 97.916,216.800 97.427 C 216.800 97.112,217.151 96.743,217.580 96.606 C 218.008 96.470,218.470 96.008,218.606 95.580 C 218.743 95.151,219.112 94.800,219.427 94.800 C 219.742 94.800,220.000 94.562,220.000 94.272 C 220.000 93.637,221.833 91.967,222.166 92.299 C 222.295 92.428,222.400 92.223,222.400 91.843 C 222.400 91.463,222.580 91.264,222.800 91.400 C 223.020 91.536,223.200 91.444,223.200 91.195 C 223.200 90.622,224.207 89.600,224.771 89.600 C 225.007 89.600,225.155 89.450,225.100 89.267 C 224.987 88.890,226.840 86.818,227.300 86.807 C 227.465 86.803,227.600 118.480,227.600 157.200 M177.952 277.858 C 177.585 278.300,174.684 278.383,162.251 278.307 L 147.000 278.214 162.400 278.000 L 177.800 277.786 162.500 277.693 L 147.200 277.600 147.200 222.171 C 147.200 173.285,147.271 166.672,147.804 166.139 C 148.136 165.807,148.315 165.387,148.203 165.205 C 148.091 165.023,148.387 164.976,148.862 165.100 C 149.453 165.255,149.635 165.180,149.439 164.863 C 149.269 164.588,149.406 164.400,149.776 164.400 C 150.119 164.400,150.400 164.119,150.400 163.776 C 150.400 163.433,150.580 163.264,150.800 163.400 C 151.020 163.536,151.200 163.407,151.200 163.113 C 151.200 162.509,152.589 161.200,153.228 161.200 C 153.459 161.200,153.545 161.035,153.420 160.832 C 153.295 160.630,153.440 160.225,153.743 159.932 C 155.114 158.607,156.440 157.600,156.816 157.600 C 157.041 157.600,157.344 157.285,157.490 156.900 C 157.636 156.515,157.945 155.999,158.178 155.753 C 158.410 155.507,159.010 154.825,159.512 154.237 C 160.013 153.648,160.598 153.275,160.812 153.407 C 161.025 153.539,161.200 153.459,161.200 153.228 C 161.200 152.589,162.509 151.200,163.113 151.200 C 163.407 151.200,163.536 151.020,163.400 150.800 C 163.264 150.580,163.433 150.400,163.776 150.400 C 164.119 150.400,164.400 150.119,164.400 149.776 C 164.400 149.406,164.588 149.269,164.863 149.439 C 165.179 149.634,165.256 149.456,165.104 148.876 C 164.982 148.409,164.999 148.043,165.141 148.061 C 166.096 148.185,166.800 147.916,166.800 147.427 C 166.800 147.112,167.151 146.743,167.580 146.606 C 168.008 146.470,168.470 146.008,168.606 145.580 C 168.743 145.151,169.112 144.800,169.427 144.800 C 169.742 144.800,170.000 144.562,170.000 144.272 C 170.000 143.637,171.833 141.967,172.166 142.299 C 172.295 142.428,172.400 142.223,172.400 141.843 C 172.400 141.463,172.580 141.264,172.800 141.400 C 173.020 141.536,173.200 141.444,173.200 141.195 C 173.200 140.946,173.457 140.486,173.771 140.171 C 174.086 139.857,174.546 139.600,174.795 139.600 C 175.044 139.600,175.157 139.454,175.047 139.276 C 174.856 138.967,176.880 136.800,177.360 136.800 C 177.488 136.800,177.641 146.115,177.700 157.500 L 177.807 178.200 178.003 157.200 C 178.110 145.650,178.244 167.951,178.300 206.758 C 178.375 258.577,178.283 277.459,177.952 277.858 M327.600 178.067 C 327.600 195.043,327.481 208.814,327.336 208.669 C 326.981 208.314,325.894 209.904,326.177 210.363 C 326.300 210.562,326.010 210.623,325.533 210.498 C 324.826 210.314,324.716 210.403,324.937 210.980 C 325.129 211.480,325.050 211.628,324.669 211.482 C 324.356 211.362,323.839 211.765,323.442 212.437 C 323.064 213.077,322.484 213.600,322.154 213.600 C 321.823 213.600,321.658 213.771,321.788 213.980 C 321.917 214.189,321.616 214.577,321.119 214.843 C 319.907 215.492,319.183 216.250,319.486 216.552 C 319.622 216.689,319.433 216.800,319.067 216.800 C 318.700 216.800,318.445 217.025,318.500 217.300 C 318.555 217.575,318.375 217.755,318.100 217.700 C 317.825 217.645,317.645 217.825,317.700 218.100 C 317.755 218.375,317.575 218.555,317.300 218.500 C 317.025 218.445,316.800 218.676,316.800 219.013 C 316.800 219.350,316.395 219.789,315.900 219.988 C 315.405 220.187,315.163 220.361,315.362 220.375 C 315.561 220.389,315.402 220.756,315.009 221.191 C 314.615 221.625,314.109 221.868,313.885 221.729 C 313.658 221.589,313.597 221.672,313.749 221.917 C 313.902 222.165,313.433 222.759,312.674 223.279 C 311.933 223.785,311.403 224.425,311.497 224.700 C 311.593 224.982,311.434 225.121,311.133 225.018 C 310.840 224.917,310.060 225.525,309.400 226.370 C 308.740 227.214,308.065 227.825,307.900 227.729 C 307.735 227.632,307.600 227.953,307.600 228.443 C 307.600 228.933,307.495 229.228,307.366 229.099 C 307.237 228.970,306.373 229.615,305.445 230.532 C 304.517 231.450,303.363 232.465,302.879 232.788 C 302.396 233.112,302.000 233.617,302.000 233.912 C 302.000 234.206,301.820 234.336,301.600 234.200 C 301.380 234.064,301.200 234.244,301.200 234.600 C 301.200 234.956,301.020 235.136,300.800 235.000 C 300.580 234.864,300.400 235.050,300.400 235.414 C 300.400 235.777,300.062 236.163,299.649 236.271 C 299.236 236.379,298.695 236.913,298.447 237.456 C 298.199 238.000,297.817 238.334,297.598 238.199 C 297.379 238.064,297.200 238.117,297.200 238.317 C 297.200 238.819,294.885 241.200,294.397 241.200 C 294.178 241.200,294.000 241.449,294.000 241.753 C 294.000 242.058,293.640 242.401,293.200 242.516 C 292.726 242.640,292.400 243.062,292.400 243.550 C 292.400 244.169,292.225 244.309,291.700 244.113 C 291.093 243.885,291.071 243.938,291.536 244.509 C 292.001 245.082,291.970 245.148,291.301 245.019 C 290.782 244.920,290.306 245.252,289.843 246.036 C 289.464 246.676,288.884 247.200,288.554 247.200 C 288.223 247.200,288.064 247.379,288.199 247.598 C 288.334 247.817,287.985 248.206,287.423 248.463 C 286.860 248.719,286.400 249.186,286.400 249.502 C 286.400 249.817,286.042 250.169,285.604 250.283 C 285.167 250.397,284.908 250.650,285.028 250.845 C 285.149 251.040,284.956 251.200,284.600 251.200 C 284.244 251.200,284.064 251.380,284.200 251.600 C 284.336 251.820,284.206 252.000,283.912 252.000 C 283.617 252.000,283.112 252.396,282.788 252.879 C 282.465 253.363,281.450 254.517,280.532 255.445 C 279.615 256.373,278.970 257.237,279.099 257.366 C 279.228 257.495,278.924 257.600,278.424 257.600 C 277.783 257.600,277.582 257.776,277.743 258.195 C 277.868 258.523,277.834 258.748,277.667 258.695 C 277.091 258.515,274.745 260.787,275.030 261.248 C 275.202 261.527,275.096 261.631,274.756 261.515 C 274.438 261.408,273.805 261.905,273.279 262.674 C 272.759 263.433,272.165 263.902,271.917 263.749 C 271.675 263.599,271.585 263.652,271.718 263.867 C 271.850 264.082,271.608 264.558,271.180 264.925 C 270.751 265.292,270.400 265.497,270.400 265.380 C 270.400 265.264,270.149 265.401,269.842 265.684 C 269.535 265.968,269.366 266.335,269.466 266.500 C 269.565 266.665,269.367 266.800,269.024 266.800 C 268.681 266.800,268.445 267.025,268.500 267.300 C 268.555 267.575,268.375 267.755,268.100 267.700 C 267.825 267.645,267.645 267.825,267.700 268.100 C 267.755 268.375,267.575 268.555,267.300 268.500 C 267.025 268.445,266.800 268.681,266.800 269.024 C 266.800 269.367,266.665 269.565,266.500 269.466 C 266.335 269.366,265.968 269.535,265.684 269.842 C 265.401 270.149,265.264 270.400,265.380 270.400 C 265.497 270.400,265.292 270.751,264.925 271.180 C 264.558 271.608,264.082 271.850,263.867 271.718 C 263.652 271.585,263.599 271.675,263.749 271.917 C 263.902 272.165,263.433 272.759,262.674 273.279 C 261.905 273.805,261.408 274.438,261.515 274.756 C 261.631 275.096,261.527 275.202,261.248 275.030 C 260.787 274.745,258.515 277.091,258.695 277.667 C 258.748 277.834,258.523 277.868,258.195 277.743 C 257.776 277.582,257.600 277.783,257.600 278.424 C 257.600 278.924,257.495 279.228,257.366 279.099 C 257.237 278.970,256.373 279.615,255.445 280.532 C 254.517 281.450,253.363 282.465,252.879 282.788 C 252.396 283.112,252.000 283.617,252.000 283.912 C 252.000 284.206,251.820 284.336,251.600 284.200 C 251.380 284.064,251.200 284.244,251.200 284.600 C 251.200 284.956,251.040 285.149,250.845 285.028 C 250.650 284.908,250.397 285.167,250.283 285.604 C 250.169 286.042,249.817 286.400,249.502 286.400 C 249.186 286.400,248.719 286.860,248.463 287.423 C 248.206 287.985,247.817 288.334,247.598 288.199 C 247.379 288.064,247.200 288.117,247.200 288.317 C 247.200 288.819,244.885 291.200,244.397 291.200 C 244.178 291.200,244.000 291.449,244.000 291.753 C 244.000 292.058,243.640 292.401,243.200 292.516 C 242.726 292.640,242.400 293.062,242.400 293.550 C 242.400 294.169,242.225 294.309,241.700 294.113 C 241.093 293.885,241.071 293.938,241.536 294.509 C 242.001 295.082,241.970 295.148,241.301 295.019 C 240.782 294.920,240.306 295.252,239.843 296.036 C 239.464 296.676,238.884 297.200,238.554 297.200 C 238.223 297.200,238.064 297.379,238.199 297.598 C 238.334 297.817,237.985 298.206,237.423 298.463 C 236.860 298.719,236.400 299.186,236.400 299.502 C 236.400 299.817,236.042 300.169,235.604 300.283 C 235.167 300.397,234.908 300.650,235.028 300.845 C 235.149 301.040,234.956 301.200,234.600 301.200 C 234.244 301.200,234.064 301.380,234.200 301.600 C 234.336 301.820,234.206 302.000,233.912 302.000 C 233.617 302.000,233.112 302.396,232.788 302.879 C 232.465 303.363,231.450 304.517,230.532 305.445 C 229.615 306.373,228.970 307.237,229.099 307.366 C 229.228 307.495,228.933 307.600,228.443 307.600 C 227.953 307.600,227.632 307.735,227.729 307.900 C 227.825 308.065,227.214 308.740,226.370 309.400 C 225.525 310.060,224.917 310.840,225.018 311.133 C 225.121 311.434,224.982 311.593,224.700 311.497 C 224.425 311.403,223.785 311.933,223.279 312.674 C 222.759 313.433,222.165 313.902,221.917 313.749 C 221.675 313.599,221.585 313.652,221.718 313.867 C 221.850 314.082,221.608 314.558,221.180 314.925 C 220.751 315.292,220.400 315.498,220.400 315.382 C 220.400 315.266,219.971 315.583,219.448 316.086 C 218.924 316.589,218.519 317.180,218.548 317.400 C 218.576 317.620,218.375 317.755,218.100 317.700 C 217.825 317.645,217.645 317.825,217.700 318.100 C 217.755 318.375,217.575 318.555,217.300 318.500 C 217.025 318.445,216.800 318.681,216.800 319.024 C 216.800 319.367,216.665 319.565,216.500 319.466 C 216.335 319.366,215.968 319.535,215.684 319.842 C 215.401 320.149,215.264 320.400,215.380 320.400 C 215.497 320.400,215.292 320.751,214.925 321.180 C 214.558 321.608,214.082 321.850,213.867 321.718 C 213.652 321.585,213.599 321.675,213.749 321.917 C 213.902 322.165,213.433 322.759,212.674 323.279 C 211.905 323.805,211.408 324.438,211.515 324.756 C 211.631 325.096,211.527 325.202,211.248 325.030 C 210.787 324.745,208.515 327.091,208.695 327.667 C 208.748 327.834,208.523 327.868,208.195 327.743 C 207.776 327.582,207.600 327.783,207.600 328.424 C 207.600 328.924,207.495 329.228,207.366 329.099 C 207.237 328.970,206.373 329.615,205.445 330.532 C 204.517 331.450,203.363 332.465,202.879 332.788 C 202.396 333.112,202.000 333.617,202.000 333.912 C 202.000 334.206,201.820 334.336,201.600 334.200 C 201.380 334.064,201.200 334.244,201.200 334.600 C 201.200 334.956,201.020 335.136,200.800 335.000 C 200.580 334.864,200.400 335.050,200.400 335.414 C 200.400 335.777,200.062 336.163,199.649 336.271 C 199.236 336.379,198.695 336.913,198.447 337.456 C 198.199 338.000,197.817 338.334,197.598 338.199 C 197.379 338.064,197.200 338.117,197.200 338.317 C 197.200 338.819,194.885 341.200,194.397 341.200 C 194.178 341.200,194.000 341.449,194.000 341.753 C 194.000 342.058,193.640 342.401,193.200 342.516 C 192.726 342.640,192.400 343.062,192.400 343.550 C 192.400 344.169,192.225 344.309,191.700 344.113 C 191.093 343.885,191.071 343.938,191.536 344.509 C 192.001 345.082,191.970 345.148,191.301 345.019 C 190.782 344.920,190.306 345.252,189.843 346.036 C 189.464 346.676,188.884 347.200,188.554 347.200 C 188.223 347.200,188.064 347.379,188.199 347.598 C 188.334 347.817,187.985 348.206,187.423 348.463 C 186.860 348.719,186.400 349.186,186.400 349.502 C 186.400 349.817,186.042 350.169,185.604 350.283 C 185.167 350.397,184.908 350.650,185.028 350.845 C 185.149 351.040,184.956 351.200,184.600 351.200 C 184.244 351.200,184.064 351.380,184.200 351.600 C 184.336 351.820,184.206 352.000,183.912 352.000 C 183.617 352.000,183.112 352.396,182.788 352.879 C 182.465 353.363,181.450 354.517,180.532 355.445 C 179.615 356.373,178.970 357.237,179.099 357.366 C 179.228 357.495,178.933 357.600,178.443 357.600 C 177.953 357.600,177.632 357.735,177.729 357.900 C 177.825 358.065,177.214 358.740,176.370 359.400 C 175.525 360.060,174.917 360.840,175.018 361.133 C 175.121 361.434,174.982 361.593,174.700 361.497 C 174.425 361.403,173.785 361.933,173.279 362.674 C 172.759 363.433,172.165 363.902,171.917 363.749 C 171.675 363.599,171.585 363.652,171.718 363.867 C 171.850 364.082,171.608 364.558,171.180 364.925 C 170.751 365.292,170.400 365.497,170.400 365.380 C 170.400 365.264,170.149 365.401,169.842 365.684 C 169.535 365.968,169.366 366.335,169.466 366.500 C 169.565 366.665,169.367 366.800,169.024 366.800 C 168.681 366.800,168.445 367.025,168.500 367.300 C 168.555 367.575,168.375 367.755,168.100 367.700 C 167.825 367.645,167.645 367.825,167.700 368.100 C 167.755 368.375,167.575 368.555,167.300 368.500 C 167.025 368.445,166.800 368.681,166.800 369.024 C 166.800 369.367,166.665 369.565,166.500 369.466 C 166.335 369.366,165.968 369.535,165.684 369.842 C 165.401 370.149,165.264 370.400,165.380 370.400 C 165.497 370.400,165.292 370.751,164.925 371.180 C 164.558 371.608,164.082 371.850,163.867 371.718 C 163.652 371.585,163.599 371.675,163.749 371.917 C 163.902 372.165,163.433 372.759,162.674 373.279 C 161.905 373.805,161.408 374.438,161.515 374.756 C 161.629 375.090,161.526 375.202,161.257 375.035 C 161.008 374.881,160.262 375.385,159.564 376.180 L 158.317 377.600 127.759 377.600 L 97.200 377.600 97.200 362.400 L 97.200 347.200 118.576 347.200 C 132.396 347.200,140.040 347.059,140.200 346.800 C 140.336 346.580,140.989 346.400,141.652 346.400 C 142.978 346.400,143.750 345.817,144.168 344.502 C 144.353 343.918,144.649 343.721,145.086 343.888 C 145.516 344.053,145.635 343.980,145.442 343.668 C 145.268 343.387,145.402 343.200,145.776 343.200 C 146.119 343.200,146.400 343.009,146.400 342.776 C 146.400 342.543,146.235 342.455,146.034 342.579 C 145.832 342.704,145.872 342.264,146.121 341.603 C 146.371 340.941,146.729 340.400,146.918 340.400 C 147.106 340.400,147.228 339.905,147.188 339.300 C 147.148 338.695,147.134 328.975,147.158 317.700 L 147.200 297.200 168.576 297.200 C 182.396 297.200,190.040 297.059,190.200 296.800 C 190.336 296.580,190.989 296.400,191.652 296.400 C 192.978 296.400,193.750 295.817,194.168 294.502 C 194.353 293.918,194.649 293.721,195.086 293.888 C 195.516 294.053,195.635 293.980,195.442 293.668 C 195.268 293.387,195.402 293.200,195.776 293.200 C 196.119 293.200,196.400 293.009,196.400 292.776 C 196.400 292.543,196.235 292.455,196.034 292.579 C 195.832 292.704,195.872 292.264,196.121 291.603 C 196.371 290.941,196.729 290.400,196.918 290.400 C 197.106 290.400,197.228 289.905,197.188 289.300 C 197.148 288.695,197.134 278.975,197.158 267.700 L 197.200 247.200 218.576 247.200 C 232.396 247.200,240.040 247.059,240.200 246.800 C 240.336 246.580,240.989 246.400,241.652 246.400 C 242.978 246.400,243.750 245.817,244.168 244.502 C 244.353 243.918,244.649 243.721,245.086 243.888 C 245.516 244.053,245.635 243.980,245.442 243.668 C 245.268 243.387,245.402 243.200,245.776 243.200 C 246.119 243.200,246.400 243.009,246.400 242.776 C 246.400 242.543,246.235 242.455,246.034 242.579 C 245.832 242.704,245.872 242.264,246.121 241.603 C 246.371 240.941,246.729 240.400,246.918 240.400 C 247.106 240.400,247.228 239.905,247.188 239.300 C 247.148 238.695,247.134 228.975,247.158 217.700 L 247.200 197.200 268.576 197.200 C 282.396 197.200,290.040 197.059,290.200 196.800 C 290.336 196.580,290.989 196.400,291.652 196.400 C 292.978 196.400,293.750 195.817,294.168 194.502 C 294.353 193.918,294.649 193.721,295.086 193.888 C 295.516 194.053,295.635 193.980,295.442 193.668 C 295.268 193.387,295.402 193.200,295.776 193.200 C 296.119 193.200,296.400 193.009,296.400 192.776 C 296.400 192.543,296.235 192.455,296.034 192.579 C 295.832 192.704,295.872 192.264,296.121 191.603 C 296.371 190.941,296.729 190.400,296.918 190.400 C 297.106 190.400,297.228 189.905,297.188 189.300 C 297.148 188.695,297.134 178.975,297.158 167.700 L 297.200 147.200 312.400 147.200 L 327.600 147.200 327.600 178.067 M328.300 193.070 C 328.240 201.612,328.190 194.740,328.190 177.800 C 328.190 160.860,328.240 153.872,328.300 162.270 C 328.360 170.669,328.360 184.529,328.300 193.070 M128.400 256.944 C 128.400 311.241,128.290 327.550,127.920 327.920 C 127.560 328.280,123.630 328.377,112.220 328.307 L 97.000 328.214 112.400 328.000 L 127.800 327.786 112.500 327.693 L 97.200 327.600 97.200 272.205 C 97.200 212.370,97.105 215.200,99.113 215.200 C 99.407 215.200,99.536 215.020,99.400 214.800 C 99.264 214.580,99.433 214.400,99.776 214.400 C 100.119 214.400,100.400 214.119,100.400 213.776 C 100.400 213.433,100.580 213.264,100.800 213.400 C 101.020 213.536,101.200 213.361,101.200 213.011 C 101.200 212.661,101.480 212.267,101.823 212.136 C 102.166 212.004,102.355 211.659,102.243 211.369 C 102.117 211.038,102.251 210.922,102.604 211.057 C 102.970 211.197,103.259 210.903,103.433 210.213 C 103.579 209.629,103.901 209.222,104.149 209.307 C 104.672 209.487,106.047 208.180,105.700 207.833 C 105.572 207.705,105.677 207.578,105.933 207.550 C 106.190 207.523,106.625 207.478,106.900 207.450 C 107.175 207.423,107.422 207.175,107.450 206.900 C 107.478 206.625,107.522 206.226,107.550 206.013 C 107.578 205.799,107.915 205.736,108.300 205.871 C 108.870 206.072,108.907 206.018,108.503 205.582 C 108.098 205.145,108.236 204.948,109.246 204.524 C 110.143 204.147,110.417 203.820,110.234 203.345 C 110.023 202.795,110.081 202.770,110.591 203.192 C 111.001 203.533,111.200 203.553,111.200 203.254 C 111.200 202.593,112.498 201.200,113.113 201.200 C 113.407 201.200,113.536 201.020,113.400 200.800 C 113.264 200.580,113.433 200.400,113.776 200.400 C 114.119 200.400,114.400 200.119,114.400 199.776 C 114.400 199.406,114.588 199.269,114.863 199.439 C 115.179 199.634,115.256 199.456,115.104 198.876 C 114.982 198.409,114.999 198.043,115.141 198.061 C 116.051 198.179,116.810 197.940,116.600 197.600 C 116.464 197.380,116.556 197.200,116.805 197.200 C 117.371 197.200,118.128 196.455,118.757 195.281 C 119.024 194.782,119.438 194.500,119.682 194.651 C 119.938 194.809,120.011 194.742,119.855 194.489 C 119.708 194.251,119.773 193.940,120.000 193.800 C 120.227 193.660,120.321 193.396,120.209 193.214 C 120.096 193.033,120.283 192.777,120.623 192.646 C 121.033 192.489,121.152 192.576,120.977 192.905 C 120.831 193.177,121.175 192.860,121.742 192.200 C 122.308 191.540,122.789 191.180,122.811 191.400 C 122.833 191.620,123.047 191.350,123.288 190.800 C 123.528 190.250,123.689 189.642,123.645 189.449 C 123.602 189.256,123.927 189.192,124.369 189.308 C 124.850 189.434,125.138 189.334,125.086 189.059 C 125.039 188.807,125.270 188.660,125.600 188.733 C 125.930 188.807,126.074 188.741,125.920 188.587 C 125.581 188.247,127.676 186.020,128.100 186.270 C 128.265 186.367,128.400 218.171,128.400 256.944 M340.001 223.798 C 339.486 224.348,339.139 224.848,339.232 224.911 C 339.324 224.974,339.884 224.524,340.474 223.912 C 341.065 223.301,341.412 222.800,341.244 222.800 C 341.077 222.800,340.517 223.249,340.001 223.798 M323.601 240.198 C 323.086 240.748,322.739 241.248,322.832 241.311 C 322.924 241.374,323.484 240.924,324.074 240.312 C 324.665 239.701,325.012 239.200,324.844 239.200 C 324.677 239.200,324.117 239.649,323.601 240.198 M306.770 257.054 C 305.878 258.024,305.868 258.073,306.653 257.665 C 307.122 257.422,307.611 256.947,307.740 256.611 C 308.068 255.758,307.885 255.842,306.770 257.054 M290.001 273.798 C 289.486 274.348,289.139 274.848,289.232 274.911 C 289.324 274.974,289.884 274.524,290.474 273.912 C 291.065 273.301,291.412 272.800,291.244 272.800 C 291.077 272.800,290.517 273.249,290.001 273.798 M273.601 290.198 C 273.086 290.748,272.739 291.248,272.832 291.311 C 272.924 291.374,273.484 290.924,274.074 290.312 C 274.665 289.701,275.012 289.200,274.844 289.200 C 274.677 289.200,274.117 289.649,273.601 290.198 M256.770 307.054 C 255.878 308.024,255.868 308.073,256.653 307.665 C 257.122 307.422,257.611 306.947,257.740 306.611 C 258.068 305.758,257.885 305.842,256.770 307.054 M240.001 323.798 C 239.486 324.348,239.139 324.848,239.232 324.911 C 239.324 324.974,239.884 324.524,240.474 323.912 C 241.065 323.301,241.412 322.800,241.244 322.800 C 241.077 322.800,240.517 323.249,240.001 323.798 M223.601 340.198 C 223.086 340.748,222.739 341.248,222.832 341.311 C 222.924 341.374,223.484 340.924,224.074 340.312 C 224.665 339.701,225.012 339.200,224.844 339.200 C 224.677 339.200,224.117 339.649,223.601 340.198 M206.770 357.054 C 205.878 358.024,205.868 358.073,206.653 357.665 C 207.122 357.422,207.611 356.947,207.740 356.611 C 208.068 355.758,207.885 355.842,206.770 357.054 M190.001 373.798 C 189.486 374.348,189.139 374.848,189.232 374.911 C 189.324 374.974,189.884 374.524,190.474 373.912 C 191.065 373.301,191.412 372.800,191.244 372.800 C 191.077 372.800,190.517 373.249,190.001 373.798 M143.330 378.300 C 134.931 378.360,121.071 378.360,112.530 378.300 C 103.988 378.240,110.860 378.190,127.800 378.190 C 144.740 378.190,151.728 378.240,143.330 378.300 M173.601 390.198 C 173.086 390.748,172.739 391.248,172.832 391.311 C 172.924 391.374,173.484 390.924,174.074 390.312 C 174.665 389.701,175.012 389.200,174.844 389.200 C 174.677 389.200,174.117 389.649,173.601 390.198 " stroke="none" fill="#cc843c" fill-rule="evenodd"></path><path id="path1" d="M338.000 225.800 C 337.483 226.350,337.227 226.794,337.430 226.787 C 337.772 226.776,339.421 224.800,339.088 224.800 C 339.006 224.800,338.517 225.250,338.000 225.800 M325.570 238.268 L 324.600 239.336 325.687 238.568 C 326.286 238.146,326.781 237.665,326.787 237.500 C 326.808 237.007,326.589 237.146,325.570 238.268 M288.000 275.800 C 287.483 276.350,287.227 276.794,287.430 276.787 C 287.772 276.776,289.421 274.800,289.088 274.800 C 289.006 274.800,288.517 275.250,288.000 275.800 M275.570 288.268 L 274.600 289.336 275.687 288.568 C 276.286 288.146,276.781 287.665,276.787 287.500 C 276.808 287.007,276.589 287.146,275.570 288.268 M238.000 325.800 C 237.483 326.350,237.227 326.794,237.430 326.787 C 237.772 326.776,239.421 324.800,239.088 324.800 C 239.006 324.800,238.517 325.250,238.000 325.800 M225.570 338.268 L 224.600 339.336 225.687 338.568 C 226.286 338.146,226.781 337.665,226.787 337.500 C 226.808 337.007,226.589 337.146,225.570 338.268 M188.000 375.800 C 187.483 376.350,187.227 376.794,187.430 376.787 C 187.772 376.776,189.421 374.800,189.088 374.800 C 189.006 374.800,188.517 375.250,188.000 375.800 M175.570 388.268 L 174.600 389.336 175.687 388.568 C 176.286 388.146,176.781 387.665,176.787 387.500 C 176.808 387.007,176.589 387.146,175.570 388.268 " stroke="none" fill="#cc8444" fill-rule="evenodd"></path><path id="path2" d="M317.200 4.187 C 317.200 4.545,317.435 4.685,317.800 4.545 C 318.140 4.414,318.400 4.535,318.400 4.824 C 318.400 5.104,318.494 5.239,318.609 5.124 C 318.725 5.009,318.705 4.619,318.567 4.257 C 318.254 3.441,317.200 3.388,317.200 4.187 M320.133 7.055 C 320.133 7.681,320.378 7.728,321.134 7.249 C 321.546 6.988,321.492 6.865,320.900 6.710 C 320.421 6.585,320.133 6.714,320.133 7.055 M321.039 8.337 C 320.654 8.960,321.385 9.528,321.882 8.992 C 322.261 8.584,322.242 8.425,321.795 8.253 C 321.482 8.133,321.142 8.171,321.039 8.337 M275.008 10.724 C 274.663 11.623,274.995 11.689,275.737 10.869 C 276.288 10.261,276.302 10.133,275.819 10.133 C 275.497 10.133,275.132 10.399,275.008 10.724 M321.200 16.187 C 321.200 16.544,321.435 16.685,321.798 16.546 C 322.126 16.419,322.296 16.155,322.174 15.958 C 321.825 15.393,321.200 15.540,321.200 16.187 M321.200 17.521 C 321.200 17.772,320.888 17.874,320.500 17.750 C 319.964 17.577,319.928 17.616,320.345 17.914 C 320.806 18.243,320.806 18.337,320.345 18.520 C 320.045 18.639,320.003 18.751,320.251 18.768 C 320.834 18.809,321.793 17.660,321.457 17.324 C 321.316 17.182,321.200 17.271,321.200 17.521 M317.870 20.745 C 317.965 21.118,317.787 21.205,317.305 21.021 C 316.738 20.805,316.698 20.851,317.103 21.259 C 317.508 21.668,317.741 21.623,318.303 21.027 C 318.686 20.620,318.790 20.404,318.534 20.546 C 318.278 20.689,317.992 20.669,317.900 20.502 C 317.807 20.336,317.794 20.445,317.870 20.745 M300.921 21.898 C 303.077 21.971,306.497 21.970,308.521 21.898 C 310.544 21.825,308.780 21.766,304.600 21.767 C 300.420 21.767,298.764 21.826,300.921 21.898 M258.782 26.834 C 258.536 27.293,258.447 27.780,258.583 27.917 C 258.720 28.053,258.933 27.778,259.057 27.305 C 259.180 26.832,259.668 26.369,260.141 26.277 C 260.995 26.110,260.994 26.109,260.114 26.054 C 259.586 26.022,259.048 26.337,258.782 26.834 M254.208 31.524 C 253.863 32.423,254.195 32.489,254.937 31.669 C 255.488 31.061,255.502 30.933,255.019 30.933 C 254.697 30.933,254.332 31.199,254.208 31.524 M278.099 106.900 L 278.000 177.600 262.600 177.600 C 252.600 177.600,247.200 177.740,247.200 178.000 C 247.200 178.675,277.390 178.535,277.952 177.858 C 278.283 177.459,278.375 158.577,278.300 106.758 L 278.198 36.200 278.099 106.900 M243.700 41.798 C 243.063 42.522,243.067 42.800,243.715 42.800 C 243.998 42.800,244.257 42.440,244.290 42.000 C 244.361 41.062,244.351 41.059,243.700 41.798 M241.708 43.790 C 241.306 44.247,241.360 44.338,242.008 44.289 C 242.444 44.257,242.800 43.998,242.800 43.715 C 242.800 43.050,242.331 43.082,241.708 43.790 M231.400 54.306 C 231.180 54.468,230.942 54.865,230.870 55.189 C 230.774 55.628,230.952 55.587,231.570 55.027 C 232.647 54.052,232.514 53.488,231.400 54.306 M226.633 58.926 C 226.203 59.241,225.992 59.764,226.110 60.226 C 226.282 60.900,226.313 60.884,226.354 60.100 C 226.379 59.605,226.659 59.200,226.976 59.200 C 227.293 59.200,227.664 59.020,227.800 58.800 C 228.151 58.232,227.484 58.305,226.633 58.926 M221.257 64.356 C 220.928 64.565,220.871 64.796,221.112 64.946 C 221.331 65.081,221.732 64.923,222.004 64.596 C 222.543 63.945,222.120 63.809,221.257 64.356 M218.000 67.800 C 217.254 68.570,216.767 69.200,216.918 69.200 C 217.191 69.200,219.600 66.811,219.600 66.541 C 219.600 66.224,219.293 66.466,218.000 67.800 M208.782 76.834 C 208.536 77.293,208.447 77.780,208.583 77.917 C 208.720 78.053,208.933 77.778,209.057 77.305 C 209.180 76.832,209.668 76.369,210.141 76.277 C 210.995 76.110,210.994 76.109,210.114 76.054 C 209.586 76.022,209.048 76.337,208.782 76.834 M204.208 81.524 C 203.863 82.423,204.195 82.489,204.937 81.669 C 205.488 81.061,205.502 80.933,205.019 80.933 C 204.697 80.933,204.332 81.199,204.208 81.524 M227.999 157.000 L 227.800 227.800 212.400 228.007 L 197.000 228.214 212.251 228.307 C 224.684 228.383,227.585 228.300,227.952 227.858 C 228.283 227.459,228.375 208.577,228.301 156.758 L 228.199 86.200 227.999 157.000 M193.700 91.798 C 193.063 92.522,193.067 92.800,193.715 92.800 C 193.998 92.800,194.257 92.440,194.290 92.000 C 194.361 91.062,194.351 91.059,193.700 91.798 M191.708 93.790 C 191.306 94.247,191.360 94.338,192.008 94.289 C 192.444 94.257,192.800 93.998,192.800 93.715 C 192.800 93.050,192.331 93.082,191.708 93.790 M181.400 104.306 C 181.180 104.468,180.942 104.865,180.870 105.189 C 180.774 105.628,180.952 105.587,181.570 105.027 C 182.647 104.052,182.514 103.488,181.400 104.306 M176.633 108.926 C 176.203 109.241,175.992 109.764,176.110 110.226 C 176.282 110.900,176.313 110.884,176.354 110.100 C 176.379 109.605,176.659 109.200,176.976 109.200 C 177.293 109.200,177.664 109.020,177.800 108.800 C 178.151 108.232,177.484 108.305,176.633 108.926 M171.257 114.356 C 170.928 114.565,170.871 114.796,171.112 114.946 C 171.331 115.081,171.732 114.923,172.004 114.596 C 172.543 113.945,172.120 113.809,171.257 114.356 M168.000 117.800 C 167.254 118.570,166.767 119.200,166.918 119.200 C 167.191 119.200,169.600 116.811,169.600 116.541 C 169.600 116.224,169.293 116.466,168.000 117.800 M158.813 126.776 C 158.537 127.292,158.532 127.634,158.799 127.799 C 159.020 127.936,159.200 127.689,159.200 127.251 C 159.200 126.744,159.526 126.393,160.100 126.282 L 161.000 126.109 160.114 126.054 C 159.606 126.023,159.051 126.331,158.813 126.776 M297.200 128.000 C 297.200 128.538,336.768 128.538,337.600 128.000 C 337.992 127.747,331.083 127.610,317.700 127.606 C 304.296 127.602,297.200 127.738,297.200 128.000 M177.900 167.566 C 177.735 184.817,177.600 216.720,177.600 238.461 L 177.600 277.990 162.300 278.100 L 147.000 278.210 162.251 278.305 C 174.686 278.382,177.585 278.300,177.952 277.858 C 178.283 277.459,178.375 258.576,178.301 206.758 C 178.210 143.288,178.170 139.351,177.900 167.566 M143.700 141.798 C 143.063 142.522,143.067 142.800,143.715 142.800 C 143.998 142.800,144.257 142.440,144.290 142.000 C 144.361 141.062,144.351 141.059,143.700 141.798 M141.708 143.790 C 141.306 144.247,141.360 144.338,142.008 144.289 C 142.444 144.257,142.800 143.998,142.800 143.715 C 142.800 143.050,142.331 143.082,141.708 143.790 M328.190 177.800 C 328.190 194.740,328.240 201.612,328.300 193.070 C 328.360 184.529,328.360 170.669,328.300 162.270 C 328.240 153.872,328.190 160.860,328.190 177.800 M131.400 154.306 C 131.180 154.468,130.942 154.865,130.870 155.189 C 130.774 155.628,130.952 155.587,131.570 155.027 C 132.647 154.052,132.514 153.488,131.400 154.306 M126.615 158.939 C 126.200 159.243,125.993 159.769,126.110 160.226 C 126.286 160.918,126.312 160.908,126.354 160.128 C 126.385 159.546,126.700 159.213,127.300 159.127 C 127.833 159.051,128.020 158.882,127.759 158.712 C 127.516 158.555,127.002 158.657,126.615 158.939 M117.594 168.206 C 116.851 168.973,116.342 169.600,116.462 169.600 C 116.814 169.600,119.281 167.147,119.105 166.972 C 119.017 166.884,118.337 167.439,117.594 168.206 M114.232 171.460 C 113.893 172.344,114.177 172.550,114.762 171.845 C 115.046 171.503,115.086 171.177,114.861 171.038 C 114.654 170.910,114.371 171.099,114.232 171.460 M108.782 176.834 C 108.536 177.293,108.447 177.780,108.583 177.917 C 108.720 178.053,108.933 177.778,109.057 177.305 C 109.180 176.832,109.668 176.369,110.141 176.277 C 110.995 176.110,110.994 176.109,110.114 176.054 C 109.586 176.022,109.048 176.337,108.782 176.834 M104.208 181.524 C 103.863 182.423,104.195 182.489,104.937 181.669 C 105.488 181.061,105.502 180.933,105.019 180.933 C 104.697 180.933,104.332 181.199,104.208 181.524 M127.598 186.476 C 127.597 186.764,127.598 218.725,127.600 257.500 L 127.604 328.000 112.302 328.095 L 97.000 328.190 112.153 328.300 C 123.012 328.379,127.461 328.281,127.853 327.956 C 128.539 327.386,128.685 186.624,128.000 186.200 C 127.780 186.064,127.599 186.188,127.598 186.476 M123.719 189.453 C 123.858 189.592,123.776 190.087,123.537 190.553 C 123.112 191.379,123.122 191.378,123.951 190.517 C 124.974 189.452,125.009 189.200,124.133 189.200 C 123.767 189.200,123.580 189.314,123.719 189.453 M53.100 216.665 C 53.375 216.776,53.600 217.222,53.600 217.657 C 53.600 218.092,53.780 218.336,54.001 218.199 C 54.525 217.875,53.755 216.388,53.086 216.432 C 52.720 216.455,52.723 216.513,53.100 216.665 M58.400 221.800 C 58.400 222.130,58.715 222.397,59.100 222.394 C 59.648 222.389,59.681 222.313,59.255 222.042 C 58.794 221.751,58.794 221.663,59.255 221.480 C 59.635 221.329,59.588 221.254,59.100 221.232 C 58.715 221.214,58.400 221.470,58.400 221.800 M62.800 222.000 C 62.800 222.253,65.601 222.400,70.404 222.400 L 78.007 222.400 77.904 305.385 C 77.847 351.027,77.922 388.062,78.072 387.685 C 78.598 386.359,78.448 222.608,77.920 222.080 C 77.307 221.467,62.800 221.390,62.800 222.000 M339.864 223.533 C 339.124 224.306,338.965 224.667,339.367 224.667 C 339.691 224.667,339.921 224.480,339.878 224.252 C 339.835 224.023,340.053 223.828,340.362 223.818 C 340.671 223.808,340.970 223.485,341.026 223.100 C 341.160 222.193,341.142 222.199,339.864 223.533 M323.427 239.972 C 322.502 240.937,322.436 241.124,323.052 241.033 C 323.464 240.973,323.808 240.671,323.818 240.362 C 323.828 240.053,324.023 239.835,324.252 239.878 C 324.480 239.921,324.667 239.696,324.667 239.378 C 324.667 238.639,324.736 238.605,323.427 239.972 M306.664 256.733 C 305.889 257.543,305.753 257.867,306.189 257.867 C 306.525 257.867,306.712 257.778,306.603 257.670 C 306.321 257.388,307.234 256.374,307.579 256.587 C 307.737 256.685,307.867 256.503,307.867 256.182 C 307.867 255.439,307.933 255.409,306.664 256.733 M289.864 273.533 C 289.124 274.306,288.965 274.667,289.367 274.667 C 289.691 274.667,289.921 274.480,289.878 274.252 C 289.835 274.023,290.053 273.828,290.362 273.818 C 290.671 273.808,290.970 273.485,291.026 273.100 C 291.160 272.193,291.142 272.199,289.864 273.533 M273.427 289.972 C 272.502 290.937,272.436 291.124,273.052 291.033 C 273.464 290.973,273.808 290.671,273.818 290.362 C 273.828 290.053,274.023 289.835,274.252 289.878 C 274.480 289.921,274.667 289.696,274.667 289.378 C 274.667 288.639,274.736 288.605,273.427 289.972 M256.664 306.733 C 255.889 307.543,255.753 307.867,256.189 307.867 C 256.525 307.867,256.712 307.778,256.603 307.670 C 256.321 307.388,257.234 306.374,257.579 306.587 C 257.737 306.685,257.867 306.503,257.867 306.182 C 257.867 305.439,257.933 305.409,256.664 306.733 M239.864 323.533 C 239.124 324.306,238.965 324.667,239.367 324.667 C 239.691 324.667,239.921 324.480,239.878 324.252 C 239.835 324.023,240.053 323.828,240.362 323.818 C 240.671 323.808,240.970 323.485,241.026 323.100 C 241.160 322.193,241.142 322.199,239.864 323.533 M223.427 339.972 C 222.502 340.937,222.436 341.124,223.052 341.033 C 223.464 340.973,223.808 340.671,223.818 340.362 C 223.828 340.053,224.023 339.835,224.252 339.878 C 224.480 339.921,224.667 339.696,224.667 339.378 C 224.667 338.639,224.736 338.605,223.427 339.972 M206.664 356.733 C 205.889 357.543,205.753 357.867,206.189 357.867 C 206.525 357.867,206.712 357.778,206.603 357.670 C 206.321 357.388,207.234 356.374,207.579 356.587 C 207.737 356.685,207.867 356.503,207.867 356.182 C 207.867 355.439,207.933 355.409,206.664 356.733 M189.864 373.533 C 189.124 374.306,188.965 374.667,189.367 374.667 C 189.691 374.667,189.921 374.480,189.878 374.252 C 189.835 374.023,190.053 373.828,190.362 373.818 C 190.671 373.808,190.970 373.485,191.026 373.100 C 191.160 372.193,191.142 372.199,189.864 373.533 M112.530 378.300 C 121.071 378.360,134.931 378.360,143.330 378.300 C 151.728 378.240,144.740 378.190,127.800 378.190 C 110.860 378.190,103.988 378.240,112.530 378.300 M173.427 389.972 C 172.502 390.937,172.436 391.124,173.052 391.033 C 173.464 390.973,173.808 390.671,173.818 390.362 C 173.828 390.053,174.023 389.835,174.252 389.878 C 174.480 389.921,174.667 389.696,174.667 389.378 C 174.667 388.639,174.736 388.605,173.427 389.972 M78.118 391.008 C 77.739 391.416,77.758 391.575,78.205 391.747 C 78.881 392.006,79.259 391.541,78.874 390.925 C 78.682 390.620,78.455 390.645,78.118 391.008 M80.800 394.956 C 80.800 395.079,81.340 395.459,82.000 395.800 C 82.660 396.141,83.200 396.257,83.200 396.057 C 83.200 395.857,82.885 395.582,82.500 395.446 C 82.115 395.311,81.575 395.095,81.300 394.966 C 81.025 394.838,80.800 394.834,80.800 394.956 " stroke="none" fill="#d0843c" fill-rule="evenodd"></path><path id="path3" d="M317.200 4.187 C 317.200 4.545,317.435 4.685,317.800 4.545 C 318.140 4.414,318.400 4.535,318.400 4.824 C 318.400 5.104,318.494 5.239,318.609 5.124 C 318.725 5.009,318.705 4.619,318.567 4.257 C 318.254 3.441,317.200 3.388,317.200 4.187 M320.133 7.055 C 320.133 7.681,320.378 7.728,321.134 7.249 C 321.546 6.988,321.492 6.865,320.900 6.710 C 320.421 6.585,320.133 6.714,320.133 7.055 M321.039 8.337 C 320.654 8.960,321.385 9.528,321.882 8.992 C 322.261 8.584,322.242 8.425,321.795 8.253 C 321.482 8.133,321.142 8.171,321.039 8.337 M275.008 10.724 C 274.663 11.623,274.995 11.689,275.737 10.869 C 276.288 10.261,276.302 10.133,275.819 10.133 C 275.497 10.133,275.132 10.399,275.008 10.724 M321.200 16.187 C 321.200 16.544,321.435 16.685,321.798 16.546 C 322.126 16.419,322.296 16.155,322.174 15.958 C 321.825 15.393,321.200 15.540,321.200 16.187 M321.200 17.521 C 321.200 17.772,320.888 17.874,320.500 17.750 C 319.964 17.577,319.928 17.616,320.345 17.914 C 320.806 18.243,320.806 18.337,320.345 18.520 C 320.045 18.639,320.003 18.751,320.251 18.768 C 320.834 18.809,321.793 17.660,321.457 17.324 C 321.316 17.182,321.200 17.271,321.200 17.521 M317.870 20.745 C 317.965 21.118,317.787 21.205,317.305 21.021 C 316.738 20.805,316.698 20.851,317.103 21.259 C 317.508 21.668,317.741 21.623,318.303 21.027 C 318.686 20.620,318.790 20.404,318.534 20.546 C 318.278 20.689,317.992 20.669,317.900 20.502 C 317.807 20.336,317.794 20.445,317.870 20.745 M300.921 21.898 C 303.077 21.971,306.497 21.970,308.521 21.898 C 310.544 21.825,308.780 21.766,304.600 21.767 C 300.420 21.767,298.764 21.826,300.921 21.898 M258.782 26.834 C 258.536 27.293,258.447 27.780,258.583 27.917 C 258.720 28.053,258.933 27.778,259.057 27.305 C 259.180 26.832,259.668 26.369,260.141 26.277 C 260.995 26.110,260.994 26.109,260.114 26.054 C 259.586 26.022,259.048 26.337,258.782 26.834 M254.208 31.524 C 253.863 32.423,254.195 32.489,254.937 31.669 C 255.488 31.061,255.502 30.933,255.019 30.933 C 254.697 30.933,254.332 31.199,254.208 31.524 M278.099 106.900 L 278.000 177.600 262.600 177.600 C 252.600 177.600,247.200 177.740,247.200 178.000 C 247.200 178.675,277.390 178.535,277.952 177.858 C 278.283 177.459,278.375 158.577,278.300 106.758 L 278.198 36.200 278.099 106.900 M243.700 41.798 C 243.063 42.522,243.067 42.800,243.715 42.800 C 243.998 42.800,244.257 42.440,244.290 42.000 C 244.361 41.062,244.351 41.059,243.700 41.798 M241.708 43.790 C 241.306 44.247,241.360 44.338,242.008 44.289 C 242.444 44.257,242.800 43.998,242.800 43.715 C 242.800 43.050,242.331 43.082,241.708 43.790 M231.400 54.306 C 231.180 54.468,230.942 54.865,230.870 55.189 C 230.774 55.628,230.952 55.587,231.570 55.027 C 232.647 54.052,232.514 53.488,231.400 54.306 M226.633 58.926 C 226.203 59.241,225.992 59.764,226.110 60.226 C 226.282 60.900,226.313 60.884,226.354 60.100 C 226.379 59.605,226.659 59.200,226.976 59.200 C 227.293 59.200,227.664 59.020,227.800 58.800 C 228.151 58.232,227.484 58.305,226.633 58.926 M221.257 64.356 C 220.928 64.565,220.871 64.796,221.112 64.946 C 221.331 65.081,221.732 64.923,222.004 64.596 C 222.543 63.945,222.120 63.809,221.257 64.356 M218.000 67.800 C 217.254 68.570,216.767 69.200,216.918 69.200 C 217.191 69.200,219.600 66.811,219.600 66.541 C 219.600 66.224,219.293 66.466,218.000 67.800 M208.782 76.834 C 208.536 77.293,208.447 77.780,208.583 77.917 C 208.720 78.053,208.933 77.778,209.057 77.305 C 209.180 76.832,209.668 76.369,210.141 76.277 C 210.995 76.110,210.994 76.109,210.114 76.054 C 209.586 76.022,209.048 76.337,208.782 76.834 M204.208 81.524 C 203.863 82.423,204.195 82.489,204.937 81.669 C 205.488 81.061,205.502 80.933,205.019 80.933 C 204.697 80.933,204.332 81.199,204.208 81.524 M227.999 157.000 L 227.800 227.800 212.400 228.007 L 197.000 228.214 212.251 228.307 C 224.684 228.383,227.585 228.300,227.952 227.858 C 228.283 227.459,228.375 208.577,228.301 156.758 L 228.199 86.200 227.999 157.000 M193.700 91.798 C 193.063 92.522,193.067 92.800,193.715 92.800 C 193.998 92.800,194.257 92.440,194.290 92.000 C 194.361 91.062,194.351 91.059,193.700 91.798 M191.708 93.790 C 191.306 94.247,191.360 94.338,192.008 94.289 C 192.444 94.257,192.800 93.998,192.800 93.715 C 192.800 93.050,192.331 93.082,191.708 93.790 M181.400 104.306 C 181.180 104.468,180.942 104.865,180.870 105.189 C 180.774 105.628,180.952 105.587,181.570 105.027 C 182.647 104.052,182.514 103.488,181.400 104.306 M176.633 108.926 C 176.203 109.241,175.992 109.764,176.110 110.226 C 176.282 110.900,176.313 110.884,176.354 110.100 C 176.379 109.605,176.659 109.200,176.976 109.200 C 177.293 109.200,177.664 109.020,177.800 108.800 C 178.151 108.232,177.484 108.305,176.633 108.926 M171.257 114.356 C 170.928 114.565,170.871 114.796,171.112 114.946 C 171.331 115.081,171.732 114.923,172.004 114.596 C 172.543 113.945,172.120 113.809,171.257 114.356 M168.000 117.800 C 167.254 118.570,166.767 119.200,166.918 119.200 C 167.191 119.200,169.600 116.811,169.600 116.541 C 169.600 116.224,169.293 116.466,168.000 117.800 M158.813 126.776 C 158.537 127.292,158.532 127.634,158.799 127.799 C 159.020 127.936,159.200 127.689,159.200 127.251 C 159.200 126.744,159.526 126.393,160.100 126.282 L 161.000 126.109 160.114 126.054 C 159.606 126.023,159.051 126.331,158.813 126.776 M297.200 128.000 C 297.200 128.538,336.768 128.538,337.600 128.000 C 337.992 127.747,331.083 127.610,317.700 127.606 C 304.296 127.602,297.200 127.738,297.200 128.000 M177.900 167.566 C 177.735 184.817,177.600 216.720,177.600 238.461 L 177.600 277.990 162.300 278.100 L 147.000 278.210 162.251 278.305 C 174.686 278.382,177.585 278.300,177.952 277.858 C 178.283 277.459,178.375 258.576,178.301 206.758 C 178.210 143.288,178.170 139.351,177.900 167.566 M143.700 141.798 C 143.063 142.522,143.067 142.800,143.715 142.800 C 143.998 142.800,144.257 142.440,144.290 142.000 C 144.361 141.062,144.351 141.059,143.700 141.798 M141.708 143.790 C 141.306 144.247,141.360 144.338,142.008 144.289 C 142.444 144.257,142.800 143.998,142.800 143.715 C 142.800 143.050,142.331 143.082,141.708 143.790 M328.190 177.800 C 328.190 194.740,328.240 201.612,328.300 193.070 C 328.360 184.529,328.360 170.669,328.300 162.270 C 328.240 153.872,328.190 160.860,328.190 177.800 M131.400 154.306 C 131.180 154.468,130.942 154.865,130.870 155.189 C 130.774 155.628,130.952 155.587,131.570 155.027 C 132.647 154.052,132.514 153.488,131.400 154.306 M126.615 158.939 C 126.200 159.243,125.993 159.769,126.110 160.226 C 126.286 160.918,126.312 160.908,126.354 160.128 C 126.385 159.546,126.700 159.213,127.300 159.127 C 127.833 159.051,128.020 158.882,127.759 158.712 C 127.516 158.555,127.002 158.657,126.615 158.939 M117.594 168.206 C 116.851 168.973,116.342 169.600,116.462 169.600 C 116.814 169.600,119.281 167.147,119.105 166.972 C 119.017 166.884,118.337 167.439,117.594 168.206 M114.232 171.460 C 113.893 172.344,114.177 172.550,114.762 171.845 C 115.046 171.503,115.086 171.177,114.861 171.038 C 114.654 170.910,114.371 171.099,114.232 171.460 M108.782 176.834 C 108.536 177.293,108.447 177.780,108.583 177.917 C 108.720 178.053,108.933 177.778,109.057 177.305 C 109.180 176.832,109.668 176.369,110.141 176.277 C 110.995 176.110,110.994 176.109,110.114 176.054 C 109.586 176.022,109.048 176.337,108.782 176.834 M104.208 181.524 C 103.863 182.423,104.195 182.489,104.937 181.669 C 105.488 181.061,105.502 180.933,105.019 180.933 C 104.697 180.933,104.332 181.199,104.208 181.524 M127.598 186.476 C 127.597 186.764,127.598 218.725,127.600 257.500 L 127.604 328.000 112.302 328.095 L 97.000 328.190 112.153 328.300 C 123.012 328.379,127.461 328.281,127.853 327.956 C 128.539 327.386,128.685 186.624,128.000 186.200 C 127.780 186.064,127.599 186.188,127.598 186.476 M123.719 189.453 C 123.858 189.592,123.776 190.087,123.537 190.553 C 123.112 191.379,123.122 191.378,123.951 190.517 C 124.974 189.452,125.009 189.200,124.133 189.200 C 123.767 189.200,123.580 189.314,123.719 189.453 M53.100 216.665 C 53.375 216.776,53.600 217.222,53.600 217.657 C 53.600 218.092,53.780 218.336,54.001 218.199 C 54.525 217.875,53.755 216.388,53.086 216.432 C 52.720 216.455,52.723 216.513,53.100 216.665 M58.400 221.800 C 58.400 222.130,58.715 222.397,59.100 222.394 C 59.648 222.389,59.681 222.313,59.255 222.042 C 58.794 221.751,58.794 221.663,59.255 221.480 C 59.635 221.329,59.588 221.254,59.100 221.232 C 58.715 221.214,58.400 221.470,58.400 221.800 M62.800 222.000 C 62.800 222.253,65.601 222.400,70.404 222.400 L 78.007 222.400 77.904 305.385 C 77.847 351.027,77.922 388.062,78.072 387.685 C 78.598 386.359,78.448 222.608,77.920 222.080 C 77.307 221.467,62.800 221.390,62.800 222.000 M339.864 223.533 C 339.124 224.306,338.965 224.667,339.367 224.667 C 339.691 224.667,339.921 224.480,339.878 224.252 C 339.835 224.023,340.053 223.828,340.362 223.818 C 340.671 223.808,340.970 223.485,341.026 223.100 C 341.160 222.193,341.142 222.199,339.864 223.533 M323.427 239.972 C 322.502 240.937,322.436 241.124,323.052 241.033 C 323.464 240.973,323.808 240.671,323.818 240.362 C 323.828 240.053,324.023 239.835,324.252 239.878 C 324.480 239.921,324.667 239.696,324.667 239.378 C 324.667 238.639,324.736 238.605,323.427 239.972 M306.664 256.733 C 305.889 257.543,305.753 257.867,306.189 257.867 C 306.525 257.867,306.712 257.778,306.603 257.670 C 306.321 257.388,307.234 256.374,307.579 256.587 C 307.737 256.685,307.867 256.503,307.867 256.182 C 307.867 255.439,307.933 255.409,306.664 256.733 M289.864 273.533 C 289.124 274.306,288.965 274.667,289.367 274.667 C 289.691 274.667,289.921 274.480,289.878 274.252 C 289.835 274.023,290.053 273.828,290.362 273.818 C 290.671 273.808,290.970 273.485,291.026 273.100 C 291.160 272.193,291.142 272.199,289.864 273.533 M273.427 289.972 C 272.502 290.937,272.436 291.124,273.052 291.033 C 273.464 290.973,273.808 290.671,273.818 290.362 C 273.828 290.053,274.023 289.835,274.252 289.878 C 274.480 289.921,274.667 289.696,274.667 289.378 C 274.667 288.639,274.736 288.605,273.427 289.972 M256.664 306.733 C 255.889 307.543,255.753 307.867,256.189 307.867 C 256.525 307.867,256.712 307.778,256.603 307.670 C 256.321 307.388,257.234 306.374,257.579 306.587 C 257.737 306.685,257.867 306.503,257.867 306.182 C 257.867 305.439,257.933 305.409,256.664 306.733 M239.864 323.533 C 239.124 324.306,238.965 324.667,239.367 324.667 C 239.691 324.667,239.921 324.480,239.878 324.252 C 239.835 324.023,240.053 323.828,240.362 323.818 C 240.671 323.808,240.970 323.485,241.026 323.100 C 241.160 322.193,241.142 322.199,239.864 323.533 M223.427 339.972 C 222.502 340.937,222.436 341.124,223.052 341.033 C 223.464 340.973,223.808 340.671,223.818 340.362 C 223.828 340.053,224.023 339.835,224.252 339.878 C 224.480 339.921,224.667 339.696,224.667 339.378 C 224.667 338.639,224.736 338.605,223.427 339.972 M206.664 356.733 C 205.889 357.543,205.753 357.867,206.189 357.867 C 206.525 357.867,206.712 357.778,206.603 357.670 C 206.321 357.388,207.234 356.374,207.579 356.587 C 207.737 356.685,207.867 356.503,207.867 356.182 C 207.867 355.439,207.933 355.409,206.664 356.733 M189.864 373.533 C 189.124 374.306,188.965 374.667,189.367 374.667 C 189.691 374.667,189.921 374.480,189.878 374.252 C 189.835 374.023,190.053 373.828,190.362 373.818 C 190.671 373.808,190.970 373.485,191.026 373.100 C 191.160 372.193,191.142 372.199,189.864 373.533 M112.530 378.300 C 121.071 378.360,134.931 378.360,143.330 378.300 C 151.728 378.240,144.740 378.190,127.800 378.190 C 110.860 378.190,103.988 378.240,112.530 378.300 M173.427 389.972 C 172.502 390.937,172.436 391.124,173.052 391.033 C 173.464 390.973,173.808 390.671,173.818 390.362 C 173.828 390.053,174.023 389.835,174.252 389.878 C 174.480 389.921,174.667 389.696,174.667 389.378 C 174.667 388.639,174.736 388.605,173.427 389.972 M78.118 391.008 C 77.739 391.416,77.758 391.575,78.205 391.747 C 78.881 392.006,79.259 391.541,78.874 390.925 C 78.682 390.620,78.455 390.645,78.118 391.008 M80.800 394.956 C 80.800 395.079,81.340 395.459,82.000 395.800 C 82.660 396.141,83.200 396.257,83.200 396.057 C 83.200 395.857,82.885 395.582,82.500 395.446 C 82.115 395.311,81.575 395.095,81.300 394.966 C 81.025 394.838,80.800 394.834,80.800 394.956 " stroke="none" fill="#d0843c" fill-rule="evenodd"></path><path id="path4" d="M317.200 4.187 C 317.200 4.545,317.435 4.685,317.800 4.545 C 318.140 4.414,318.400 4.535,318.400 4.824 C 318.400 5.104,318.494 5.239,318.609 5.124 C 318.725 5.009,318.705 4.619,318.567 4.257 C 318.254 3.441,317.200 3.388,317.200 4.187 M320.133 7.055 C 320.133 7.681,320.378 7.728,321.134 7.249 C 321.546 6.988,321.492 6.865,320.900 6.710 C 320.421 6.585,320.133 6.714,320.133 7.055 M321.039 8.337 C 320.654 8.960,321.385 9.528,321.882 8.992 C 322.261 8.584,322.242 8.425,321.795 8.253 C 321.482 8.133,321.142 8.171,321.039 8.337 M275.008 10.724 C 274.663 11.623,274.995 11.689,275.737 10.869 C 276.288 10.261,276.302 10.133,275.819 10.133 C 275.497 10.133,275.132 10.399,275.008 10.724 M321.200 16.187 C 321.200 16.544,321.435 16.685,321.798 16.546 C 322.126 16.419,322.296 16.155,322.174 15.958 C 321.825 15.393,321.200 15.540,321.200 16.187 M321.200 17.521 C 321.200 17.772,320.888 17.874,320.500 17.750 C 319.964 17.577,319.928 17.616,320.345 17.914 C 320.806 18.243,320.806 18.337,320.345 18.520 C 320.045 18.639,320.003 18.751,320.251 18.768 C 320.834 18.809,321.793 17.660,321.457 17.324 C 321.316 17.182,321.200 17.271,321.200 17.521 M317.870 20.745 C 317.965 21.118,317.787 21.205,317.305 21.021 C 316.738 20.805,316.698 20.851,317.103 21.259 C 317.508 21.668,317.741 21.623,318.303 21.027 C 318.686 20.620,318.790 20.404,318.534 20.546 C 318.278 20.689,317.992 20.669,317.900 20.502 C 317.807 20.336,317.794 20.445,317.870 20.745 M300.921 21.898 C 303.077 21.971,306.497 21.970,308.521 21.898 C 310.544 21.825,308.780 21.766,304.600 21.767 C 300.420 21.767,298.764 21.826,300.921 21.898 M258.782 26.834 C 258.536 27.293,258.447 27.780,258.583 27.917 C 258.720 28.053,258.933 27.778,259.057 27.305 C 259.180 26.832,259.668 26.369,260.141 26.277 C 260.995 26.110,260.994 26.109,260.114 26.054 C 259.586 26.022,259.048 26.337,258.782 26.834 M254.208 31.524 C 253.863 32.423,254.195 32.489,254.937 31.669 C 255.488 31.061,255.502 30.933,255.019 30.933 C 254.697 30.933,254.332 31.199,254.208 31.524 M278.099 106.900 L 278.000 177.600 262.600 177.600 C 252.600 177.600,247.200 177.740,247.200 178.000 C 247.200 178.675,277.390 178.535,277.952 177.858 C 278.283 177.459,278.375 158.577,278.300 106.758 L 278.198 36.200 278.099 106.900 M243.700 41.798 C 243.063 42.522,243.067 42.800,243.715 42.800 C 243.998 42.800,244.257 42.440,244.290 42.000 C 244.361 41.062,244.351 41.059,243.700 41.798 M241.708 43.790 C 241.306 44.247,241.360 44.338,242.008 44.289 C 242.444 44.257,242.800 43.998,242.800 43.715 C 242.800 43.050,242.331 43.082,241.708 43.790 M231.400 54.306 C 231.180 54.468,230.942 54.865,230.870 55.189 C 230.774 55.628,230.952 55.587,231.570 55.027 C 232.647 54.052,232.514 53.488,231.400 54.306 M226.633 58.926 C 226.203 59.241,225.992 59.764,226.110 60.226 C 226.282 60.900,226.313 60.884,226.354 60.100 C 226.379 59.605,226.659 59.200,226.976 59.200 C 227.293 59.200,227.664 59.020,227.800 58.800 C 228.151 58.232,227.484 58.305,226.633 58.926 M221.257 64.356 C 220.928 64.565,220.871 64.796,221.112 64.946 C 221.331 65.081,221.732 64.923,222.004 64.596 C 222.543 63.945,222.120 63.809,221.257 64.356 M218.000 67.800 C 217.254 68.570,216.767 69.200,216.918 69.200 C 217.191 69.200,219.600 66.811,219.600 66.541 C 219.600 66.224,219.293 66.466,218.000 67.800 M208.782 76.834 C 208.536 77.293,208.447 77.780,208.583 77.917 C 208.720 78.053,208.933 77.778,209.057 77.305 C 209.180 76.832,209.668 76.369,210.141 76.277 C 210.995 76.110,210.994 76.109,210.114 76.054 C 209.586 76.022,209.048 76.337,208.782 76.834 M204.208 81.524 C 203.863 82.423,204.195 82.489,204.937 81.669 C 205.488 81.061,205.502 80.933,205.019 80.933 C 204.697 80.933,204.332 81.199,204.208 81.524 M227.999 157.000 L 227.800 227.800 212.400 228.007 L 197.000 228.214 212.251 228.307 C 224.684 228.383,227.585 228.300,227.952 227.858 C 228.283 227.459,228.375 208.577,228.301 156.758 L 228.199 86.200 227.999 157.000 M193.700 91.798 C 193.063 92.522,193.067 92.800,193.715 92.800 C 193.998 92.800,194.257 92.440,194.290 92.000 C 194.361 91.062,194.351 91.059,193.700 91.798 M191.708 93.790 C 191.306 94.247,191.360 94.338,192.008 94.289 C 192.444 94.257,192.800 93.998,192.800 93.715 C 192.800 93.050,192.331 93.082,191.708 93.790 M181.400 104.306 C 181.180 104.468,180.942 104.865,180.870 105.189 C 180.774 105.628,180.952 105.587,181.570 105.027 C 182.647 104.052,182.514 103.488,181.400 104.306 M176.633 108.926 C 176.203 109.241,175.992 109.764,176.110 110.226 C 176.282 110.900,176.313 110.884,176.354 110.100 C 176.379 109.605,176.659 109.200,176.976 109.200 C 177.293 109.200,177.664 109.020,177.800 108.800 C 178.151 108.232,177.484 108.305,176.633 108.926 M171.257 114.356 C 170.928 114.565,170.871 114.796,171.112 114.946 C 171.331 115.081,171.732 114.923,172.004 114.596 C 172.543 113.945,172.120 113.809,171.257 114.356 M168.000 117.800 C 167.254 118.570,166.767 119.200,166.918 119.200 C 167.191 119.200,169.600 116.811,169.600 116.541 C 169.600 116.224,169.293 116.466,168.000 117.800 M158.813 126.776 C 158.537 127.292,158.532 127.634,158.799 127.799 C 159.020 127.936,159.200 127.689,159.200 127.251 C 159.200 126.744,159.526 126.393,160.100 126.282 L 161.000 126.109 160.114 126.054 C 159.606 126.023,159.051 126.331,158.813 126.776 M297.200 128.000 C 297.200 128.538,336.768 128.538,337.600 128.000 C 337.992 127.747,331.083 127.610,317.700 127.606 C 304.296 127.602,297.200 127.738,297.200 128.000 M177.900 167.566 C 177.735 184.817,177.600 216.720,177.600 238.461 L 177.600 277.990 162.300 278.100 L 147.000 278.210 162.251 278.305 C 174.686 278.382,177.585 278.300,177.952 277.858 C 178.283 277.459,178.375 258.576,178.301 206.758 C 178.210 143.288,178.170 139.351,177.900 167.566 M143.700 141.798 C 143.063 142.522,143.067 142.800,143.715 142.800 C 143.998 142.800,144.257 142.440,144.290 142.000 C 144.361 141.062,144.351 141.059,143.700 141.798 M141.708 143.790 C 141.306 144.247,141.360 144.338,142.008 144.289 C 142.444 144.257,142.800 143.998,142.800 143.715 C 142.800 143.050,142.331 143.082,141.708 143.790 M328.190 177.800 C 328.190 194.740,328.240 201.612,328.300 193.070 C 328.360 184.529,328.360 170.669,328.300 162.270 C 328.240 153.872,328.190 160.860,328.190 177.800 M131.400 154.306 C 131.180 154.468,130.942 154.865,130.870 155.189 C 130.774 155.628,130.952 155.587,131.570 155.027 C 132.647 154.052,132.514 153.488,131.400 154.306 M126.615 158.939 C 126.200 159.243,125.993 159.769,126.110 160.226 C 126.286 160.918,126.312 160.908,126.354 160.128 C 126.385 159.546,126.700 159.213,127.300 159.127 C 127.833 159.051,128.020 158.882,127.759 158.712 C 127.516 158.555,127.002 158.657,126.615 158.939 M117.594 168.206 C 116.851 168.973,116.342 169.600,116.462 169.600 C 116.814 169.600,119.281 167.147,119.105 166.972 C 119.017 166.884,118.337 167.439,117.594 168.206 M114.232 171.460 C 113.893 172.344,114.177 172.550,114.762 171.845 C 115.046 171.503,115.086 171.177,114.861 171.038 C 114.654 170.910,114.371 171.099,114.232 171.460 M108.782 176.834 C 108.536 177.293,108.447 177.780,108.583 177.917 C 108.720 178.053,108.933 177.778,109.057 177.305 C 109.180 176.832,109.668 176.369,110.141 176.277 C 110.995 176.110,110.994 176.109,110.114 176.054 C 109.586 176.022,109.048 176.337,108.782 176.834 M104.208 181.524 C 103.863 182.423,104.195 182.489,104.937 181.669 C 105.488 181.061,105.502 180.933,105.019 180.933 C 104.697 180.933,104.332 181.199,104.208 181.524 M127.598 186.476 C 127.597 186.764,127.598 218.725,127.600 257.500 L 127.604 328.000 112.302 328.095 L 97.000 328.190 112.153 328.300 C 123.012 328.379,127.461 328.281,127.853 327.956 C 128.539 327.386,128.685 186.624,128.000 186.200 C 127.780 186.064,127.599 186.188,127.598 186.476 M123.719 189.453 C 123.858 189.592,123.776 190.087,123.537 190.553 C 123.112 191.379,123.122 191.378,123.951 190.517 C 124.974 189.452,125.009 189.200,124.133 189.200 C 123.767 189.200,123.580 189.314,123.719 189.453 M53.100 216.665 C 53.375 216.776,53.600 217.222,53.600 217.657 C 53.600 218.092,53.780 218.336,54.001 218.199 C 54.525 217.875,53.755 216.388,53.086 216.432 C 52.720 216.455,52.723 216.513,53.100 216.665 M58.400 221.800 C 58.400 222.130,58.715 222.397,59.100 222.394 C 59.648 222.389,59.681 222.313,59.255 222.042 C 58.794 221.751,58.794 221.663,59.255 221.480 C 59.635 221.329,59.588 221.254,59.100 221.232 C 58.715 221.214,58.400 221.470,58.400 221.800 M62.800 222.000 C 62.800 222.253,65.601 222.400,70.404 222.400 L 78.007 222.400 77.904 305.385 C 77.847 351.027,77.922 388.062,78.072 387.685 C 78.598 386.359,78.448 222.608,77.920 222.080 C 77.307 221.467,62.800 221.390,62.800 222.000 M339.864 223.533 C 339.124 224.306,338.965 224.667,339.367 224.667 C 339.691 224.667,339.921 224.480,339.878 224.252 C 339.835 224.023,340.053 223.828,340.362 223.818 C 340.671 223.808,340.970 223.485,341.026 223.100 C 341.160 222.193,341.142 222.199,339.864 223.533 M323.427 239.972 C 322.502 240.937,322.436 241.124,323.052 241.033 C 323.464 240.973,323.808 240.671,323.818 240.362 C 323.828 240.053,324.023 239.835,324.252 239.878 C 324.480 239.921,324.667 239.696,324.667 239.378 C 324.667 238.639,324.736 238.605,323.427 239.972 M306.664 256.733 C 305.889 257.543,305.753 257.867,306.189 257.867 C 306.525 257.867,306.712 257.778,306.603 257.670 C 306.321 257.388,307.234 256.374,307.579 256.587 C 307.737 256.685,307.867 256.503,307.867 256.182 C 307.867 255.439,307.933 255.409,306.664 256.733 M289.864 273.533 C 289.124 274.306,288.965 274.667,289.367 274.667 C 289.691 274.667,289.921 274.480,289.878 274.252 C 289.835 274.023,290.053 273.828,290.362 273.818 C 290.671 273.808,290.970 273.485,291.026 273.100 C 291.160 272.193,291.142 272.199,289.864 273.533 M273.427 289.972 C 272.502 290.937,272.436 291.124,273.052 291.033 C 273.464 290.973,273.808 290.671,273.818 290.362 C 273.828 290.053,274.023 289.835,274.252 289.878 C 274.480 289.921,274.667 289.696,274.667 289.378 C 274.667 288.639,274.736 288.605,273.427 289.972 M256.664 306.733 C 255.889 307.543,255.753 307.867,256.189 307.867 C 256.525 307.867,256.712 307.778,256.603 307.670 C 256.321 307.388,257.234 306.374,257.579 306.587 C 257.737 306.685,257.867 306.503,257.867 306.182 C 257.867 305.439,257.933 305.409,256.664 306.733 M239.864 323.533 C 239.124 324.306,238.965 324.667,239.367 324.667 C 239.691 324.667,239.921 324.480,239.878 324.252 C 239.835 324.023,240.053 323.828,240.362 323.818 C 240.671 323.808,240.970 323.485,241.026 323.100 C 241.160 322.193,241.142 322.199,239.864 323.533 M223.427 339.972 C 222.502 340.937,222.436 341.124,223.052 341.033 C 223.464 340.973,223.808 340.671,223.818 340.362 C 223.828 340.053,224.023 339.835,224.252 339.878 C 224.480 339.921,224.667 339.696,224.667 339.378 C 224.667 338.639,224.736 338.605,223.427 339.972 M206.664 356.733 C 205.889 357.543,205.753 357.867,206.189 357.867 C 206.525 357.867,206.712 357.778,206.603 357.670 C 206.321 357.388,207.234 356.374,207.579 356.587 C 207.737 356.685,207.867 356.503,207.867 356.182 C 207.867 355.439,207.933 355.409,206.664 356.733 M189.864 373.533 C 189.124 374.306,188.965 374.667,189.367 374.667 C 189.691 374.667,189.921 374.480,189.878 374.252 C 189.835 374.023,190.053 373.828,190.362 373.818 C 190.671 373.808,190.970 373.485,191.026 373.100 C 191.160 372.193,191.142 372.199,189.864 373.533 M112.530 378.300 C 121.071 378.360,134.931 378.360,143.330 378.300 C 151.728 378.240,144.740 378.190,127.800 378.190 C 110.860 378.190,103.988 378.240,112.530 378.300 M173.427 389.972 C 172.502 390.937,172.436 391.124,173.052 391.033 C 173.464 390.973,173.808 390.671,173.818 390.362 C 173.828 390.053,174.023 389.835,174.252 389.878 C 174.480 389.921,174.667 389.696,174.667 389.378 C 174.667 388.639,174.736 388.605,173.427 389.972 M78.118 391.008 C 77.739 391.416,77.758 391.575,78.205 391.747 C 78.881 392.006,79.259 391.541,78.874 390.925 C 78.682 390.620,78.455 390.645,78.118 391.008 M80.800 394.956 C 80.800 395.079,81.340 395.459,82.000 395.800 C 82.660 396.141,83.200 396.257,83.200 396.057 C 83.200 395.857,82.885 395.582,82.500 395.446 C 82.115 395.311,81.575 395.095,81.300 394.966 C 81.025 394.838,80.800 394.834,80.800 394.956 " stroke="none" fill="#d0843c" fill-rule="evenodd"></path></g></svg>