<svg id="svg" version="1.1" xmlns="http://www.w3.org/2000/svg" xmlns:xlink="http://www.w3.org/1999/xlink" width="400" height="400" viewBox="0, 0, 400,400"><g id="svgg"><path id="path0" d="M132.200 14.000 C 132.064 14.220,130.624 14.400,129.000 14.400 C 127.376 14.400,125.936 14.580,125.800 14.800 C 125.664 15.020,124.764 15.200,123.800 15.200 C 122.836 15.200,121.936 15.380,121.800 15.600 C 121.664 15.820,120.843 16.000,119.976 16.000 C 119.109 16.000,118.400 16.180,118.400 16.400 C 118.400 16.620,117.500 16.800,116.400 16.800 C 115.300 16.800,114.400 16.980,114.400 17.200 C 114.400 17.420,113.590 17.600,112.600 17.600 C 111.610 17.600,110.800 17.780,110.800 18.000 C 110.800 18.220,110.080 18.400,109.200 18.400 C 108.320 18.400,107.600 18.580,107.600 18.800 C 107.600 19.020,106.700 19.200,105.600 19.200 C 104.500 19.200,103.600 19.380,103.600 19.600 C 103.600 19.820,103.324 20.000,102.987 20.000 C 101.593 20.000,99.600 22.670,99.600 24.536 C 99.600 29.952,103.589 32.334,110.200 30.868 C 113.678 30.096,115.517 29.698,118.000 29.181 C 119.210 28.928,120.920 28.568,121.800 28.381 C 122.680 28.193,124.300 27.855,125.400 27.631 C 126.500 27.406,128.245 27.038,129.277 26.811 C 141.332 24.169,156.845 30.293,164.853 40.855 C 166.965 43.641,167.793 45.011,171.103 51.200 C 171.867 52.630,172.893 54.520,173.381 55.400 C 180.401 68.045,180.833 69.228,179.430 71.942 C 178.324 74.081,172.961 77.254,171.439 76.670 C 170.964 76.488,168.519 72.285,165.608 66.646 C 163.310 62.193,159.606 59.319,154.924 58.358 C 152.187 57.796,152.314 57.778,139.000 60.609 C 132.137 62.068,124.348 63.711,117.000 65.249 C 114.800 65.709,112.280 66.247,111.400 66.444 C 110.520 66.641,108.900 66.981,107.800 67.200 C 106.700 67.419,105.080 67.760,104.200 67.959 C 100.824 68.720,98.140 69.299,96.600 69.600 C 95.060 69.901,92.376 70.480,89.000 71.241 C 88.120 71.440,86.500 71.781,85.400 72.000 C 84.300 72.219,82.590 72.579,81.600 72.800 C 80.610 73.021,78.900 73.381,77.800 73.600 C 76.700 73.819,75.080 74.160,74.200 74.359 C 66.419 76.113,65.297 76.307,64.784 75.990 C 64.523 75.829,64.150 74.910,63.954 73.949 C 63.758 72.987,63.419 71.300,63.200 70.200 C 62.981 69.100,62.639 67.480,62.440 66.600 C 61.676 63.220,61.181 60.927,60.799 59.000 C 60.581 57.900,60.241 56.280,60.044 55.400 C 59.636 53.578,58.068 46.165,57.605 43.872 C 57.236 42.043,57.193 42.067,63.018 40.850 C 82.463 36.788,81.220 37.124,82.635 35.537 C 83.963 34.048,85.454 28.400,84.519 28.400 C 84.338 28.400,84.012 28.007,83.795 27.526 C 83.025 25.822,80.964 25.097,77.616 25.355 C 72.880 25.720,70.800 26.051,70.800 26.440 C 70.800 26.638,70.001 26.800,69.024 26.800 C 68.047 26.800,67.136 26.980,67.000 27.200 C 66.864 27.420,65.964 27.600,65.000 27.600 C 64.036 27.600,63.136 27.780,63.000 28.000 C 62.864 28.220,62.054 28.400,61.200 28.400 C 60.346 28.400,59.536 28.580,59.400 28.800 C 59.264 29.020,58.443 29.200,57.576 29.200 C 56.709 29.200,56.000 29.380,56.000 29.600 C 56.000 29.820,55.457 30.000,54.794 30.000 C 53.350 30.000,50.400 30.871,50.400 31.297 C 50.400 31.464,50.124 31.600,49.787 31.600 C 48.991 31.600,46.400 34.191,46.400 34.987 C 46.400 35.324,46.220 35.600,46.000 35.600 C 45.780 35.600,45.600 35.960,45.600 36.400 C 45.600 36.840,45.420 37.200,45.200 37.200 C 44.970 37.200,44.799 38.435,44.797 40.100 C 44.793 43.335,44.205 44.000,41.344 44.000 C 40.631 44.000,39.936 44.180,39.800 44.400 C 39.037 45.635,37.234 44.171,37.213 42.300 C 37.206 41.695,37.020 41.200,36.800 41.200 C 36.580 41.200,36.400 40.840,36.400 40.400 C 36.400 39.960,36.232 39.600,36.027 39.600 C 35.822 39.600,35.540 39.240,35.400 38.800 C 35.260 38.360,34.928 38.000,34.661 38.000 C 34.395 38.000,33.917 37.640,33.600 37.200 C 33.261 36.730,32.565 36.400,31.912 36.400 C 31.300 36.400,30.800 36.220,30.800 36.000 C 30.800 35.780,29.810 35.600,28.600 35.600 C 27.390 35.600,26.400 35.780,26.400 36.000 C 26.400 36.220,25.500 36.400,24.400 36.400 C 23.300 36.400,22.400 36.580,22.400 36.800 C 22.400 37.020,21.680 37.200,20.800 37.200 C 19.920 37.200,19.200 37.380,19.200 37.600 C 19.200 37.820,18.300 38.000,17.200 38.000 C 16.100 38.000,15.200 38.180,15.200 38.400 C 15.200 38.620,14.390 38.800,13.400 38.800 C 12.410 38.800,11.600 38.980,11.600 39.200 C 11.600 39.420,10.880 39.600,10.000 39.600 C 9.120 39.600,8.400 39.780,8.400 40.000 C 8.400 40.220,7.860 40.400,7.200 40.400 C 6.540 40.400,6.000 40.580,6.000 40.800 C 6.000 41.020,5.712 41.200,5.360 41.200 C 4.431 41.200,2.000 43.775,2.000 44.760 C 2.000 45.222,1.820 45.600,1.600 45.600 C 1.372 45.600,1.200 46.792,1.200 48.376 C 1.200 49.903,1.380 51.264,1.600 51.400 C 1.820 51.536,2.000 52.447,2.000 53.424 C 2.000 54.401,2.180 55.200,2.400 55.200 C 2.620 55.200,2.800 56.010,2.800 57.000 C 2.800 57.990,2.980 58.800,3.200 58.800 C 3.420 58.800,3.600 59.599,3.600 60.576 C 3.600 61.553,3.780 62.464,4.000 62.600 C 4.220 62.736,4.400 63.557,4.400 64.424 C 4.400 65.291,4.580 66.000,4.800 66.000 C 5.020 66.000,5.200 66.900,5.200 68.000 C 5.200 69.100,5.380 70.000,5.600 70.000 C 5.820 70.000,6.000 70.810,6.000 71.800 C 6.000 72.790,6.180 73.600,6.400 73.600 C 6.620 73.600,6.800 74.320,6.800 75.200 C 6.800 76.080,6.980 76.800,7.200 76.800 C 7.420 76.800,7.600 77.700,7.600 78.800 C 7.600 79.900,7.754 80.800,7.941 80.800 C 8.129 80.800,8.397 82.159,8.538 83.820 C 8.678 85.481,8.975 87.179,9.197 87.594 C 9.418 88.008,9.600 88.979,9.600 89.750 C 9.600 90.522,9.780 91.264,10.000 91.400 C 10.220 91.536,10.400 92.177,10.400 92.824 C 10.400 93.471,10.536 94.000,10.702 94.000 C 10.869 94.000,11.239 94.530,11.526 95.177 C 11.812 95.824,12.576 96.588,13.223 96.874 C 13.870 97.161,14.400 97.531,14.400 97.698 C 14.400 97.864,14.940 98.000,15.600 98.000 C 16.260 98.000,16.800 98.180,16.800 98.400 C 16.800 98.620,17.610 98.800,18.600 98.800 C 19.590 98.800,20.400 98.620,20.400 98.400 C 20.400 98.180,21.300 98.000,22.400 98.000 C 23.500 98.000,24.400 97.820,24.400 97.600 C 24.400 97.380,25.199 97.200,26.176 97.200 C 27.153 97.200,28.064 97.020,28.200 96.800 C 28.336 96.580,29.157 96.400,30.024 96.400 C 30.891 96.400,31.600 96.220,31.600 96.000 C 31.600 95.780,32.500 95.600,33.600 95.600 C 34.700 95.600,35.600 95.420,35.600 95.200 C 35.600 94.980,36.410 94.800,37.400 94.800 C 38.390 94.800,39.200 94.620,39.200 94.400 C 39.200 94.180,39.740 94.000,40.400 94.000 C 41.060 94.000,41.600 93.864,41.600 93.698 C 41.600 93.531,42.140 93.156,42.800 92.864 C 43.460 92.572,44.000 92.161,44.000 91.950 C 44.000 91.739,44.360 91.180,44.800 90.708 C 45.240 90.236,45.600 89.431,45.600 88.919 C 45.600 88.408,45.823 87.632,46.096 87.195 C 46.491 86.562,46.491 86.238,46.096 85.605 C 45.044 83.921,45.452 81.600,46.800 81.600 C 47.460 81.600,48.000 81.420,48.000 81.200 C 48.000 80.980,48.799 80.800,49.776 80.800 C 50.753 80.800,51.664 80.620,51.800 80.400 C 52.251 79.670,52.800 79.986,52.800 80.976 C 52.800 81.513,52.980 82.064,53.200 82.200 C 53.420 82.336,53.600 82.711,53.600 83.032 C 53.600 83.794,57.806 88.000,58.568 88.000 C 58.889 88.000,59.264 88.180,59.400 88.400 C 59.729 88.933,68.400 88.933,68.400 88.400 C 68.400 88.180,69.199 88.000,70.176 88.000 C 71.153 88.000,72.064 87.820,72.200 87.600 C 72.336 87.380,73.146 87.200,74.000 87.200 C 74.854 87.200,75.664 87.020,75.800 86.800 C 75.936 86.580,76.746 86.400,77.600 86.400 C 78.454 86.400,79.264 86.220,79.400 86.000 C 80.637 83.999,84.000 86.234,84.000 89.056 C 84.000 89.769,84.180 90.464,84.400 90.600 C 84.620 90.736,84.800 91.557,84.800 92.424 C 84.800 93.291,84.980 94.000,85.200 94.000 C 85.420 94.000,85.600 94.900,85.600 96.000 C 85.600 97.100,85.780 98.000,86.000 98.000 C 86.220 98.000,86.400 98.799,86.400 99.776 C 86.400 100.753,86.580 101.664,86.800 101.800 C 87.020 101.936,87.200 102.721,87.200 103.544 C 87.200 104.367,87.416 105.256,87.680 105.520 C 88.053 105.893,79.209 106.000,47.880 106.000 C 21.293 106.000,7.600 106.136,7.600 106.400 C 7.600 106.620,7.060 106.800,6.400 106.800 C 5.740 106.800,5.200 106.980,5.200 107.200 C 5.200 107.420,4.912 107.600,4.560 107.600 C 3.859 107.600,1.200 110.074,1.200 110.727 C 1.200 110.950,0.975 111.208,0.700 111.300 C -0.036 111.545,-0.036 379.655,0.700 379.900 C 0.975 379.992,1.200 380.328,1.200 380.647 C 1.200 381.417,3.808 384.000,4.587 384.000 C 4.924 384.000,5.200 384.180,5.200 384.400 C 5.200 384.620,5.560 384.800,6.000 384.800 C 6.440 384.800,6.800 384.980,6.800 385.200 C 6.800 385.420,7.520 385.600,8.400 385.600 C 9.280 385.600,10.000 385.780,10.000 386.000 C 10.000 386.266,73.600 386.400,200.000 386.400 C 326.400 386.400,390.000 386.266,390.000 386.000 C 390.000 385.780,390.720 385.600,391.600 385.600 C 392.480 385.600,393.200 385.420,393.200 385.200 C 393.200 384.980,393.560 384.800,394.000 384.800 C 394.440 384.800,394.800 384.620,394.800 384.400 C 394.800 384.180,395.076 384.000,395.413 384.000 C 396.192 384.000,398.800 381.417,398.800 380.647 C 398.800 380.328,399.025 379.992,399.300 379.900 C 399.698 379.767,399.800 361.440,399.800 290.044 L 399.800 200.354 398.800 199.595 C 396.554 197.890,396.120 197.800,393.887 198.577 C 388.395 200.486,388.639 199.633,388.400 217.782 L 388.200 233.000 381.400 233.000 L 374.600 233.000 374.499 175.691 L 374.397 118.381 381.299 118.491 L 388.200 118.600 388.400 149.000 C 388.553 172.256,388.717 179.605,389.099 180.272 C 389.752 181.412,391.720 182.800,392.685 182.800 C 393.104 182.800,393.796 183.064,394.224 183.387 C 395.117 184.063,396.400 184.189,396.400 183.600 C 396.400 183.380,396.688 183.200,397.040 183.200 C 397.391 183.200,398.205 182.637,398.848 181.949 L 400.017 180.697 399.909 146.082 C 399.823 118.823,399.694 111.431,399.300 111.300 C 399.025 111.208,398.800 110.950,398.800 110.727 C 398.800 110.074,396.141 107.600,395.440 107.600 C 395.088 107.600,394.800 107.420,394.800 107.200 C 394.800 106.980,394.260 106.800,393.600 106.800 C 392.940 106.800,392.400 106.620,392.400 106.400 C 392.400 106.138,384.257 106.000,368.771 106.000 C 343.134 106.000,344.000 106.076,344.000 103.829 C 344.000 103.263,343.820 102.800,343.600 102.800 C 343.380 102.800,343.200 102.260,343.200 101.600 C 343.200 100.940,343.020 100.400,342.800 100.400 C 342.580 100.400,342.400 99.950,342.400 99.400 C 342.400 98.850,342.220 98.400,342.000 98.400 C 341.780 98.400,341.600 98.046,341.600 97.614 C 341.600 96.790,340.604 93.430,340.055 92.400 C 339.879 92.070,339.485 90.945,339.180 89.900 C 338.875 88.855,338.485 88.000,338.313 88.000 C 338.141 88.000,338.000 87.460,338.000 86.800 C 338.000 86.140,337.820 85.600,337.600 85.600 C 337.380 85.600,337.200 85.238,337.200 84.795 C 337.200 84.352,337.020 83.632,336.800 83.195 C 336.580 82.758,336.220 82.042,336.000 81.605 C 335.780 81.168,335.600 80.448,335.600 80.005 C 335.600 79.562,335.420 79.200,335.200 79.200 C 334.980 79.200,334.800 78.761,334.800 78.224 C 334.800 77.687,334.620 77.136,334.400 77.000 C 334.180 76.864,334.000 76.313,334.000 75.776 C 334.000 75.239,333.820 74.800,333.600 74.800 C 333.380 74.800,333.200 74.532,333.200 74.205 C 333.200 72.956,329.444 69.200,328.195 69.200 C 327.868 69.200,327.600 69.020,327.600 68.800 C 327.600 68.580,327.060 68.400,326.400 68.400 C 325.740 68.400,325.200 68.220,325.200 68.000 C 325.200 67.743,321.200 67.600,314.000 67.600 C 306.800 67.600,302.800 67.743,302.800 68.000 C 302.800 68.220,302.265 68.400,301.612 68.400 C 299.548 68.400,295.600 71.146,295.600 72.582 C 295.600 72.922,295.420 73.200,295.200 73.200 C 294.980 73.200,294.800 73.560,294.800 74.000 C 294.800 74.440,294.620 74.800,294.400 74.800 C 294.180 74.800,294.000 75.124,294.000 75.520 C 294.000 75.916,293.848 76.411,293.663 76.620 C 293.477 76.829,293.017 78.080,292.639 79.400 C 292.262 80.720,291.784 82.113,291.577 82.495 C 291.369 82.877,291.200 83.552,291.200 83.995 C 291.200 84.438,291.020 84.800,290.800 84.800 C 290.580 84.800,290.400 85.340,290.400 86.000 C 290.400 86.660,290.220 87.200,290.000 87.200 C 289.780 87.200,289.600 87.740,289.600 88.400 C 289.600 89.060,289.420 89.600,289.200 89.600 C 288.980 89.600,288.800 89.960,288.800 90.400 C 288.800 90.840,288.620 91.200,288.400 91.200 C 288.180 91.200,288.000 91.639,288.000 92.176 C 288.000 92.713,287.820 93.264,287.600 93.400 C 287.380 93.536,287.200 94.087,287.200 94.624 C 287.200 95.161,287.020 95.600,286.800 95.600 C 286.580 95.600,286.400 96.140,286.400 96.800 C 286.400 97.460,286.220 98.000,286.000 98.000 C 285.780 98.000,285.600 98.349,285.600 98.776 C 285.600 99.203,285.420 99.664,285.200 99.800 C 284.980 99.936,284.800 100.487,284.800 101.024 C 284.800 101.561,284.620 102.000,284.400 102.000 C 284.180 102.000,284.000 102.540,284.000 103.200 C 284.000 103.860,283.820 104.400,283.600 104.400 C 283.380 104.400,283.200 104.760,283.200 105.200 C 283.200 105.978,282.933 106.000,273.400 106.000 L 263.600 106.000 263.600 93.800 C 263.600 85.933,263.458 81.600,263.200 81.600 C 262.980 81.600,262.800 80.880,262.800 80.000 C 262.800 79.120,262.620 78.400,262.400 78.400 C 262.180 78.400,262.000 78.076,262.000 77.680 C 262.000 76.786,261.106 74.807,260.700 74.803 C 260.535 74.801,260.400 74.566,260.400 74.280 C 260.400 73.544,259.459 71.607,259.100 71.603 C 258.935 71.601,258.800 71.255,258.800 70.833 C 258.800 70.412,258.665 70.007,258.500 69.933 C 258.335 69.860,257.660 69.005,257.000 68.033 C 255.773 66.226,252.891 63.200,252.399 63.200 C 252.248 63.200,251.601 62.750,250.962 62.200 C 250.323 61.651,249.652 61.201,249.471 61.200 C 249.291 61.200,248.864 60.921,248.523 60.580 C 248.182 60.240,247.385 59.857,246.752 59.730 C 246.118 59.604,245.600 59.349,245.600 59.164 C 245.600 58.979,244.700 58.708,243.600 58.562 C 242.500 58.416,241.600 58.140,241.600 57.948 C 241.600 57.757,240.970 57.600,240.200 57.600 C 239.430 57.600,238.800 57.420,238.800 57.200 C 238.800 56.951,236.467 56.800,232.600 56.800 C 228.733 56.800,226.400 56.951,226.400 57.200 C 226.400 57.420,225.680 57.600,224.800 57.600 C 223.920 57.600,223.200 57.780,223.200 58.000 C 223.200 58.220,222.705 58.401,222.100 58.402 C 221.495 58.404,220.484 58.674,219.854 59.002 C 219.224 59.331,218.459 59.600,218.154 59.600 C 217.849 59.600,217.600 59.780,217.600 60.000 C 217.600 60.220,217.240 60.400,216.800 60.400 C 216.360 60.400,216.000 60.580,216.000 60.800 C 216.000 61.020,215.765 61.200,215.478 61.200 C 215.191 61.200,214.303 61.785,213.505 62.500 C 212.706 63.215,211.438 64.340,210.687 65.000 C 209.936 65.660,209.098 66.624,208.825 67.142 C 208.551 67.660,207.804 68.631,207.164 69.301 C 206.524 69.971,206.000 70.762,206.000 71.059 C 206.000 71.357,205.820 71.600,205.600 71.600 C 205.380 71.600,205.200 71.960,205.200 72.400 C 205.200 72.840,205.020 73.200,204.800 73.200 C 204.580 73.200,204.400 73.560,204.400 74.000 C 204.400 74.440,204.220 74.800,204.000 74.800 C 203.780 74.800,203.600 75.160,203.600 75.600 C 203.600 76.040,203.420 76.400,203.200 76.400 C 202.980 76.400,202.800 76.929,202.800 77.576 C 202.800 78.223,202.620 78.864,202.400 79.000 C 202.180 79.136,202.000 79.946,202.000 80.800 C 202.000 81.654,201.820 82.464,201.600 82.600 C 201.348 82.756,201.200 87.137,201.200 94.424 L 201.200 106.000 167.200 106.000 L 133.200 106.000 133.200 104.224 C 133.200 103.247,133.020 102.336,132.800 102.200 C 132.580 102.064,132.400 101.243,132.400 100.376 C 132.400 99.509,132.220 98.800,132.000 98.800 C 131.780 98.800,131.600 97.900,131.600 96.800 C 131.600 95.700,131.420 94.800,131.200 94.800 C 130.980 94.800,130.800 93.990,130.800 93.000 C 130.800 92.010,130.620 91.200,130.400 91.200 C 130.180 91.200,130.000 90.401,130.000 89.424 C 130.000 88.447,129.820 87.536,129.600 87.400 C 129.380 87.264,129.200 86.443,129.200 85.576 C 129.200 84.709,129.020 84.000,128.800 84.000 C 128.580 84.000,128.400 83.100,128.400 82.000 C 128.400 80.900,128.220 80.000,128.000 80.000 C 127.780 80.000,127.600 79.190,127.600 78.200 C 127.600 77.187,127.413 76.400,127.171 76.400 C 125.536 76.400,128.388 75.273,131.000 74.887 C 132.760 74.626,135.100 74.219,136.200 73.981 C 137.300 73.743,138.920 73.451,139.800 73.333 C 140.680 73.215,141.571 72.956,141.780 72.759 C 141.989 72.562,142.934 72.400,143.880 72.400 C 144.826 72.400,145.600 72.220,145.600 72.000 C 145.600 71.780,146.399 71.600,147.376 71.600 C 148.353 71.600,149.264 71.420,149.400 71.200 C 149.754 70.627,153.163 70.705,153.753 71.300 C 154.026 71.575,154.507 72.385,154.822 73.100 C 155.137 73.815,155.531 74.400,155.698 74.400 C 155.864 74.400,156.000 74.636,156.000 74.925 C 156.000 75.213,156.360 75.836,156.800 76.308 C 157.240 76.780,157.600 77.444,157.600 77.783 C 157.600 78.122,157.780 78.400,158.000 78.400 C 158.220 78.400,158.400 78.689,158.400 79.042 C 158.400 81.367,162.642 87.243,165.485 88.857 C 167.082 89.764,174.624 90.097,175.165 89.284 C 175.294 89.090,176.255 88.682,177.300 88.378 C 178.345 88.074,179.200 87.685,179.200 87.513 C 179.200 87.341,179.560 87.200,180.000 87.200 C 180.440 87.200,180.800 87.020,180.800 86.800 C 180.800 86.580,181.160 86.400,181.600 86.400 C 182.040 86.400,182.400 86.220,182.400 86.000 C 182.400 85.780,182.720 85.600,183.112 85.600 C 183.503 85.600,184.083 85.240,184.400 84.800 C 184.717 84.360,185.145 84.000,185.351 84.000 C 185.686 84.000,187.846 81.848,189.067 80.298 C 190.129 78.949,191.600 75.545,191.600 74.437 C 191.600 73.783,191.780 73.136,192.000 73.000 C 192.220 72.864,192.400 71.154,192.400 69.200 C 192.400 67.246,192.220 65.536,192.000 65.400 C 191.780 65.264,191.600 64.648,191.600 64.030 C 191.600 62.909,188.958 57.119,188.331 56.867 C 188.149 56.793,188.000 56.388,188.000 55.967 C 188.000 55.545,187.820 55.200,187.600 55.200 C 187.380 55.200,187.200 54.840,187.200 54.400 C 187.200 53.960,187.020 53.600,186.800 53.600 C 186.580 53.600,186.400 53.240,186.400 52.800 C 186.400 52.360,186.241 52.000,186.047 52.000 C 185.852 52.000,185.593 51.685,185.471 51.300 C 185.175 50.364,183.876 48.234,183.500 48.067 C 183.335 47.993,183.200 47.588,183.200 47.167 C 183.200 46.745,183.020 46.400,182.800 46.400 C 182.580 46.400,182.400 46.040,182.400 45.600 C 182.400 45.160,182.264 44.800,182.098 44.800 C 181.931 44.800,181.536 44.215,181.220 43.500 C 180.903 42.785,180.320 41.851,179.922 41.425 C 179.525 40.998,179.200 40.413,179.200 40.125 C 179.200 39.836,179.020 39.600,178.800 39.600 C 178.580 39.600,178.400 39.240,178.400 38.800 C 178.400 38.360,178.220 38.000,178.000 38.000 C 177.780 38.000,177.600 37.706,177.600 37.347 C 177.600 36.988,177.284 36.403,176.897 36.047 C 176.511 35.691,175.953 34.929,175.659 34.354 C 175.364 33.779,174.735 32.879,174.262 32.354 C 173.788 31.829,172.902 30.733,172.294 29.919 C 171.686 29.104,170.066 27.582,168.694 26.537 C 167.322 25.492,165.909 24.314,165.553 23.918 C 165.197 23.523,164.652 23.200,164.341 23.200 C 164.031 23.200,163.517 22.840,163.200 22.400 C 162.883 21.960,162.386 21.600,162.095 21.600 C 161.804 21.600,161.180 21.240,160.708 20.800 C 160.236 20.360,159.613 20.000,159.325 20.000 C 159.036 20.000,158.800 19.820,158.800 19.600 C 158.800 19.380,158.440 19.200,158.000 19.200 C 157.560 19.200,157.200 19.020,157.200 18.800 C 157.200 18.580,156.750 18.400,156.200 18.400 C 155.650 18.400,155.200 18.220,155.200 18.000 C 155.200 17.780,154.840 17.600,154.400 17.600 C 153.960 17.600,153.600 17.420,153.600 17.200 C 153.600 16.980,153.060 16.800,152.400 16.800 C 151.740 16.800,151.200 16.620,151.200 16.400 C 151.200 16.180,150.671 16.000,150.024 16.000 C 149.377 16.000,148.736 15.820,148.600 15.600 C 148.464 15.380,147.553 15.200,146.576 15.200 C 145.599 15.200,144.800 15.020,144.800 14.800 C 144.800 14.569,143.541 14.400,141.824 14.400 C 140.187 14.400,138.736 14.220,138.600 14.000 C 138.464 13.780,137.024 13.600,135.400 13.600 C 133.776 13.600,132.336 13.780,132.200 14.000 M26.186 50.696 C 27.480 57.726,30.665 59.111,40.757 57.033 C 44.583 56.245,47.834 55.600,47.981 55.600 C 48.226 55.600,48.622 57.023,49.595 61.400 C 49.791 62.280,50.142 63.845,50.375 64.877 C 51.035 67.791,51.016 67.826,48.500 68.369 C 43.548 69.437,42.736 69.614,40.900 70.025 C 33.757 71.624,31.516 74.354,32.523 80.232 C 33.027 83.177,33.074 83.089,30.767 83.560 C 29.795 83.759,28.010 84.147,26.800 84.424 C 25.590 84.701,23.887 84.944,23.015 84.964 L 21.430 85.000 20.767 81.800 C 20.403 80.040,19.701 76.710,19.207 74.400 C 18.713 72.090,17.950 68.490,17.512 66.400 C 17.073 64.310,16.553 61.880,16.356 61.000 C 16.159 60.120,15.819 58.500,15.600 57.400 C 15.381 56.300,15.034 54.590,14.829 53.600 C 14.346 51.265,14.556 51.095,19.000 50.219 C 20.980 49.829,23.230 49.382,24.000 49.225 C 25.793 48.859,25.856 48.902,26.186 50.696 M236.542 69.388 C 244.526 71.295,249.875 77.217,251.187 85.600 C 251.866 89.937,251.741 168.185,251.054 168.755 C 250.661 169.081,245.373 169.179,232.154 169.104 L 213.800 169.000 213.800 126.400 C 213.800 82.249,213.758 83.521,215.326 80.000 C 218.882 72.015,228.144 67.382,236.542 69.388 M115.169 80.300 C 115.442 81.565,115.818 83.320,116.004 84.200 C 116.191 85.080,116.537 86.655,116.772 87.700 C 117.007 88.745,117.380 90.410,117.600 91.400 C 117.820 92.390,118.177 93.965,118.393 94.900 C 118.609 95.835,119.081 98.040,119.441 99.800 C 119.802 101.560,120.233 103.630,120.400 104.400 C 120.567 105.170,121.005 107.240,121.374 109.000 C 121.742 110.760,123.209 117.690,124.633 124.400 C 126.058 131.110,127.585 138.310,128.028 140.400 C 128.470 142.490,129.002 144.920,129.209 145.800 C 129.417 146.680,129.881 148.840,130.241 150.600 C 130.602 152.360,131.055 154.520,131.249 155.400 C 131.443 156.280,131.781 157.900,132.000 159.000 C 132.219 160.100,132.559 161.720,132.756 162.600 C 132.953 163.480,133.513 166.090,134.000 168.400 C 134.487 170.710,135.047 173.320,135.244 174.200 C 135.441 175.080,135.781 176.700,136.000 177.800 C 136.219 178.900,136.559 180.520,136.756 181.400 C 136.953 182.280,137.490 184.800,137.951 187.000 C 138.411 189.200,139.159 192.710,139.614 194.800 C 140.068 196.890,140.871 200.670,141.399 203.200 C 141.926 205.730,142.916 210.410,143.600 213.600 C 144.283 216.790,144.994 220.120,145.179 221.000 C 145.364 221.880,145.919 224.490,146.411 226.800 C 146.904 229.110,147.328 231.450,147.354 232.000 L 147.400 233.000 137.529 233.107 C 128.380 233.206,127.644 233.162,127.460 232.507 C 127.202 231.589,125.974 225.904,124.197 217.400 C 122.056 207.158,121.206 203.166,120.791 201.400 C 120.583 200.520,120.119 198.360,119.759 196.600 C 119.398 194.840,118.965 192.770,118.795 192.000 C 118.625 191.230,118.087 188.710,117.600 186.400 C 117.113 184.090,116.553 181.480,116.356 180.600 C 116.159 179.720,115.819 178.100,115.600 177.000 C 115.381 175.900,115.043 174.280,114.849 173.400 C 114.655 172.520,114.202 170.360,113.841 168.600 C 113.481 166.840,113.017 164.680,112.809 163.800 C 112.602 162.920,112.071 160.490,111.629 158.400 C 111.188 156.310,109.661 149.110,108.237 142.400 C 106.812 135.690,105.345 128.760,104.975 127.000 C 104.606 125.240,104.165 123.170,103.995 122.400 C 103.825 121.630,103.287 119.110,102.800 116.800 C 102.313 114.490,101.753 111.880,101.556 111.000 C 101.359 110.120,101.019 108.500,100.800 107.400 C 100.581 106.300,100.243 104.680,100.049 103.800 C 99.855 102.920,99.405 100.760,99.049 99.000 C 97.947 93.548,97.605 91.914,96.830 88.400 C 95.350 81.694,95.350 81.714,96.871 81.414 C 100.212 80.753,106.472 79.416,109.200 78.781 C 114.413 77.567,114.588 77.612,115.169 80.300 M321.893 80.325 C 322.308 80.589,323.923 84.531,325.202 88.400 C 325.384 88.950,327.088 93.630,328.988 98.800 C 335.756 117.208,335.999 113.849,327.000 126.204 C 323.460 131.064,322.227 133.079,321.322 135.483 C 320.643 137.286,320.594 140.261,320.494 185.300 L 320.387 233.200 313.994 233.200 L 307.600 233.200 307.597 187.100 C 307.593 131.021,308.183 136.316,300.819 126.200 C 292.432 114.678,292.548 115.089,295.586 107.800 C 295.769 107.360,296.136 106.370,296.400 105.600 C 296.664 104.830,297.025 103.840,297.201 103.400 C 297.502 102.649,298.070 101.109,300.000 95.800 C 300.440 94.590,301.147 92.655,301.572 91.500 C 301.996 90.345,303.011 87.510,303.828 85.200 C 304.644 82.890,305.591 80.775,305.933 80.500 C 306.635 79.934,321.029 79.776,321.893 80.325 M25.600 148.416 C 25.600 182.144,25.492 180.899,28.515 182.166 C 29.222 182.462,30.481 182.996,31.314 183.352 C 33.042 184.092,34.000 184.180,34.000 183.600 C 34.000 183.380,34.278 183.200,34.618 183.200 C 35.315 183.200,36.869 181.766,37.549 180.496 C 37.862 179.910,38.000 174.707,38.000 163.426 L 38.000 147.200 67.200 147.200 L 96.400 147.200 96.400 148.176 C 96.400 148.713,96.580 149.264,96.800 149.400 C 97.020 149.536,97.200 150.346,97.200 151.200 C 97.200 152.054,97.380 152.864,97.600 153.000 C 97.820 153.136,98.000 153.946,98.000 154.800 C 98.000 155.654,98.180 156.464,98.400 156.600 C 98.620 156.736,98.800 157.647,98.800 158.624 C 98.800 159.601,98.980 160.400,99.200 160.400 C 99.420 160.400,99.600 161.199,99.600 162.176 C 99.600 163.153,99.780 164.064,100.000 164.200 C 100.220 164.336,100.400 165.146,100.400 166.000 C 100.400 166.854,100.580 167.664,100.800 167.800 C 101.020 167.936,101.200 168.847,101.200 169.824 C 101.200 170.801,101.380 171.600,101.600 171.600 C 101.820 171.600,102.000 172.410,102.000 173.400 C 102.000 174.390,102.180 175.200,102.400 175.200 C 102.620 175.200,102.800 175.999,102.800 176.976 C 102.800 177.953,102.980 178.864,103.200 179.000 C 103.420 179.136,103.600 179.957,103.600 180.824 C 103.600 181.691,103.780 182.400,104.000 182.400 C 104.220 182.400,104.400 183.300,104.400 184.400 C 104.400 185.500,104.580 186.400,104.800 186.400 C 105.020 186.400,105.200 187.210,105.200 188.200 C 105.200 189.190,105.380 190.000,105.600 190.000 C 105.820 190.000,106.000 190.720,106.000 191.600 C 106.000 192.480,106.180 193.200,106.400 193.200 C 106.620 193.200,106.800 194.100,106.800 195.200 C 106.800 196.300,106.980 197.200,107.200 197.200 C 107.420 197.200,107.600 198.100,107.600 199.200 C 107.600 200.300,107.748 201.200,107.928 201.200 C 108.109 201.200,108.458 202.595,108.705 204.300 C 108.952 206.005,109.353 208.390,109.597 209.600 C 109.841 210.810,110.140 212.520,110.261 213.400 C 110.383 214.280,110.644 215.171,110.841 215.380 C 111.038 215.589,111.200 216.433,111.200 217.256 C 111.200 218.079,111.380 218.864,111.600 219.000 C 111.820 219.136,112.000 220.047,112.000 221.024 C 112.000 222.001,112.180 222.800,112.400 222.800 C 112.620 222.800,112.800 223.599,112.800 224.576 C 112.800 225.553,112.980 226.464,113.200 226.600 C 113.420 226.736,113.600 227.546,113.600 228.400 C 113.600 229.254,113.780 230.064,114.000 230.200 C 114.220 230.336,114.400 230.887,114.400 231.424 L 114.400 232.400 76.200 232.400 L 38.000 232.400 38.000 217.078 L 38.000 201.756 36.700 200.376 C 34.488 198.028,33.531 197.724,31.087 198.593 C 25.602 200.542,25.838 199.717,25.600 217.800 L 25.400 233.000 18.600 233.000 L 11.800 233.000 11.697 176.200 C 11.641 144.960,11.680 119.175,11.785 118.900 C 11.927 118.527,13.706 118.400,18.787 118.400 L 25.600 118.400 25.600 148.416 M201.200 157.800 C 201.200 168.133,201.180 168.400,200.400 168.400 C 199.960 168.400,199.600 168.580,199.600 168.800 C 199.600 169.020,198.970 169.200,198.200 169.200 C 197.430 169.200,196.800 169.380,196.800 169.600 C 196.800 169.820,196.485 170.004,196.100 170.009 C 195.715 170.014,194.950 170.370,194.400 170.800 C 193.850 171.230,193.175 171.586,192.900 171.591 C 192.625 171.596,192.400 171.768,192.400 171.973 C 192.400 172.423,188.776 176.000,188.321 176.000 C 188.144 176.000,188.000 176.360,188.000 176.800 C 188.000 177.240,187.865 177.601,187.700 177.603 C 187.341 177.607,186.400 179.544,186.400 180.280 C 186.400 180.566,186.220 180.800,186.000 180.800 C 185.780 180.800,185.600 181.599,185.600 182.576 C 185.600 183.553,185.420 184.464,185.200 184.600 C 184.676 184.924,184.676 190.000,185.200 190.000 C 185.420 190.000,185.600 190.720,185.600 191.600 C 185.600 192.480,185.780 193.200,186.000 193.200 C 186.220 193.200,186.400 193.740,186.400 194.400 C 186.400 195.060,186.550 195.600,186.732 195.600 C 186.915 195.600,187.319 196.095,187.630 196.700 C 187.940 197.305,188.511 198.091,188.897 198.447 C 189.284 198.803,189.600 199.311,189.600 199.575 C 189.600 200.138,190.581 201.200,191.102 201.200 C 191.299 201.200,191.882 201.649,192.398 202.198 C 193.454 203.322,196.993 205.200,198.055 205.200 C 198.439 205.200,198.864 205.380,199.000 205.600 C 199.142 205.831,201.271 206.000,204.024 206.000 L 208.800 206.000 208.800 219.200 L 208.800 232.400 184.600 232.400 C 160.667 232.400,160.400 232.391,160.400 231.600 C 160.400 231.160,160.220 230.800,160.000 230.800 C 159.780 230.800,159.600 229.990,159.600 229.000 C 159.600 228.010,159.443 227.200,159.251 227.200 C 159.059 227.200,158.798 226.345,158.671 225.300 C 158.400 223.069,157.408 217.449,156.781 214.600 C 156.540 213.500,156.247 211.835,156.131 210.900 C 156.014 209.965,155.758 209.200,155.560 209.200 C 155.362 209.200,155.200 208.300,155.200 207.200 C 155.200 206.100,155.020 205.200,154.800 205.200 C 154.580 205.200,154.400 204.401,154.400 203.424 C 154.400 202.447,154.220 201.536,154.000 201.400 C 153.780 201.264,153.600 200.443,153.600 199.576 C 153.600 198.709,153.420 198.000,153.200 198.000 C 152.980 198.000,152.800 197.201,152.800 196.224 C 152.800 195.247,152.620 194.336,152.400 194.200 C 152.180 194.064,152.000 193.153,152.000 192.176 C 152.000 191.199,151.820 190.400,151.600 190.400 C 151.380 190.400,151.200 189.691,151.200 188.824 C 151.200 187.957,151.020 187.136,150.800 187.000 C 150.580 186.864,150.400 185.953,150.400 184.976 C 150.400 183.999,150.220 183.200,150.000 183.200 C 149.780 183.200,149.600 182.401,149.600 181.424 C 149.600 180.447,149.420 179.536,149.200 179.400 C 148.980 179.264,148.800 178.353,148.800 177.376 C 148.800 176.399,148.620 175.600,148.400 175.600 C 148.180 175.600,148.000 174.880,148.000 174.000 C 148.000 173.120,147.820 172.400,147.600 172.400 C 147.380 172.400,147.200 171.500,147.200 170.400 C 147.200 169.300,147.020 168.400,146.800 168.400 C 146.580 168.400,146.400 167.601,146.400 166.624 C 146.400 165.647,146.220 164.736,146.000 164.600 C 145.780 164.464,145.600 163.654,145.600 162.800 C 145.600 161.946,145.420 161.136,145.200 161.000 C 144.980 160.864,144.800 160.043,144.800 159.176 C 144.800 158.309,144.620 157.600,144.400 157.600 C 144.180 157.600,144.000 156.700,144.000 155.600 C 144.000 154.500,143.820 153.600,143.600 153.600 C 143.380 153.600,143.200 152.790,143.200 151.800 C 143.200 150.810,143.020 150.000,142.800 150.000 C 142.580 150.000,142.400 149.370,142.400 148.600 L 142.400 147.200 171.800 147.200 L 201.200 147.200 201.200 157.800 M294.800 189.800 L 294.800 232.400 275.000 232.400 L 255.200 232.400 255.200 219.200 L 255.200 206.000 260.376 206.000 C 263.396 206.000,265.656 205.833,265.800 205.600 C 265.936 205.380,266.577 205.200,267.224 205.200 C 267.871 205.200,268.400 205.020,268.400 204.800 C 268.400 204.580,268.760 204.400,269.200 204.400 C 269.640 204.400,270.000 204.220,270.000 204.000 C 270.000 203.780,270.320 203.600,270.712 203.600 C 271.103 203.600,271.683 203.240,272.000 202.800 C 272.317 202.360,272.723 202.000,272.902 202.000 C 273.435 202.000,276.000 199.269,276.000 198.702 C 276.000 198.413,276.360 197.917,276.800 197.600 C 277.240 197.283,277.600 196.703,277.600 196.312 C 277.600 195.920,277.780 195.600,278.000 195.600 C 278.220 195.600,278.400 195.240,278.400 194.800 C 278.400 194.360,278.580 194.000,278.800 194.000 C 279.020 194.000,279.200 193.280,279.200 192.400 C 279.200 191.520,279.380 190.800,279.600 190.800 C 279.839 190.800,280.000 189.267,280.000 187.000 C 280.000 184.733,279.839 183.200,279.600 183.200 C 279.380 183.200,279.200 182.570,279.200 181.800 C 279.200 181.030,279.020 180.400,278.800 180.400 C 278.580 180.400,278.400 179.950,278.400 179.400 C 278.400 178.850,278.220 178.400,278.000 178.400 C 277.780 178.400,277.600 178.130,277.600 177.800 C 277.600 177.470,277.420 177.200,277.200 177.200 C 276.980 177.200,276.800 176.970,276.800 176.688 C 276.800 176.407,276.440 175.917,276.000 175.600 C 275.560 175.283,275.200 174.836,275.200 174.607 C 275.200 174.377,274.718 173.832,274.128 173.395 C 273.538 172.958,272.646 172.195,272.146 171.700 C 271.646 171.205,270.958 170.800,270.618 170.800 C 270.278 170.800,270.000 170.620,270.000 170.400 C 270.000 170.180,269.640 170.000,269.200 170.000 C 268.760 170.000,268.400 169.820,268.400 169.600 C 268.400 169.380,267.680 169.200,266.800 169.200 C 265.920 169.200,265.200 169.020,265.200 168.800 C 265.200 168.580,264.840 168.400,264.400 168.400 C 263.620 168.400,263.600 168.133,263.600 157.800 L 263.600 147.200 279.200 147.200 L 294.800 147.200 294.800 189.800 M362.000 189.800 L 362.000 232.400 347.600 232.400 L 333.200 232.400 333.200 189.800 L 333.200 147.200 347.600 147.200 L 362.000 147.200 362.000 189.800 M264.510 181.753 C 268.711 184.601,268.351 190.814,263.862 192.944 C 261.507 194.061,203.329 193.931,201.026 192.803 C 196.096 190.389,196.592 182.840,201.792 181.135 C 204.038 180.398,263.374 180.983,264.510 181.753 M242.957 205.833 C 243.323 206.786,243.237 232.123,242.866 232.707 C 242.617 233.099,240.203 233.190,232.172 233.107 L 221.800 233.000 221.694 219.603 C 221.636 212.234,221.676 205.979,221.782 205.703 C 222.105 204.861,242.632 204.986,242.957 205.833 M388.200 309.200 L 388.200 373.400 200.000 373.400 L 11.800 373.400 11.697 309.600 C 11.641 274.510,11.680 245.575,11.785 245.300 C 11.937 244.900,49.807 244.819,200.088 244.900 L 388.200 245.000 388.200 309.200 M158.909 270.175 C 156.051 270.867,153.859 272.417,152.522 274.691 L 151.400 276.600 151.400 292.400 L 151.400 308.200 152.469 310.000 C 155.546 315.183,151.758 314.800,200.000 314.800 C 248.242 314.800,244.454 315.183,247.531 310.000 L 248.600 308.200 248.600 292.400 L 248.600 276.600 247.478 274.691 C 246.108 272.360,243.950 270.871,240.901 270.154 C 237.650 269.389,162.073 269.408,158.909 270.175 M236.567 281.443 C 237.123 281.656,237.200 283.003,237.200 292.443 L 237.200 303.200 200.000 303.200 L 162.800 303.200 162.800 292.433 C 162.800 284.194,162.917 281.619,163.300 281.465 C 164.021 281.174,235.811 281.152,236.567 281.443 " stroke="none" fill="#040404" fill-rule="evenodd"></path><path id="path1" d="M226.397 70.541 C 221.218 72.355,217.142 76.484,215.256 81.827 C 214.402 84.248,214.400 84.352,214.400 126.327 L 214.400 168.400 232.400 168.400 L 250.400 168.400 250.400 126.024 C 250.400 98.204,250.263 83.562,250.000 83.400 C 249.780 83.264,249.600 82.623,249.600 81.976 C 249.600 81.329,249.420 80.800,249.200 80.800 C 248.980 80.800,248.800 80.440,248.800 80.000 C 248.800 79.560,248.664 79.200,248.498 79.200 C 248.331 79.200,247.971 78.693,247.696 78.073 C 245.005 71.992,233.684 67.989,226.397 70.541 M200.893 182.132 C 197.297 184.129,197.221 189.593,200.751 192.281 C 201.253 192.662,208.461 192.777,232.500 192.787 L 263.600 192.800 265.200 191.200 C 267.722 188.678,267.363 184.510,264.444 182.432 C 262.999 181.403,202.718 181.119,200.893 182.132 M12.000 309.400 L 12.000 373.200 200.000 373.200 L 388.000 373.200 388.000 309.400 L 388.000 245.600 200.000 245.600 L 12.000 245.600 12.000 309.400 M241.972 269.687 C 248.871 272.042,249.685 274.599,249.522 293.400 C 249.375 310.272,248.866 312.014,243.310 314.676 C 240.968 315.799,159.032 315.799,156.690 314.676 C 151.151 312.022,150.627 310.246,150.470 293.600 C 150.292 274.647,151.014 272.298,157.797 269.748 C 159.593 269.072,240.001 269.015,241.972 269.687 " stroke="none" fill="#f29647" fill-rule="evenodd"></path><path id="path2" d="M98.991 26.357 C 98.776 26.564,97.880 26.783,97.000 26.842 C 96.120 26.901,95.220 27.074,95.000 27.227 C 94.597 27.507,92.840 27.849,89.700 28.259 C 88.765 28.381,88.000 28.642,88.000 28.840 C 88.000 29.038,87.301 29.200,86.447 29.200 C 84.741 29.200,84.416 29.702,84.405 32.353 C 84.394 35.257,82.446 37.084,78.400 37.983 C 77.190 38.253,75.570 38.623,74.800 38.807 C 74.030 38.990,72.320 39.347,71.000 39.600 C 69.680 39.853,67.970 40.218,67.200 40.411 C 66.430 40.604,65.350 40.852,64.800 40.962 C 57.755 42.370,57.896 42.306,58.138 43.962 C 58.349 45.405,58.693 47.108,59.600 51.200 C 60.112 53.511,60.569 55.666,61.147 58.500 C 61.337 59.435,61.883 62.000,62.359 64.200 C 62.835 66.400,63.499 69.550,63.834 71.200 C 64.795 75.939,64.646 75.703,66.539 75.466 C 67.452 75.352,69.055 75.065,70.100 74.829 C 74.664 73.799,75.509 73.612,77.400 73.220 C 78.500 72.992,80.210 72.623,81.200 72.401 C 82.190 72.179,83.900 71.824,85.000 71.611 C 86.100 71.399,88.710 70.850,90.800 70.393 C 92.890 69.935,96.670 69.128,99.200 68.600 C 101.730 68.072,105.510 67.265,107.600 66.807 C 109.690 66.350,112.300 65.801,113.400 65.589 C 114.500 65.376,116.210 65.021,117.200 64.799 C 119.213 64.348,122.097 63.740,124.800 63.198 C 125.790 62.999,127.455 62.648,128.500 62.418 C 129.545 62.188,131.165 61.840,132.100 61.644 C 133.035 61.448,134.790 61.068,136.000 60.800 C 138.531 60.239,140.491 59.822,143.600 59.182 C 144.810 58.933,146.610 58.548,147.600 58.326 C 157.089 56.200,162.029 58.973,167.684 69.600 C 171.672 77.094,171.487 76.874,173.105 76.044 C 173.487 75.848,174.647 75.284,175.683 74.790 C 179.558 72.942,180.564 69.481,178.400 65.441 C 176.566 62.016,175.026 59.185,173.916 57.200 C 173.363 56.210,172.325 54.320,171.608 53.000 C 164.137 39.231,160.334 34.951,151.800 30.708 C 144.968 27.312,135.905 25.848,129.877 27.167 C 128.955 27.369,127.120 27.744,125.800 28.000 C 124.480 28.256,122.680 28.628,121.800 28.827 C 103.635 32.937,101.750 32.820,99.898 27.472 C 99.567 26.515,99.241 26.114,98.991 26.357 M22.600 50.004 C 21.940 50.186,19.984 50.643,18.254 51.018 L 15.108 51.701 15.335 53.150 C 15.459 53.948,16.210 57.660,17.003 61.400 C 20.298 76.938,20.826 79.456,21.029 80.600 C 21.216 81.652,22.067 84.800,22.164 84.800 C 22.184 84.800,23.460 84.525,25.000 84.188 C 26.540 83.852,28.839 83.382,30.110 83.144 L 32.420 82.711 32.110 81.256 C 30.952 75.815,34.141 70.000,38.282 70.000 C 38.646 70.000,39.496 69.834,40.172 69.631 C 40.847 69.428,42.300 69.081,43.400 68.861 C 50.223 67.497,50.404 67.443,50.209 66.817 C 50.103 66.478,49.660 64.459,49.224 62.332 C 47.887 55.810,48.137 56.296,46.248 56.545 C 42.713 57.012,41.369 57.263,40.600 57.600 C 38.189 58.656,32.600 58.986,30.888 58.174 C 28.911 57.235,26.826 55.031,26.534 53.570 C 26.403 52.917,26.140 52.286,25.948 52.168 C 25.757 52.050,25.600 51.423,25.600 50.776 C 25.600 49.491,25.007 49.338,22.600 50.004 M306.100 80.661 C 305.825 80.774,305.600 81.176,305.600 81.553 C 305.600 81.931,305.457 82.411,305.282 82.620 C 305.107 82.829,304.734 83.720,304.453 84.600 C 303.956 86.158,302.647 89.789,302.001 91.400 C 301.825 91.840,301.493 92.740,301.264 93.400 C 299.857 97.448,295.422 109.716,294.773 111.353 C 293.836 113.721,293.823 114.989,294.719 116.697 C 295.306 117.815,303.791 129.842,304.387 130.400 C 304.791 130.779,306.090 133.250,306.700 134.800 C 307.950 137.979,308.000 139.957,308.000 186.206 L 308.000 232.800 314.000 232.800 L 320.000 232.800 320.002 185.700 C 320.004 153.896,320.142 138.080,320.427 137.000 C 321.100 134.452,322.561 131.605,324.656 128.757 C 326.711 125.964,328.079 124.059,331.497 119.229 C 333.701 116.114,334.193 113.932,333.235 111.519 C 333.034 111.013,332.477 109.520,331.996 108.200 C 331.515 106.880,330.978 105.440,330.801 105.000 C 330.625 104.560,330.264 103.570,330.000 102.800 C 329.736 102.030,329.376 101.040,329.200 100.600 C 329.024 100.160,328.664 99.170,328.400 98.400 C 328.136 97.630,327.776 96.640,327.600 96.200 C 327.424 95.760,327.064 94.770,326.800 94.000 C 326.536 93.230,326.176 92.240,326.000 91.800 C 325.824 91.360,325.464 90.370,325.200 89.600 C 324.936 88.830,324.575 87.840,324.399 87.400 C 324.222 86.960,323.686 85.520,323.207 84.200 C 322.729 82.880,322.197 81.530,322.025 81.200 C 321.715 80.602,307.416 80.118,306.100 80.661 M222.000 219.193 L 222.000 232.800 232.405 232.800 L 242.811 232.800 242.705 219.300 L 242.600 205.800 232.300 205.693 L 222.000 205.586 222.000 219.193 " stroke="none" fill="#cfe0f2" fill-rule="evenodd"></path><path id="path3" d="M129.000 26.848 C 128.120 27.049,126.590 27.379,125.600 27.581 C 121.527 28.413,114.652 29.880,110.200 30.868 C 104.972 32.028,102.283 31.307,100.769 28.339 C 99.859 26.555,99.429 26.297,100.037 27.900 C 101.886 32.782,103.934 32.869,121.800 28.827 C 122.680 28.628,124.480 28.256,125.800 28.000 C 127.120 27.744,128.955 27.369,129.877 27.167 C 132.162 26.667,138.666 26.704,141.269 27.232 C 150.075 29.017,155.471 31.817,161.368 37.660 C 163.110 39.386,164.614 40.719,164.711 40.623 C 165.050 40.283,158.972 34.545,156.600 32.966 C 148.482 27.561,137.010 25.018,129.000 26.848 M83.807 33.696 C 83.475 34.942,81.116 37.184,80.086 37.232 C 79.709 37.249,79.613 37.350,79.873 37.456 C 81.188 37.992,84.778 34.445,84.282 33.099 C 84.181 32.825,83.967 33.093,83.807 33.696 M76.600 38.000 L 75.400 38.305 76.600 38.325 C 77.260 38.335,78.160 38.189,78.600 38.000 L 79.400 37.656 78.600 37.675 C 78.160 37.686,77.260 37.832,76.600 38.000 M70.800 39.233 C 69.150 39.649,68.520 39.902,69.400 39.796 C 72.155 39.464,74.797 38.936,75.071 38.663 C 75.504 38.229,73.976 38.433,70.800 39.233 M62.834 40.866 C 57.216 42.065,57.238 42.053,57.605 43.872 C 58.068 46.165,59.636 53.578,60.044 55.400 C 60.241 56.280,60.581 57.900,60.799 59.000 C 61.181 60.927,61.676 63.220,62.440 66.600 C 62.639 67.480,62.981 69.100,63.200 70.200 C 64.474 76.602,64.387 76.460,66.728 75.981 C 68.339 75.652,71.692 74.924,74.200 74.359 C 75.080 74.160,76.700 73.819,77.800 73.600 C 78.900 73.381,80.610 73.021,81.600 72.800 C 82.590 72.579,84.300 72.219,85.400 72.000 C 86.500 71.781,88.120 71.440,89.000 71.241 C 92.376 70.480,95.060 69.901,96.600 69.600 C 102.105 68.525,104.021 68.000,102.435 68.000 C 101.977 68.000,90.705 70.323,87.000 71.182 C 86.120 71.386,84.770 71.672,84.000 71.817 C 83.230 71.963,81.880 72.245,81.000 72.443 C 80.120 72.642,78.500 72.992,77.400 73.220 C 75.509 73.612,74.664 73.799,70.100 74.829 C 69.055 75.065,67.452 75.352,66.539 75.466 C 64.646 75.703,64.795 75.939,63.834 71.200 C 63.499 69.550,62.835 66.400,62.359 64.200 C 61.883 62.000,61.337 59.435,61.147 58.500 C 60.569 55.666,60.112 53.511,59.600 51.200 C 57.601 42.179,57.598 42.608,59.664 42.084 C 61.509 41.616,62.761 41.349,65.504 40.841 C 66.441 40.668,67.326 40.407,67.471 40.263 C 67.867 39.866,66.965 39.984,62.834 40.866 M165.514 42.200 C 166.395 43.562,169.053 48.273,171.607 53.000 C 172.558 54.760,173.693 56.830,174.130 57.600 C 175.391 59.824,177.237 63.236,178.306 65.321 C 178.849 66.377,179.380 67.153,179.488 67.046 C 179.654 66.880,177.948 63.627,173.381 55.400 C 172.518 53.845,171.122 51.260,168.349 46.080 C 167.607 44.693,166.491 42.983,165.868 42.280 L 164.737 41.000 165.514 42.200 M24.000 49.225 C 23.230 49.382,20.980 49.829,19.000 50.219 C 14.556 51.095,14.346 51.265,14.829 53.600 C 15.034 54.590,15.381 56.300,15.600 57.400 C 15.819 58.500,16.159 60.120,16.356 61.000 C 16.553 61.880,17.073 64.310,17.512 66.400 C 17.950 68.490,18.713 72.090,19.207 74.400 C 19.701 76.710,20.403 80.040,20.767 81.800 L 21.430 85.000 23.015 84.964 C 23.887 84.944,25.590 84.701,26.800 84.424 C 28.010 84.147,29.795 83.759,30.767 83.560 C 33.074 83.089,33.027 83.177,32.523 80.232 C 31.516 74.354,33.757 71.624,40.900 70.025 C 42.736 69.614,43.548 69.437,48.500 68.369 C 51.016 67.826,51.035 67.791,50.375 64.877 C 50.142 63.845,49.791 62.280,49.595 61.400 C 48.622 57.023,48.226 55.600,47.981 55.600 C 47.834 55.600,44.583 56.245,40.757 57.033 C 30.665 59.111,27.480 57.726,26.186 50.696 C 25.856 48.902,25.793 48.859,24.000 49.225 M25.600 50.776 C 25.600 51.423,25.757 52.050,25.948 52.168 C 26.140 52.286,26.403 52.917,26.534 53.570 C 26.826 55.031,28.911 57.235,30.888 58.174 C 32.600 58.986,38.189 58.656,40.600 57.600 C 41.369 57.263,42.713 57.012,46.248 56.545 C 48.137 56.296,47.887 55.810,49.224 62.332 C 49.660 64.459,50.103 66.478,50.209 66.817 C 50.404 67.443,50.223 67.497,43.400 68.861 C 42.300 69.081,40.847 69.428,40.172 69.631 C 39.496 69.834,38.646 70.000,38.282 70.000 C 34.141 70.000,30.952 75.815,32.110 81.256 L 32.420 82.711 30.110 83.144 C 28.839 83.382,26.540 83.852,25.000 84.188 C 23.460 84.525,22.184 84.800,22.164 84.800 C 22.067 84.800,21.216 81.652,21.029 80.600 C 20.826 79.456,20.298 76.938,17.003 61.400 C 16.210 57.660,15.459 53.948,15.335 53.150 L 15.108 51.701 18.254 51.018 C 19.984 50.643,21.940 50.186,22.600 50.004 C 25.007 49.338,25.600 49.491,25.600 50.776 M148.800 58.018 C 148.250 58.201,146.720 58.555,145.400 58.805 C 144.080 59.055,142.370 59.410,141.600 59.593 C 140.262 59.912,137.821 60.431,134.800 61.039 C 134.030 61.193,133.589 61.386,133.820 61.467 C 134.052 61.548,136.842 61.062,140.020 60.387 C 152.171 57.808,152.216 57.802,154.924 58.358 C 159.609 59.320,163.317 62.202,165.596 66.654 C 167.426 70.227,168.490 72.043,168.656 71.877 C 169.054 71.479,164.549 63.786,163.027 62.263 C 159.242 58.478,153.008 56.618,148.800 58.018 M130.400 62.000 C 129.642 62.490,130.870 62.490,132.400 62.000 C 133.380 61.686,133.376 61.679,132.200 61.646 C 131.540 61.627,130.730 61.787,130.400 62.000 M126.800 62.800 C 126.042 63.290,127.270 63.290,128.800 62.800 C 129.780 62.486,129.776 62.479,128.600 62.446 C 127.940 62.427,127.130 62.587,126.800 62.800 M122.800 63.600 C 122.042 64.090,123.270 64.090,124.800 63.600 C 125.780 63.286,125.776 63.279,124.600 63.246 C 123.940 63.227,123.130 63.387,122.800 63.600 M119.000 64.400 C 118.271 64.713,118.288 64.744,119.200 64.744 C 119.750 64.744,120.560 64.589,121.000 64.400 C 121.729 64.087,121.712 64.056,120.800 64.056 C 120.250 64.056,119.440 64.211,119.000 64.400 M115.400 65.200 L 114.600 65.544 115.400 65.532 C 115.840 65.526,116.650 65.376,117.200 65.200 L 118.200 64.880 117.200 64.868 C 116.650 64.862,115.840 65.011,115.400 65.200 M111.400 66.000 C 110.671 66.313,110.688 66.344,111.600 66.344 C 112.150 66.344,112.960 66.189,113.400 66.000 C 114.129 65.687,114.112 65.656,113.200 65.656 C 112.650 65.656,111.840 65.811,111.400 66.000 M107.600 66.800 C 106.625 67.112,106.630 67.121,107.800 67.132 C 108.460 67.138,109.360 66.989,109.800 66.800 C 110.894 66.330,109.067 66.330,107.600 66.800 M104.000 67.600 L 103.000 67.920 104.000 67.932 C 104.550 67.938,105.360 67.789,105.800 67.600 L 106.600 67.256 105.800 67.268 C 105.360 67.274,104.550 67.424,104.000 67.600 M179.670 69.109 C 179.573 71.478,178.036 73.668,175.683 74.790 C 174.647 75.284,173.487 75.848,173.105 76.044 C 171.842 76.692,171.335 76.419,170.388 74.578 C 169.873 73.575,169.292 72.657,169.098 72.537 C 168.904 72.417,169.215 73.246,169.789 74.378 C 171.060 76.887,171.469 77.069,173.819 76.171 C 178.037 74.561,180.164 72.077,179.892 69.078 L 179.740 67.400 179.670 69.109 M109.200 78.781 C 106.472 79.416,100.212 80.753,96.871 81.414 C 95.350 81.714,95.350 81.694,96.830 88.400 C 97.605 91.914,97.947 93.548,99.049 99.000 C 99.405 100.760,99.855 102.920,100.049 103.800 C 100.243 104.680,100.581 106.300,100.800 107.400 C 101.019 108.500,101.359 110.120,101.556 111.000 C 101.753 111.880,102.313 114.490,102.800 116.800 C 103.287 119.110,103.825 121.630,103.995 122.400 C 104.165 123.170,104.606 125.240,104.975 127.000 C 105.345 128.760,106.812 135.690,108.237 142.400 C 109.661 149.110,111.188 156.310,111.629 158.400 C 112.071 160.490,112.602 162.920,112.809 163.800 C 113.017 164.680,113.481 166.840,113.841 168.600 C 114.202 170.360,114.655 172.520,114.849 173.400 C 115.043 174.280,115.381 175.900,115.600 177.000 C 115.819 178.100,116.159 179.720,116.356 180.600 C 116.553 181.480,117.113 184.090,117.600 186.400 C 118.087 188.710,118.625 191.230,118.795 192.000 C 118.965 192.770,119.398 194.840,119.759 196.600 C 120.119 198.360,120.583 200.520,120.791 201.400 C 121.206 203.166,122.056 207.158,124.197 217.400 C 125.974 225.904,127.202 231.589,127.460 232.507 C 127.644 233.162,128.380 233.206,137.529 233.107 L 147.400 233.000 147.354 232.000 C 147.328 231.450,146.904 229.110,146.411 226.800 C 145.919 224.490,145.364 221.880,145.179 221.000 C 144.994 220.120,144.283 216.790,143.600 213.600 C 142.916 210.410,141.926 205.730,141.399 203.200 C 140.871 200.670,140.068 196.890,139.614 194.800 C 139.159 192.710,138.411 189.200,137.951 187.000 C 137.490 184.800,136.953 182.280,136.756 181.400 C 136.559 180.520,136.219 178.900,136.000 177.800 C 135.781 176.700,135.441 175.080,135.244 174.200 C 135.047 173.320,134.487 170.710,134.000 168.400 C 133.513 166.090,132.953 163.480,132.756 162.600 C 132.559 161.720,132.219 160.100,132.000 159.000 C 131.781 157.900,131.443 156.280,131.249 155.400 C 131.055 154.520,130.602 152.360,130.241 150.600 C 129.881 148.840,129.417 146.680,129.209 145.800 C 129.002 144.920,128.470 142.490,128.028 140.400 C 127.585 138.310,126.058 131.110,124.633 124.400 C 123.209 117.690,121.742 110.760,121.374 109.000 C 121.005 107.240,120.567 105.170,120.400 104.400 C 120.233 103.630,119.802 101.560,119.441 99.800 C 119.081 98.040,118.609 95.835,118.393 94.900 C 118.177 93.965,117.820 92.390,117.600 91.400 C 117.380 90.410,117.007 88.745,116.772 87.700 C 116.537 86.655,116.191 85.080,116.004 84.200 C 114.469 76.962,115.044 77.420,109.200 78.781 M305.917 80.500 C 305.167 81.090,304.465 83.054,305.157 82.626 C 305.401 82.476,305.600 82.007,305.600 81.584 C 305.600 80.473,306.533 80.359,314.557 80.486 C 320.433 80.580,321.769 80.707,322.025 81.200 C 322.197 81.530,322.729 82.880,323.207 84.200 C 323.686 85.520,324.222 86.960,324.399 87.400 C 324.575 87.840,324.936 88.830,325.200 89.600 C 325.464 90.370,325.824 91.360,326.000 91.800 C 326.295 92.539,326.760 93.880,327.372 95.757 C 327.508 96.174,327.715 96.418,327.832 96.301 C 328.021 96.112,327.518 94.627,324.414 86.200 C 322.608 81.295,322.301 80.585,321.864 80.307 C 321.021 79.771,306.623 79.945,305.917 80.500 M303.456 86.152 C 302.400 89.126,302.126 90.329,302.762 89.200 C 303.363 88.134,304.879 83.546,304.692 83.359 C 304.593 83.260,304.036 84.516,303.456 86.152 M301.000 92.800 C 300.850 93.273,300.817 93.750,300.927 93.860 C 301.037 93.970,301.250 93.673,301.400 93.200 C 301.550 92.727,301.583 92.250,301.473 92.140 C 301.363 92.030,301.150 92.327,301.000 92.800 M299.825 96.291 C 298.536 99.853,297.523 102.597,297.201 103.400 C 297.025 103.840,296.664 104.830,296.400 105.600 C 296.136 106.370,295.769 107.360,295.586 107.800 C 292.550 115.085,292.426 114.647,300.804 126.200 C 305.390 132.524,305.450 132.623,306.446 135.386 C 306.892 136.624,307.177 137.051,307.186 136.495 C 307.194 135.997,306.992 135.187,306.738 134.695 C 306.483 134.203,306.123 133.485,305.938 133.100 C 305.386 131.955,304.615 130.614,304.387 130.400 C 303.791 129.842,295.306 117.815,294.719 116.697 C 293.823 114.989,293.836 113.721,294.773 111.353 C 296.669 106.566,300.843 94.710,300.687 94.554 C 300.593 94.460,300.205 95.241,299.825 96.291 M328.039 97.000 C 328.000 97.582,328.996 100.332,329.376 100.693 C 329.554 100.862,329.565 100.550,329.400 100.000 C 328.946 98.481,328.069 96.548,328.039 97.000 M329.639 101.400 C 329.600 101.982,330.596 104.732,330.976 105.093 C 331.154 105.262,331.165 104.950,331.000 104.400 C 330.546 102.881,329.669 100.948,329.639 101.400 M331.259 106.000 C 331.259 106.330,331.593 107.320,332.000 108.200 C 332.407 109.080,332.741 109.530,332.741 109.200 C 332.741 108.870,332.407 107.880,332.000 107.000 C 331.593 106.120,331.259 105.670,331.259 106.000 M332.812 110.400 C 332.812 110.730,332.987 111.270,333.200 111.600 C 333.545 112.133,333.588 112.133,333.588 111.600 C 333.588 111.270,333.413 110.730,333.200 110.400 C 332.855 109.867,332.812 109.867,332.812 110.400 M333.606 114.229 C 333.601 116.028,333.362 116.593,331.497 119.229 C 328.079 124.059,326.711 125.964,324.656 128.757 C 322.561 131.605,321.100 134.452,320.427 137.000 C 320.142 138.080,320.004 153.896,320.002 185.700 L 320.000 232.800 314.000 232.800 L 308.000 232.800 307.972 185.900 C 307.955 157.241,307.796 138.689,307.565 138.200 C 307.292 137.625,307.244 137.951,307.393 139.356 C 307.507 140.432,307.600 161.987,307.600 187.256 L 307.600 233.200 313.994 233.200 L 320.387 233.200 320.494 185.300 C 320.611 132.321,320.421 136.200,323.122 131.816 C 324.163 130.126,324.786 129.241,330.472 121.390 C 334.356 116.027,335.028 114.391,334.000 112.800 C 333.721 112.369,333.611 112.771,333.606 114.229 M221.782 205.703 C 221.676 205.979,221.636 212.234,221.694 219.603 L 221.800 233.000 232.200 233.010 L 242.600 233.020 232.300 232.903 L 222.000 232.787 222.000 219.187 L 222.000 205.586 232.300 205.693 L 242.600 205.800 242.808 219.200 L 243.016 232.600 243.108 219.533 C 243.159 212.346,243.091 206.181,242.957 205.833 C 242.632 204.986,222.105 204.861,221.782 205.703 " stroke="none" fill="#5bc9b1" fill-rule="evenodd"></path><path id="path4" d="M228.348 69.376 C 222.918 70.566,217.592 74.912,215.326 80.000 C 213.758 83.521,213.800 82.249,213.800 126.400 L 213.800 169.000 232.154 169.104 C 245.373 169.179,250.661 169.081,251.054 168.755 C 251.741 168.185,251.866 89.937,251.187 85.600 C 249.391 74.121,239.323 66.969,228.348 69.376 M237.800 70.496 C 241.580 71.606,246.502 75.376,247.696 78.073 C 247.971 78.693,248.331 79.200,248.498 79.200 C 248.664 79.200,248.800 79.560,248.800 80.000 C 248.800 80.440,248.980 80.800,249.200 80.800 C 249.420 80.800,249.600 81.329,249.600 81.976 C 249.600 82.623,249.780 83.264,250.000 83.400 C 250.263 83.562,250.400 98.204,250.400 126.024 L 250.400 168.400 232.400 168.400 L 214.400 168.400 214.400 126.327 C 214.400 84.352,214.402 84.248,215.256 81.827 C 218.534 72.540,228.209 67.677,237.800 70.496 M11.785 118.900 C 11.680 119.175,11.641 144.960,11.697 176.200 L 11.800 233.000 18.600 233.000 L 25.400 233.000 25.600 217.800 C 25.838 199.714,25.546 200.771,30.900 198.638 L 32.400 198.041 32.400 190.869 L 32.400 183.697 31.100 183.215 C 25.092 180.990,25.600 184.202,25.600 148.416 L 25.600 118.400 18.787 118.400 C 13.706 118.400,11.927 118.527,11.785 118.900 M374.499 175.691 L 374.600 233.000 381.400 233.000 L 388.200 233.000 388.400 217.800 C 388.510 209.440,388.762 202.330,388.960 202.000 C 389.850 200.514,391.060 199.578,392.866 198.978 L 394.817 198.330 394.709 190.874 L 394.600 183.419 393.400 183.062 C 388.216 181.522,388.632 184.345,388.400 149.071 L 388.200 118.600 381.299 118.491 L 374.397 118.381 374.499 175.691 M201.792 181.135 C 196.592 182.840,196.096 190.389,201.026 192.803 C 203.329 193.931,261.507 194.061,263.862 192.944 C 268.351 190.814,268.711 184.601,264.510 181.753 C 263.374 180.983,204.038 180.398,201.792 181.135 M264.444 182.432 C 267.363 184.510,267.722 188.678,265.200 191.200 L 263.600 192.800 232.500 192.787 C 208.461 192.777,201.253 192.662,200.751 192.281 C 197.221 189.593,197.297 184.129,200.893 182.132 C 202.718 181.119,262.999 181.403,264.444 182.432 M11.785 245.300 C 11.680 245.575,11.641 274.510,11.697 309.600 L 11.800 373.400 200.000 373.400 L 388.200 373.400 388.200 309.200 L 388.200 245.000 200.088 244.900 C 49.807 244.819,11.937 244.900,11.785 245.300 M388.000 309.400 L 388.000 373.200 200.000 373.200 L 12.000 373.200 12.000 309.400 L 12.000 245.600 200.000 245.600 L 388.000 245.600 388.000 309.400 M157.797 269.748 C 151.014 272.298,150.292 274.647,150.470 293.600 C 150.627 310.246,151.151 312.022,156.690 314.676 C 159.032 315.799,240.968 315.799,243.310 314.676 C 248.866 312.014,249.375 310.272,249.522 293.400 C 249.685 274.599,248.871 272.042,241.972 269.687 C 240.001 269.015,159.593 269.072,157.797 269.748 M240.901 270.154 C 243.950 270.871,246.108 272.360,247.478 274.691 L 248.600 276.600 248.600 292.400 L 248.600 308.200 247.531 310.000 C 244.454 315.183,248.242 314.800,200.000 314.800 C 151.758 314.800,155.546 315.183,152.469 310.000 L 151.400 308.200 151.400 292.400 L 151.400 276.600 152.522 274.691 C 153.859 272.417,156.051 270.867,158.909 270.175 C 162.073 269.408,237.650 269.389,240.901 270.154 M163.300 281.465 C 162.917 281.619,162.800 284.194,162.800 292.433 L 162.800 303.200 200.000 303.200 L 237.200 303.200 237.200 292.443 C 237.200 283.003,237.123 281.656,236.567 281.443 C 235.811 281.152,164.021 281.174,163.300 281.465 " stroke="none" fill="#cd6233" fill-rule="evenodd"></path></g></svg>