<svg id="svg" version="1.1" xmlns="http://www.w3.org/2000/svg" xmlns:xlink="http://www.w3.org/1999/xlink" width="400" height="400" viewBox="0, 0, 400,400"><g id="svgg"><path id="path0" d="M89.652 33.446 C 89.393 34.014,88.960 34.393,88.689 34.289 C 88.252 34.122,87.440 34.656,87.306 35.200 C 87.279 35.310,87.064 35.907,86.828 36.526 C 86.593 37.145,86.400 37.820,86.400 38.026 C 86.400 38.232,86.222 38.400,86.005 38.400 C 85.747 38.400,85.609 58.755,85.607 97.100 L 85.603 155.800 45.102 156.007 C 1.912 156.227,4.216 156.179,4.626 156.843 C 4.811 157.141,4.622 157.197,4.048 157.015 C 3.462 156.829,3.121 156.940,2.956 157.370 C 2.824 157.714,2.555 157.896,2.358 157.774 C 2.161 157.652,2.000 157.839,2.000 158.189 C 2.000 158.539,1.730 158.929,1.400 159.055 C 1.070 159.182,0.800 159.536,0.800 159.843 C 0.800 160.149,0.615 160.400,0.388 160.400 C -0.127 160.400,-0.066 167.912,0.452 168.232 C 0.650 168.355,0.715 168.613,0.596 168.807 C 0.476 169.000,0.743 169.088,1.189 169.002 C 1.928 168.860,2.220 169.361,2.052 170.486 C 2.029 170.643,2.259 170.675,2.564 170.558 C 2.869 170.441,3.255 170.566,3.421 170.835 C 3.615 171.147,3.557 171.221,3.262 171.038 C 3.008 170.881,2.800 170.964,2.800 171.223 C 2.800 171.496,3.135 171.606,3.600 171.484 C 4.040 171.369,4.400 171.417,4.400 171.591 C 4.400 171.944,5.943 172.516,6.670 172.433 C 6.928 172.403,7.254 172.564,7.393 172.789 C 7.538 173.023,8.974 173.170,10.724 173.131 L 13.800 173.062 11.200 172.788 L 8.600 172.514 11.499 172.518 C 13.717 172.520,14.303 172.634,13.997 173.004 C 13.731 173.324,13.630 198.277,13.698 246.844 L 13.800 320.200 9.247 320.124 C 5.728 320.066,4.563 320.180,4.115 320.628 C 3.796 320.947,3.342 321.088,3.106 320.942 C 2.851 320.785,2.793 320.864,2.962 321.138 C 3.133 321.415,2.987 321.600,2.600 321.600 C 2.244 321.600,2.064 321.780,2.200 322.000 C 2.336 322.220,2.257 322.400,2.024 322.400 C 1.791 322.400,1.600 322.664,1.600 322.987 C 1.600 323.366,1.351 323.495,0.900 323.350 C 0.326 323.165,0.305 323.199,0.784 323.538 C 1.290 323.896,1.277 324.052,0.684 324.707 C -0.491 326.006,-0.352 362.984,0.831 363.617 C 1.324 363.881,1.570 364.301,1.436 364.651 C 1.308 364.983,1.382 365.135,1.605 364.997 C 1.822 364.863,2.000 364.943,2.000 365.176 C 2.000 365.409,2.289 365.600,2.643 365.600 C 3.040 365.600,3.201 365.822,3.063 366.180 C 2.912 366.573,3.033 366.686,3.440 366.529 C 3.770 366.403,4.272 366.619,4.559 367.011 C 4.845 367.402,5.286 367.594,5.539 367.438 C 5.793 367.281,6.000 367.354,6.000 367.600 C 6.000 367.846,6.163 367.946,6.363 367.823 C 6.563 367.699,94.019 367.598,200.709 367.597 C 389.823 367.596,397.338 367.553,397.125 366.465 C 396.980 365.724,397.727 364.872,398.333 365.089 C 398.700 365.220,398.874 365.187,398.719 365.016 C 398.565 364.845,398.701 364.442,399.023 364.120 C 399.344 363.799,399.513 363.382,399.397 363.195 C 399.282 363.008,399.375 362.739,399.604 362.597 C 399.885 362.424,400.010 356.280,399.988 343.827 C 399.952 323.845,399.830 322.644,397.800 322.325 C 397.349 322.254,397.021 321.913,397.048 321.543 C 397.084 321.059,396.795 320.908,395.948 320.966 C 394.772 321.048,394.406 320.641,395.300 320.245 C 395.636 320.096,395.603 320.035,395.200 320.059 C 394.870 320.079,384.565 320.073,372.299 320.047 L 349.998 320.000 350.099 246.300 L 350.200 172.600 359.500 172.493 L 368.800 172.385 368.863 221.293 C 368.898 248.192,368.925 270.380,368.923 270.600 C 368.921 270.820,368.784 271.428,368.617 271.950 C 368.408 272.605,368.452 272.815,368.757 272.626 C 369.170 272.371,369.356 273.175,369.259 274.800 C 369.235 275.203,369.296 275.236,369.445 274.900 C 369.805 274.089,370.512 274.329,370.288 275.186 C 370.148 275.721,370.324 276.049,370.841 276.213 C 371.258 276.346,371.600 276.712,371.600 277.027 C 371.600 277.342,371.894 277.600,372.253 277.600 C 372.612 277.600,373.240 277.984,373.647 278.454 C 374.177 279.065,374.532 279.193,374.894 278.904 C 375.184 278.672,375.742 278.637,376.200 278.821 C 377.344 279.282,379.509 279.271,379.667 278.803 C 379.740 278.585,380.295 278.366,380.900 278.316 C 381.508 278.266,382.000 277.986,382.000 277.689 C 382.000 277.394,382.192 277.272,382.427 277.417 C 382.662 277.562,382.953 277.303,383.074 276.840 C 383.194 276.378,383.532 276.000,383.823 276.000 C 384.114 276.000,384.481 275.792,384.638 275.538 C 384.832 275.225,384.743 275.185,384.362 275.415 C 383.884 275.703,383.882 275.652,384.345 275.081 C 384.645 274.711,385.013 274.484,385.162 274.576 C 385.311 274.668,385.361 274.127,385.273 273.372 C 385.178 272.559,385.288 272.000,385.544 272.000 C 385.782 272.000,385.860 271.702,385.719 271.334 C 385.548 270.887,385.617 270.764,385.932 270.958 C 386.563 271.348,386.614 173.574,385.984 172.944 C 385.695 172.655,386.394 172.500,388.260 172.440 C 389.741 172.392,391.086 172.270,391.249 172.170 C 391.412 172.069,391.640 172.142,391.757 172.331 C 391.874 172.520,390.766 172.714,389.294 172.762 C 385.571 172.882,385.608 173.200,389.346 173.200 C 391.714 173.200,392.478 173.061,392.655 172.600 C 392.782 172.270,393.361 171.994,393.943 171.987 C 394.524 171.980,395.349 171.710,395.776 171.387 C 396.386 170.926,396.621 170.907,396.870 171.300 C 397.120 171.693,397.189 171.688,397.194 171.276 C 397.197 170.988,397.403 170.878,397.652 171.032 C 397.927 171.202,398.029 171.094,397.912 170.756 C 397.806 170.450,398.053 169.771,398.460 169.246 C 398.867 168.721,399.200 168.046,399.200 167.746 C 399.200 167.446,399.380 167.200,399.600 167.200 C 399.825 167.200,400.000 166.075,400.000 164.624 C 400.000 163.207,399.820 161.936,399.600 161.800 C 399.380 161.664,399.200 161.283,399.200 160.953 C 399.200 160.618,399.395 160.473,399.640 160.625 C 399.956 160.820,399.962 160.676,399.662 160.115 C 399.194 159.241,398.000 158.145,398.000 158.590 C 398.000 158.748,397.432 158.236,396.739 157.453 L 395.478 156.028 355.065 156.007 C 332.839 155.996,314.596 155.929,314.526 155.859 C 314.456 155.790,314.396 129.234,314.392 96.847 C 314.387 58.449,314.248 38.046,313.992 38.205 C 313.777 38.338,313.578 38.257,313.550 38.024 C 313.384 36.617,312.425 34.737,312.005 34.997 C 311.769 35.143,311.714 34.951,311.868 34.521 C 312.011 34.124,311.982 33.932,311.804 34.093 C 311.625 34.255,311.070 33.945,310.569 33.405 C 309.964 32.751,309.593 32.586,309.461 32.911 C 309.320 33.259,309.254 33.241,309.232 32.851 C 309.205 32.386,309.097 32.386,308.523 32.851 C 308.071 33.218,307.946 33.235,308.145 32.903 C 308.382 32.508,286.143 32.407,199.283 32.410 L 90.122 32.414 89.652 33.446 M297.400 102.600 L 297.400 156.000 288.200 156.000 L 279.000 156.000 278.960 115.500 C 278.938 93.225,278.837 74.605,278.736 74.121 C 278.367 72.362,275.389 69.672,274.100 69.934 C 273.825 69.989,273.600 69.870,273.600 69.668 C 273.600 69.051,273.571 69.051,199.500 69.025 C 159.955 69.011,127.600 68.852,127.600 68.671 C 127.600 68.491,127.317 68.626,126.971 68.971 C 126.626 69.317,126.077 69.600,125.752 69.600 C 125.428 69.600,124.710 70.088,124.157 70.684 C 123.316 71.592,123.086 71.673,122.750 71.184 C 122.446 70.744,122.410 70.821,122.601 71.500 C 122.789 72.168,122.686 72.400,122.203 72.400 C 121.846 72.400,121.664 72.580,121.800 72.800 C 121.936 73.020,121.873 73.200,121.661 73.200 C 121.449 73.200,121.369 73.560,121.484 74.000 C 121.599 74.440,121.532 74.800,121.334 74.800 C 121.136 74.800,120.936 75.260,120.890 75.822 C 120.830 76.544,120.951 76.756,121.303 76.545 C 121.690 76.312,121.689 76.384,121.296 76.869 C 120.897 77.362,120.814 85.652,120.896 116.746 L 121.000 156.000 111.800 156.000 L 102.600 156.000 102.600 102.600 L 102.600 49.200 200.000 49.200 L 297.400 49.200 297.400 102.600 M101.900 128.900 C 101.842 143.475,101.794 131.550,101.794 102.400 C 101.794 73.250,101.842 61.325,101.900 75.900 C 101.958 90.475,101.958 114.325,101.900 128.900 M298.300 128.900 C 298.242 143.475,298.194 131.550,298.194 102.400 C 298.194 73.250,298.242 61.325,298.300 75.900 C 298.358 90.475,298.358 114.325,298.300 128.900 M138.000 86.000 C 138.000 86.263,147.133 86.400,164.600 86.400 L 191.200 86.400 191.200 120.800 C 191.200 139.720,191.245 155.335,191.300 155.500 C 191.355 155.665,179.297 155.846,164.504 155.903 L 137.609 156.006 137.504 120.803 C 137.447 101.441,137.535 85.600,137.700 85.600 C 137.865 85.600,138.000 85.780,138.000 86.000 M262.496 120.800 L 262.391 156.000 235.172 156.000 C 217.128 156.000,208.036 155.865,208.200 155.600 C 208.336 155.380,208.257 155.200,208.024 155.200 C 207.729 155.200,207.600 144.715,207.600 120.700 L 207.600 86.200 234.800 86.308 C 253.100 86.381,262.000 86.283,262.000 86.008 C 262.000 85.784,262.135 85.600,262.300 85.600 C 262.465 85.600,262.553 101.440,262.496 120.800 M49.120 172.880 C 49.491 173.251,49.578 190.099,49.502 246.780 L 49.403 320.200 49.202 246.600 L 49.000 173.000 40.300 172.988 L 31.600 172.976 40.200 173.096 L 48.800 173.216 48.800 246.608 L 48.800 320.000 40.000 320.000 L 31.200 320.000 31.200 246.200 L 31.200 172.400 39.920 172.400 C 46.169 172.400,48.776 172.536,49.120 172.880 M81.123 172.699 C 78.551 172.768,74.231 172.768,71.523 172.699 C 68.815 172.630,70.920 172.573,76.200 172.573 C 81.480 172.572,83.695 172.629,81.123 172.699 M116.523 172.698 C 114.060 172.768,109.920 172.769,107.323 172.699 C 104.725 172.629,106.740 172.572,111.800 172.572 C 116.860 172.571,118.985 172.628,116.523 172.698 M147.000 172.800 L 137.800 173.023 146.900 173.111 L 156.000 173.200 156.000 246.600 L 156.000 320.000 146.800 320.000 L 137.600 320.000 137.600 246.467 C 137.600 206.023,137.720 172.813,137.867 172.667 C 138.013 172.520,142.198 172.440,147.167 172.489 L 156.200 172.577 147.000 172.800 M182.200 172.800 L 173.000 173.023 182.100 173.111 L 191.200 173.200 191.200 246.586 L 191.200 319.971 182.000 320.086 L 172.799 320.200 172.800 246.567 C 172.800 206.068,172.920 172.813,173.067 172.667 C 173.213 172.520,177.398 172.440,182.367 172.489 L 191.400 172.577 182.200 172.800 M227.101 246.400 L 227.203 320.200 217.401 320.086 L 207.600 319.973 207.600 246.666 C 207.600 189.585,207.708 173.252,208.087 172.873 C 208.448 172.512,210.958 172.413,217.787 172.493 L 227.000 172.600 227.101 246.400 M262.301 246.300 L 262.402 320.000 253.201 320.000 L 244.000 320.000 244.000 246.600 L 244.000 173.200 253.100 173.111 L 262.200 173.023 253.000 172.796 L 243.800 172.570 253.000 172.585 L 262.200 172.600 262.301 246.300 M292.923 172.698 C 290.460 172.768,286.320 172.769,283.723 172.699 C 281.125 172.629,283.140 172.572,288.200 172.572 C 293.260 172.571,295.385 172.628,292.923 172.698 M333.201 246.339 L 333.001 320.200 332.801 246.600 L 332.600 173.000 323.600 172.781 L 314.600 172.561 324.000 172.519 L 333.400 172.477 333.201 246.339 M212.900 173.099 C 215.485 173.168,219.715 173.168,222.300 173.099 C 224.885 173.029,222.770 172.972,217.600 172.972 C 212.430 172.972,210.315 173.029,212.900 173.099 M354.923 173.099 C 357.520 173.169,361.660 173.168,364.123 173.098 C 366.585 173.028,364.460 172.971,359.400 172.972 C 354.340 172.972,352.325 173.029,354.923 173.099 M85.600 246.600 L 85.600 320.000 75.600 320.000 L 65.600 320.000 65.600 246.600 L 65.600 173.200 75.600 173.200 L 85.600 173.200 85.600 246.600 M102.100 273.262 C 102.155 299.146,102.065 320.240,101.900 320.138 C 101.735 320.036,101.644 286.888,101.697 246.476 C 101.751 206.064,101.840 184.970,101.897 199.600 C 101.953 214.230,102.045 247.378,102.100 273.262 M120.800 246.600 L 120.800 320.000 111.800 320.000 L 102.800 320.000 102.800 246.600 L 102.800 173.200 111.800 173.200 L 120.800 173.200 120.800 246.600 M297.200 246.600 L 297.200 320.000 288.200 320.000 L 279.200 320.000 279.200 246.600 L 279.200 173.200 288.200 173.200 L 297.200 173.200 297.200 246.600 M298.101 320.059 C 297.935 320.225,297.890 287.204,298.000 246.680 L 298.200 173.000 298.301 246.379 C 298.357 286.737,298.267 319.893,298.101 320.059 M332.400 246.600 L 332.400 320.000 323.400 320.000 L 314.400 320.000 314.400 246.600 L 314.400 173.200 323.400 173.200 L 332.400 173.200 332.400 246.600 M374.800 288.400 C 374.800 288.620,374.530 288.800,374.200 288.800 C 373.870 288.800,373.600 288.991,373.600 289.224 C 373.600 289.457,373.440 289.549,373.245 289.428 C 373.050 289.307,372.668 289.477,372.396 289.804 C 372.124 290.132,371.654 290.400,371.351 290.400 C 371.048 290.400,370.800 290.664,370.800 290.986 C 370.800 291.308,370.472 291.747,370.071 291.962 C 369.536 292.248,369.372 292.731,369.454 293.776 C 369.516 294.559,369.426 295.200,369.254 295.200 C 369.083 295.200,368.930 296.625,368.916 298.366 C 368.901 300.108,368.767 301.729,368.619 301.969 C 368.471 302.209,368.646 302.519,369.008 302.658 C 369.535 302.861,369.560 302.979,369.134 303.250 C 368.704 303.522,368.717 303.594,369.200 303.622 C 369.604 303.645,369.539 303.768,369.000 304.000 C 368.375 304.268,368.344 304.350,368.857 304.372 C 369.547 304.401,370.259 305.600,369.587 305.600 C 369.374 305.600,369.200 305.780,369.200 306.000 C 369.200 306.220,369.487 306.400,369.837 306.400 C 370.188 306.400,370.569 306.760,370.684 307.200 C 370.799 307.640,371.099 308.000,371.350 308.000 C 371.602 308.000,372.026 308.351,372.294 308.779 C 372.588 309.249,373.098 309.497,373.582 309.404 C 374.023 309.319,374.505 309.446,374.653 309.686 C 374.827 309.967,374.736 310.008,374.400 309.800 C 374.076 309.600,373.974 309.634,374.131 309.888 C 374.271 310.115,374.835 310.300,375.385 310.300 C 375.969 310.300,376.280 310.129,376.131 309.888 C 375.968 309.624,376.078 309.602,376.438 309.826 C 377.192 310.295,379.200 310.325,379.200 309.867 C 379.200 309.666,379.515 309.743,379.900 310.038 C 380.285 310.333,380.466 310.416,380.303 310.223 C 380.139 310.030,380.384 309.607,380.846 309.283 C 381.559 308.784,381.747 308.778,382.078 309.247 C 382.371 309.661,382.423 309.584,382.283 308.942 C 382.150 308.330,382.375 307.935,383.062 307.567 C 383.638 307.259,383.940 306.820,383.809 306.480 C 383.665 306.105,383.787 305.986,384.166 306.132 C 384.825 306.384,385.473 305.684,385.399 304.800 C 385.371 304.470,385.585 303.714,385.874 303.120 C 386.611 301.606,386.605 295.732,385.867 296.345 C 385.463 296.680,385.333 296.643,385.333 296.194 C 385.333 295.867,385.487 295.600,385.675 295.600 C 385.863 295.600,385.618 294.835,385.131 293.900 C 384.645 292.965,384.203 291.951,384.151 291.648 C 384.098 291.344,383.837 290.894,383.569 290.648 C 383.205 290.313,383.154 290.326,383.365 290.700 C 383.520 290.975,383.479 291.200,383.274 291.200 C 383.068 291.200,382.782 290.615,382.638 289.900 C 382.452 288.979,382.278 288.758,382.039 289.141 C 381.776 289.563,381.559 289.477,381.048 288.747 C 380.470 287.922,380.294 287.873,379.555 288.336 C 379.094 288.623,378.836 288.666,378.982 288.430 C 379.159 288.143,378.506 288.000,377.024 288.000 C 375.801 288.000,374.800 288.180,374.800 288.400 M383.367 337.043 C 384.044 337.303,384.343 349.716,383.694 350.600 C 383.499 350.866,321.804 351.000,200.000 351.000 C 78.196 351.000,16.501 350.866,16.306 350.600 C 15.764 349.862,15.944 337.289,16.500 337.065 C 17.220 336.774,382.610 336.752,383.367 337.043 " stroke="none" fill="#cc843c" fill-rule="evenodd"></path><path id="path1" d="M94.400 32.000 C 94.400 32.266,129.867 32.400,200.000 32.400 C 270.133 32.400,305.600 32.266,305.600 32.000 C 305.600 31.734,270.133 31.600,200.000 31.600 C 129.867 31.600,94.400 31.734,94.400 32.000 M151.100 49.500 C 177.995 49.557,222.005 49.557,248.900 49.500 C 275.795 49.443,253.790 49.397,200.000 49.397 C 146.210 49.397,124.205 49.443,151.100 49.500 M137.791 120.800 C 137.791 139.830,137.840 147.615,137.900 138.100 C 137.960 128.585,137.960 113.015,137.900 103.500 C 137.840 93.985,137.791 101.770,137.791 120.800 M262.191 120.800 C 262.191 139.830,262.240 147.615,262.300 138.100 C 262.360 128.585,262.360 113.015,262.300 103.500 C 262.240 93.985,262.191 101.770,262.191 120.800 M7.200 155.700 C 7.200 155.865,24.885 155.957,46.500 155.905 C 68.115 155.853,79.500 155.763,71.800 155.706 C 35.077 155.431,7.200 155.428,7.200 155.700 M353.400 155.600 L 314.200 155.806 353.500 155.903 C 379.498 155.967,392.800 155.865,392.800 155.600 C 392.800 155.380,392.755 155.244,392.700 155.297 C 392.645 155.350,374.960 155.487,353.400 155.600 M107.323 155.899 C 109.920 155.969,114.060 155.968,116.523 155.898 C 118.985 155.828,116.860 155.771,111.800 155.772 C 106.740 155.772,104.725 155.829,107.323 155.899 M151.329 155.900 C 158.770 155.961,170.830 155.961,178.129 155.900 C 185.428 155.839,179.340 155.789,164.600 155.789 C 149.860 155.789,143.888 155.839,151.329 155.900 M221.529 155.900 C 229.080 155.961,241.320 155.961,248.729 155.900 C 256.138 155.839,249.960 155.789,235.000 155.789 C 220.040 155.789,213.978 155.839,221.529 155.900 M283.723 155.899 C 286.320 155.969,290.460 155.968,292.923 155.898 C 295.385 155.828,293.260 155.771,288.200 155.772 C 283.140 155.772,281.125 155.829,283.723 155.899 M49.200 246.520 L 49.400 320.200 49.501 246.821 C 49.557 206.463,49.467 173.307,49.301 173.141 C 49.135 172.975,49.090 205.996,49.200 246.520 M137.796 246.400 C 137.796 286.990,137.843 303.595,137.900 283.300 C 137.957 263.005,137.957 229.795,137.900 209.500 C 137.843 189.205,137.796 205.810,137.796 246.400 M262.196 246.400 C 262.196 286.990,262.243 303.595,262.300 283.300 C 262.357 263.005,262.357 229.795,262.300 209.500 C 262.243 189.205,262.196 205.810,262.196 246.400 M350.196 246.400 C 350.196 286.990,350.243 303.595,350.300 283.300 C 350.357 263.005,350.357 229.795,350.300 209.500 C 350.243 189.205,350.196 205.810,350.196 246.400 M380.672 309.397 C 380.218 309.729,380.108 310.020,380.376 310.185 C 380.609 310.329,380.800 310.270,380.800 310.053 C 380.800 309.836,381.115 309.596,381.500 309.520 C 381.885 309.444,382.018 309.266,381.796 309.126 C 381.573 308.986,381.067 309.108,380.672 309.397 M16.400 350.700 C 16.400 350.865,99.020 351.000,200.000 351.000 C 300.980 351.000,383.600 350.865,383.600 350.700 C 383.600 350.535,300.980 350.400,200.000 350.400 C 99.020 350.400,16.400 350.535,16.400 350.700 M8.200 368.000 C 8.364 368.266,72.730 368.400,200.000 368.400 C 327.270 368.400,391.636 368.266,391.800 368.000 C 391.965 367.734,327.930 367.600,200.000 367.600 C 72.070 367.600,8.035 367.734,8.200 368.000 " stroke="none" fill="#cc8444" fill-rule="evenodd"></path><path id="path2" d="M101.794 102.400 C 101.794 131.550,101.842 143.475,101.900 128.900 C 101.958 114.325,101.958 90.475,101.900 75.900 C 101.842 61.325,101.794 73.250,101.794 102.400 M298.194 102.400 C 298.194 131.550,298.242 143.475,298.300 128.900 C 298.358 114.325,298.358 90.475,298.300 75.900 C 298.242 61.325,298.194 73.250,298.194 102.400 M164.500 68.700 C 184.025 68.757,215.975 68.757,235.500 68.700 C 255.025 68.643,239.050 68.596,200.000 68.596 C 160.950 68.596,144.975 68.643,164.500 68.700 M273.600 69.643 C 273.600 69.886,273.848 69.990,274.151 69.874 C 274.454 69.758,274.915 69.873,275.175 70.131 C 275.537 70.491,275.585 70.437,275.381 69.900 C 275.091 69.138,273.600 68.923,273.600 69.643 M278.353 73.767 C 278.540 74.005,278.793 74.470,278.915 74.800 C 279.047 75.158,279.150 74.983,279.168 74.367 C 279.189 73.706,278.986 73.333,278.606 73.333 C 278.238 73.333,278.141 73.498,278.353 73.767 M207.600 120.600 C 207.600 139.630,207.645 155.241,207.700 155.292 C 207.980 155.549,262.400 155.756,262.400 155.500 C 262.400 155.335,250.250 155.200,235.400 155.200 L 208.400 155.200 208.400 120.600 C 208.400 97.800,208.264 86.000,208.000 86.000 C 207.736 86.000,207.600 97.800,207.600 120.600 M27.270 155.500 C 37.978 155.559,55.618 155.559,66.470 155.500 C 77.321 155.441,68.560 155.392,47.000 155.392 C 25.440 155.392,16.561 155.441,27.270 155.500 M102.400 155.500 C 102.400 155.665,106.613 155.800,111.762 155.800 C 116.911 155.800,121.040 155.665,120.938 155.500 C 120.836 155.335,116.623 155.200,111.576 155.200 C 106.529 155.200,102.400 155.335,102.400 155.500 M137.600 155.500 C 137.600 155.772,157.302 155.768,182.200 155.492 C 187.480 155.433,179.605 155.343,164.700 155.293 C 149.795 155.242,137.600 155.335,137.600 155.500 M279.062 155.500 C 278.960 155.665,283.089 155.800,288.238 155.800 C 293.387 155.800,297.600 155.665,297.600 155.500 C 297.600 155.335,293.471 155.200,288.424 155.200 C 283.377 155.200,279.164 155.335,279.062 155.500 M333.270 155.500 C 343.978 155.559,361.618 155.559,372.470 155.500 C 383.321 155.441,374.560 155.392,353.000 155.392 C 331.440 155.392,322.561 155.441,333.270 155.500 M1.218 158.366 C 0.909 158.944,0.903 159.200,1.198 159.200 C 1.683 159.200,2.212 158.078,1.882 157.748 C 1.762 157.629,1.464 157.907,1.218 158.366 M397.462 158.217 C 397.592 158.557,397.795 158.738,397.913 158.621 C 398.030 158.503,398.413 158.627,398.763 158.897 C 399.153 159.197,399.105 159.040,398.638 158.493 C 397.760 157.464,397.115 157.313,397.462 158.217 M399.334 160.627 C 399.202 160.972,399.299 161.459,399.549 161.709 C 399.890 162.050,399.982 161.892,399.915 161.082 C 399.813 159.844,399.676 159.737,399.334 160.627 M399.093 167.966 C 398.973 168.425,399.027 168.800,399.214 168.800 C 399.759 168.800,399.973 168.204,399.629 167.647 C 399.397 167.272,399.252 167.358,399.093 167.966 M1.506 169.515 C 1.223 170.597,2.208 171.552,2.897 170.863 C 3.248 170.512,3.240 170.400,2.867 170.400 C 2.596 170.400,2.229 170.008,2.052 169.529 L 1.730 168.659 1.506 169.515 M395.478 171.456 C 395.171 171.762,395.511 172.400,395.981 172.400 C 396.164 172.400,396.418 172.130,396.545 171.800 C 396.773 171.205,395.983 170.950,395.478 171.456 M388.800 172.412 L 386.200 172.686 389.086 172.683 C 390.674 172.681,391.878 172.527,391.763 172.340 C 391.647 172.153,391.518 172.031,391.476 172.069 C 391.434 172.107,390.230 172.261,388.800 172.412 M392.845 172.546 C 392.485 172.979,392.571 173.082,393.263 173.046 C 393.742 173.021,394.209 172.775,394.300 172.500 C 394.524 171.827,393.413 171.862,392.845 172.546 M5.836 172.858 C 5.935 173.018,6.360 173.123,6.780 173.092 C 7.201 173.060,7.464 172.903,7.364 172.742 C 7.265 172.582,6.840 172.477,6.420 172.508 C 5.999 172.540,5.736 172.697,5.836 172.858 M9.900 172.689 C 10.615 172.778,11.785 172.778,12.500 172.689 C 13.215 172.601,12.630 172.528,11.200 172.528 C 9.770 172.528,9.185 172.601,9.900 172.689 M31.299 246.300 L 31.398 320.200 31.500 246.508 L 31.602 172.816 40.301 172.700 L 49.000 172.584 40.100 172.492 L 31.200 172.400 31.299 246.300 M71.523 172.699 C 74.231 172.768,78.551 172.768,81.123 172.699 C 83.695 172.629,81.480 172.572,76.200 172.573 C 70.920 172.573,68.815 172.630,71.523 172.699 M107.323 172.699 C 109.920 172.769,114.060 172.768,116.523 172.698 C 118.985 172.628,116.860 172.571,111.800 172.572 C 106.740 172.572,104.725 172.629,107.323 172.699 M142.523 172.699 C 145.120 172.769,149.260 172.768,151.723 172.698 C 154.185 172.628,152.060 172.571,147.000 172.572 C 141.940 172.572,139.925 172.629,142.523 172.699 M172.985 172.900 C 172.880 173.175,172.841 206.520,172.898 247.000 L 173.002 320.600 173.101 246.708 L 173.200 172.815 182.300 172.700 L 191.400 172.584 182.287 172.492 C 175.296 172.421,173.131 172.516,172.985 172.900 M208.087 172.873 C 207.454 173.506,207.367 320.000,208.000 320.000 C 208.265 320.000,208.400 295.200,208.400 246.400 L 208.400 172.800 217.599 172.800 L 226.798 172.800 226.901 246.700 L 227.003 320.600 227.002 246.600 L 227.000 172.600 217.787 172.493 C 210.958 172.413,208.448 172.512,208.087 172.873 M248.523 172.699 C 251.120 172.769,255.260 172.768,257.723 172.698 C 260.185 172.628,258.060 172.571,253.000 172.572 C 247.940 172.572,245.925 172.629,248.523 172.699 M283.723 172.699 C 286.320 172.769,290.460 172.768,292.923 172.698 C 295.385 172.628,293.260 172.571,288.200 172.572 C 283.140 172.572,281.125 172.629,283.723 172.699 M323.600 172.781 L 332.600 173.000 332.801 246.600 L 333.001 320.200 333.201 246.339 L 333.400 172.477 324.000 172.519 L 314.600 172.561 323.600 172.781 M359.300 172.700 L 368.400 172.815 368.400 221.831 C 368.400 248.790,368.535 270.764,368.700 270.662 C 368.865 270.560,368.954 248.409,368.897 221.438 L 368.794 172.400 359.497 172.492 L 350.200 172.584 359.300 172.700 M65.600 246.600 C 65.600 311.578,65.669 320.000,66.200 320.000 C 66.731 320.000,66.800 311.578,66.800 246.600 C 66.800 181.622,66.731 173.200,66.200 173.200 C 65.669 173.200,65.600 181.622,65.600 246.600 M101.697 246.476 C 101.644 286.888,101.735 320.036,101.900 320.138 C 102.171 320.306,102.170 270.357,101.897 199.600 C 101.840 184.970,101.751 206.064,101.697 246.476 M298.000 246.680 C 297.890 287.204,297.935 320.225,298.101 320.059 C 298.267 319.893,298.357 286.737,298.301 246.379 L 298.200 173.000 298.000 246.680 M385.646 271.200 C 385.690 271.530,385.586 272.123,385.414 272.517 C 384.942 273.600,385.342 273.682,385.850 272.606 C 386.121 272.031,386.152 271.465,385.929 271.136 C 385.638 270.705,385.582 270.718,385.646 271.200 M369.450 273.919 C 369.342 274.095,369.398 274.474,369.576 274.762 C 369.804 275.129,369.981 275.154,370.174 274.843 C 370.324 274.599,370.212 274.397,369.924 274.394 C 369.543 274.389,369.564 274.282,370.000 274.000 C 370.361 273.767,370.410 273.610,370.124 273.606 C 369.862 273.603,369.558 273.744,369.450 273.919 M372.060 289.442 C 371.248 290.359,371.671 290.436,372.744 289.566 C 373.283 289.129,373.455 288.807,373.144 288.815 C 372.845 288.824,372.357 289.105,372.060 289.442 M384.156 291.700 C 384.202 291.975,384.535 292.740,384.895 293.400 C 385.617 294.723,385.726 293.471,385.026 291.900 C 384.669 291.098,384.028 290.951,384.156 291.700 M368.656 294.278 C 368.219 294.714,368.373 295.067,369.000 295.067 C 369.330 295.067,369.600 294.927,369.600 294.757 C 369.600 294.306,368.955 293.979,368.656 294.278 M368.432 299.100 C 368.468 302.696,368.655 302.543,368.921 298.700 C 369.024 297.215,368.949 296.000,368.754 296.000 C 368.559 296.000,368.414 297.395,368.432 299.100 M384.112 305.786 C 383.728 306.222,383.728 306.376,384.111 306.504 C 384.400 306.600,384.233 306.861,383.699 307.147 C 383.205 307.412,382.800 307.806,382.800 308.023 C 382.800 308.241,383.253 308.122,383.806 307.759 C 384.359 307.397,384.764 306.808,384.706 306.450 C 384.647 306.085,384.833 305.848,385.130 305.910 C 385.421 305.970,385.545 305.835,385.406 305.610 C 385.069 305.064,384.702 305.114,384.112 305.786 M16.500 337.065 C 15.868 337.320,15.770 350.400,16.400 350.400 C 16.651 350.400,16.800 347.933,16.800 343.800 L 16.800 337.200 200.000 337.200 L 383.200 337.200 383.200 343.800 C 383.200 347.933,383.349 350.400,383.600 350.400 C 384.345 350.400,384.117 337.331,383.367 337.043 C 382.610 336.752,17.220 336.774,16.500 337.065 " stroke="none" fill="#d0843c" fill-rule="evenodd"></path><path id="path3" d="M101.794 102.400 C 101.794 131.550,101.842 143.475,101.900 128.900 C 101.958 114.325,101.958 90.475,101.900 75.900 C 101.842 61.325,101.794 73.250,101.794 102.400 M298.194 102.400 C 298.194 131.550,298.242 143.475,298.300 128.900 C 298.358 114.325,298.358 90.475,298.300 75.900 C 298.242 61.325,298.194 73.250,298.194 102.400 M164.500 68.700 C 184.025 68.757,215.975 68.757,235.500 68.700 C 255.025 68.643,239.050 68.596,200.000 68.596 C 160.950 68.596,144.975 68.643,164.500 68.700 M273.600 69.643 C 273.600 69.886,273.848 69.990,274.151 69.874 C 274.454 69.758,274.915 69.873,275.175 70.131 C 275.537 70.491,275.585 70.437,275.381 69.900 C 275.091 69.138,273.600 68.923,273.600 69.643 M278.353 73.767 C 278.540 74.005,278.793 74.470,278.915 74.800 C 279.047 75.158,279.150 74.983,279.168 74.367 C 279.189 73.706,278.986 73.333,278.606 73.333 C 278.238 73.333,278.141 73.498,278.353 73.767 M207.600 120.600 C 207.600 139.630,207.645 155.241,207.700 155.292 C 207.980 155.549,262.400 155.756,262.400 155.500 C 262.400 155.335,250.250 155.200,235.400 155.200 L 208.400 155.200 208.400 120.600 C 208.400 97.800,208.264 86.000,208.000 86.000 C 207.736 86.000,207.600 97.800,207.600 120.600 M27.270 155.500 C 37.978 155.559,55.618 155.559,66.470 155.500 C 77.321 155.441,68.560 155.392,47.000 155.392 C 25.440 155.392,16.561 155.441,27.270 155.500 M102.400 155.500 C 102.400 155.665,106.613 155.800,111.762 155.800 C 116.911 155.800,121.040 155.665,120.938 155.500 C 120.836 155.335,116.623 155.200,111.576 155.200 C 106.529 155.200,102.400 155.335,102.400 155.500 M137.600 155.500 C 137.600 155.772,157.302 155.768,182.200 155.492 C 187.480 155.433,179.605 155.343,164.700 155.293 C 149.795 155.242,137.600 155.335,137.600 155.500 M279.062 155.500 C 278.960 155.665,283.089 155.800,288.238 155.800 C 293.387 155.800,297.600 155.665,297.600 155.500 C 297.600 155.335,293.471 155.200,288.424 155.200 C 283.377 155.200,279.164 155.335,279.062 155.500 M333.270 155.500 C 343.978 155.559,361.618 155.559,372.470 155.500 C 383.321 155.441,374.560 155.392,353.000 155.392 C 331.440 155.392,322.561 155.441,333.270 155.500 M1.218 158.366 C 0.909 158.944,0.903 159.200,1.198 159.200 C 1.683 159.200,2.212 158.078,1.882 157.748 C 1.762 157.629,1.464 157.907,1.218 158.366 M397.462 158.217 C 397.592 158.557,397.795 158.738,397.913 158.621 C 398.030 158.503,398.413 158.627,398.763 158.897 C 399.153 159.197,399.105 159.040,398.638 158.493 C 397.760 157.464,397.115 157.313,397.462 158.217 M399.334 160.627 C 399.202 160.972,399.299 161.459,399.549 161.709 C 399.890 162.050,399.982 161.892,399.915 161.082 C 399.813 159.844,399.676 159.737,399.334 160.627 M399.093 167.966 C 398.973 168.425,399.027 168.800,399.214 168.800 C 399.759 168.800,399.973 168.204,399.629 167.647 C 399.397 167.272,399.252 167.358,399.093 167.966 M1.506 169.515 C 1.223 170.597,2.208 171.552,2.897 170.863 C 3.248 170.512,3.240 170.400,2.867 170.400 C 2.596 170.400,2.229 170.008,2.052 169.529 L 1.730 168.659 1.506 169.515 M395.478 171.456 C 395.171 171.762,395.511 172.400,395.981 172.400 C 396.164 172.400,396.418 172.130,396.545 171.800 C 396.773 171.205,395.983 170.950,395.478 171.456 M388.800 172.412 L 386.200 172.686 389.086 172.683 C 390.674 172.681,391.878 172.527,391.763 172.340 C 391.647 172.153,391.518 172.031,391.476 172.069 C 391.434 172.107,390.230 172.261,388.800 172.412 M392.845 172.546 C 392.485 172.979,392.571 173.082,393.263 173.046 C 393.742 173.021,394.209 172.775,394.300 172.500 C 394.524 171.827,393.413 171.862,392.845 172.546 M5.836 172.858 C 5.935 173.018,6.360 173.123,6.780 173.092 C 7.201 173.060,7.464 172.903,7.364 172.742 C 7.265 172.582,6.840 172.477,6.420 172.508 C 5.999 172.540,5.736 172.697,5.836 172.858 M9.900 172.689 C 10.615 172.778,11.785 172.778,12.500 172.689 C 13.215 172.601,12.630 172.528,11.200 172.528 C 9.770 172.528,9.185 172.601,9.900 172.689 M31.299 246.300 L 31.398 320.200 31.500 246.508 L 31.602 172.816 40.301 172.700 L 49.000 172.584 40.100 172.492 L 31.200 172.400 31.299 246.300 M71.523 172.699 C 74.231 172.768,78.551 172.768,81.123 172.699 C 83.695 172.629,81.480 172.572,76.200 172.573 C 70.920 172.573,68.815 172.630,71.523 172.699 M107.323 172.699 C 109.920 172.769,114.060 172.768,116.523 172.698 C 118.985 172.628,116.860 172.571,111.800 172.572 C 106.740 172.572,104.725 172.629,107.323 172.699 M142.523 172.699 C 145.120 172.769,149.260 172.768,151.723 172.698 C 154.185 172.628,152.060 172.571,147.000 172.572 C 141.940 172.572,139.925 172.629,142.523 172.699 M172.985 172.900 C 172.880 173.175,172.841 206.520,172.898 247.000 L 173.002 320.600 173.101 246.708 L 173.200 172.815 182.300 172.700 L 191.400 172.584 182.287 172.492 C 175.296 172.421,173.131 172.516,172.985 172.900 M208.087 172.873 C 207.454 173.506,207.367 320.000,208.000 320.000 C 208.265 320.000,208.400 295.200,208.400 246.400 L 208.400 172.800 217.599 172.800 L 226.798 172.800 226.901 246.700 L 227.003 320.600 227.002 246.600 L 227.000 172.600 217.787 172.493 C 210.958 172.413,208.448 172.512,208.087 172.873 M248.523 172.699 C 251.120 172.769,255.260 172.768,257.723 172.698 C 260.185 172.628,258.060 172.571,253.000 172.572 C 247.940 172.572,245.925 172.629,248.523 172.699 M283.723 172.699 C 286.320 172.769,290.460 172.768,292.923 172.698 C 295.385 172.628,293.260 172.571,288.200 172.572 C 283.140 172.572,281.125 172.629,283.723 172.699 M323.600 172.781 L 332.600 173.000 332.801 246.600 L 333.001 320.200 333.201 246.339 L 333.400 172.477 324.000 172.519 L 314.600 172.561 323.600 172.781 M359.300 172.700 L 368.400 172.815 368.400 221.831 C 368.400 248.790,368.535 270.764,368.700 270.662 C 368.865 270.560,368.954 248.409,368.897 221.438 L 368.794 172.400 359.497 172.492 L 350.200 172.584 359.300 172.700 M65.600 246.600 C 65.600 311.578,65.669 320.000,66.200 320.000 C 66.731 320.000,66.800 311.578,66.800 246.600 C 66.800 181.622,66.731 173.200,66.200 173.200 C 65.669 173.200,65.600 181.622,65.600 246.600 M101.697 246.476 C 101.644 286.888,101.735 320.036,101.900 320.138 C 102.171 320.306,102.170 270.357,101.897 199.600 C 101.840 184.970,101.751 206.064,101.697 246.476 M298.000 246.680 C 297.890 287.204,297.935 320.225,298.101 320.059 C 298.267 319.893,298.357 286.737,298.301 246.379 L 298.200 173.000 298.000 246.680 M385.646 271.200 C 385.690 271.530,385.586 272.123,385.414 272.517 C 384.942 273.600,385.342 273.682,385.850 272.606 C 386.121 272.031,386.152 271.465,385.929 271.136 C 385.638 270.705,385.582 270.718,385.646 271.200 M369.450 273.919 C 369.342 274.095,369.398 274.474,369.576 274.762 C 369.804 275.129,369.981 275.154,370.174 274.843 C 370.324 274.599,370.212 274.397,369.924 274.394 C 369.543 274.389,369.564 274.282,370.000 274.000 C 370.361 273.767,370.410 273.610,370.124 273.606 C 369.862 273.603,369.558 273.744,369.450 273.919 M372.060 289.442 C 371.248 290.359,371.671 290.436,372.744 289.566 C 373.283 289.129,373.455 288.807,373.144 288.815 C 372.845 288.824,372.357 289.105,372.060 289.442 M384.156 291.700 C 384.202 291.975,384.535 292.740,384.895 293.400 C 385.617 294.723,385.726 293.471,385.026 291.900 C 384.669 291.098,384.028 290.951,384.156 291.700 M368.656 294.278 C 368.219 294.714,368.373 295.067,369.000 295.067 C 369.330 295.067,369.600 294.927,369.600 294.757 C 369.600 294.306,368.955 293.979,368.656 294.278 M368.432 299.100 C 368.468 302.696,368.655 302.543,368.921 298.700 C 369.024 297.215,368.949 296.000,368.754 296.000 C 368.559 296.000,368.414 297.395,368.432 299.100 M384.112 305.786 C 383.728 306.222,383.728 306.376,384.111 306.504 C 384.400 306.600,384.233 306.861,383.699 307.147 C 383.205 307.412,382.800 307.806,382.800 308.023 C 382.800 308.241,383.253 308.122,383.806 307.759 C 384.359 307.397,384.764 306.808,384.706 306.450 C 384.647 306.085,384.833 305.848,385.130 305.910 C 385.421 305.970,385.545 305.835,385.406 305.610 C 385.069 305.064,384.702 305.114,384.112 305.786 M16.500 337.065 C 15.868 337.320,15.770 350.400,16.400 350.400 C 16.651 350.400,16.800 347.933,16.800 343.800 L 16.800 337.200 200.000 337.200 L 383.200 337.200 383.200 343.800 C 383.200 347.933,383.349 350.400,383.600 350.400 C 384.345 350.400,384.117 337.331,383.367 337.043 C 382.610 336.752,17.220 336.774,16.500 337.065 " stroke="none" fill="#d0843c" fill-rule="evenodd"></path><path id="path4" d="M101.794 102.400 C 101.794 131.550,101.842 143.475,101.900 128.900 C 101.958 114.325,101.958 90.475,101.900 75.900 C 101.842 61.325,101.794 73.250,101.794 102.400 M298.194 102.400 C 298.194 131.550,298.242 143.475,298.300 128.900 C 298.358 114.325,298.358 90.475,298.300 75.900 C 298.242 61.325,298.194 73.250,298.194 102.400 M164.500 68.700 C 184.025 68.757,215.975 68.757,235.500 68.700 C 255.025 68.643,239.050 68.596,200.000 68.596 C 160.950 68.596,144.975 68.643,164.500 68.700 M273.600 69.643 C 273.600 69.886,273.848 69.990,274.151 69.874 C 274.454 69.758,274.915 69.873,275.175 70.131 C 275.537 70.491,275.585 70.437,275.381 69.900 C 275.091 69.138,273.600 68.923,273.600 69.643 M278.353 73.767 C 278.540 74.005,278.793 74.470,278.915 74.800 C 279.047 75.158,279.150 74.983,279.168 74.367 C 279.189 73.706,278.986 73.333,278.606 73.333 C 278.238 73.333,278.141 73.498,278.353 73.767 M207.600 120.600 C 207.600 139.630,207.645 155.241,207.700 155.292 C 207.980 155.549,262.400 155.756,262.400 155.500 C 262.400 155.335,250.250 155.200,235.400 155.200 L 208.400 155.200 208.400 120.600 C 208.400 97.800,208.264 86.000,208.000 86.000 C 207.736 86.000,207.600 97.800,207.600 120.600 M27.270 155.500 C 37.978 155.559,55.618 155.559,66.470 155.500 C 77.321 155.441,68.560 155.392,47.000 155.392 C 25.440 155.392,16.561 155.441,27.270 155.500 M102.400 155.500 C 102.400 155.665,106.613 155.800,111.762 155.800 C 116.911 155.800,121.040 155.665,120.938 155.500 C 120.836 155.335,116.623 155.200,111.576 155.200 C 106.529 155.200,102.400 155.335,102.400 155.500 M137.600 155.500 C 137.600 155.772,157.302 155.768,182.200 155.492 C 187.480 155.433,179.605 155.343,164.700 155.293 C 149.795 155.242,137.600 155.335,137.600 155.500 M279.062 155.500 C 278.960 155.665,283.089 155.800,288.238 155.800 C 293.387 155.800,297.600 155.665,297.600 155.500 C 297.600 155.335,293.471 155.200,288.424 155.200 C 283.377 155.200,279.164 155.335,279.062 155.500 M333.270 155.500 C 343.978 155.559,361.618 155.559,372.470 155.500 C 383.321 155.441,374.560 155.392,353.000 155.392 C 331.440 155.392,322.561 155.441,333.270 155.500 M1.218 158.366 C 0.909 158.944,0.903 159.200,1.198 159.200 C 1.683 159.200,2.212 158.078,1.882 157.748 C 1.762 157.629,1.464 157.907,1.218 158.366 M397.462 158.217 C 397.592 158.557,397.795 158.738,397.913 158.621 C 398.030 158.503,398.413 158.627,398.763 158.897 C 399.153 159.197,399.105 159.040,398.638 158.493 C 397.760 157.464,397.115 157.313,397.462 158.217 M399.334 160.627 C 399.202 160.972,399.299 161.459,399.549 161.709 C 399.890 162.050,399.982 161.892,399.915 161.082 C 399.813 159.844,399.676 159.737,399.334 160.627 M399.093 167.966 C 398.973 168.425,399.027 168.800,399.214 168.800 C 399.759 168.800,399.973 168.204,399.629 167.647 C 399.397 167.272,399.252 167.358,399.093 167.966 M1.506 169.515 C 1.223 170.597,2.208 171.552,2.897 170.863 C 3.248 170.512,3.240 170.400,2.867 170.400 C 2.596 170.400,2.229 170.008,2.052 169.529 L 1.730 168.659 1.506 169.515 M395.478 171.456 C 395.171 171.762,395.511 172.400,395.981 172.400 C 396.164 172.400,396.418 172.130,396.545 171.800 C 396.773 171.205,395.983 170.950,395.478 171.456 M388.800 172.412 L 386.200 172.686 389.086 172.683 C 390.674 172.681,391.878 172.527,391.763 172.340 C 391.647 172.153,391.518 172.031,391.476 172.069 C 391.434 172.107,390.230 172.261,388.800 172.412 M392.845 172.546 C 392.485 172.979,392.571 173.082,393.263 173.046 C 393.742 173.021,394.209 172.775,394.300 172.500 C 394.524 171.827,393.413 171.862,392.845 172.546 M5.836 172.858 C 5.935 173.018,6.360 173.123,6.780 173.092 C 7.201 173.060,7.464 172.903,7.364 172.742 C 7.265 172.582,6.840 172.477,6.420 172.508 C 5.999 172.540,5.736 172.697,5.836 172.858 M9.900 172.689 C 10.615 172.778,11.785 172.778,12.500 172.689 C 13.215 172.601,12.630 172.528,11.200 172.528 C 9.770 172.528,9.185 172.601,9.900 172.689 M31.299 246.300 L 31.398 320.200 31.500 246.508 L 31.602 172.816 40.301 172.700 L 49.000 172.584 40.100 172.492 L 31.200 172.400 31.299 246.300 M71.523 172.699 C 74.231 172.768,78.551 172.768,81.123 172.699 C 83.695 172.629,81.480 172.572,76.200 172.573 C 70.920 172.573,68.815 172.630,71.523 172.699 M107.323 172.699 C 109.920 172.769,114.060 172.768,116.523 172.698 C 118.985 172.628,116.860 172.571,111.800 172.572 C 106.740 172.572,104.725 172.629,107.323 172.699 M142.523 172.699 C 145.120 172.769,149.260 172.768,151.723 172.698 C 154.185 172.628,152.060 172.571,147.000 172.572 C 141.940 172.572,139.925 172.629,142.523 172.699 M172.985 172.900 C 172.880 173.175,172.841 206.520,172.898 247.000 L 173.002 320.600 173.101 246.708 L 173.200 172.815 182.300 172.700 L 191.400 172.584 182.287 172.492 C 175.296 172.421,173.131 172.516,172.985 172.900 M208.087 172.873 C 207.454 173.506,207.367 320.000,208.000 320.000 C 208.265 320.000,208.400 295.200,208.400 246.400 L 208.400 172.800 217.599 172.800 L 226.798 172.800 226.901 246.700 L 227.003 320.600 227.002 246.600 L 227.000 172.600 217.787 172.493 C 210.958 172.413,208.448 172.512,208.087 172.873 M248.523 172.699 C 251.120 172.769,255.260 172.768,257.723 172.698 C 260.185 172.628,258.060 172.571,253.000 172.572 C 247.940 172.572,245.925 172.629,248.523 172.699 M283.723 172.699 C 286.320 172.769,290.460 172.768,292.923 172.698 C 295.385 172.628,293.260 172.571,288.200 172.572 C 283.140 172.572,281.125 172.629,283.723 172.699 M323.600 172.781 L 332.600 173.000 332.801 246.600 L 333.001 320.200 333.201 246.339 L 333.400 172.477 324.000 172.519 L 314.600 172.561 323.600 172.781 M359.300 172.700 L 368.400 172.815 368.400 221.831 C 368.400 248.790,368.535 270.764,368.700 270.662 C 368.865 270.560,368.954 248.409,368.897 221.438 L 368.794 172.400 359.497 172.492 L 350.200 172.584 359.300 172.700 M65.600 246.600 C 65.600 311.578,65.669 320.000,66.200 320.000 C 66.731 320.000,66.800 311.578,66.800 246.600 C 66.800 181.622,66.731 173.200,66.200 173.200 C 65.669 173.200,65.600 181.622,65.600 246.600 M101.697 246.476 C 101.644 286.888,101.735 320.036,101.900 320.138 C 102.171 320.306,102.170 270.357,101.897 199.600 C 101.840 184.970,101.751 206.064,101.697 246.476 M298.000 246.680 C 297.890 287.204,297.935 320.225,298.101 320.059 C 298.267 319.893,298.357 286.737,298.301 246.379 L 298.200 173.000 298.000 246.680 M385.646 271.200 C 385.690 271.530,385.586 272.123,385.414 272.517 C 384.942 273.600,385.342 273.682,385.850 272.606 C 386.121 272.031,386.152 271.465,385.929 271.136 C 385.638 270.705,385.582 270.718,385.646 271.200 M369.450 273.919 C 369.342 274.095,369.398 274.474,369.576 274.762 C 369.804 275.129,369.981 275.154,370.174 274.843 C 370.324 274.599,370.212 274.397,369.924 274.394 C 369.543 274.389,369.564 274.282,370.000 274.000 C 370.361 273.767,370.410 273.610,370.124 273.606 C 369.862 273.603,369.558 273.744,369.450 273.919 M372.060 289.442 C 371.248 290.359,371.671 290.436,372.744 289.566 C 373.283 289.129,373.455 288.807,373.144 288.815 C 372.845 288.824,372.357 289.105,372.060 289.442 M384.156 291.700 C 384.202 291.975,384.535 292.740,384.895 293.400 C 385.617 294.723,385.726 293.471,385.026 291.900 C 384.669 291.098,384.028 290.951,384.156 291.700 M368.656 294.278 C 368.219 294.714,368.373 295.067,369.000 295.067 C 369.330 295.067,369.600 294.927,369.600 294.757 C 369.600 294.306,368.955 293.979,368.656 294.278 M368.432 299.100 C 368.468 302.696,368.655 302.543,368.921 298.700 C 369.024 297.215,368.949 296.000,368.754 296.000 C 368.559 296.000,368.414 297.395,368.432 299.100 M384.112 305.786 C 383.728 306.222,383.728 306.376,384.111 306.504 C 384.400 306.600,384.233 306.861,383.699 307.147 C 383.205 307.412,382.800 307.806,382.800 308.023 C 382.800 308.241,383.253 308.122,383.806 307.759 C 384.359 307.397,384.764 306.808,384.706 306.450 C 384.647 306.085,384.833 305.848,385.130 305.910 C 385.421 305.970,385.545 305.835,385.406 305.610 C 385.069 305.064,384.702 305.114,384.112 305.786 M16.500 337.065 C 15.868 337.320,15.770 350.400,16.400 350.400 C 16.651 350.400,16.800 347.933,16.800 343.800 L 16.800 337.200 200.000 337.200 L 383.200 337.200 383.200 343.800 C 383.200 347.933,383.349 350.400,383.600 350.400 C 384.345 350.400,384.117 337.331,383.367 337.043 C 382.610 336.752,17.220 336.774,16.500 337.065 " stroke="none" fill="#d0843c" fill-rule="evenodd"></path></g></svg>